<svg width="212" height="158" viewBox="0 0 212 158" fill="none" xmlns="http://www.w3.org/2000/svg">
    <defs>
        <linearGradient id="paint0_linear_2858_37999" x1="100.752" y1="44.0586" x2="100.752" y2="75.7056" gradientUnits="userSpaceOnUse">
            <stop stop-color="#FF7833"/>
            <stop offset="1" stop-color="#F99E3F"/>
        </linearGradient>
        <clipPath id="clip0_2858_37999">
            <rect width="212" height="158" fill="white"/>
        </clipPath>
    </defs>
<g clip-path="url(#clip0_2858_37999)">
<path d="M154.802 150.124H150.584L148.576 133.9H154.802V150.124Z" fill="#FFB6B6"/>
<path d="M157.029 157.412H154.003L153.464 154.564L152.081 157.412H144.058C143.673 157.412 143.298 157.289 142.989 157.062C142.679 156.835 142.45 156.515 142.336 156.148C142.221 155.782 142.227 155.389 142.352 155.027C142.478 154.664 142.716 154.351 143.033 154.133L149.44 149.721V146.842L156.179 147.243L157.029 157.412Z" fill="#2F2E41"/>
<path d="M179.862 144.816L176.477 147.326L165.157 135.501L170.153 131.797L179.862 144.816Z" fill="#FFB6B6"/>
<path d="M186.01 149.339L183.583 151.139L181.445 149.175L182.04 152.283L175.601 157.057C175.293 157.286 174.919 157.41 174.534 157.412C174.15 157.414 173.775 157.294 173.464 157.068C173.153 156.842 172.922 156.523 172.806 156.158C172.69 155.792 172.694 155.399 172.817 155.036L175.318 147.683L173.595 145.373L179.243 141.685L186.01 149.339Z" fill="#2F2E41"/>
<path d="M159.713 66.416C159.713 66.416 167.716 73.311 164.024 92.9669L159.516 112.226L174.218 136.548L169.53 142.235L150.417 115.909L143.49 99.7088L141.547 70.8748L159.713 66.416Z" fill="#2F2E41"/>
<path d="M147.308 104.326L146.826 111.76L148.299 143.44L155.231 142.236L156.556 119.681L147.308 104.326Z" fill="#2F2E41"/>
<path d="M58.3491 153.939L62.1215 153.938L63.9158 139.43L58.3486 139.43L58.3491 153.939Z" fill="#FFB6B6"/>
<path d="M57.3877 152.71L58.4495 152.71L62.5948 151.029L64.8166 152.71H64.8169C66.0725 152.71 67.2766 153.208 68.1644 154.093C69.0523 154.978 69.5511 156.179 69.5512 157.431V157.584L57.3879 157.585L57.3877 152.71Z" fill="#2F2E41"/>
<path d="M72.9678 151.568L76.6472 152.396L81.6028 138.638L76.1722 137.415L72.9678 151.568Z" fill="#FFB6B6"/>
<path d="M72.3002 150.159L73.3359 150.392L77.7507 149.663L79.5466 151.791L79.547 151.791C80.7717 152.067 81.8363 152.816 82.5068 153.875C83.1773 154.933 83.3986 156.214 83.1221 157.435L83.0882 157.585L71.2236 154.914L72.3002 150.159Z" fill="#2F2E41"/>
<path d="M53.5719 65.2393C51.8033 70.5582 51.9902 76.3318 53.997 82.5285L54.8548 117.417C54.8548 117.417 53.5767 140.297 57.7009 148.348H63.6822L66.6437 115.328L67.0155 93.1647L79.8388 111.863L71.6713 147.808L79.0329 148.464L92.2866 109.455L75.9341 71.6104L53.5719 65.2393Z" fill="#2F2E41"/>
<path d="M122.55 50.0881C127.125 45.9772 133.929 43.9101 139.638 46.2153C133.782 49.4569 129.266 54.6592 126.887 60.9018C125.978 63.3127 125.219 66.0885 122.984 67.3792C121.593 68.1823 119.863 68.2215 118.304 67.8339C116.744 67.4461 115.315 66.6689 113.905 65.8994L113.504 65.8904C115.305 60.0178 117.975 54.1991 122.55 50.0881Z" fill="#E6E6E6"/>
<path d="M139.606 46.3403C134.55 46.9918 129.829 49.2151 126.113 52.6944C125.3 53.4293 124.608 54.2874 124.063 55.2372C123.561 56.1795 123.322 57.2384 123.37 58.304C123.395 59.2985 123.536 60.3129 123.317 61.296C123.198 61.7976 122.974 62.2684 122.66 62.6775C122.345 63.0867 121.948 63.425 121.493 63.6701C120.376 64.3104 119.095 64.5123 117.835 64.6662C116.436 64.8372 114.981 64.9927 113.77 65.775C113.623 65.8698 113.484 65.6373 113.631 65.5426C115.737 64.1815 118.403 64.6768 120.668 63.7684C121.725 63.3445 122.66 62.6004 122.991 61.4755C123.281 60.4917 123.136 59.4456 123.103 58.4389C123.041 57.4 123.235 56.3618 123.668 55.415C124.163 54.4406 124.82 53.5573 125.613 52.803C127.369 51.0764 129.387 49.636 131.592 48.5344C134.102 47.2633 136.812 46.4297 139.603 46.0697C139.776 46.0474 139.778 46.3183 139.606 46.3403H139.606Z" fill="white"/>
<path d="M127.243 51.5043C126.743 50.8033 126.508 49.9477 126.582 49.0901C126.655 48.2326 127.032 47.4291 127.645 46.823C127.769 46.7008 127.965 46.8878 127.841 47.0102C127.269 47.5735 126.918 48.3221 126.851 49.1207C126.785 49.9194 127.006 50.7156 127.477 51.3655C127.579 51.5069 127.345 51.6448 127.243 51.5043V51.5043Z" fill="white"/>
<path d="M123.291 57.802C125.028 58.1089 126.818 57.7516 128.302 56.8014C128.449 56.7071 128.588 56.9396 128.442 57.0338C126.895 58.0197 125.032 58.3878 123.224 58.0644C123.052 58.0335 123.12 57.7712 123.291 57.802V57.802Z" fill="white"/>
<path d="M134.124 47.6214C134.261 47.9328 134.473 48.2055 134.742 48.4148C135.011 48.6242 135.328 48.7636 135.664 48.8207C135.837 48.8495 135.769 49.1117 135.598 49.0831C135.226 49.0184 134.877 48.8639 134.579 48.6333C134.282 48.4027 134.045 48.1029 133.891 47.7601C133.873 47.729 133.869 47.6925 133.877 47.6581C133.886 47.6236 133.908 47.5937 133.938 47.5746C133.969 47.5563 134.005 47.551 134.04 47.5598C134.075 47.5686 134.105 47.5907 134.124 47.6214Z" fill="white"/>
<path d="M145.923 66.0407C145.815 66.0258 145.706 66.0109 145.597 65.9977C144.14 65.8049 142.671 65.7305 141.202 65.7751C141.089 65.7767 140.974 65.7801 140.86 65.785C137.324 65.93 133.845 66.7285 130.601 68.1399C129.31 68.7027 128.064 69.3626 126.874 70.1138C125.231 71.1514 123.532 72.4069 121.695 72.83C121.504 72.8763 121.31 72.9108 121.114 72.9332L113.524 66.3794C113.514 66.3559 113.503 66.334 113.493 66.3104L113.178 66.0625C113.236 66.0195 113.298 65.9761 113.357 65.9331C113.391 65.908 113.426 65.8844 113.46 65.8593C113.483 65.843 113.507 65.8268 113.527 65.8108C113.534 65.8054 113.542 65.8 113.548 65.7963C113.568 65.7803 113.588 65.7675 113.607 65.7533C113.952 65.5099 114.298 65.2686 114.648 65.0293C114.649 65.0275 114.649 65.0275 114.652 65.0273C117.296 63.1781 120.15 61.6482 123.155 60.4696C123.245 60.4356 123.337 60.3999 123.431 60.3689C124.784 59.8672 126.176 59.4765 127.593 59.2009C128.37 59.0525 129.153 58.9434 129.941 58.874C131.976 58.6985 134.026 58.8433 136.016 59.3032C139.983 60.2204 143.612 62.3926 145.761 65.7803C145.816 65.867 145.869 65.9523 145.923 66.0407Z" fill="#E6E6E6"/>
<path d="M145.823 66.1222C141.393 63.6072 136.281 62.548 131.213 63.0951C130.12 63.1935 129.049 63.4632 128.041 63.8941C127.071 64.3455 126.241 65.0475 125.636 65.9272C125.055 66.736 124.555 67.6304 123.787 68.2845C123.389 68.6134 122.926 68.8548 122.428 68.9927C121.93 69.1306 121.408 69.162 120.897 69.0847C119.619 68.9253 118.474 68.3173 117.375 67.6839C116.155 66.9806 114.899 66.2309 113.46 66.1286C113.285 66.1163 113.315 65.8472 113.489 65.8596C115.993 66.0375 117.822 68.0333 120.179 68.6678C121.279 68.9639 122.475 68.9313 123.418 68.2318C124.244 67.6202 124.76 66.6983 125.341 65.8742C125.919 65.0075 126.7 64.295 127.618 63.799C128.601 63.3182 129.66 63.0079 130.748 62.8813C133.193 62.5572 135.674 62.6186 138.1 63.063C140.871 63.5549 143.538 64.516 145.984 65.9045C146.136 65.9906 145.973 66.2076 145.823 66.1222L145.823 66.1222Z" fill="white"/>
<path d="M132.834 62.8235C132.857 61.9632 133.187 61.1391 133.763 60.4986C134.34 59.858 135.126 59.4426 135.981 59.3266C136.154 59.3037 136.198 59.5709 136.024 59.5938C135.228 59.7004 134.496 60.0874 133.96 60.685C133.425 61.2826 133.121 62.0514 133.104 62.8526C133.1 63.0267 132.83 62.9966 132.834 62.8235Z" fill="white"/>
<path d="M125.876 65.4788C127.078 66.7669 128.723 67.5559 130.482 67.6887C130.656 67.7017 130.627 67.9707 130.453 67.9577C128.622 67.8162 126.913 66.9916 125.665 65.6485C125.546 65.5204 125.758 65.3514 125.876 65.4788Z" fill="white"/>
<path d="M140.672 63.8546C140.593 64.1856 140.598 64.5309 140.687 64.8594C140.775 65.188 140.944 65.4895 141.178 65.737C141.298 65.8635 141.086 66.0324 140.966 65.9067C140.709 65.6321 140.523 65.2988 140.425 64.936C140.326 64.5732 140.319 64.1919 140.402 63.8255C140.407 63.7903 140.425 63.7583 140.453 63.736C140.481 63.7137 140.516 63.7028 140.552 63.7055C140.587 63.7095 140.62 63.7274 140.643 63.7554C140.665 63.7833 140.676 63.8189 140.672 63.8546Z" fill="white"/>
<path d="M12.5998 153.675C12.2435 155.008 11.3072 156.118 10.1768 156.927C9.99254 157.059 9.80333 157.182 9.61165 157.297C9.55267 157.331 9.49369 157.368 9.43226 157.4C9.36591 157.439 9.29956 157.476 9.23321 157.51H3.91787C3.82203 157.316 3.72865 157.12 3.63527 156.927C1.35727 152.153 -0.242491 147.002 0.030279 141.756C0.138497 139.721 0.567233 137.716 1.30075 135.814C2.76044 132.023 5.42425 128.742 9.08823 127.09C9.17915 127.049 9.27499 127.007 9.36837 126.968C9.33888 127.073 9.30939 127.176 9.2799 127.281C8.88682 128.693 8.60905 130.135 8.4493 131.592C8.43456 131.704 8.42227 131.817 8.41244 131.932C8.06333 135.446 8.37333 138.993 9.32659 142.393C9.32905 142.401 9.3315 142.41 9.33397 142.418C9.54285 143.17 9.78531 143.911 10.0614 144.64C10.2776 145.216 10.5111 145.785 10.7666 146.343C11.8331 148.688 13.2633 151.188 12.5998 153.675Z" fill="#E6E6E6"/>
<path d="M9.43462 127.078C9.38302 127.146 9.3314 127.213 9.27981 127.281C8.20048 128.708 7.28394 130.249 6.54719 131.878C6.50787 131.959 6.47101 132.04 6.43906 132.123C5.42956 134.398 4.78124 136.815 4.51738 139.288C4.51452 139.305 4.51288 139.323 4.51247 139.34C4.45103 139.918 4.41417 140.501 4.39943 141.085C4.34478 142.178 4.46337 143.273 4.75083 144.329C5.01294 145.191 5.47224 145.982 6.09257 146.637C6.154 146.703 6.21544 146.769 6.28179 146.833C6.33094 146.885 6.385 146.936 6.4366 146.985C6.933 147.458 7.47608 147.897 7.94298 148.404C8.15699 148.631 8.35025 148.877 8.52047 149.139C8.79214 149.578 8.96763 150.069 9.0354 150.58C9.10316 151.091 9.06167 151.61 8.91365 152.104C8.57945 153.344 7.8152 154.39 7.03375 155.388C6.64302 155.888 6.24001 156.392 5.89106 156.927C5.76329 157.118 5.64532 157.311 5.53721 157.51H5.22758C5.33079 157.311 5.44383 157.118 5.5667 156.927C6.46365 155.518 7.73904 154.307 8.40007 152.756C8.84732 151.71 8.98248 150.524 8.41728 149.497C8.25163 149.198 8.05119 148.92 7.82013 148.669C7.37043 148.161 6.83226 147.728 6.34324 147.269C6.22037 147.154 6.09996 147.037 5.98446 146.914C5.37213 146.294 4.89961 145.55 4.59849 144.733C4.25747 143.696 4.09626 142.607 4.12175 141.516C4.12175 140.82 4.15862 140.119 4.22742 139.423C4.2348 139.335 4.24463 139.244 4.25446 139.154C4.757 134.774 6.42599 130.609 9.08814 127.09C9.13729 127.022 9.1889 126.955 9.2405 126.889C9.34616 126.752 9.54029 126.943 9.43462 127.078Z" fill="white"/>
<path d="M4.35332 139.446C3.50216 139.304 2.72952 138.864 2.17341 138.206C1.61729 137.548 1.3139 136.714 1.31741 135.853C1.31788 135.818 1.332 135.785 1.35678 135.76C1.38156 135.735 1.41508 135.721 1.45026 135.72C1.48545 135.719 1.51957 135.732 1.54542 135.756C1.57127 135.78 1.58684 135.812 1.58885 135.847C1.58409 136.649 1.86677 137.426 2.38589 138.037C2.905 138.649 3.62634 139.056 4.41972 139.184C4.5921 139.212 4.52472 139.474 4.35332 139.446V139.446Z" fill="white"/>
<path d="M6.02499 146.686C7.47107 145.678 8.48304 144.164 8.85913 142.445C8.89625 142.275 9.15939 142.341 9.12232 142.511C8.72761 144.299 7.67128 145.873 6.16414 146.919C6.02042 147.018 5.88205 146.785 6.02499 146.686L6.02499 146.686Z" fill="white"/>
<path d="M6.46588 131.85C6.78369 131.974 7.1273 132.017 7.46587 131.975C7.80443 131.933 8.12735 131.809 8.40561 131.612C8.54799 131.511 8.68621 131.744 8.54475 131.844C8.2363 132.06 7.87951 132.198 7.50555 132.244C7.13159 132.291 6.75184 132.246 6.39948 132.112C6.36521 132.103 6.33596 132.08 6.31769 132.05C6.29941 132.019 6.29348 131.983 6.30109 131.948C6.31005 131.913 6.33239 131.884 6.36325 131.865C6.39411 131.847 6.43099 131.841 6.46588 131.85Z" fill="white"/>
<path d="M27.8697 136.554C27.7837 136.62 27.6952 136.686 27.6092 136.755C26.4425 137.645 25.3503 138.629 24.3434 139.696C24.2647 139.776 24.1861 139.86 24.1099 139.943L24.1074 139.945C21.7198 142.53 19.832 145.532 18.539 148.801L18.5316 148.823C18.5292 148.831 18.5267 148.836 18.5242 148.843C18.0118 150.151 17.5986 151.496 17.2882 152.867C16.9884 154.204 16.7426 155.638 16.2733 156.927C16.202 157.125 16.1234 157.321 16.0398 157.51H5.11426C5.15112 157.317 5.19044 157.12 5.22976 156.927C5.78553 154.088 6.65416 151.318 7.81985 148.669C7.85916 148.581 7.89848 148.493 7.94271 148.404C8.54449 147.095 9.25209 145.837 10.0585 144.643C10.0585 144.643 10.0586 144.642 10.0587 144.642C10.0588 144.642 10.059 144.641 10.0592 144.641C10.0595 144.641 10.0597 144.641 10.06 144.641C10.0603 144.641 10.0607 144.64 10.061 144.64C10.5038 143.989 10.9795 143.36 11.4863 142.756C12.8005 141.197 14.353 139.854 16.0865 138.777C16.0963 138.769 16.1086 138.764 16.1185 138.757C19.5686 136.623 23.6577 135.606 27.5674 136.485H27.5699C27.6707 136.508 27.769 136.53 27.8697 136.554Z" fill="#E6E6E6"/>
<path d="M27.8577 136.684C27.7742 136.706 27.6906 136.73 27.6095 136.755C25.8873 137.245 24.225 137.925 22.653 138.781C22.5743 138.823 22.4957 138.867 22.4171 138.911C20.2446 140.12 18.2727 141.657 16.5709 143.466C16.5696 143.468 16.5687 143.469 16.5685 143.471C16.5488 143.491 16.5267 143.513 16.5095 143.533C16.1163 143.954 15.7379 144.393 15.3791 144.844C14.6773 145.684 14.1118 146.629 13.7032 147.644C13.3909 148.49 13.2807 149.397 13.3812 150.293C13.3886 150.384 13.4009 150.472 13.4132 150.563C13.423 150.634 13.4328 150.705 13.4451 150.778C13.6073 151.761 13.8875 152.746 13.8088 153.748C13.761 154.262 13.6046 154.76 13.3501 155.208C13.0955 155.657 12.7485 156.048 12.3319 156.353C12.0487 156.572 11.746 156.763 11.4276 156.927C10.9724 157.161 10.498 157.356 10.0097 157.51H9.04395C9.17419 157.473 9.30197 157.436 9.43221 157.4C9.89439 157.269 10.3482 157.112 10.7912 156.927C11.0442 156.821 11.2904 156.7 11.5284 156.564C12.5162 155.998 13.3395 155.13 13.5115 153.971C13.6614 152.957 13.3714 151.942 13.1994 150.95C13.1699 150.778 13.1429 150.609 13.1281 150.44C13.0108 149.581 13.0821 148.706 13.337 147.877C13.6906 146.843 14.2192 145.876 14.8999 145.02C15.321 144.462 15.7705 143.927 16.2466 143.415C16.3055 143.349 16.367 143.283 16.4309 143.216C18.1684 141.394 20.1746 139.846 22.3802 138.627H22.3827C24.0227 137.716 25.7625 136.998 27.5678 136.485H27.5702C27.6513 136.461 27.7349 136.436 27.816 136.414C27.9855 136.37 28.0248 136.637 27.8577 136.684Z" fill="white"/>
<path d="M16.3339 143.508C15.7403 142.883 15.3889 142.068 15.3422 141.208C15.2956 140.349 15.5568 139.501 16.0793 138.816C16.1854 138.678 16.4059 138.836 16.2996 138.974C15.8119 139.611 15.5686 140.401 15.6137 141.201C15.6588 142.002 15.9892 142.759 16.5453 143.338C16.6661 143.464 16.4539 143.633 16.3339 143.508H16.3339Z" fill="white"/>
<path d="M13.2958 150.292C15.0589 150.355 16.7813 149.754 18.1194 148.607C18.2519 148.493 18.4219 148.704 18.2896 148.818C16.8949 150.008 15.1012 150.631 13.2665 150.561C13.0917 150.554 13.1218 150.285 13.2958 150.292Z" fill="white"/>
<path d="M22.6069 138.71C22.786 139 23.0345 139.24 23.3299 139.411C23.6253 139.581 23.9584 139.675 24.2994 139.685C24.4743 139.689 24.4439 139.958 24.2702 139.954C23.8935 139.941 23.5257 139.837 23.1989 139.649C22.8721 139.462 22.5962 139.198 22.3954 138.88C22.374 138.852 22.3642 138.816 22.368 138.781C22.3718 138.745 22.389 138.713 22.4161 138.69C22.4442 138.667 22.48 138.657 22.5157 138.661C22.5515 138.665 22.5842 138.683 22.6069 138.71Z" fill="white"/>
<path d="M112.151 42.4243C111.899 42.7551 111.577 43.0267 111.208 43.22C110.839 43.4134 110.432 43.5237 110.016 43.5433C109.6 43.5628 109.184 43.4912 108.799 43.3333C108.413 43.1754 108.067 42.9352 107.785 42.6295L98.4961 46.658L99.4009 41.4872L108.083 38.4544C108.63 38.0156 109.318 37.7918 110.019 37.8256C110.72 37.8594 111.384 38.1483 111.885 38.6376C112.387 39.127 112.691 39.7827 112.74 40.4806C112.789 41.1785 112.579 41.8701 112.151 42.4243Z" fill="#FFB8B8"/>
<path d="M105.953 44.0382L84.3772 53.6214L84.3309 53.6049L59.7405 44.8669C57.9089 43.9124 56.5124 42.2957 55.8371 40.348C55.1619 38.4002 55.2588 36.2687 56.1081 34.3899C56.5789 33.3519 57.2648 32.425 58.1207 31.6704C58.9766 30.9157 59.983 30.3504 61.0739 30.0115C62.1647 29.6727 63.3151 29.5681 64.4493 29.7046C65.5836 29.8411 66.676 30.2155 67.6547 30.8034L85.9545 41.7958L103.7 39.5025L105.953 44.0382Z" fill="#E6E6E6"/>
<path d="M212 157.709C212 157.747 211.992 157.785 211.978 157.82C211.963 157.856 211.941 157.888 211.914 157.915C211.887 157.942 211.855 157.964 211.819 157.978C211.784 157.993 211.746 158 211.707 158H0.300239C0.222682 158 0.148304 157.969 0.0934628 157.915C0.0386216 157.86 0.0078125 157.786 0.0078125 157.709C0.0078125 157.631 0.0386216 157.557 0.0934628 157.502C0.148304 157.448 0.222682 157.417 0.300239 157.417H211.707C211.746 157.417 211.784 157.424 211.819 157.439C211.855 157.454 211.887 157.475 211.914 157.502C211.941 157.529 211.963 157.561 211.978 157.597C211.992 157.632 212 157.67 212 157.709Z" fill="#CCCCCC"/>
<path d="M77.0007 72.7274L55.2513 69.2584C54.6809 69.0763 54.1568 68.7732 53.7149 68.3699C53.273 67.9667 52.9239 67.4729 52.6915 66.9224C52.4591 66.372 52.3489 65.7779 52.3684 65.1809C52.388 64.584 52.5369 63.9983 52.8048 63.4642L53.7911 61.4969L53.408 40.8284C53.3618 38.1399 54.0265 35.4867 55.3352 33.1357C56.6438 30.7847 58.5503 28.8188 60.8629 27.4359L62.9838 26.1713L64.0557 23.457L73.9394 23.6974L73.9682 27.2572L77.5077 32.8854L77.5076 32.9088L77.2855 63.5424L76.31 66.7038L77.785 70.3809L77.0007 72.7274Z" fill="#E6E6E6"/>
<path d="M69.9032 20.0826C74.8629 20.0826 78.8835 16.0734 78.8835 11.1277C78.8835 6.18208 74.8629 2.17285 69.9032 2.17285C64.9435 2.17285 60.9229 6.18208 60.9229 11.1277C60.9229 16.0734 64.9435 20.0826 69.9032 20.0826Z" fill="#FFB8B8"/>
<path d="M60.5511 13.0796C60.2833 11.9544 60.4062 10.3711 60.5576 9.23811C60.9544 6.26788 62.6086 3.44414 65.1218 1.77155C65.5983 1.41064 66.1646 1.18625 66.7595 1.12256C67.3541 1.09781 67.9985 1.41518 68.1811 1.97996C68.3308 1.60721 68.5556 1.26902 68.8416 0.986262C69.1275 0.703508 69.4685 0.482191 69.8436 0.335973C70.597 0.0481356 71.4073 -0.0607177 72.2103 0.0180417C73.7666 0.145964 75.2592 0.691654 76.5296 1.5972C77.8 2.50275 78.8008 3.73437 79.4259 5.16136C79.6658 5.72956 80.3358 3.63077 80.6397 4.16764C80.9189 4.72569 81.4062 5.15257 81.9971 5.35693C82.5926 5.52263 82.8345 7.96917 83.0688 7.39868C83.2506 7.82029 83.3225 8.28092 83.2777 8.73768C83.233 9.19445 83.073 9.63248 82.8127 10.011C82.5525 10.3895 82.2004 10.6962 81.7892 10.9025C81.3781 11.1088 80.9213 11.2079 80.4614 11.1908C79.8553 11.1682 79.2757 10.9459 78.6768 10.8502C76.5352 10.508 74.2634 12.0566 73.8055 14.1706C73.6416 13.5593 73.3797 12.9783 73.03 12.4502C72.8525 12.1875 72.6147 11.9709 72.3363 11.8184C72.0579 11.6659 71.747 11.5818 71.4295 11.5733C70.8202 11.596 70.2846 11.9932 69.8892 12.4561C69.4939 12.919 69.1969 13.4591 68.7987 13.9195C67.6301 15.2704 66.0495 18.4209 64.3841 18.1911C63.0698 18.0098 60.9168 14.616 60.5511 13.0796Z" fill="#2F2E41"/>
<path d="M124.188 52.5719C124.25 52.1637 124.166 51.7464 123.95 51.3941C123.734 51.0419 123.399 50.7773 123.006 50.6474L98.8223 42.6157C98.5904 42.5383 98.3449 42.5102 98.1015 42.5331L92.0399 43.1047L88.5618 43.4337L82.1434 44.0386C81.7558 44.0755 81.3916 44.2397 81.1077 44.5053C80.8238 44.7709 80.6363 45.123 80.5747 45.5063L77.3158 65.805C77.2542 66.201 77.3298 66.606 77.5301 66.9533C77.7305 67.3007 78.0436 67.5695 78.4178 67.7154L102.854 77.1212C102.969 77.1656 103.088 77.1975 103.21 77.2163C103.387 77.2449 103.567 77.2463 103.744 77.2204L119.534 74.8867C119.907 74.833 120.252 74.6609 120.519 74.3961C120.785 74.1313 120.959 73.7878 121.015 73.4167L124.188 52.5719Z" fill="white"/>
<path d="M78.9723 66.2849L103.409 75.6902C103.444 75.7042 103.483 75.7088 103.521 75.7033L119.309 73.37C119.356 73.3636 119.399 73.3421 119.433 73.3089C119.466 73.2757 119.488 73.2324 119.494 73.1858L122.669 52.3408C122.677 52.2899 122.666 52.2381 122.639 52.1942C122.612 52.1503 122.571 52.1171 122.522 52.1003L122.359 52.0454L98.3366 44.0703C98.3256 44.0664 98.3143 44.0637 98.3028 44.0622C98.2842 44.0588 98.2652 44.0578 98.2463 44.0593L83.4616 45.4543L82.2884 45.5641C82.2402 45.5692 82.1951 45.5899 82.1598 45.623C82.1246 45.6561 82.1011 45.6997 82.0931 45.7473L78.8348 66.0453C78.8268 66.0949 78.8361 66.1457 78.8612 66.1893C78.8862 66.2329 78.9254 66.2666 78.9723 66.2849Z" fill="url(#paint0_linear_2858_37999)"/>
<path d="M83.4609 45.4543L98.2457 44.0593C98.2645 44.0578 98.2835 44.0588 98.3022 44.0622C98.3137 44.0637 98.325 44.0664 98.3359 44.0703L122.359 52.0454L116.022 52.7143L113.651 52.9634L106.902 53.6744C106.883 53.6754 106.863 53.6751 106.843 53.6737C106.831 53.67 106.819 53.6664 106.805 53.6626L83.4609 45.4543Z" fill="#2F2E41"/>
<path d="M78.4178 67.7158L102.854 77.1211C102.969 77.1653 103.089 77.1965 103.211 77.2142C103.388 77.2433 103.568 77.2456 103.746 77.2208L119.534 74.8875C119.906 74.8334 120.251 74.6611 120.518 74.3961C120.785 74.1312 120.959 73.7876 121.015 73.4163L124.187 52.571C124.234 52.2637 124.199 51.9495 124.085 51.6603C124.069 51.6219 124.053 51.5834 124.034 51.5472C123.908 51.2831 123.716 51.0555 123.477 50.8861C123.334 50.7831 123.175 50.7024 123.007 50.6468L122.978 50.6367L98.8239 42.6146C98.7252 42.5832 98.6245 42.5588 98.5223 42.5416C98.3827 42.5219 98.2412 42.5191 98.101 42.5334L92.0403 43.1031L88.5625 43.4339L82.143 44.0383C81.8804 44.0627 81.6268 44.1463 81.4012 44.2827C81.3838 44.2911 81.3672 44.301 81.3515 44.3124C81.3403 44.3197 81.3297 44.3277 81.3196 44.3364C81.1226 44.4705 80.9551 44.6431 80.8272 44.8438C80.6994 45.0445 80.6138 45.269 80.5758 45.5037L77.3148 65.8039C77.2532 66.2002 77.3289 66.6055 77.5294 66.9531C77.7299 67.3007 78.0433 67.5697 78.4178 67.7158ZM81.0084 45.5745C81.048 45.3312 81.1562 45.1042 81.3204 44.9199C81.3702 44.8606 81.4258 44.8066 81.4865 44.7585C81.6523 44.6248 81.8483 44.5337 82.0575 44.4929C82.0988 44.4844 82.1406 44.4785 82.1826 44.4753L92.9914 43.4571L98.1432 42.9682C98.1782 42.9642 98.2102 42.9647 98.2425 42.9629C98.3205 42.9613 98.3985 42.9671 98.4754 42.9802C98.5461 42.9893 98.6157 43.0058 98.6829 43.0295L122.866 51.0617C122.885 51.0684 122.901 51.0749 122.921 51.0817C123.14 51.1633 123.334 51.3034 123.479 51.4869C123.594 51.6274 123.678 51.7905 123.726 51.9655C123.773 52.1405 123.783 52.3236 123.755 52.5027L120.579 73.3501C120.538 73.6282 120.408 73.8855 120.208 74.0841C120.009 74.2827 119.75 74.4121 119.472 74.4532L103.681 76.7863C103.455 76.8186 103.225 76.7924 103.012 76.7103L78.5754 67.3074C78.2953 67.1974 78.061 66.9956 77.911 66.7353C77.761 66.475 77.7042 66.1716 77.7499 65.8749L81.0084 45.5745Z" fill="#3F3D56"/>
<path d="M81.2667 44.4477C81.2796 44.4108 81.3023 44.3781 81.3325 44.3531C81.3425 44.3451 81.3531 44.3379 81.3642 44.3315C81.3745 44.3276 81.3849 44.3212 81.3952 44.3172C81.4442 44.2975 81.4988 44.2966 81.5485 44.3146L82.0572 44.4935L106.905 53.234L112.721 52.6213L115.975 52.2791L122.863 51.5519L123.479 51.4875L123.599 51.4743C123.65 51.4696 123.702 51.4831 123.745 51.5123C123.787 51.5415 123.818 51.5848 123.833 51.6345C123.836 51.6459 123.838 51.6577 123.839 51.6695C123.844 51.7167 123.834 51.7643 123.809 51.805C123.785 51.8458 123.748 51.8775 123.704 51.8954C123.684 51.9035 123.664 51.909 123.643 51.9118L122.805 51.9994L116.022 52.7143L113.651 52.9635L106.903 53.6744C106.883 53.6754 106.863 53.6751 106.843 53.6737C106.831 53.6701 106.819 53.6665 106.805 53.6626L81.4862 44.7591L81.4002 44.7288C81.3805 44.7223 81.3622 44.7122 81.3463 44.699C81.308 44.671 81.2796 44.6315 81.2653 44.5864C81.251 44.5412 81.2514 44.4926 81.2667 44.4477Z" fill="#3F3D56"/>
<path d="M103.277 77.2785C103.22 77.2694 103.168 77.2381 103.134 77.1915C103.1 77.1449 103.086 77.0867 103.094 77.0296L106.662 53.4237C106.67 53.3662 106.702 53.3146 106.748 53.2801C106.795 53.2456 106.854 53.2311 106.912 53.2397L106.914 53.2401C106.971 53.2492 107.022 53.2805 107.056 53.3271C107.09 53.3737 107.105 53.4319 107.096 53.489L103.529 77.0949C103.52 77.1524 103.489 77.204 103.442 77.2385C103.395 77.273 103.336 77.2875 103.279 77.2789L103.277 77.2785Z" fill="#3F3D56"/>
<path d="M112.32 75.781L109.947 76.0307L112.722 52.6206C112.722 52.6206 115.891 52.0485 115.976 52.2779C116.028 52.4149 112.342 75.6308 112.32 75.781Z" fill="#3F3D56"/>
<path d="M81.4008 44.7285L81.3369 55.4043L100.29 62.6056L107.096 53.489L81.4008 44.7285Z" fill="#3F3D56"/>
<path d="M123.48 51.488C123.322 51.2894 123.108 51.1415 122.866 51.0624L98.6842 43.0305C98.6163 43.0077 98.5466 42.9908 98.4758 42.9799C98.3987 42.9667 98.3204 42.9608 98.2422 42.9624L98.2814 42.7181L98.5235 42.5433L104.266 38.3975L123.444 44.2581L123.477 50.8869L123.48 51.488Z" fill="#3F3D56"/>
<path d="M82.3673 61.8669C82.3945 61.8695 82.4214 61.8751 82.4474 61.8836L89.8671 64.3137C89.96 64.3441 90.037 64.41 90.0811 64.497C90.1252 64.584 90.1329 64.6849 90.1024 64.7776C90.0719 64.8702 90.0058 64.947 89.9186 64.991C89.8313 65.035 89.7301 65.0426 89.6372 65.0122L82.2175 62.5822C82.1313 62.5539 82.0586 62.4951 82.0133 62.4168C81.9679 62.3385 81.9531 62.2463 81.9717 62.1577C81.9902 62.0692 82.0408 61.9907 82.1137 61.937C82.1867 61.8833 82.277 61.8584 82.3672 61.8669H82.3673Z" fill="white"/>
<path d="M112.303 106.652C113.932 106.652 115.252 105.335 115.252 103.711C115.252 102.087 113.932 100.771 112.303 100.771C110.675 100.771 109.354 102.087 109.354 103.711C109.354 105.335 110.675 106.652 112.303 106.652Z" fill="#F2F2F2"/>
<path d="M37.1071 117.433C38.7357 117.433 40.0559 116.116 40.0559 114.492C40.0559 112.868 38.7357 111.552 37.1071 111.552C35.4785 111.552 34.1582 112.868 34.1582 114.492C34.1582 116.116 35.4785 117.433 37.1071 117.433Z" fill="#F2F2F2"/>
<path d="M98.5426 20.1515C100.171 20.1515 101.491 18.835 101.491 17.211C101.491 15.587 100.171 14.2705 98.5426 14.2705C96.914 14.2705 95.5938 15.587 95.5938 17.211C95.5938 18.835 96.914 20.1515 98.5426 20.1515Z" fill="#F2F2F2"/>
<path d="M103.381 66.1916C102.999 66.3572 102.585 66.4372 102.168 66.426C101.752 66.4148 101.343 66.3126 100.97 66.1267C100.597 65.9408 100.27 65.6757 100.011 65.35C99.7522 65.0244 99.5681 64.6461 99.4718 64.2418L89.3936 63.2265L92.7185 59.1572L101.779 60.7453C102.471 60.6289 103.182 60.7696 103.776 61.1408C104.371 61.5119 104.809 62.0877 105.006 62.7591C105.203 63.4304 105.147 64.1506 104.847 64.7833C104.548 65.4159 104.026 65.917 103.381 66.1916Z" fill="#FFB8B8"/>
<path d="M97.1821 64.577L73.6627 62.4161L73.6305 62.3791L56.4654 42.7668C55.3358 41.041 54.9105 38.9499 55.2765 36.9216C55.6426 34.8933 56.7724 33.0813 58.4346 31.8566C59.3543 31.1807 60.4071 30.7066 61.5238 30.4657C62.6404 30.2248 63.7956 30.2224 64.9132 30.4587C66.0309 30.695 67.0857 31.1647 68.0081 31.8368C68.9306 32.509 69.6999 33.3683 70.2653 34.3582L80.8377 52.8699L97.4411 59.522L97.1821 64.577Z" fill="#E6E6E6"/>
<path d="M156.214 26.8611C155.63 22.5891 154.897 18.0024 151.875 14.9185C150.917 13.94 149.769 13.1652 148.502 12.6409C147.235 12.1166 145.874 11.8536 144.502 11.8677C143.13 11.8819 141.776 12.1729 140.52 12.7233C139.264 13.2737 138.132 14.0719 137.194 15.07C134.995 17.4099 134.023 20.6954 133.934 23.9013C133.845 27.1073 134.561 30.2775 135.356 33.3853C139.559 33.4691 143.732 32.6501 147.59 30.9841C148.555 30.5665 149.504 30.0944 150.523 29.8357C151.543 29.577 152.269 30.228 153.217 30.6819L153.738 29.6882C154.164 30.4788 155.483 30.2445 155.962 29.4842C156.44 28.724 156.335 27.7505 156.214 26.8611Z" fill="#2F2E41"/>
<path d="M139.552 50.7053L122.381 51.0715C122.117 50.617 121.726 50.2487 121.257 50.0114C120.787 49.7741 120.258 49.6781 119.734 49.735C119.211 49.792 118.715 49.9994 118.308 50.3321C117.901 50.6648 117.599 51.1084 117.44 51.6089C117.28 52.1094 117.271 52.6453 117.411 53.1514C117.552 53.6574 117.837 54.1117 118.232 54.4592C118.627 54.8066 119.114 55.032 119.635 55.1081C120.156 55.1842 120.688 55.1077 121.167 54.8878C123.444 55.0168 141.261 57.5385 142.324 55.9134C143.403 54.264 149.162 48.443 149.162 48.443L144.735 42.1592L139.552 50.7053Z" fill="#FFB6B6"/>
<path d="M143.736 31.0876C148.191 31.0876 151.803 27.4858 151.803 23.0428C151.803 18.5998 148.191 14.998 143.736 14.998C139.28 14.998 135.668 18.5998 135.668 23.0428C135.668 27.4858 139.28 31.0876 143.736 31.0876Z" fill="#FFB6B6"/>
<path d="M156.657 38.5219C155.706 36.6351 155.245 34.3042 153.218 33.6925C151.849 33.2795 146.313 33.8985 145.066 34.5957C142.991 35.7555 144.871 37.9289 143.647 39.9627C142.316 42.1736 138.7 46.6106 137.369 48.8215C136.454 50.3415 139.536 54.8029 139.041 56.5056C138.546 58.2083 138.523 60.1193 139.365 61.6802C140.119 63.0773 139.028 64.3132 139.787 65.708C140.576 67.1585 141.543 72.5821 140.809 74.061L140.318 75.5312C145.195 75.8169 149.296 70.0069 154.143 69.3949C155.347 69.2429 156.597 69.0443 157.589 68.3475C159.05 67.3211 159.628 65.4586 159.989 63.713C161.726 55.1805 160.554 46.3136 156.657 38.5219Z" fill="#3F3D56"/>
<path d="M163.969 58.4434C163.29 56.5944 162.06 48.5102 162.06 48.5102L154.362 48.2852L158.126 57.5409L147.856 71.8766C147.856 71.8766 147.875 71.9081 147.91 71.9642C147.37 71.8779 146.816 71.956 146.322 72.1885C145.827 72.4209 145.414 72.7969 145.137 73.2671C144.861 73.7374 144.733 74.28 144.77 74.824C144.808 75.368 145.009 75.8881 145.348 76.3161C145.686 76.7441 146.147 77.0602 146.669 77.223C147.191 77.3858 147.75 77.3876 148.273 77.2284C148.796 77.0691 149.258 76.7561 149.6 76.3304C149.942 75.9047 150.147 75.386 150.188 74.8422C150.226 74.8639 150.27 74.8717 150.313 74.8643C150.356 74.8569 150.395 74.8349 150.423 74.8019C151.566 73.372 164.649 60.2924 163.969 58.4434Z" fill="#FFB6B6"/>
<path d="M164.752 53.3388C164.046 50.3653 163.334 47.3756 162.143 44.56C160.951 41.7444 159.246 39.0851 156.848 37.1829C156.081 36.5748 155.224 36.038 154.262 35.8489C153.301 35.6598 152.218 35.8714 151.543 36.5795C150.463 37.7124 150.788 39.531 151.184 41.0436C152.352 45.5035 153.52 49.9634 154.689 54.4232C158.063 54.0666 161.436 53.71 164.81 53.3534L164.752 53.3388Z" fill="#3F3D56"/>
<path d="M153.621 24.1584C153.324 22.2123 153.014 20.2499 152.316 18.4174C151.618 16.5849 150.493 14.8686 148.879 13.8305C146.324 12.187 143.015 12.504 140.15 13.4494C137.934 14.1805 135.772 15.2918 134.209 17.0783C132.647 18.8648 131.769 21.414 132.35 23.75C135.406 23.03 138.462 22.31 141.519 21.59L141.184 21.8257C142.187 22.3246 143.064 23.045 143.746 23.9321C144.429 24.8191 144.9 25.8496 145.123 26.9453C145.342 28.0543 145.311 29.1978 145.032 30.2932C144.752 31.3887 144.233 32.4085 143.51 33.2791C145.594 32.5418 147.679 31.8045 149.763 31.0673C151.049 30.6122 152.426 30.0878 153.189 28.9206C154.074 27.5672 153.868 25.7735 153.621 24.1584Z" fill="#2F2E41"/>
</g>

</svg>
