<svg width="34" height="34" viewBox="0 0 34 34" fill="none" xmlns="http://www.w3.org/2000/svg">
<path d="M28.6875 8.63281H24.1719L23.0961 5.61797C23.0218 5.41167 22.8856 5.23335 22.7061 5.10736C22.5266 4.98138 22.3126 4.91387 22.0934 4.91406H11.9066C11.4584 4.91406 11.0566 5.19629 10.9072 5.61797L9.82812 8.63281H5.3125C3.84492 8.63281 2.65625 9.82149 2.65625 11.2891V26.4297C2.65625 27.8973 3.84492 29.0859 5.3125 29.0859H28.6875C30.1551 29.0859 31.3438 27.8973 31.3438 26.4297V11.2891C31.3438 9.82149 30.1551 8.63281 28.6875 8.63281ZM17 23.7734C14.0648 23.7734 11.6875 21.3961 11.6875 18.4609C11.6875 15.5258 14.0648 13.1484 17 13.1484C19.9352 13.1484 22.3125 15.5258 22.3125 18.4609C22.3125 21.3961 19.9352 23.7734 17 23.7734ZM13.8125 18.4609C13.8125 19.3063 14.1483 20.1171 14.7461 20.7148C15.3439 21.3126 16.1546 21.6484 17 21.6484C17.8454 21.6484 18.6561 21.3126 19.2539 20.7148C19.8517 20.1171 20.1875 19.3063 20.1875 18.4609C20.1875 17.6156 19.8517 16.8048 19.2539 16.207C18.6561 15.6093 17.8454 15.2734 17 15.2734C16.1546 15.2734 15.3439 15.6093 14.7461 16.207C14.1483 16.8048 13.8125 17.6156 13.8125 18.4609Z" fill="white"/>
</svg>
