<svg width="236" height="267" viewBox="0 0 236 267" fill="none" xmlns="http://www.w3.org/2000/svg">
<g clip-path="url(#clip0_969_23010)">
<path d="M151.725 197.679C152.255 197.961 152.859 198.074 153.455 198.002C154.052 197.931 154.611 197.679 155.059 197.279C155.506 196.88 155.82 196.354 155.957 195.771C156.094 195.188 156.049 194.577 155.826 194.021C155.886 193.725 155.928 193.513 155.988 193.217C157.134 192.151 158.573 191.45 160.121 191.205C161.669 190.959 163.255 191.18 164.676 191.839C166.097 192.498 167.289 193.565 168.097 194.903C168.906 196.242 169.296 197.79 169.216 199.351C168.853 208.151 169.289 217.647 163.422 224.741C190.202 202.927 202.412 165.764 194.234 132.34C190.221 126.766 188.349 119.361 190.149 112.65C192.407 114.84 196.809 114.252 196.137 110.461C195.776 108.963 195.402 107.47 195.041 105.972C210.466 99.9721 214.493 122.835 196.222 132.143C197.704 138.498 198.516 144.989 198.644 151.512C200.707 145.63 204.14 140.321 208.663 136.02C213.042 132.09 218.832 129.779 224.218 127.142C230.773 123.925 238.047 130.303 235.466 137.112C231.103 136.555 228.016 141.754 231.975 144.548C225.021 156.191 211.686 163.591 198.138 163.708C196.768 176.993 192.573 189.834 185.833 201.376C194.488 188.257 211.237 192.034 224.474 191.475C225.352 191.365 226.244 191.512 227.04 191.898C227.836 192.284 228.502 192.892 228.957 193.649C229.412 194.406 229.636 195.279 229.602 196.161C229.568 197.042 229.277 197.895 228.765 198.615C227.023 198.513 225.276 198.584 223.549 198.826C222.737 198.946 221.981 199.314 221.387 199.879C220.792 200.443 220.387 201.178 220.227 201.981C220.068 202.784 220.161 203.617 220.495 204.365C220.829 205.113 221.386 205.74 222.091 206.159C210.48 216.771 192.487 219.052 178.366 212.281C174.191 217.523 169.48 222.319 164.311 226.591L143.316 216.615C143.352 216.346 143.399 216.074 143.443 215.809C145.328 216.854 147.334 217.666 149.417 218.225C147.177 209.713 144.682 204.728 151.725 197.679H151.725Z" fill="#F2F2F2"/>
<path d="M114.629 177.545C114.245 178.005 113.728 178.337 113.149 178.495C112.57 178.653 111.956 178.63 111.39 178.428C110.825 178.227 110.335 177.857 109.987 177.369C109.64 176.881 109.451 176.298 109.447 175.699C109.28 175.448 109.16 175.267 108.993 175.016C107.528 174.459 105.93 174.351 104.404 174.706C102.877 175.06 101.492 175.861 100.425 177.006C99.358 178.151 98.6585 179.587 98.4158 181.131C98.1731 182.674 98.3984 184.255 99.0627 185.67C102.729 193.684 105.918 202.642 114.036 207.006C80.9802 196.873 55.6097 167.047 50.5363 133.017C52.1435 126.345 51.0752 118.783 46.8694 113.245C45.6064 116.122 41.3068 117.233 40.4956 113.469C40.2631 111.946 40.0439 110.423 39.8112 108.9C23.2559 109.143 28.1773 131.831 48.6208 133.582C49.6526 140.024 51.3572 146.341 53.7067 152.43C49.571 147.759 44.3817 144.133 38.5658 141.851C33.0234 139.857 26.7866 139.894 20.8003 139.478C13.5127 138.963 9.18895 147.605 14.1553 152.94C17.9856 150.784 22.8122 154.438 20.2023 158.514C31.0485 166.682 46.1982 168.521 58.79 163.536C65.0858 175.324 73.8298 185.639 84.4393 193.794C71.4595 184.898 57.3768 194.695 44.9063 199.154C44.0512 199.382 43.2811 199.853 42.69 200.51C42.0989 201.167 41.7124 201.981 41.5775 202.853C41.4426 203.725 41.5653 204.618 41.9305 205.422C42.2957 206.225 42.8877 206.906 43.6343 207.38C45.2084 206.631 46.8533 206.04 48.5448 205.615C49.3426 205.42 50.1812 205.477 50.9456 205.776C51.71 206.075 52.3628 206.603 52.8145 207.287C53.2663 207.971 53.4948 208.777 53.4688 209.595C53.4428 210.414 53.1636 211.204 52.6694 211.858C67.4385 217.319 84.9651 212.666 95.4812 201.085C101.332 204.37 107.509 207.041 113.913 209.053L129.582 191.92C129.447 191.685 129.3 191.45 129.16 191.221C127.809 192.898 126.258 194.404 124.541 195.705C123.394 186.98 123.819 181.425 114.629 177.544L114.629 177.545Z" fill="#F2F2F2"/>
<path d="M118.661 105.147C119.258 105.087 119.823 104.845 120.278 104.454C120.733 104.064 121.056 103.543 121.205 102.963C121.353 102.383 121.319 101.771 121.106 101.211C120.894 100.651 120.515 100.169 120.019 99.8315C119.903 99.5528 119.82 99.3527 119.704 99.0739C120.059 97.5521 120.861 96.1705 122.009 95.1064C123.157 94.0422 124.597 93.344 126.145 93.1012C127.694 92.8583 129.28 93.082 130.7 93.7434C132.119 94.4049 133.309 95.474 134.115 96.8137C138.736 104.321 144.41 111.961 143.507 121.112C153.537 88.1183 142.888 50.4816 117.405 27.2802C110.956 24.8832 105.26 19.7763 103 13.2055C106.1 13.7679 109.425 10.8329 106.747 8.06031C105.609 7.01739 104.464 5.98521 103.327 4.94222C112.775 -8.6114 128.906 8.12946 118.944 26.0117C123.729 30.4631 128.034 35.4009 131.788 40.7446C130.211 34.7157 130.092 28.3995 131.441 22.3158C132.878 16.6195 136.392 11.483 139.389 6.30026C143.03 -0.0132929 152.636 1.23802 154.302 8.32441C150.369 10.2875 150.713 16.3193 155.563 16.4379C156.302 29.9682 149.371 43.5227 138.19 51.1504C144.483 62.9403 148.183 75.9318 149.043 89.2591C148.89 73.558 164.907 67.3844 175.583 59.5634C176.25 58.9836 177.072 58.61 177.949 58.4881C178.826 58.3662 179.719 58.5012 180.52 58.8768C181.321 59.2524 181.995 59.8522 182.46 60.6031C182.925 61.354 183.16 62.2236 183.138 63.1057C181.635 63.989 180.225 65.0189 178.926 66.1802C178.319 66.7313 177.898 67.4563 177.72 68.2556C177.542 69.0549 177.617 69.8894 177.933 70.6448C178.25 71.4002 178.793 72.0395 179.489 72.4751C180.184 72.9106 180.998 73.1211 181.818 73.0777C178.114 88.3403 164.453 100.234 148.943 102.462C148.409 109.134 147.181 115.734 145.279 122.153L122.271 125.54C122.151 125.297 122.037 125.045 121.925 124.801C124.075 124.621 126.194 124.18 128.236 123.486C121.616 117.665 116.756 114.914 118.66 105.147L118.661 105.147Z" fill="#F2F2F2"/>
<path d="M141.801 97.7929C131.327 97.7929 125.645 96.5169 123.661 93.7932C121.91 91.3901 123.084 88.2192 124.443 84.5478C125.42 81.9089 126.527 78.918 126.527 75.9578C126.527 61.5601 133.85 54.2598 148.293 54.2598C155.479 54.2598 163.195 58.0651 168.933 64.4392C174.149 70.234 176.748 77.1692 176.063 83.4667C175.501 88.6313 173.089 92.0277 168.474 94.1559L168.204 94.2803L168.127 93.9939C167.728 92.5116 167.054 91.1172 166.138 89.8834C166.049 91.8202 165.559 93.7176 164.7 95.4567L164.651 95.5559L164.544 95.5863C159.32 97.0695 153.12 97.4714 148.303 97.6555C145.958 97.7467 143.791 97.7924 141.801 97.7929Z" fill="#2F2E41"/>
<path d="M144.656 117.853C144.255 116.676 143.578 115.612 142.681 114.749C141.785 113.886 140.694 113.248 139.501 112.889C138.308 112.53 137.046 112.459 135.82 112.684C134.593 112.908 133.439 113.421 132.451 114.179L97.997 134.714L87.2157 108.49C88.1264 107.158 88.5907 105.573 88.5418 103.961C88.4929 102.35 87.9334 100.796 86.9435 99.5213C85.9537 98.2467 84.5843 97.3174 83.0318 96.8665C81.4794 96.4157 79.8235 96.4665 78.3018 97.0118C76.7802 97.5571 75.4708 98.5687 74.5615 99.9017C73.6523 101.235 73.1899 102.82 73.2406 104.432C73.2913 106.043 73.8526 107.596 74.8439 108.87C75.8352 110.143 77.2056 111.071 78.7586 111.52C79.4231 119.082 83.116 152.882 95.9632 151.653C106.762 150.62 133.579 132.817 141.909 126.644C143.241 125.657 144.225 124.274 144.719 122.694C145.213 121.115 145.191 119.419 144.656 117.853Z" fill="#FFB6B6"/>
<path d="M170.62 267H140.632L135.603 242.214L133.972 267H106.116C106.127 247.536 107.144 228.085 109.163 208.725L109.509 207.552L110.054 205.677L110.399 204.5L116.164 184.767L116.619 183.201H151.33C153.328 185.071 155.17 187.1 156.839 189.266C157.405 189.984 157.995 190.763 158.601 191.601C159.021 192.194 159.456 192.818 159.892 193.471C163.759 199.211 166.65 205.548 168.448 212.226V212.231C168.753 213.373 169.024 214.542 169.259 215.738V215.743C169.469 216.805 169.654 217.883 169.799 218.985C169.909 219.788 170.004 220.601 170.074 221.424C170.492 225.984 170.345 230.577 169.639 235.101L170.62 267Z" fill="#2F2E41"/>
<path d="M11.6255 40.3634C13.573 39.6119 14.7266 37.9079 14.2022 36.5574C13.6777 35.2069 11.6739 34.7213 9.72639 35.4728C7.77892 36.2243 6.62533 37.9283 7.14975 39.2788C7.67418 40.6293 9.67804 41.1149 11.6255 40.3634Z" fill="#E6E6E6"/>
<path d="M36.146 37.2281C38.0935 36.4767 39.2471 34.7726 38.7227 33.4221C38.1982 32.0716 36.1944 31.586 34.2469 32.3375C32.2994 33.089 31.1458 34.793 31.6703 36.1435C32.1947 37.4941 34.1985 37.9796 36.146 37.2281Z" fill="#3F3D56"/>
<path d="M9.49906 61.2179C11.4465 60.4664 12.6001 58.7624 12.0757 57.4119C11.5513 56.0614 9.54741 55.5758 7.59994 56.3273C5.65247 57.0788 4.49886 58.7828 5.02329 60.1333C5.54772 61.4838 7.55159 61.9694 9.49906 61.2179Z" fill="#FF6584"/>
<path d="M2.40555 70.4167C3.29898 70.2059 3.77684 68.9971 3.47285 67.7169C3.16887 66.4366 2.19815 65.5696 1.30472 65.7804C0.411282 65.9912 -0.0665581 67.2 0.237428 68.4803C0.541414 69.7605 1.51211 70.6275 2.40555 70.4167Z" fill="#E6E6E6"/>
<path d="M2.25955 85.9905C3.15299 85.7796 3.63083 84.5709 3.32684 83.2906C3.02285 82.0103 2.05215 81.1433 1.15872 81.3541C0.265285 81.5649 -0.212554 82.7737 0.0914318 84.054C0.395418 85.3343 1.36612 86.2013 2.25955 85.9905Z" fill="#3F3D56"/>
<path d="M23.7805 53.7331C24.674 53.5223 25.1518 52.3135 24.8478 51.0333C24.5438 49.753 23.5732 48.886 22.6797 49.0968C21.7863 49.3076 21.3084 50.5164 21.6124 51.7967C21.9164 53.0769 22.8871 53.9439 23.7805 53.7331Z" fill="#E6E6E6"/>
<path d="M10.866 50.6071C11.7594 50.3963 12.2373 49.1876 11.9333 47.9073C11.6293 46.627 10.6586 45.76 9.76517 45.9708C8.87173 46.1816 8.39389 47.3904 8.69788 48.6707C9.00186 49.951 9.97256 50.818 10.866 50.6071Z" fill="#FF6584"/>
<path d="M24.5545 36.2658C25.4479 36.055 25.9257 34.8463 25.6218 33.566C25.3178 32.2857 24.3471 31.4187 23.4536 31.6295C22.5602 31.8403 22.0824 33.0491 22.3864 34.3294C22.6903 35.6097 23.661 36.4766 24.5545 36.2658Z" fill="#3F3D56"/>
<path d="M30.9201 144.057C31.8618 142.954 31.336 140.966 29.7458 139.617C28.1556 138.267 26.1031 138.068 25.1615 139.17C24.2199 140.273 24.7457 142.261 26.3359 143.61C27.9261 144.96 29.9785 145.159 30.9201 144.057Z" fill="#E6E6E6"/>
<path d="M16.4792 124.055C17.4208 122.952 16.8951 120.965 15.3049 119.615C13.7147 118.266 11.6622 118.066 10.7206 119.169C9.77897 120.272 10.3047 122.259 11.8949 123.609C13.4851 124.958 15.5376 125.158 16.4792 124.055Z" fill="#3F3D56"/>
<path d="M50.3293 135.991C51.271 134.888 50.7452 132.901 49.155 131.551C47.5648 130.202 45.5123 130.002 44.5707 131.105C43.6291 132.208 44.1548 134.195 45.745 135.545C47.3352 136.894 49.3877 137.094 50.3293 135.991Z" fill="#FF6584"/>
<path d="M59.9709 136.212C60.9556 135.336 61.2581 134.072 60.6468 133.389C60.0354 132.707 58.7416 132.863 57.757 133.739C56.7723 134.615 56.4697 135.879 57.0811 136.562C57.6925 137.245 58.9863 137.088 59.9709 136.212Z" fill="#E6E6E6"/>
<path d="M73.779 128.925C74.7636 128.048 75.0663 126.785 74.4549 126.102C73.8435 125.419 72.5497 125.576 71.5651 126.452C70.5804 127.328 70.2778 128.592 70.8892 129.274C71.5006 129.957 72.7944 129.801 73.779 128.925Z" fill="#3F3D56"/>
<path d="M35.0764 125.419C36.061 124.543 36.3636 123.279 35.7523 122.596C35.1409 121.913 33.8471 122.07 32.8624 122.946C31.8778 123.822 31.5752 125.086 32.1866 125.769C32.7979 126.451 34.0917 126.295 35.0764 125.419Z" fill="#E6E6E6"/>
<path d="M38.468 138.228C39.4526 137.352 39.7552 136.088 39.1439 135.405C38.5325 134.722 37.2387 134.879 36.254 135.755C35.2694 136.631 34.9668 137.895 35.5782 138.578C36.1895 139.26 37.4833 139.104 38.468 138.228Z" fill="#FF6584"/>
<path d="M19.2995 133.057C20.2842 132.181 20.5868 130.917 19.9754 130.234C19.364 129.551 18.0702 129.708 17.0856 130.584C16.1009 131.46 15.7983 132.724 16.4097 133.407C17.0211 134.09 18.3149 133.933 19.2995 133.057Z" fill="#3F3D56"/>
<path d="M127.937 15.7736C129.24 15.1345 129.55 13.1021 128.628 11.234C127.707 9.36598 125.903 8.36974 124.599 9.00883C123.296 9.64793 122.986 11.6804 123.907 13.5484C124.829 15.4164 126.633 16.4127 127.937 15.7736Z" fill="#E6E6E6"/>
<path d="M133.218 39.8483C134.522 39.2092 134.832 37.1768 133.91 35.3087C132.988 33.4407 131.184 32.4444 129.881 33.0835C128.577 33.7226 128.268 35.7551 129.189 37.6231C130.111 39.4911 131.915 40.4874 133.218 39.8483Z" fill="#3F3D56"/>
<path d="M106.911 15.4894C108.215 14.8503 108.524 12.8179 107.603 10.9498C106.681 9.08181 104.877 8.08554 103.574 8.72464C102.27 9.36374 101.96 11.3962 102.882 13.2642C103.804 15.1323 105.608 16.1285 106.911 15.4894Z" fill="#FF6584"/>
<path d="M95.8595 7.8494C97.1123 7.43535 97.8936 6.39547 97.6046 5.52674C97.3157 4.65801 96.0659 4.28939 94.8132 4.70344C93.5605 5.11748 92.7792 6.15738 93.0681 7.02611C93.357 7.89484 94.6068 8.26344 95.8595 7.8494Z" fill="#E6E6E6"/>
<path d="M80.2838 9.06912C81.5366 8.65508 82.3179 7.61519 82.029 6.74646C81.74 5.87773 80.4902 5.50913 79.2375 5.92317C77.9848 6.33721 77.2035 7.3771 77.4924 8.24583C77.7813 9.11456 79.0311 9.48317 80.2838 9.06912Z" fill="#3F3D56"/>
<path d="M114.404 27.6131C115.657 27.199 116.438 26.1591 116.149 25.2904C115.86 24.4217 114.61 24.0531 113.358 24.4671C112.105 24.8811 111.324 25.921 111.613 26.7898C111.901 27.6585 113.151 28.0271 114.404 27.6131Z" fill="#E6E6E6"/>
<path d="M116.396 14.5149C117.649 14.1009 118.43 13.061 118.141 12.1922C117.852 11.3235 116.603 10.9549 115.35 11.369C114.097 11.783 113.316 12.8229 113.605 13.6916C113.894 14.5604 115.143 14.929 116.396 14.5149Z" fill="#FF6584"/>
<path d="M131.926 26.8513C133.179 26.4373 133.96 25.3974 133.672 24.5287C133.383 23.6599 132.133 23.2913 130.88 23.7054C129.627 24.1194 128.846 25.1593 129.135 26.0281C129.424 26.8968 130.674 27.2654 131.926 26.8513Z" fill="#3F3D56"/>
<path d="M136.735 101.801L153.256 100.953L160.929 113.039C160.929 113.039 175.366 115.445 174.366 132.405C173.365 149.364 156.799 164.246 156.799 164.246L157.508 173.078L156.278 176.581L156.435 178.548L158.113 180.631L158.286 182.785L156.799 186.194L158.821 189.457L116.322 185.353L114.768 179.709L117.035 176.679L115.769 172.726L117.672 168.924L118.665 156.847C118.665 156.847 107.805 140.583 120.272 128.332L125.276 119.853L130.874 113.043L136.735 101.801Z" fill="#EF4C29"/>
<path d="M144.948 98.3879C154.616 98.3879 162.454 90.5752 162.454 80.9376C162.454 71.3001 154.616 63.4873 144.948 63.4873C135.28 63.4873 127.443 71.3001 127.443 80.9376C127.443 90.5752 135.28 98.3879 144.948 98.3879Z" fill="#FFB6B6"/>
<path d="M142.604 79.8803C141.096 79.8803 139.588 79.8379 138.081 79.7532L137.812 79.7381L137.847 79.4716C138.069 77.806 137.944 76.1126 137.48 74.4972C136.692 76.3365 135.52 77.9872 134.041 79.3391L133.958 79.4153L133.845 79.4032C129.753 78.9569 125.698 78.2197 121.711 77.197L121.558 77.1581L121.528 77.0041C121.23 75.5465 121.076 74.0633 121.067 72.5758C121.067 67.929 122.757 64.0179 125.826 61.5631C129.167 58.891 133.955 58.0693 139.314 59.2478H156.449C158.333 59.25 160.139 59.9969 161.471 61.3248C162.803 62.6527 163.552 64.4531 163.554 66.331V77.1481L163.368 77.1968C156.59 78.9724 149.612 79.8743 142.604 79.8803Z" fill="#2F2E41"/>
<path d="M23.1576 60.4695C22.3905 60.7492 21.7661 61.3207 21.4212 62.0588C21.0763 62.7969 21.0393 63.6412 21.3181 64.4065L39.8037 114.97C40.0842 115.734 40.6575 116.357 41.3979 116.701C42.1383 117.045 42.9853 117.082 43.753 116.804L115.499 90.7386C116.266 90.4589 116.89 89.8873 117.235 89.1493C117.58 88.4112 117.617 87.5669 117.338 86.8016L98.8526 36.2383C98.572 35.4736 97.9987 34.8511 97.2583 34.5073C96.5179 34.1635 95.671 34.1265 94.9032 34.4044L23.1576 60.4695Z" fill="#CCCCCC"/>
<path d="M88.7965 97.6522L44.8808 113.607C44.0545 113.906 43.143 113.866 42.3461 113.496C41.5492 113.126 40.9321 112.456 40.6302 111.633L23.864 65.7724C23.5639 64.9488 23.6038 64.0401 23.9749 63.2457C24.3461 62.4513 25.0182 61.8361 25.8438 61.5351L93.5353 36.9429C94.3616 36.6438 95.2732 36.6836 96.0701 37.0536C96.8669 37.4236 97.484 38.0937 97.786 38.9167L105.887 61.076C108.478 68.186 108.133 76.0299 104.929 82.8869C101.725 89.7439 95.9231 95.054 88.7965 97.6522Z" fill="white"/>
<path d="M57.1967 64.5215L46.7608 68.3129C46.6299 68.3604 46.491 68.3818 46.3518 68.3758C46.2126 68.3698 46.076 68.3365 45.9497 68.2779C45.8235 68.2193 45.71 68.1364 45.6159 68.0341C45.5217 67.9318 45.4487 67.8119 45.401 67.6815C45.3533 67.551 45.3319 67.4125 45.3379 67.2737C45.3439 67.135 45.3773 66.9988 45.4361 66.873C45.4949 66.7471 45.578 66.634 45.6807 66.5401C45.7834 66.4463 45.9035 66.3735 46.0344 66.326L56.4703 62.5346C56.7346 62.4386 57.0263 62.4512 57.2813 62.5696C57.5363 62.688 57.7337 62.9025 57.8301 63.166C57.9264 63.4295 57.9138 63.7203 57.795 63.9745C57.6762 64.2287 57.461 64.4255 57.1967 64.5215H57.1967Z" fill="#EF4C29"/>
<path d="M82.0761 60.086L48.2464 72.3763C48.1155 72.424 47.9764 72.4455 47.8371 72.4397C47.6979 72.4338 47.5611 72.4006 47.4347 72.342C47.3083 72.2834 47.1947 72.2005 47.1005 72.0982C47.0062 71.9958 46.9331 71.8759 46.8854 71.7453C46.8377 71.6147 46.8162 71.4761 46.8223 71.3372C46.8284 71.1984 46.8618 71.0621 46.9208 70.9362C46.9797 70.8103 47.063 70.6971 47.1658 70.6033C47.2686 70.5095 47.389 70.4368 47.52 70.3893L81.3496 58.0991C81.4805 58.0515 81.6195 58.0301 81.7587 58.0361C81.8978 58.0421 82.0344 58.0754 82.1607 58.134C82.287 58.1927 82.4004 58.2755 82.4946 58.3779C82.5887 58.4802 82.6617 58.6 82.7094 58.7305C82.7571 58.8609 82.7786 58.9995 82.7726 59.1382C82.7665 59.2769 82.7332 59.4131 82.6744 59.539C82.6156 59.6649 82.5324 59.778 82.4298 59.8718C82.3271 59.9657 82.2069 60.0384 82.0761 60.086Z" fill="#EF4C29"/>
<path d="M83.7814 64.7501L49.9517 77.0404C49.8209 77.0879 49.6819 77.1093 49.5427 77.1033C49.4035 77.0973 49.2669 77.064 49.1407 77.0054C49.0144 76.9468 48.901 76.8639 48.8068 76.7616C48.7127 76.6592 48.6396 76.5394 48.5919 76.409C48.5443 76.2785 48.5228 76.14 48.5288 76.0012C48.5348 75.8625 48.5682 75.7263 48.627 75.6005C48.6858 75.4746 48.769 75.3615 48.8716 75.2676C48.9743 75.1738 49.0945 75.101 49.2253 75.0535L83.055 62.7632C83.3192 62.6676 83.6107 62.6804 83.8654 62.7989C84.1202 62.9173 84.3173 63.1317 84.4135 63.395C84.5098 63.6583 84.4973 63.9489 84.3787 64.203C84.2602 64.457 84.0454 64.6538 83.7814 64.7501Z" fill="#EF4C29"/>
<path d="M85.4862 69.4141L51.6566 81.7044C51.5257 81.7521 51.3866 81.7737 51.2473 81.7678C51.108 81.7619 50.9713 81.7287 50.8449 81.6701C50.7185 81.6115 50.6049 81.5287 50.5106 81.4263C50.4164 81.3239 50.3433 81.204 50.2956 81.0734C50.2478 80.9429 50.2264 80.8042 50.2324 80.6654C50.2385 80.5265 50.272 80.3903 50.3309 80.2643C50.3899 80.1384 50.4731 80.0253 50.5759 79.9315C50.6788 79.8376 50.7991 79.7649 50.9302 79.7175L84.7598 67.4272C84.8907 67.3797 85.0297 67.3583 85.1688 67.3643C85.308 67.3703 85.4446 67.4035 85.5709 67.4622C85.6971 67.5208 85.8106 67.6036 85.9047 67.706C85.9989 67.8083 86.0719 67.9281 86.1196 68.0586C86.1673 68.1891 86.1887 68.3276 86.1827 68.4663C86.1767 68.6051 86.1433 68.7413 86.0845 68.8671C86.0257 68.993 85.9426 69.1061 85.8399 69.1999C85.7373 69.2938 85.6171 69.3666 85.4862 69.4141Z" fill="#EF4C29"/>
<path d="M87.1916 74.0782L53.3619 86.3684C53.0976 86.4645 52.8058 86.4519 52.5508 86.3335C52.2958 86.2151 52.0984 86.0005 52.0021 85.7371C51.9058 85.4736 51.9184 85.1827 52.0372 84.9285C52.156 84.6743 52.3712 84.4776 52.6355 84.3816L86.4651 72.0913C86.596 72.0437 86.735 72.0223 86.8742 72.0283C87.0133 72.0343 87.1499 72.0676 87.2762 72.1262C87.4025 72.1849 87.5159 72.2677 87.6101 72.37C87.7042 72.4724 87.7772 72.5922 87.8249 72.7227C87.8726 72.8531 87.8941 72.9917 87.8881 73.1304C87.882 73.2691 87.8487 73.4053 87.7898 73.5312C87.731 73.6571 87.6479 73.7701 87.5453 73.864C87.4426 73.9578 87.3224 74.0306 87.1915 74.0782H87.1916Z" fill="#EF4C29"/>
<path d="M194.533 87.0311L176.011 131.215C175.221 133.085 173.725 134.57 171.846 135.35C169.967 136.129 167.856 136.141 165.968 135.383C164.991 134.991 164.105 134.405 163.363 133.66C162.622 132.915 162.04 132.028 161.653 131.051C161.267 130.075 161.084 129.03 161.115 127.981C161.147 126.932 161.393 125.901 161.837 124.949L182.489 79.6408L193.873 51.5823C192.889 50.6042 192.231 49.348 191.989 47.9842C191.746 46.6205 191.931 45.2153 192.517 43.9597C193.103 42.7041 194.063 41.6589 195.266 40.9661C196.47 40.2732 197.857 39.9664 199.242 40.0872C200.626 40.2081 201.939 40.7507 203.003 41.6415C204.067 42.5322 204.83 43.7279 205.188 45.066C205.547 46.4041 205.483 47.8198 205.007 49.1208C204.53 50.4217 203.663 51.5448 202.524 52.3376L194.533 87.0311Z" fill="#FFB6B6"/>
</g>
<defs>
<clipPath id="clip0_969_23010">
<rect width="236" height="267" fill="white"/>
</clipPath>
</defs>
</svg>
