<svg width="20" height="20" viewBox="0 0 20 20" fill="none" xmlns="http://www.w3.org/2000/svg">
<circle cx="10" cy="10" r="10" fill="#F99E3F"/>
<g clip-path="url(#clip0_4261_47615)">
<path d="M14.667 6H5.33366C5.15685 6 4.98728 6.07024 4.86225 6.19526C4.73723 6.32029 4.66699 6.48986 4.66699 6.66667V13.3333C4.66699 13.5101 4.73723 13.6797 4.86225 13.8047C4.98728 13.9298 5.15685 14 5.33366 14H14.667C14.8438 14 15.0134 13.9298 15.1384 13.8047C15.2634 13.6797 15.3337 13.5101 15.3337 13.3333V6.66667C15.3337 6.48986 15.2634 6.32029 15.1384 6.19526C15.0134 6.07024 14.8438 6 14.667 6ZM14.1537 13.3333H5.88699L8.22033 10.92L7.74033 10.4567L5.33366 12.9467V7.17333L9.47699 11.2967C9.6019 11.4208 9.77087 11.4905 9.94699 11.4905C10.1231 11.4905 10.2921 11.4208 10.417 11.2967L14.667 7.07V12.9033L12.2137 10.45L11.7437 10.92L14.1537 13.3333ZM5.77033 6.66667H14.127L9.94699 10.8233L5.77033 6.66667Z" fill="white"/>
</g>
<defs>
<clipPath id="clip0_4261_47615">
<rect width="12" height="12" fill="white" transform="translate(4 4)"/>
</clipPath>
</defs>
</svg>
