<svg width="50" height="50" viewBox="0 0 50 50" fill="none" xmlns="http://www.w3.org/2000/svg">
<circle cx="25" cy="25" r="25" fill="#EF4C29" fill-opacity="0.1"/>
<path d="M25.28 23.8732C24.5302 23.8653 23.7995 23.6358 23.1799 23.2135C22.5602 22.7911 22.0794 22.1949 21.7979 21.4999C21.5164 20.8049 21.4469 20.0421 21.598 19.3077C21.7491 18.5732 22.1141 17.8998 22.6471 17.3724C23.1801 16.845 23.8573 16.487 24.5933 16.3436C25.3293 16.2002 26.0913 16.2777 26.7833 16.5665C27.4753 16.8552 28.0665 17.3423 28.4823 17.9663C28.8981 18.5903 29.12 19.3234 29.12 20.0732C29.113 21.0858 28.7049 22.0543 27.9851 22.7666C27.2653 23.4788 26.2926 23.8768 25.28 23.8732ZM25.28 17.6066C24.7939 17.6144 24.321 17.7658 23.9207 18.0416C23.5203 18.3174 23.2104 18.7053 23.0298 19.1567C22.8493 19.608 22.8061 20.1027 22.9057 20.5785C23.0054 21.0543 23.2434 21.4901 23.5899 21.8311C23.9364 22.1721 24.376 22.403 24.8533 22.495C25.3307 22.587 25.8246 22.5359 26.273 22.3481C26.7214 22.1602 27.1043 21.8441 27.3736 21.4394C27.6429 21.0347 27.7866 20.5594 27.7867 20.0732C27.7796 19.4143 27.512 18.7849 27.0423 18.3227C26.5726 17.8605 25.939 17.603 25.28 17.6066Z" fill="#EF4C29"/>
<path d="M25.2802 23.8732C24.5304 23.8653 23.7997 23.6358 23.18 23.2135C22.5604 22.7911 22.0796 22.1949 21.7981 21.4999C21.5166 20.8049 21.447 20.0421 21.5982 19.3077C21.7493 18.5732 22.1143 17.8998 22.6473 17.3724C23.1803 16.845 23.8574 16.487 24.5934 16.3436C25.3295 16.2002 26.0914 16.2777 26.7835 16.5665C27.4755 16.8552 28.0666 17.3423 28.4825 17.9663C28.8983 18.5903 29.1202 19.3234 29.1202 20.0732C29.1131 21.0858 28.705 22.0543 27.9853 22.7666C27.2655 23.4788 26.2928 23.8768 25.2802 23.8732ZM25.2802 17.6066C24.7941 17.6144 24.3212 17.7658 23.9209 18.0416C23.5205 18.3174 23.2106 18.7053 23.03 19.1567C22.8494 19.608 22.8063 20.1027 22.9059 20.5785C23.0055 21.0543 23.2436 21.4901 23.5901 21.8311C23.9366 22.1721 24.3761 22.403 24.8535 22.495C25.3309 22.587 25.8248 22.5359 26.2732 22.3481C26.7216 22.1602 27.1045 21.8441 27.3738 21.4394C27.6431 21.0347 27.7868 20.5594 27.7869 20.0732C27.7798 19.4143 27.5122 18.7849 27.0425 18.3227C26.5728 17.8605 25.9392 17.603 25.2802 17.6066ZM27.6069 24.7666C24.6499 24.252 21.6058 24.7203 18.9402 26.0999C18.751 26.205 18.5943 26.36 18.4873 26.5482C18.3803 26.7363 18.3271 26.9502 18.3335 27.1666V29.5399C18.3335 29.7167 18.4038 29.8863 18.5288 30.0113C18.6538 30.1363 18.8234 30.2066 19.0002 30.2066C19.177 30.2066 19.3466 30.1363 19.4716 30.0113C19.5966 29.8863 19.6669 29.7167 19.6669 29.5399V27.2532C22.1386 26.013 24.9495 25.6195 27.6669 26.1332L27.6069 24.7666Z" fill="#EF4C29"/>
<path d="M34.9998 27.6668H30.5332V26.6801C30.5332 26.5033 30.4629 26.3337 30.3379 26.2087C30.2129 26.0837 30.0433 26.0134 29.8665 26.0134C29.6897 26.0134 29.5201 26.0837 29.3951 26.2087C29.2701 26.3337 29.1998 26.5033 29.1998 26.6801V27.6668H24.3332C24.1564 27.6668 23.9868 27.737 23.8618 27.862C23.7367 27.987 23.6665 28.1566 23.6665 28.3334V35.0001C23.6665 35.1769 23.7367 35.3465 23.8618 35.4715C23.9868 35.5965 24.1564 35.6668 24.3332 35.6668H34.9998C35.1766 35.6668 35.3462 35.5965 35.4712 35.4715C35.5963 35.3465 35.6665 35.1769 35.6665 35.0001V28.3334C35.6665 28.1566 35.5963 27.987 35.4712 27.862C35.3462 27.737 35.1766 27.6668 34.9998 27.6668ZM34.3332 34.3334H24.9998V29.0001H29.1998V29.2734C29.1998 29.4502 29.2701 29.6198 29.3951 29.7448C29.5201 29.8699 29.6897 29.9401 29.8665 29.9401C30.0433 29.9401 30.2129 29.8699 30.3379 29.7448C30.4629 29.6198 30.5332 29.4502 30.5332 29.2734V29.0001H34.3332V34.3334Z" fill="#EF4C29"/>
<path d="M27.5397 31.28H31.513V32.2133H27.5397V31.28ZM20.2263 21.16C18.3806 21.1909 16.5669 21.6472 14.9263 22.4933C14.7479 22.5876 14.5985 22.7285 14.494 22.9012C14.3894 23.0738 14.3338 23.2715 14.333 23.4733V25.54C14.333 25.7168 14.4032 25.8864 14.5283 26.0114C14.6533 26.1364 14.8229 26.2067 14.9997 26.2067C15.1765 26.2067 15.3461 26.1364 15.4711 26.0114C15.5961 25.8864 15.6663 25.7168 15.6663 25.54V23.6067C17.2339 22.8264 18.9694 22.4441 20.7197 22.4933C20.4907 22.0755 20.3244 21.6262 20.2263 21.16ZM35.073 22.4867C33.6016 21.7148 31.9845 21.2606 30.3263 21.1533C30.2287 21.6188 30.0648 22.0678 29.8397 22.4867C31.4017 22.524 32.9362 22.9065 34.333 23.6067V25.54C34.333 25.7168 34.4032 25.8864 34.5283 26.0114C34.6533 26.1364 34.8229 26.2067 34.9997 26.2067C35.1765 26.2067 35.3461 26.1364 35.4711 26.0114C35.5961 25.8864 35.6663 25.7168 35.6663 25.54V23.4733C35.6667 23.2704 35.6117 23.0712 35.5071 22.8973C35.4025 22.7234 35.2524 22.5814 35.073 22.4867ZM20.1063 20.0733V19.6267C19.5841 19.5568 19.1089 19.2882 18.7797 18.8767C18.4505 18.4653 18.2927 17.9428 18.3391 17.4179C18.3855 16.893 18.6325 16.4063 19.0288 16.059C19.425 15.7117 19.9399 15.5305 20.4663 15.5533C21.0139 15.5523 21.5402 15.7652 21.933 16.1467C22.2796 15.8608 22.6603 15.6189 23.0663 15.4267C22.6127 14.9051 22.0118 14.5332 21.3426 14.36C20.6734 14.1869 19.9675 14.2205 19.3178 14.4566C18.6682 14.6926 18.1053 15.12 17.7034 15.6823C17.3014 16.2446 17.0793 16.9156 17.0663 17.6067C17.0803 18.4525 17.4091 19.2627 17.9885 19.8791C18.5679 20.4955 19.3563 20.8738 20.1997 20.94C20.1431 20.6544 20.1119 20.3644 20.1063 20.0733ZM29.513 14.22C29.0549 14.2201 28.6013 14.3115 28.179 14.489C27.7566 14.6664 27.3738 14.9262 27.053 15.2533C27.5037 15.4166 27.9299 15.641 28.3197 15.92C28.6309 15.704 28.9949 15.5764 29.373 15.551C29.751 15.5256 30.1288 15.6032 30.4661 15.7757C30.8035 15.9481 31.0877 16.2089 31.2885 16.5302C31.4893 16.8514 31.5992 17.2212 31.6063 17.6C31.6021 17.9891 31.4878 18.369 31.2766 18.6958C31.0655 19.0227 30.766 19.283 30.413 19.4467C30.4398 19.6522 30.4532 19.8593 30.453 20.0667C30.4512 20.3346 30.4289 20.6021 30.3863 20.8667C31.1126 20.68 31.7568 20.2584 32.2186 19.6676C32.6804 19.0768 32.9339 18.3499 32.9397 17.6C32.9309 16.6982 32.5655 15.8365 31.9235 15.2032C31.2814 14.5699 30.4148 14.2164 29.513 14.22Z" fill="#EF4C29"/>
</svg>
