<svg width="50" height="50" viewBox="0 0 50 50" fill="none" xmlns="http://www.w3.org/2000/svg">
<circle cx="25" cy="25" r="25" fill="#EF4C29" fill-opacity="0.1"/>
<path d="M31 33L34.824 29.176C34.9366 29.0636 34.9999 28.9111 35 28.752V23.5C35 23.1022 34.842 22.7206 34.5607 22.4393C34.2794 22.158 33.8978 22 33.5 22V22C33.1022 22 32.7206 22.158 32.4393 22.4393C32.158 22.7206 32 23.1022 32 23.5V28" stroke="#EF4C29" stroke-width="1.5" stroke-linecap="round" stroke-linejoin="round"/>
<path d="M31 29L31.858 28.142C31.9031 28.097 31.9388 28.0435 31.9632 27.9847C31.9876 27.9258 32.0001 27.8627 32 27.799C31.9999 27.7091 31.9747 27.621 31.9274 27.5445C31.8801 27.468 31.8124 27.4062 31.732 27.366L31.289 27.145C30.9137 26.9573 30.4889 26.8925 30.0747 26.9596C29.6604 27.0267 29.2778 27.2224 28.981 27.519L28.086 28.414C27.7109 28.789 27.5001 29.2976 27.5 29.828V33M19 33L15.176 29.176C15.0634 29.0636 15.0001 28.9111 15 28.752V23.5C15 23.1022 15.158 22.7206 15.4393 22.4393C15.7206 22.158 16.1022 22 16.5 22V22C16.8978 22 17.2794 22.158 17.5607 22.4393C17.842 22.7206 18 23.1022 18 23.5V28" stroke="#EF4C29" stroke-width="1.5" stroke-linecap="round" stroke-linejoin="round"/>
<path d="M19 29L18.142 28.142C18.097 28.097 18.0612 28.0435 18.0369 27.9846C18.0125 27.9258 18 27.8627 18 27.799V27.799C18 27.616 18.104 27.449 18.268 27.366L18.711 27.145C19.0863 26.9573 19.5111 26.8925 19.9253 26.9596C20.3396 27.0267 20.7222 27.2224 21.019 27.519L21.914 28.414C22.2891 28.789 22.4999 29.2976 22.5 29.828V33M26.667 25H23.333V22.667H21V19.333H23.333V17H26.667V19.333H29V22.667H26.667V25V25Z" stroke="#EF4C29" stroke-width="1.5" stroke-linecap="round" stroke-linejoin="round"/>
</svg>
