<svg width="16" height="16" viewBox="0 0 16 16" fill="none" xmlns="http://www.w3.org/2000/svg">
    <defs>
        <clipPath id="clip0_3378_46755">
            <rect width="16" height="16" fill="white" />
        </clipPath>
    </defs>
    <g clip-path="url(#clip0_3378_46755)">
        <path
            d="M15.1109 7.99978C15.1109 9.40623 14.6938 10.7811 13.9125 11.9505C13.1311 13.1199 12.0205 14.0314 10.7211 14.5696C9.42171 15.1078 7.9919 15.2486 6.61248 14.9743C5.23306 14.6999 3.96598 14.0226 2.97147 13.0281C1.97696 12.0336 1.2997 10.7665 1.02531 9.38709C0.750929 8.00767 0.891753 6.57786 1.42998 5.27848C1.9682 3.97909 2.87965 2.86849 4.04906 2.08711C5.21848 1.30573 6.59334 0.888672 7.99979 0.888672C9.88577 0.888672 11.6945 1.63788 13.0281 2.97147C14.3617 4.30506 15.1109 6.1138 15.1109 7.99978ZM11.3731 7.33312H8.66645V4.62645C8.66645 4.44964 8.59621 4.28007 8.47119 4.15505C8.34617 4.03002 8.1766 3.95978 7.99979 3.95978C7.82298 3.95978 7.65341 4.03002 7.52838 4.15505C7.40336 4.28007 7.33312 4.44964 7.33312 4.62645V7.33312H4.62645C4.44964 7.33312 4.28007 7.40335 4.15505 7.52838C4.03002 7.6534 3.95979 7.82297 3.95979 7.99978C3.95979 8.17659 4.03002 8.34616 4.15505 8.47119C4.28007 8.59621 4.44964 8.66645 4.62645 8.66645H7.33312V11.3731C7.33312 11.5499 7.40336 11.7195 7.52838 11.8445C7.65341 11.9695 7.82298 12.0398 7.99979 12.0398C8.1766 12.0398 8.34617 11.9695 8.47119 11.8445C8.59621 11.7195 8.66645 11.5499 8.66645 11.3731V8.66645H11.3731C11.5499 8.66645 11.7195 8.59621 11.8445 8.47119C11.9695 8.34616 12.0398 8.17659 12.0398 7.99978C12.0398 7.82297 11.9695 7.6534 11.8445 7.52838C11.7195 7.40335 11.5499 7.33312 11.3731 7.33312Z"
            fill="#EF4C29" />
    </g>

</svg>
