<svg width="240" height="185" viewBox="0 0 240 185" fill="none" xmlns="http://www.w3.org/2000/svg">
<g clip-path="url(#clip0_233_6228)">
<path d="M160.835 52.091C165.984 38.2193 178.148 26.2331 192.848 24.8074C184.01 38.2462 180.201 54.3845 182.094 70.3671C182.846 76.5282 184.323 83.3024 181.008 88.5462C178.946 91.8091 175.312 93.8178 171.566 94.7243C167.819 95.6308 163.915 95.5605 160.062 95.4851L159.199 95.912C156.489 81.3632 155.686 65.9628 160.835 52.091Z" fill="#F0F0F0"/>
<path d="M192.92 25.1095C182.898 32.1253 175.338 42.127 171.311 53.6939C170.464 56.1772 169.82 58.7703 169.783 61.4073C169.766 63.978 170.437 66.5062 171.725 68.7292C172.885 70.8262 174.314 72.8366 174.944 75.1795C175.609 77.6491 175.067 80.1474 173.709 82.2811C172.047 84.8916 169.548 86.7482 167.042 88.4786C164.259 90.3999 161.338 92.3513 159.635 95.3696C159.428 95.7353 158.874 95.3931 159.08 95.0279C162.043 89.7767 168.261 87.8692 172.065 83.4087C173.84 81.3274 174.999 78.6974 174.451 75.9259C173.971 73.5024 172.499 71.428 171.307 69.3149C170.055 67.0962 169.237 64.7936 169.141 62.2266C169.044 59.6006 169.588 56.9769 170.368 54.4827C172.18 48.8402 174.866 43.5181 178.327 38.7116C182.248 33.204 187.079 28.409 192.613 24.5341C192.956 24.2944 193.26 24.8714 192.92 25.1095V25.1095Z" fill="white"/>
<path d="M172.389 49.8929C170.544 48.9526 169.093 47.3857 168.294 45.472C167.496 43.5584 167.402 41.4226 168.03 39.4462C168.158 39.0467 168.784 39.2279 168.655 39.6279C168.067 41.4673 168.155 43.4568 168.902 45.2372C169.649 47.0177 171.007 48.4718 172.73 49.3373C173.104 49.5258 172.761 50.0804 172.389 49.8929Z" fill="white"/>
<path d="M170.998 67.7437C175.032 66.4667 178.439 63.7127 180.537 60.0308C180.745 59.6659 181.299 60.0079 181.092 60.3725C178.901 64.1998 175.35 67.0585 171.149 68.3782C170.748 68.5037 170.599 67.8685 170.998 67.7437V67.7437Z" fill="white"/>
<path d="M182.693 33.9448C183.331 34.4577 184.087 34.8037 184.891 34.9518C185.696 35.0999 186.525 35.0454 187.303 34.7932C187.702 34.6627 187.85 35.298 187.454 35.4277C186.593 35.7023 185.678 35.7614 184.788 35.5998C183.899 35.4381 183.063 35.0607 182.352 34.5005C182.281 34.4533 182.23 34.3806 182.21 34.2973C182.191 34.214 182.203 34.1262 182.246 34.0518C182.291 33.9785 182.364 33.9261 182.447 33.906C182.531 33.886 182.62 33.8999 182.693 33.9448V33.9448Z" fill="white"/>
<path d="M228.282 60.1667C228.035 60.2553 227.788 60.3439 227.54 60.4378C224.23 61.6461 221.023 63.122 217.951 64.8508C217.711 64.9807 217.47 65.116 217.235 65.2525C209.878 69.4967 203.372 75.0726 198.047 81.6968C195.93 84.3347 194.017 87.1302 192.324 90.059C189.985 94.1039 187.771 98.676 184.337 101.624C183.982 101.935 183.608 102.225 183.218 102.49L159.786 96.9336C159.739 96.8942 159.69 96.86 159.643 96.8206L158.697 96.6416C158.774 96.4844 158.857 96.3231 158.934 96.1659C158.978 96.0745 159.027 95.9844 159.072 95.8931C159.103 95.8326 159.134 95.7721 159.159 95.7157C159.169 95.6955 159.18 95.6754 159.189 95.6606C159.213 95.6042 159.242 95.5544 159.265 95.5034C159.727 94.6002 160.196 93.6987 160.672 92.7989C160.673 92.7935 160.673 92.7935 160.679 92.7894C164.323 85.9425 168.569 79.3403 173.68 73.5938C173.834 73.421 173.989 73.2427 174.154 73.0724C176.472 70.495 178.996 68.1117 181.702 65.9464C183.187 64.7655 184.732 63.6608 186.328 62.6364C190.459 59.9974 194.979 58.026 199.721 56.7944C209.176 54.3407 219.308 54.9442 227.648 59.7902C227.861 59.9143 228.07 60.0372 228.282 60.1667Z" fill="#F0F0F0"/>
<path d="M228.159 60.4522C215.942 60.0076 203.896 63.4318 193.732 70.2384C191.563 71.7099 189.491 73.3917 187.877 75.4748C186.319 77.5174 185.336 79.9407 185.029 82.493C184.695 84.867 184.628 87.334 183.724 89.5853C182.771 91.9583 180.837 93.626 178.471 94.5102C175.575 95.5919 172.465 95.5667 169.424 95.436C166.047 95.291 162.542 95.0867 159.369 96.4692C158.985 96.6367 158.748 96.0291 159.132 95.8619C164.652 93.4565 170.763 95.685 176.48 94.4184C179.148 93.8274 181.654 92.4272 182.881 89.8833C183.954 87.6587 184.025 85.1147 184.343 82.7081C184.676 80.1811 185.406 77.8491 186.872 75.7419C188.372 73.5863 190.383 71.8198 192.505 70.2992C197.341 66.887 202.683 64.258 208.335 62.5087C214.774 60.4764 221.513 59.5629 228.259 59.8076C228.677 59.823 228.573 60.4674 228.159 60.4522L228.159 60.4522Z" fill="white"/>
<path d="M196.876 67.8536C195.968 65.9897 195.75 63.863 196.263 61.8533C196.775 59.8437 197.983 58.0819 199.672 56.8826C200.015 56.6411 200.405 57.1632 200.062 57.405C198.487 58.5188 197.362 60.1601 196.889 62.0325C196.416 63.9048 196.626 65.885 197.482 67.6157C197.667 67.992 197.06 68.2278 196.876 67.8536V67.8536Z" fill="white"/>
<path d="M185.04 81.267C189.029 82.6816 193.403 82.5378 197.291 80.8641C197.676 80.6979 197.913 81.3055 197.528 81.4714C193.479 83.2055 188.927 83.346 184.779 81.8647C184.384 81.7232 184.647 81.1263 185.04 81.267Z" fill="white"/>
<path d="M214.685 61.3367C214.886 62.1312 215.282 62.8632 215.835 63.4669C216.389 64.0706 217.083 64.5271 217.856 64.7954C218.253 64.9317 217.99 65.5286 217.595 65.3931C216.743 65.0927 215.976 64.5876 215.363 63.922C214.75 63.2564 214.309 62.4505 214.079 61.5747C214.05 61.4939 214.053 61.4053 214.088 61.3268C214.122 61.2483 214.185 61.1858 214.263 61.152C214.344 61.1209 214.433 61.1228 214.512 61.1574C214.591 61.192 214.653 61.2564 214.685 61.3367V61.3367Z" fill="white"/>
<path d="M25.0665 179.242C11.652 173.05 0.643555 159.99 0.334961 145.193C13.0401 155.039 28.8111 160.065 44.8577 159.38C51.0452 159.094 57.8975 158.129 62.8652 161.837C65.9562 164.144 67.6805 167.928 68.2997 171.74C68.9187 175.552 68.554 179.447 68.188 183.292L68.5476 184.186C53.8659 185.796 38.481 185.435 25.0665 179.242Z" fill="#F0F0F0"/>
<path d="M0.640889 145.145C6.86526 155.688 16.2466 163.999 27.4524 168.895C29.8595 169.929 32.3911 170.769 35.0123 171.005C37.5691 171.216 40.1354 170.736 42.4448 169.617C44.619 168.616 46.7273 167.341 49.1063 166.887C51.6139 166.409 54.059 167.14 56.0795 168.658C58.5517 170.516 60.2104 173.153 61.743 175.788C63.4446 178.714 65.1658 181.78 68.0406 183.71C68.3889 183.944 68.0066 184.472 67.6588 184.238C62.6572 180.881 61.2287 174.524 57.0775 170.386C55.1404 168.456 52.611 167.098 49.8117 167.437C47.3639 167.734 45.1887 169.047 42.996 170.079C40.6936 171.163 38.3407 171.807 35.7791 171.708C33.1587 171.607 30.589 170.865 28.1661 169.897C22.6882 167.661 17.5953 164.575 13.0739 160.753C7.88949 156.42 3.48301 151.23 0.0450787 145.408C-0.167573 145.048 0.42961 144.787 0.640857 145.145H0.640889Z" fill="white"/>
<path d="M23.7513 167.531C22.6763 169.304 21.0075 170.636 19.0431 171.289C17.0786 171.942 14.9463 171.875 13.027 171.098C12.6392 170.94 12.8667 170.328 13.255 170.487C15.0409 171.213 17.0272 171.276 18.8553 170.664C20.6834 170.052 22.2329 168.805 23.2242 167.149C23.44 166.789 23.966 167.174 23.7513 167.531Z" fill="white"/>
<path d="M41.4088 170.27C40.4428 166.142 37.9597 162.53 34.4544 160.155C34.1069 159.92 34.4892 159.392 34.8363 159.627C38.4793 162.105 41.0558 165.869 42.0516 170.167C42.1463 170.576 41.503 170.677 41.4088 170.27Z" fill="white"/>
<path d="M8.66036 156.031C9.21892 155.432 9.62027 154.703 9.82839 153.91C10.0365 153.117 10.0449 152.285 9.8527 151.488C9.75293 151.08 10.3963 150.98 10.4955 151.385C10.7037 152.267 10.6933 153.186 10.4653 154.062C10.2373 154.939 9.79863 155.746 9.18753 156.413C9.13519 156.481 9.05907 156.526 8.97465 156.54C8.89023 156.553 8.80384 156.534 8.73303 156.486C8.66348 156.435 8.61683 156.359 8.60322 156.273C8.58962 156.188 8.61015 156.101 8.66036 156.031Z" fill="white"/>
<path d="M38.1952 112.458C38.2648 112.711 38.3343 112.964 38.409 113.219C39.3614 116.618 40.5879 119.934 42.0762 123.134C42.1873 123.383 42.3037 123.634 42.4218 123.88C46.0895 131.551 51.1466 138.473 57.336 144.295C59.801 146.609 62.4382 148.732 65.2247 150.645C69.073 153.287 73.4554 155.845 76.1293 159.499C76.4125 159.877 76.6721 160.272 76.9066 160.683L69.6082 183.677C69.5654 183.721 69.5278 183.767 69.485 183.811L69.2355 184.743C69.0849 184.654 68.9306 184.559 68.78 184.47C68.6924 184.419 68.6065 184.363 68.5189 184.312C68.4611 184.276 68.4033 184.24 68.349 184.212C68.3297 184.2 68.3105 184.188 68.2964 184.178C68.2421 184.149 68.1948 184.116 68.1458 184.089C67.2819 183.56 66.4203 183.023 65.5608 182.48C65.5556 182.478 65.5556 182.478 65.552 182.471C59.014 178.313 52.7651 173.572 47.4329 168.031C47.2725 167.864 47.1068 167.696 46.9498 167.518C44.5601 165.007 42.3793 162.305 40.429 159.438C39.3661 157.864 38.3834 156.238 37.4846 154.565C35.1706 150.238 33.5503 145.573 32.6829 140.741C30.9552 131.109 32.3209 121.03 37.7728 113.062C37.9124 112.858 38.0504 112.66 38.1952 112.458Z" fill="#F0F0F0"/>
<path d="M38.4699 112.602C37.105 124.776 39.6027 137.071 45.6081 147.741C46.9085 150.019 48.4256 152.217 50.3766 153.987C52.2914 155.698 54.6285 156.863 57.145 157.363C59.482 157.876 61.9319 158.129 64.1038 159.203C66.3931 160.334 67.9066 162.392 68.6076 164.824C69.4654 167.798 69.2054 170.905 68.8457 173.934C68.4464 177.296 67.9785 180.783 69.1145 184.058C69.2522 184.455 68.6297 184.646 68.4923 184.25C66.5157 178.552 69.1946 172.614 68.366 166.806C67.9794 164.095 66.7754 161.486 64.3366 160.067C62.2041 158.827 59.678 158.564 57.3072 158.065C54.8179 157.541 52.5525 156.635 50.5664 155.011C48.5348 153.35 46.9288 151.207 45.5759 148.972C42.5458 143.881 40.3333 138.345 39.0194 132.566C37.4833 125.978 37.0832 119.176 37.8362 112.453C37.883 112.037 38.5164 112.189 38.4699 112.602V112.602Z" fill="white"/>
<path d="M43.4728 144.42C41.5495 145.186 39.4169 145.243 37.4558 144.579C35.4947 143.916 33.8329 142.575 32.7671 140.797C32.5526 140.437 33.1016 140.086 33.3163 140.447C34.3058 142.104 35.8539 143.353 37.6813 143.967C39.5088 144.581 41.4951 144.52 43.2818 143.796C43.6702 143.639 43.859 144.263 43.4728 144.42Z" fill="white"/>
<path d="M55.926 157.259C57.6349 153.38 57.8221 148.999 56.4502 144.988C56.314 144.59 56.9364 144.399 57.0725 144.796C58.4923 148.973 58.2883 153.532 56.5011 157.565C56.3305 157.949 55.7563 157.641 55.926 157.259Z" fill="white"/>
<path d="M38.3326 126.132C39.1384 125.991 39.8966 125.651 40.5391 125.144C41.1816 124.636 41.6883 123.977 42.0136 123.225C42.1793 122.838 42.7533 123.146 42.5887 123.53C42.2254 124.359 41.665 125.087 40.9564 125.649C40.2477 126.212 39.4125 126.591 38.5236 126.755C38.4411 126.778 38.3532 126.768 38.2776 126.728C38.2021 126.688 38.1446 126.62 38.117 126.539C38.0921 126.457 38.1008 126.368 38.1411 126.291C38.1815 126.215 38.2503 126.158 38.3326 126.132Z" fill="white"/>
<path d="M55.953 97.4716C44.0996 85.7783 39.0932 73.5792 41.8558 63.122C45.4011 49.7022 61.1512 40.4236 85.0675 37.6653L85.1558 38.4351C61.5724 41.1548 46.0626 50.2252 42.6032 63.3202C39.9146 73.4972 44.8483 85.4297 56.4955 96.9197L55.953 97.4716Z" fill="#F0F0F0"/>
<path d="M170.32 138.979C155.526 138.979 139.45 136.776 123.481 132.54C103.735 127.301 85.6288 119.394 71.1216 109.673L71.5512 109.029C85.9885 118.703 104.014 126.574 123.679 131.791C141.45 136.506 159.355 138.69 175.45 138.114L175.478 138.888C173.778 138.949 172.059 138.98 170.32 138.979Z" fill="#F0F0F0"/>
<path d="M204.258 134.108L204.011 133.374C217.242 128.891 225.517 121.669 227.943 112.49C231.026 100.82 224.328 87.2777 209.083 74.3578C193.761 61.3724 171.666 50.5977 146.867 44.019L147.065 43.27C171.972 49.8777 194.175 60.7081 209.582 73.7664C225.068 86.8901 231.854 100.713 228.69 112.688C226.195 122.131 217.747 129.538 204.258 134.108Z" fill="#F0F0F0"/>
<path d="M82.7661 139.303C53.697 126.384 31.297 109.622 19.6929 92.1062L20.3369 91.6776C31.8608 109.072 54.1432 125.734 83.0794 138.595L82.7661 139.303Z" fill="#F0F0F0"/>
<path d="M184.97 161.685C181.972 161.685 178.923 161.618 175.822 161.484L175.855 160.71C198.995 161.714 219.412 158.939 234.902 152.683L235.191 153.402C221.679 158.858 204.456 161.685 184.97 161.685Z" fill="#F0F0F0"/>
<path d="M168.104 38.36C163.3 36.7925 158.358 35.3329 153.416 34.0218C124.976 26.4772 97.0202 23.7985 72.5685 26.2767L72.4907 25.5058C97.0336 23.0195 125.085 25.7046 153.613 33.2729C158.569 34.5877 163.525 36.0514 168.343 37.6235L168.104 38.36Z" fill="#F0F0F0"/>
<path d="M37.7861 98.6337C25.9326 86.9404 20.9262 74.7414 23.6888 64.2841C27.2341 50.8643 42.9842 41.5857 66.9005 38.8274L66.9888 39.5972C43.4054 42.3169 27.8957 51.3873 24.4362 64.4823C21.7476 74.6593 26.6813 86.5918 38.3285 98.0818L37.7861 98.6337Z" fill="#F0F0F0"/>
<path d="M152.152 140.141C137.358 140.141 121.282 137.938 105.314 133.702C85.567 128.463 67.4613 120.556 52.9541 110.835L53.3837 110.191C67.821 119.865 85.8466 127.736 105.512 132.953C123.283 137.668 141.187 139.852 157.283 139.276L157.31 140.05C155.611 140.111 153.891 140.142 152.152 140.141Z" fill="#F0F0F0"/>
<path d="M186.091 135.27L185.843 134.536C199.074 130.053 207.35 122.831 209.775 113.652C212.858 101.982 206.16 88.4397 190.916 75.5198C175.593 62.5343 153.498 51.7597 128.7 45.181L128.898 44.432C153.805 51.0396 176.007 61.8701 191.415 74.9284C206.9 88.0521 213.686 101.875 210.523 113.85C208.028 123.293 199.579 130.7 186.091 135.27Z" fill="#F0F0F0"/>
<path d="M64.5986 140.465C35.5295 127.546 13.1296 110.784 1.52539 93.2683L2.16938 92.8397C13.6933 110.235 35.9757 126.897 64.9119 139.757L64.5986 140.465Z" fill="#F0F0F0"/>
<path d="M166.803 162.847C163.805 162.847 160.755 162.78 157.654 162.646L157.688 161.872C180.828 162.876 201.244 160.101 216.735 153.845L217.024 154.564C203.511 160.02 186.288 162.847 166.803 162.847Z" fill="#F0F0F0"/>
<path d="M149.937 39.522C145.132 37.9545 140.19 36.4949 135.248 35.1838C106.809 27.6392 78.8528 24.9605 54.401 27.4387L54.3232 26.6678C78.8662 24.1814 106.918 26.8666 135.446 34.4348C140.402 35.7497 145.358 37.2134 150.176 38.7855L149.937 39.522Z" fill="#F0F0F0"/>
<path d="M73.1361 97.0453C71.5476 97.0471 70.0247 97.6802 68.9015 98.8058C67.7783 99.9313 67.1465 101.457 67.1447 103.049C64.8668 119.856 64.106 136.835 64.8717 153.779C64.9172 154.861 64.9676 155.851 65.0261 156.805C65.111 158.382 65.219 160.046 65.3468 161.753C65.4202 162.76 65.4976 163.77 65.5823 164.777C65.7242 166.416 65.8801 168.082 66.0461 169.728C66.1502 170.733 66.2584 171.744 66.3741 172.75C66.5962 174.726 66.8476 176.752 67.143 178.944C67.14 180.54 67.7697 182.071 68.8936 183.202C70.0175 184.333 71.5435 184.97 73.1361 184.974H173.637C175.225 184.972 176.748 184.339 177.871 183.213C178.995 182.088 179.626 180.561 179.628 178.97L179.633 178.928C180.08 176.884 180.497 174.801 180.872 172.737C181.073 171.649 181.246 170.661 181.401 169.716C181.683 167.995 181.934 166.33 182.146 164.767C182.291 163.717 182.423 162.701 182.536 161.744C182.723 160.179 182.893 158.562 183.054 156.799C183.142 155.841 183.223 154.851 183.301 153.774V153.774C184.53 136.791 183.294 119.719 179.633 103.091L179.628 103.049C179.626 101.457 178.995 99.9313 177.871 98.8058C176.748 97.6802 175.225 97.0471 173.637 97.0453L73.1361 97.0453Z" fill="#3F3D56"/>
<path d="M127.288 122.748C105.512 122.748 82.4374 120.765 52.2377 116.799H52.2345C50.6689 116.796 49.1592 116.215 47.9948 115.166C46.8304 114.118 46.0933 112.675 45.9247 111.115C45.8972 110.881 45.8839 110.645 45.8849 110.409V92.2033C45.8842 92.1644 45.886 92.1255 45.8902 92.0868C45.9242 90.4141 46.61 88.8211 47.8009 87.6485C48.9918 86.4759 50.5933 85.8168 52.2628 85.8121C104.804 78.6533 136.721 78.6541 194.534 85.8136H194.536C196.205 85.8246 197.803 86.4892 198.989 87.6653C200.175 88.8414 200.856 90.4357 200.884 92.1076C200.888 92.1394 200.889 92.1714 200.888 92.2033V110.409C200.889 110.646 200.876 110.882 200.848 111.117C200.677 112.681 199.935 114.126 198.765 115.175C197.595 116.224 196.08 116.803 194.51 116.8C169.532 120.765 149.059 122.748 127.288 122.748Z" fill="#EF4C29"/>
<path d="M130.781 135.393H117.569C115.887 135.391 114.275 134.721 113.086 133.529C111.897 132.337 111.228 130.722 111.226 129.037V80.9351C111.228 79.2499 111.897 77.6343 113.086 76.4428C114.275 75.2512 115.887 74.5809 117.569 74.579H130.781C132.463 74.5809 134.075 75.2511 135.264 76.4427C136.453 77.6343 137.122 79.2499 137.124 80.9351V129.037C137.122 130.722 136.453 132.337 135.264 133.529C134.075 134.721 132.463 135.391 130.781 135.393Z" fill="#3F3D56"/>
<path d="M160.778 65.3748C160.682 64.473 160.514 63.5805 160.274 62.706C160.016 61.8298 159.688 60.9755 159.295 60.1511C157.886 57.1202 155.508 54.6465 152.539 53.1212C148.854 51.3032 144.638 51.1544 140.675 52.0303C137.344 52.778 134.217 54.2454 131.51 56.3301C130.107 57.3895 128.825 58.6011 127.688 59.9427C126.514 61.3544 124.33 65.2328 124.172 65.5919C122.938 62.7826 121.166 60.2428 118.957 58.1157C116.389 55.6737 113.325 53.8176 109.973 52.6752C108.192 52.0736 106.342 51.6969 104.467 51.5537C102.484 51.3884 100.486 51.563 98.5611 52.0701C95.1029 53.0406 92.1117 55.2317 90.1394 58.2392C88.26 61.0343 87.337 64.3653 87.5091 67.7313C87.6043 69.4308 87.97 71.1041 88.5924 72.6878C88.9261 73.5451 89.3217 74.3768 89.7763 75.1764C90.2466 75.9661 90.7726 76.7212 91.3501 77.436C93.6161 80.2227 96.6684 82.2594 100.108 83.2801C103.78 84.4174 107.675 84.4545 111.451 83.9206C115.329 83.3723 119.062 82.1144 122.714 80.7368C123.201 80.553 123.686 80.3639 124.172 80.1767C127.419 81.4283 130.693 82.6355 134.092 83.4016C137.915 84.327 141.883 84.4864 145.769 83.8709C149.39 83.2752 152.757 81.6271 155.452 79.1311C157.945 76.7796 159.69 73.7428 160.468 70.4015C160.852 68.7552 160.957 67.0559 160.778 65.3748ZM110.443 80.1785C108.347 80.4476 106.227 80.46 104.128 80.2155C102.624 79.9971 101.15 79.604 99.7361 79.0442C96.4043 77.6537 93.7482 75.0111 92.3367 71.6823C91.9149 70.6329 91.6145 69.5385 91.4413 68.4205C91.3303 67.4258 91.33 66.4219 91.4404 65.4272C91.6048 64.3807 91.8865 63.3561 92.2801 62.3729C92.7059 61.4166 93.2345 60.5097 93.8566 59.6683C94.4599 58.9155 95.1416 58.2293 95.8902 57.6214C96.5998 57.0955 97.3635 56.6471 98.1682 56.2838C99.1287 55.9079 100.128 55.6401 101.147 55.4852C102.528 55.332 103.923 55.343 105.301 55.5177C106.941 55.7715 108.547 56.215 110.085 56.8392C111.721 57.5509 113.268 58.4543 114.692 59.5307C116.009 60.5768 117.204 61.77 118.252 63.0873C119.289 64.4702 120.159 65.9716 120.844 67.5601C121.509 69.2174 121.976 70.9476 122.236 72.7148L122.239 72.7407C122.137 73.6286 122.087 74.5216 122.087 75.4153C122.087 75.7595 122.102 76.1034 122.12 76.447C121.957 76.6046 121.82 76.7881 121.717 76.9902C119.025 78.0487 116.265 78.9259 113.455 79.6157C112.46 79.8461 111.456 80.0337 110.443 80.1785ZM156.911 68.4204C156.738 69.5385 156.437 70.6331 156.016 71.6826C154.611 75.016 151.953 77.6607 148.616 79.0442C147.203 79.604 145.729 79.9971 144.225 80.2155C142.122 80.4605 139.997 80.4476 137.898 80.1772C134.169 79.6428 130.571 78.4632 127.052 77.1467C126.907 77.0925 126.764 77.0354 126.619 76.9807C126.521 76.7817 126.391 76.6002 126.234 76.4435C126.296 75.1963 126.257 73.9461 126.118 72.7051C126.378 70.9413 126.845 69.2143 127.509 67.5601C128.193 65.9717 129.063 64.4703 130.101 63.0875C131.148 61.7701 132.343 60.5768 133.661 59.5307C135.085 58.4543 136.631 57.5509 138.267 56.8392C139.806 56.215 141.411 55.7715 143.051 55.5177C144.43 55.343 145.824 55.3321 147.205 55.4852C148.224 55.6401 149.224 55.9079 150.184 56.2838C150.989 56.6471 151.753 57.0955 152.462 57.6216C153.211 58.2294 153.893 58.9156 154.496 59.6684C155.118 60.5098 155.647 61.4166 156.072 62.3729C156.466 63.3561 156.748 64.3807 156.912 65.4272C157.022 66.4219 157.022 67.4258 156.911 68.4204Z" fill="#3F3D56"/>
<path d="M83.9594 137.523C85.2403 137.523 86.2786 136.483 86.2786 135.199C86.2786 133.916 85.2403 132.875 83.9594 132.875C82.6785 132.875 81.6401 133.916 81.6401 135.199C81.6401 136.483 82.6785 137.523 83.9594 137.523Z" fill="#EF4C29"/>
<path d="M100.58 131.713C101.861 131.713 102.9 130.672 102.9 129.389C102.9 128.105 101.861 127.065 100.58 127.065C99.2996 127.065 98.2612 128.105 98.2612 129.389C98.2612 130.672 99.2996 131.713 100.58 131.713Z" fill="#EF4C29"/>
<path d="M93.2362 149.918C94.5171 149.918 95.5555 148.878 95.5555 147.594C95.5555 146.311 94.5171 145.27 93.2362 145.27C91.9554 145.27 90.917 146.311 90.917 147.594C90.917 148.878 91.9554 149.918 93.2362 149.918Z" fill="#EF4C29"/>
<path d="M162.04 137.523C163.321 137.523 164.36 136.483 164.36 135.199C164.36 133.916 163.321 132.875 162.04 132.875C160.76 132.875 159.721 133.916 159.721 135.199C159.721 136.483 160.76 137.523 162.04 137.523Z" fill="#EF4C29"/>
<path d="M145.419 131.713C146.7 131.713 147.739 130.672 147.739 129.389C147.739 128.105 146.7 127.065 145.419 127.065C144.138 127.065 143.1 128.105 143.1 129.389C143.1 130.672 144.138 131.713 145.419 131.713Z" fill="#EF4C29"/>
<path d="M152.764 149.918C154.044 149.918 155.083 148.878 155.083 147.594C155.083 146.311 154.044 145.27 152.764 145.27C151.483 145.27 150.444 146.311 150.444 147.594C150.444 148.878 151.483 149.918 152.764 149.918Z" fill="#EF4C29"/>
<path d="M163.974 178.195C165.254 178.195 166.293 177.154 166.293 175.871C166.293 174.587 165.254 173.547 163.974 173.547C162.693 173.547 161.654 174.587 161.654 175.871C161.654 177.154 162.693 178.195 163.974 178.195Z" fill="#EF4C29"/>
<path d="M169.771 161.539C171.052 161.539 172.091 160.498 172.091 159.215C172.091 157.931 171.052 156.891 169.771 156.891C168.491 156.891 167.452 157.931 167.452 159.215C167.452 160.498 168.491 161.539 169.771 161.539Z" fill="#EF4C29"/>
<path d="M151.604 168.899C152.885 168.899 153.923 167.858 153.923 166.574C153.923 165.291 152.885 164.25 151.604 164.25C150.323 164.25 149.285 165.291 149.285 166.574C149.285 167.858 150.323 168.899 151.604 168.899Z" fill="#EF4C29"/>
<path d="M97.4882 178.195C98.7691 178.195 99.8074 177.154 99.8074 175.871C99.8074 174.587 98.7691 173.547 97.4882 173.547C96.2073 173.547 95.1689 174.587 95.1689 175.871C95.1689 177.154 96.2073 178.195 97.4882 178.195Z" fill="#EF4C29"/>
<path d="M103.287 161.539C104.567 161.539 105.606 160.498 105.606 159.215C105.606 157.931 104.567 156.891 103.287 156.891C102.006 156.891 100.967 157.931 100.967 159.215C100.967 160.498 102.006 161.539 103.287 161.539Z" fill="#EF4C29"/>
<path d="M85.119 168.899C86.3999 168.899 87.4383 167.858 87.4383 166.574C87.4383 165.291 86.3999 164.25 85.119 164.25C83.8382 164.25 82.7998 165.291 82.7998 166.574C82.7998 167.858 83.8382 168.899 85.119 168.899Z" fill="#EF4C29"/>
<path d="M151.756 14.0517C152.635 14.4191 153.592 14.5536 154.538 14.4423C155.483 14.3311 156.383 13.9778 157.153 13.4164C159.114 11.9505 159.849 9.39167 160.465 7.01911L162.285 0L159.212 1.86945C157.002 3.21359 154.741 4.60227 153.146 6.64291C151.551 8.68354 150.744 11.5432 151.796 13.9112" fill="#F2F2F2"/>
<path d="M69.5749 74.0089C70.168 73.2631 70.5594 72.3768 70.7115 71.4354C70.8636 70.494 70.7712 69.5292 70.4431 68.634C69.5734 66.3422 67.3189 64.9327 65.2105 63.6894L58.9722 60.0135L59.9248 63.4869C60.6096 65.9848 61.3233 68.5438 62.8449 70.64C64.3666 72.7362 66.8901 74.2971 69.4507 73.9326" fill="#F2F2F2"/>
<path d="M216.074 182.079C216.667 181.334 217.058 180.447 217.211 179.506C217.363 178.564 217.27 177.6 216.942 176.704C216.072 174.413 213.818 173.003 211.71 171.76L205.471 168.084L206.424 171.557C207.109 174.055 207.822 176.614 209.344 178.71C210.866 180.807 213.389 182.368 215.95 182.003" fill="#F2F2F2"/>
<path d="M98.2613 44.9469C99.9691 44.9469 101.354 43.5595 101.354 41.8481C101.354 40.1366 99.9691 38.7493 98.2613 38.7493C96.5534 38.7493 95.1689 40.1366 95.1689 41.8481C95.1689 43.5595 96.5534 44.9469 98.2613 44.9469Z" fill="#FD6584"/>
<path d="M15.9283 136.361C17.6361 136.361 19.0206 134.974 19.0206 133.262C19.0206 131.551 17.6361 130.164 15.9283 130.164C14.2204 130.164 12.8359 131.551 12.8359 133.262C12.8359 134.974 14.2204 136.361 15.9283 136.361Z" fill="#FD6584"/>
<path d="M228.526 111.184C230.234 111.184 231.618 109.796 231.618 108.085C231.618 106.373 230.234 104.986 228.526 104.986C226.818 104.986 225.434 106.373 225.434 108.085C225.434 109.796 226.818 111.184 228.526 111.184Z" fill="#FD6584"/>
<path d="M12.8355 58.504C14.5433 58.504 15.9278 57.1166 15.9278 55.4052C15.9278 53.6938 14.5433 52.3064 12.8355 52.3064C11.1276 52.3064 9.74316 53.6938 9.74316 55.4052C9.74316 57.1166 11.1276 58.504 12.8355 58.504Z" fill="#E6E6E6"/>
<path d="M204.173 146.82C205.881 146.82 207.266 145.432 207.266 143.721C207.266 142.009 205.881 140.622 204.173 140.622C202.466 140.622 201.081 142.009 201.081 143.721C201.081 145.432 202.466 146.82 204.173 146.82Z" fill="#E6E6E6"/>
<path d="M210.358 52.6938C212.066 52.6938 213.451 51.3064 213.451 49.595C213.451 47.8836 212.066 46.4962 210.358 46.4962C208.651 46.4962 207.266 47.8836 207.266 49.595C207.266 51.3064 208.651 52.6938 210.358 52.6938Z" fill="#E6E6E6"/>
<path d="M74.7703 101.979C74.503 102.402 73.8549 102.341 73.4909 102.076C72.9857 101.708 73.1493 101 73.4972 100.581C74.6029 99.2511 76.4317 100.655 76.6784 101.976C76.7701 102.621 76.6711 103.278 76.3937 103.866C76.1163 104.454 75.6727 104.948 75.1179 105.286C73.8563 106.035 72.2176 105.659 71.1329 104.763C68.8702 102.892 69.4863 99.1472 71.9996 97.794C73.6035 96.9304 75.6313 97.3095 77.2113 98.0329C78.99 98.8472 80.5194 100.095 82.1642 101.136C85.7732 103.4 89.8557 104.796 94.0927 105.217C94.8344 105.293 94.8292 104.131 94.0927 104.055C91.7448 103.812 89.4397 103.256 87.2386 102.402C85.0608 101.517 82.9938 100.38 81.0798 99.014C79.1431 97.6838 77.1198 96.3915 74.7231 96.1717C73.7559 96.0585 72.776 96.204 71.8831 96.5933C70.9902 96.9826 70.2162 97.602 69.6396 98.3883C69.1267 99.0919 68.7834 99.905 68.6365 100.764C68.4897 101.623 68.5433 102.504 68.7932 103.339C69.0944 104.211 69.621 104.988 70.3193 105.591C71.0176 106.193 71.8628 106.6 72.7688 106.769C73.641 106.934 74.5428 106.822 75.3486 106.449C76.1543 106.076 76.8238 105.46 77.2637 104.688C78.1458 103.159 78.1171 101.105 76.7847 99.8374C76.4028 99.4484 75.9246 99.1679 75.3991 99.0247C74.8736 98.8814 74.3196 98.8806 73.7936 99.0222C73.3091 99.1863 72.8827 99.4882 72.5667 99.8913C72.2507 100.294 72.0587 100.781 72.0143 101.292C71.8858 103.276 74.697 104.269 75.7716 102.565C76.1715 101.931 75.1685 101.347 74.7703 101.979L74.7703 101.979Z" fill="#3F3D56"/>
<path d="M173.936 101.979C174.203 102.402 174.851 102.341 175.215 102.076C175.72 101.708 175.557 101 175.209 100.581C174.103 99.2511 172.274 100.655 172.028 101.976C171.936 102.621 172.035 103.278 172.312 103.866C172.59 104.454 173.033 104.948 173.588 105.286C174.85 106.035 176.489 105.659 177.573 104.763C179.836 102.892 179.22 99.1472 176.707 97.794C175.103 96.9304 173.075 97.3095 171.495 98.0329C169.716 98.8472 168.187 100.095 166.542 101.136C162.933 103.4 158.85 104.796 154.613 105.217C153.872 105.293 153.877 104.131 154.613 104.055C156.961 103.812 159.266 103.256 161.467 102.402C163.645 101.517 165.712 100.38 167.626 99.014C169.563 97.6838 171.586 96.3915 173.983 96.1717C174.95 96.0585 175.93 96.204 176.823 96.5933C177.716 96.9826 178.49 97.602 179.067 98.3883C179.579 99.0919 179.923 99.905 180.07 100.764C180.216 101.623 180.163 102.504 179.913 103.339C179.612 104.211 179.085 104.988 178.387 105.591C177.688 106.193 176.843 106.6 175.937 106.769C175.065 106.934 174.163 106.822 173.358 106.449C172.552 106.076 171.882 105.46 171.442 104.688C170.56 103.159 170.589 101.105 171.921 99.8374C172.303 99.4484 172.781 99.1679 173.307 99.0247C173.832 98.8814 174.387 98.8806 174.912 99.0222C175.397 99.1863 175.823 99.4882 176.139 99.8913C176.455 100.294 176.647 100.781 176.692 101.292C176.82 103.276 174.009 104.269 172.935 102.565C172.535 101.931 173.538 101.347 173.936 101.979L173.936 101.979Z" fill="#3F3D56"/>
<path d="M34.4157 14.0851L32.8839 16.0109L27.4668 12.7998L28.9982 10.874L34.4157 14.0851Z" fill="#E4E4E4"/>
<path d="M40.0678 22.3589L41.4205 24.382L35.7297 27.2185L34.377 25.1957L40.0678 22.3589Z" fill="#E4E4E4"/>
<path d="M45.9589 13.5636L48.6623 13.6596L48.3932 19.3279L45.6895 19.2323L45.9589 13.5636Z" fill="#E4E4E4"/>
<path d="M225.754 132.614L224.222 134.54L218.805 131.329L220.336 129.403L225.754 132.614Z" fill="#E4E4E4"/>
<path d="M231.406 140.888L232.758 142.911L227.068 145.747L225.715 143.724L231.406 140.888Z" fill="#E4E4E4"/>
<path d="M237.297 132.093L240 132.189L239.731 137.857L237.027 137.761L237.297 132.093Z" fill="#E4E4E4"/>
</g>
<defs>
<clipPath id="clip0_233_6228">
<rect width="240" height="185" fill="white"/>
</clipPath>
</defs>
</svg>
