<svg width="262" height="158" viewBox="0 0 262 158" fill="none" xmlns="http://www.w3.org/2000/svg">
<g clip-path="url(#clip0_594_19651)">
<path d="M93.9793 90.9305C102.958 76.5978 120.085 65.5927 138.216 66.6529C124.842 79.85 117.044 96.9142 116.2 114.827C115.903 121.736 116.364 129.448 111.309 134.622C108.163 137.841 103.355 139.4 98.628 139.727C93.9004 140.054 89.174 139.279 84.5096 138.507L83.3781 138.822C82.9474 122.34 85.0005 105.263 93.9793 90.9305Z" fill="#F0F0F0"/>
<path d="M138.243 66.9978C124.836 72.8547 113.403 82.6363 106.386 94.5657C104.868 97.1448 103.577 99.8809 103.013 102.774C102.449 105.668 102.843 108.423 103.932 111.172C104.928 113.685 106.268 116.151 106.573 118.84C106.895 121.674 105.746 124.325 103.677 126.428C101.146 129.001 97.7468 130.596 94.363 132.051C90.6059 133.666 86.6752 135.289 84.0141 138.304C83.6917 138.669 83.086 138.194 83.4079 137.829C88.0378 132.584 95.963 131.599 101.459 127.374C104.023 125.403 105.948 122.718 105.827 119.573C105.721 116.822 104.342 114.278 103.309 111.741C102.225 109.078 101.684 106.4 102.073 103.56C102.471 100.655 103.647 97.8674 105.085 95.2644C108.328 89.3941 112.766 84.0046 117.85 79.3457C123.693 73.9905 130.502 69.5818 137.984 66.3102C138.447 66.1079 138.703 66.7968 138.243 66.9978Z" fill="white"/>
<path d="M108.442 90.579C106.386 89.2152 104.932 87.2329 104.339 84.9859C103.745 82.739 104.051 80.3739 105.202 78.3128C105.437 77.8965 106.161 78.2076 105.926 78.6244C104.85 80.5419 104.565 82.7451 105.123 84.8364C105.68 86.9277 107.043 88.7693 108.965 90.0289C109.382 90.3031 108.857 90.8516 108.442 90.579Z" fill="white"/>
<path d="M103.243 109.958C108.393 109.276 113.071 106.856 116.342 103.183C116.666 102.819 117.272 103.294 116.949 103.658C113.536 107.474 108.663 109.983 103.301 110.683C102.79 110.75 102.735 110.024 103.243 109.958V109.958Z" fill="white"/>
<path d="M124.088 74.8847C124.762 75.5627 125.612 76.0782 126.56 76.3849C127.507 76.6916 128.524 76.7798 129.519 76.6416C130.029 76.5694 130.084 77.2945 129.578 77.3663C128.478 77.5143 127.355 77.4156 126.307 77.0789C125.259 76.7422 124.317 76.1777 123.565 75.4347C123.488 75.3701 123.44 75.2811 123.433 75.1859C123.425 75.0908 123.458 74.9965 123.524 74.9223C123.593 74.8498 123.692 74.8051 123.798 74.7981C123.903 74.7911 124.008 74.8222 124.088 74.8847Z" fill="white"/>
<path d="M174.291 111.867C173.974 111.92 173.657 111.974 173.337 112.032C169.08 112.769 164.895 113.819 160.825 115.171C160.509 115.271 160.19 115.376 159.877 115.484C150.11 118.836 141.114 123.804 133.345 130.136C130.256 132.658 127.384 135.39 124.752 138.308C121.117 142.337 117.53 146.969 112.78 149.596C112.288 149.876 111.777 150.127 111.251 150.349L83.89 140.05C83.8408 139.999 83.7887 139.952 83.7391 139.901L82.626 139.535C82.7501 139.376 82.8827 139.213 83.0068 139.054C83.0785 138.961 83.1561 138.871 83.2277 138.779C83.2774 138.718 83.3274 138.657 83.3684 138.599C83.3848 138.579 83.4016 138.559 83.4154 138.544C83.4564 138.486 83.5012 138.437 83.5396 138.385C84.2777 137.474 85.0241 136.567 85.7789 135.662C85.7815 135.657 85.7815 135.657 85.7902 135.653C91.5607 128.776 98.0145 122.275 105.351 116.87C105.571 116.708 105.794 116.54 106.028 116.382C109.349 113.962 112.883 111.793 116.594 109.896C118.63 108.863 120.722 107.924 122.863 107.083C128.398 104.92 134.273 103.56 140.274 103.053C152.236 102.045 164.421 104.52 173.595 111.34C173.83 111.514 174.059 111.687 174.291 111.867Z" fill="#F0F0F0"/>
<path d="M174.085 112.159C159.494 109.51 143.876 111.075 130.358 116.765C127.435 117.996 124.588 119.475 122.219 121.477C119.849 123.48 118.335 125.894 117.381 128.684C116.509 131.235 115.942 133.936 114.402 136.25C112.778 138.689 110.102 140.177 107.055 140.726C103.327 141.398 99.5546 140.814 95.8877 140.127C91.8162 139.364 87.6006 138.512 83.4759 139.465C82.9761 139.581 82.8079 138.87 83.3069 138.755C90.4832 137.097 97.4651 140.64 104.656 140.269C108.012 140.096 111.33 139.005 113.32 136.427C115.06 134.172 115.647 131.388 116.506 128.798C117.407 126.079 118.752 123.646 120.947 121.591C123.192 119.489 125.981 117.906 128.856 116.613C135.34 113.697 142.459 111.819 149.61 110.877C157.828 109.793 166.19 109.993 174.334 111.468C174.838 111.56 174.586 112.25 174.085 112.159V112.159Z" fill="white"/>
<path d="M134.644 114.705C133.908 112.493 134.062 110.116 135.079 107.998C136.096 105.88 137.91 104.158 140.196 103.142C140.66 102.937 141.031 103.581 140.567 103.786C138.436 104.729 136.747 106.332 135.804 108.307C134.862 110.281 134.728 112.496 135.427 114.552C135.578 114.999 134.795 115.15 134.644 114.705Z" fill="white"/>
<path d="M117.635 127.338C122.201 129.607 127.541 130.231 132.59 129.085C133.09 128.971 133.259 129.682 132.759 129.796C127.502 130.979 121.946 130.319 117.201 127.949C116.749 127.723 117.186 127.113 117.635 127.338Z" fill="white"/>
<path d="M157.551 110.723C157.639 111.633 157.975 112.508 158.528 113.271C159.082 114.034 159.835 114.66 160.721 115.093C161.176 115.314 160.739 115.923 160.287 115.704C159.311 115.221 158.48 114.529 157.866 113.687C157.253 112.846 156.876 111.881 156.768 110.876C156.749 110.783 156.77 110.686 156.827 110.605C156.884 110.525 156.973 110.468 157.075 110.445C157.179 110.425 157.287 110.443 157.376 110.495C157.465 110.547 157.528 110.629 157.551 110.723Z" fill="white"/>
<path d="M122.17 128.857C118.338 112.045 113.548 106.439 113.548 106.439L111.719 105.152L109.518 103.601L109.529 103.401L109.007 103.24L108.884 103.154L108.683 103.014L108.651 103.045L108.583 103.11L98.6254 100.038L85.9926 96.1444L80.1429 89.2447C79.1901 88.121 77.9636 87.2127 76.5593 86.5912C75.155 85.9696 73.6112 85.6516 72.0488 85.6621L53.3666 85.7876C50.8405 85.8045 48.4128 86.6783 46.5607 88.2372L34.2812 98.5731L15.1472 106.865L15.1149 106.836L14.914 106.966L11.9576 108.249L12.0796 108.825L10.2498 110.024C10.2498 110.024 5.46008 115.239 1.62826 130.883C0.653493 134.863 0.173675 143.402 0.000486696 153.924C-0.00821254 154.456 0.0997845 154.985 0.318196 155.479C0.536606 155.973 0.861076 156.423 1.27274 156.802C1.6844 157.181 2.17503 157.482 2.71612 157.688C3.25721 157.894 3.83796 158 4.42459 158H106.623V158H119.378C119.965 158 120.545 157.894 121.086 157.688C121.626 157.483 122.117 157.182 122.528 156.803C122.94 156.424 123.264 155.975 123.483 155.482C123.702 154.988 123.81 154.46 123.802 153.928C123.633 142.479 123.154 133.174 122.17 128.857Z" fill="#EF4C29"/>
<path d="M135.282 14.6619C131.306 14.6619 127.493 16.0952 124.682 18.6464C121.87 21.1977 120.291 24.658 120.291 28.2661C120.291 31.8741 121.87 35.3344 124.682 37.8857C127.493 40.437 131.306 41.8702 135.282 41.8702H247.008C250.984 41.8702 254.797 40.437 257.609 37.8857C260.42 35.3344 262 31.8741 262 28.2661C262 24.658 260.42 21.1977 257.609 18.6464C254.797 16.0952 250.984 14.6619 247.008 14.6619H135.282Z" fill="#E5E5E5"/>
<path d="M135.283 17.415C132.111 17.415 129.07 18.5583 126.827 20.5932C124.585 22.6282 123.325 25.3882 123.325 28.266C123.325 31.1439 124.585 33.9038 126.827 35.9388C129.07 37.9737 132.111 39.117 135.283 39.117H247.008C250.18 39.117 253.221 37.9737 255.464 35.9388C257.706 33.9038 258.966 31.1439 258.966 28.266C258.966 25.3882 257.706 22.6282 255.464 20.5932C253.221 18.5583 250.18 17.415 247.008 17.415H135.283Z" fill="white"/>
<path d="M65.6416 79.2933C79.1591 79.2933 90.1172 69.3495 90.1172 57.0833C90.1172 44.817 79.1591 34.8733 65.6416 34.8733C52.1241 34.8733 41.166 44.817 41.166 57.0833C41.166 69.3495 52.1241 79.2933 65.6416 79.2933Z" fill="#9E616A"/>
<path d="M59.3802 78.2058C59.2756 77.9969 59.1714 77.7873 59.0674 77.5769C59.1075 77.5781 59.1471 77.5833 59.1872 77.5842L59.3802 78.2058Z" fill="#2F2E41"/>
<path d="M40.4853 35.8833C41.7232 34.9872 43.17 34.1627 44.7527 34.209C46.3354 34.2553 47.9404 35.5524 47.6125 36.9582C50.5196 32.2874 55.1468 28.6951 60.6819 26.8117C66.217 24.9282 72.3064 24.8742 77.8811 26.6589C81.8147 27.9183 85.6723 30.4378 86.5759 34.1331C86.8079 35.0816 86.8577 36.1218 87.5104 36.8921C88.3333 37.8632 89.9079 38.0829 91.2044 37.7413C91.2174 37.7379 91.2303 37.7344 91.2432 37.7309C91.4622 37.663 91.6987 37.6564 91.9219 37.7118C92.1452 37.7671 92.345 37.882 92.4955 38.0416C92.646 38.2012 92.7403 38.398 92.7661 38.6067C92.792 38.8154 92.7482 39.0264 92.6405 39.2123L91.5275 41.0959C92.9306 41.3797 94.3884 41.3516 95.7769 41.0139C96.0075 40.959 96.2513 40.9702 96.4746 41.046C96.698 41.1218 96.89 41.2584 97.0244 41.4371C97.1588 41.6158 97.229 41.8279 97.2253 42.0443C97.2216 42.2606 97.1443 42.4707 97.0038 42.6455C93.3338 47.2179 87.2023 50.1705 80.9453 50.1358C76.4982 50.1112 72.0053 48.7204 67.6773 49.6484C66.0029 50.0074 64.4384 50.702 63.0985 51.6813C61.7585 52.6605 60.6772 53.8996 59.9338 55.3075C59.1904 56.7154 58.8039 58.2565 58.8024 59.8177C58.801 61.3789 59.1848 62.9206 59.9256 64.3297C58.596 63.01 56.0258 63.3224 54.6657 64.6163C53.3057 65.9103 52.9536 67.8415 53.0906 69.6253C53.3002 72.3535 54.4781 74.9243 55.72 77.4263C45.3083 77.1289 35.4606 70.5014 32.1459 61.5374C28.8172 52.536 32.3058 41.8043 40.4853 35.8833Z" fill="#2F2E41"/>
<path opacity="0.2" d="M24.0903 123.781L30.9552 157.675L35.0743 158L24.0903 123.781Z" fill="black"/>
<path opacity="0.2" d="M99.708 121.225L92.8432 157.65L88.7241 158L99.708 121.225Z" fill="black"/>
<path d="M46.3406 24.4767C45.0244 24.9755 43.6509 24.4289 43.075 23.1772C42.4902 21.9063 43.0363 20.6162 44.3737 20.1095C45.7111 19.6027 47.0601 20.1506 47.6543 21.442C48.2397 22.714 47.6994 23.9619 46.3406 24.4767ZM43.8193 17.608L42.7727 18.0046C42.5113 18.1025 42.2188 18.1077 41.9533 18.0194C41.6878 17.931 41.4685 17.7554 41.3388 17.5273L41.287 17.4354C40.1609 15.5926 40.032 13.3528 40.9058 10.7819C41.7153 8.47567 42.0515 6.85371 41.3754 5.3843C40.5936 3.68538 38.9242 3.15319 36.7954 3.92413C35.9697 4.23698 35.707 4.23199 35.0573 4.8169C34.9159 4.94567 34.7474 5.0473 34.5619 5.11573C34.3763 5.18415 34.1775 5.21796 33.9772 5.21516C33.7836 5.21309 33.5925 5.17566 33.4152 5.10511C33.2378 5.03456 33.078 4.93233 32.9451 4.80451C32.6892 4.55819 32.5458 4.23292 32.544 3.89439C32.5421 3.55586 32.6818 3.2293 32.935 2.98064C34.0271 1.94322 35.3444 1.12249 36.8036 0.570233C41.3776 -1.16289 43.6801 1.39582 44.7338 3.68563C45.7644 5.92532 45.1847 8.00339 44.2532 10.6947C43.4726 12.931 43.518 14.5881 44.4048 16.2357C44.4688 16.3603 44.5044 16.4953 44.5095 16.6326C44.5146 16.77 44.489 16.9069 44.4343 17.0351C44.3796 17.1632 44.2969 17.2801 44.1913 17.3785C44.0856 17.477 43.959 17.555 43.8193 17.608L43.8193 17.608Z" fill="#EF4C29"/>
<path d="M159.961 34.7542H137.732C137.661 34.7546 137.591 34.7424 137.526 34.7182C137.461 34.694 137.401 34.6582 137.351 34.6131C137.301 34.5679 137.261 34.5142 137.234 34.455C137.207 34.3959 137.193 34.3324 137.193 34.2683C137.193 34.2043 137.207 34.1408 137.234 34.0816C137.261 34.0225 137.301 33.9688 137.351 33.9236C137.401 33.8785 137.461 33.8427 137.526 33.8185C137.591 33.7943 137.661 33.782 137.732 33.7825H159.961C160.103 33.7834 160.238 33.8349 160.337 33.9259C160.437 34.017 160.493 34.1401 160.493 34.2683C160.493 34.3966 160.437 34.5197 160.337 34.6107C160.238 34.7018 160.103 34.7533 159.961 34.7542Z" fill="#EF4C29"/>
<path d="M188.16 34.9163H165.931C165.861 34.9168 165.791 34.9045 165.725 34.8803C165.66 34.8561 165.6 34.8203 165.55 34.7752C165.5 34.73 165.46 34.6763 165.433 34.6172C165.406 34.558 165.392 34.4945 165.392 34.4305C165.392 34.3664 165.406 34.3029 165.433 34.2438C165.46 34.1846 165.5 34.1309 165.55 34.0857C165.6 34.0406 165.66 34.0048 165.725 33.9806C165.791 33.9564 165.861 33.9442 165.931 33.9446H188.16C188.231 33.9442 188.301 33.9564 188.366 33.9806C188.432 34.0048 188.491 34.0406 188.541 34.0857C188.591 34.1309 188.631 34.1846 188.658 34.2438C188.686 34.3029 188.699 34.3664 188.699 34.4305C188.699 34.4945 188.686 34.558 188.658 34.6172C188.631 34.6763 188.591 34.73 188.541 34.7752C188.491 34.8203 188.432 34.8561 188.366 34.8803C188.301 34.9045 188.231 34.9168 188.16 34.9163Z" fill="#EF4C29"/>
<path d="M216.36 35.0782H194.13C193.989 35.0773 193.854 35.0257 193.754 34.9347C193.655 34.8437 193.599 34.7206 193.599 34.5923C193.599 34.464 193.655 34.3409 193.754 34.2499C193.854 34.1589 193.989 34.1073 194.13 34.1065H216.36C216.43 34.106 216.5 34.1183 216.566 34.1425C216.631 34.1667 216.691 34.2024 216.741 34.2476C216.791 34.2927 216.83 34.3465 216.858 34.4056C216.885 34.4648 216.899 34.5282 216.899 34.5923C216.899 34.6564 216.885 34.7199 216.858 34.779C216.83 34.8382 216.791 34.8919 216.741 34.9371C216.691 34.9822 216.631 35.0179 216.566 35.0422C216.5 35.0664 216.43 35.0786 216.36 35.0782H216.36Z" fill="#EF4C29"/>
<path d="M244.558 35.24H222.329C222.188 35.2392 222.053 35.1876 221.953 35.0966C221.853 35.0055 221.797 34.8825 221.797 34.7542C221.797 34.6259 221.853 34.5028 221.953 34.4118C222.053 34.3208 222.188 34.2692 222.329 34.2683H244.558C244.7 34.2692 244.835 34.3208 244.935 34.4118C245.034 34.5028 245.09 34.6259 245.09 34.7542C245.09 34.8825 245.034 35.0055 244.935 35.0966C244.835 35.1876 244.7 35.2392 244.558 35.24Z" fill="#EF4C29"/>
<path d="M148.798 30.2827C151.08 30.2827 152.929 28.6042 152.929 26.5337C152.929 24.4632 151.08 22.7847 148.798 22.7847C146.516 22.7847 144.667 24.4632 144.667 26.5337C144.667 28.6042 146.516 30.2827 148.798 30.2827Z" fill="#EF4C29"/>
<path d="M177.167 30.2827C179.449 30.2827 181.299 28.6042 181.299 26.5337C181.299 24.4632 179.449 22.7847 177.167 22.7847C174.885 22.7847 173.036 24.4632 173.036 26.5337C173.036 28.6042 174.885 30.2827 177.167 30.2827Z" fill="#EF4C29"/>
<path d="M205.537 30.2827C207.818 30.2827 209.668 28.6042 209.668 26.5337C209.668 24.4632 207.818 22.7847 205.537 22.7847C203.255 22.7847 201.405 24.4632 201.405 26.5337C201.405 28.6042 203.255 30.2827 205.537 30.2827Z" fill="#EF4C29"/>
<path d="M233.906 30.2827C236.188 30.2827 238.037 28.6042 238.037 26.5337C238.037 24.4632 236.188 22.7847 233.906 22.7847C231.624 22.7847 229.774 24.4632 229.774 26.5337C229.774 28.6042 231.624 30.2827 233.906 30.2827Z" fill="#EF4C29"/>
</g>
<defs>
<clipPath id="clip0_594_19651">
<rect width="262" height="158" fill="white"/>
</clipPath>
</defs>
</svg>
