<svg width="160" height="108" viewBox="0 0 160 108" fill="none" xmlns="http://www.w3.org/2000/svg">
<g clip-path="url(#clip0_1651_23403)">
<path d="M160 57.4005C160 79.2457 146.251 97.8587 126.994 104.941C124.065 106.021 121.041 106.82 117.962 107.329C109.493 108.727 100.811 107.933 92.7305 105.021C73.3513 97.9967 59.5021 79.3208 59.5112 57.3897C59.5112 29.4557 82.0071 6.80083 109.756 6.80083C120.243 6.78547 130.469 10.0896 138.99 16.2461C151.711 25.4246 160 40.4373 160 57.4005Z" fill="#E5E5E5"/>
<path d="M126.994 104.941C124.065 106.02 121.041 106.82 117.962 107.328C109.493 108.727 100.811 107.933 92.7305 105.021L95.0508 95.6443L95.1909 95.0815L99.926 95.1L123.715 95.1858L124.019 96.092L126.994 104.941Z" fill="#2F2E41"/>
<path d="M43.6443 0H0V49.7341H43.6443V0Z" fill="#E6E6E6"/>
<path d="M42.79 1.05225H0.77832V48.6821H42.79V1.05225Z" fill="white"/>
<path d="M21.8222 46.9883C23.1228 46.9883 24.1772 45.9265 24.1772 44.6167C24.1772 43.3069 23.1228 42.2451 21.8222 42.2451C20.5216 42.2451 19.4673 43.3069 19.4673 44.6167C19.4673 45.9265 20.5216 46.9883 21.8222 46.9883Z" fill="#E6E6E6"/>
<path d="M21.4244 17.9121H7.89844V19.3056H21.4244V17.9121Z" fill="#E6E6E6"/>
<path d="M28.3128 22.0879H7.89844V23.4814H28.3128V22.0879Z" fill="#EF4C29"/>
<path d="M26.3089 26.2896H7.89844V27.683H26.3089V26.2896Z" fill="#E6E6E6"/>
<path d="M36.3281 30.3809H7.89844V31.7743H36.3281V30.3809Z" fill="#EF4C29"/>
<path d="M31.3634 34.2769H8.19385V35.6703H31.3634V34.2769Z" fill="#E6E6E6"/>
<path d="M62.061 80.9274C62.227 81.099 62.3793 81.2836 62.5164 81.4794L83.8489 80.9537L86.3375 76.374L93.6915 79.253L90.0678 87.7916C89.775 88.4814 89.2681 89.0569 88.6229 89.4319C87.9778 89.8068 87.2293 89.9609 86.4898 89.8709L62.3876 86.9388C61.8191 87.6636 61.0449 88.1969 60.1681 88.4679C59.2912 88.7388 58.3532 88.7344 57.4789 88.4554C56.6045 88.1763 55.8352 87.6358 55.2734 86.9057C54.7115 86.1757 54.3837 85.2906 54.3334 84.3683C54.2832 83.446 54.513 82.5302 54.9923 81.7426C55.4715 80.9551 56.1775 80.3331 57.0163 79.9594C57.8551 79.5858 58.787 79.4782 59.688 79.6509C60.589 79.8237 61.4165 80.2686 62.0603 80.9265L62.061 80.9274Z" fill="#9F616A"/>
<path d="M90.7734 54.7763L100.757 51.4813L103.689 47.4316L117.958 48.282L120.053 53.0077L127.661 56.6284L126.492 78.4972L124.491 98.9635C114.205 93.5995 95.0087 97.689 94.8406 97.7556L90.7734 54.7763Z" fill="#EF4C29"/>
<path d="M92.9075 84.3773L82.7529 80.2857L82.7962 80.1037C82.8397 79.9197 87.1617 61.7319 87.7355 58.8091C88.3333 55.7641 90.5174 54.9221 90.6101 54.8879L90.6779 54.8628L94.6965 56.0947L96.4615 70.0603L92.9075 84.3773Z" fill="#EF4C29"/>
<path d="M114.833 98.064C115.071 98.0583 115.309 98.0715 115.545 98.1035L129.667 81.9926L128.024 77.0421L135.12 73.5688L138.874 82.0501C139.178 82.7353 139.252 83.501 139.086 84.2324C138.921 84.9637 138.524 85.6213 137.956 86.1062L119.434 101.911C119.575 102.823 119.437 103.758 119.038 104.589C118.639 105.421 117.998 106.111 117.2 106.566C116.402 107.022 115.486 107.223 114.572 107.141C113.658 107.06 112.791 106.7 112.086 106.11C111.38 105.52 110.869 104.728 110.622 103.838C110.374 102.949 110.401 102.005 110.7 101.131C110.998 100.258 111.553 99.4964 112.292 98.9485C113.03 98.4006 113.916 98.0921 114.833 98.064V98.064Z" fill="#9F616A"/>
<path d="M128.54 83.5609L122.649 69.6067L124.946 59.8868L127.422 56.7372C127.603 56.6591 127.799 56.6198 127.996 56.6216C128.193 56.6235 128.388 56.6665 128.568 56.748C129.481 57.1179 130.258 58.2521 130.878 60.1188L136.399 75.9548L128.54 83.5609Z" fill="#EF4C29"/>
<path d="M97.9771 42.2611V31.7409C97.971 29.8897 98.3271 28.0554 99.0249 26.3427C99.7228 24.63 100.749 23.0725 102.044 21.7592C103.34 20.4458 104.88 19.4023 106.576 18.6882C108.271 17.9741 110.091 17.6034 111.929 17.5972C113.767 17.5911 115.588 17.9497 117.289 18.6524C118.99 19.3552 120.536 20.3884 121.84 21.6931C123.145 22.9978 124.181 24.5484 124.89 26.2564C125.599 27.9644 125.967 29.7963 125.973 31.6475C125.973 31.6787 125.973 31.7098 125.973 31.7409V42.2611C125.973 42.7631 125.774 43.2444 125.422 43.5994C125.069 43.9544 124.591 44.1541 124.093 44.1547H99.8575C99.359 44.1541 98.881 43.9544 98.5285 43.5994C98.176 43.2444 97.9777 42.7631 97.9771 42.2611V42.2611Z" fill="#2F2E41"/>
<path d="M109.099 43.9095C114.767 43.9095 119.362 39.2822 119.362 33.5741C119.362 27.8661 114.767 23.2388 109.099 23.2388C103.431 23.2388 98.8359 27.8661 98.8359 33.5741C98.8359 39.2822 103.431 43.9095 109.099 43.9095Z" fill="#9F616A"/>
<path d="M94.6655 32.5825C94.6688 29.626 95.8365 26.7916 97.9124 24.701C99.9883 22.6104 102.803 21.4345 105.739 21.4312H107.828C110.764 21.4345 113.578 22.6104 115.654 24.701C117.73 26.7916 118.898 29.626 118.901 32.5825V32.7929H114.486L112.98 28.5456L112.678 32.7929H110.397L109.637 30.6503L109.485 32.7929H94.6655V32.5825Z" fill="#2F2E41"/>
<path d="M108.089 45.3376C107.882 45.0549 107.758 44.719 107.732 44.3686C107.706 44.0182 107.778 43.6675 107.942 43.3569C110.156 39.116 113.255 31.2797 109.141 26.4469L108.846 26.1001H120.791V44.1611L109.94 46.0893C109.83 46.1088 109.719 46.1187 109.607 46.1188C109.311 46.1189 109.019 46.0481 108.755 45.9124C108.491 45.7766 108.263 45.5798 108.09 45.3381L108.089 45.3376Z" fill="#2F2E41"/>
<path d="M21.7845 3.87354C20.794 3.87348 19.8258 4.16922 19.0022 4.72333C18.1787 5.27745 17.5367 6.06506 17.1577 6.98657C16.7786 7.90808 16.6794 8.9221 16.8725 9.9004C17.0657 10.8787 17.5426 11.7773 18.2429 12.4827C18.9433 13.188 19.8356 13.6684 20.807 13.8631C21.7784 14.0577 22.7853 13.9579 23.7004 13.5762C24.6155 13.1946 25.3976 12.5482 25.9479 11.7189C26.4982 10.8895 26.792 9.91449 26.792 8.91704V8.91677C26.792 8.25448 26.6625 7.59868 26.4108 6.98681C26.1592 6.37493 25.7903 5.81897 25.3253 5.35066C24.8603 4.88236 24.3082 4.51087 23.7006 4.25743C23.093 4.00398 22.4418 3.87353 21.7842 3.87354H21.7845ZM21.7845 5.38637C22.0816 5.38637 22.372 5.47509 22.6191 5.64133C22.8661 5.80756 23.0586 6.04383 23.1723 6.32026C23.286 6.5967 23.3158 6.90088 23.2578 7.19434C23.1999 7.4878 23.0568 7.75736 22.8467 7.96894C22.6366 8.18051 22.3689 8.3246 22.0775 8.38297C21.7861 8.44135 21.4841 8.41139 21.2096 8.29689C20.9351 8.18239 20.7005 7.98848 20.5354 7.7397C20.3704 7.49091 20.2823 7.19842 20.2822 6.89921C20.2822 6.49798 20.4405 6.11319 20.7222 5.82947C21.004 5.54576 21.386 5.38637 21.7845 5.38637V5.38637ZM21.7845 12.6698C21.191 12.6671 20.6071 12.5186 20.0835 12.2372C19.5599 11.9558 19.1124 11.55 18.7798 11.055C18.8039 10.0463 20.7829 9.49113 21.7845 9.49113C22.786 9.49113 24.765 10.0463 24.7892 11.055C24.4562 11.5496 24.0086 11.9552 23.4851 12.2365C22.9615 12.5179 22.3779 12.6666 21.7845 12.6698Z" fill="#EF4C29"/>
<path d="M21.8423 45.5259C23.9053 41.7186 28.8476 39.3074 32.8904 41.4807C34.7102 42.4588 36.1568 44.189 36.616 46.234C37.1489 48.6096 36.026 50.8748 34.8669 52.8706C34.2377 53.9539 33.5483 55.0151 33.0276 56.1577C32.4885 57.341 32.1031 58.7085 32.509 59.9958C32.8744 61.1554 33.7907 61.9989 34.7941 62.6188C35.9015 63.2771 37.0794 63.8069 38.3053 64.1981C40.8286 65.0433 43.4903 65.3901 46.1441 65.2195C47.4631 65.1292 48.771 64.9163 50.051 64.5835C51.4127 64.2339 52.7489 63.7907 54.1128 63.4488C56.3899 62.8792 58.9863 62.596 61.1456 63.7401C63.2434 64.8521 64.1822 67.1777 64.4726 69.4401C65.0088 73.6178 63.364 77.9531 60.3942 80.8787C58.9694 82.2823 57.1765 83.4419 55.2236 83.9163C53.5197 84.3303 51.3318 84.3038 49.9758 83.021C48.4627 81.5894 48.8187 79.2937 50.0204 77.7832C51.5544 75.856 54.1531 75.3931 56.4721 75.3462C59.1101 75.2928 61.7457 75.6884 64.3821 75.4424C65.669 75.3416 66.9317 75.0349 68.1228 74.5338C69.1698 74.07 70.1249 73.4191 70.9418 72.6127C72.5694 71.0202 73.6672 68.8987 74.213 66.6928C74.8703 64.0402 74.727 61.2523 74.2168 58.5879C73.9449 57.2139 73.5947 55.8569 73.1681 54.5235C72.9919 53.9608 72.1096 54.2015 72.2871 54.768C73.8584 59.7857 74.7345 65.5876 71.6986 70.2463C70.4423 72.222 68.4852 73.6407 66.2261 74.2135C63.5986 74.8711 60.8416 74.5461 58.1704 74.4482C55.6305 74.3552 52.8414 74.4556 50.6642 75.9454C48.8781 77.1673 47.6288 79.4915 48.1687 81.6857C48.6893 83.8017 50.7085 84.875 52.728 85.0403C54.8469 85.2142 56.9321 84.4979 58.7117 83.378C62.4135 81.0484 64.8748 76.9514 65.3899 72.6076C65.6583 70.3443 65.3852 67.9063 64.366 65.852C63.8289 64.7399 62.993 63.8017 61.9532 63.144C60.9163 62.5038 59.7187 62.1887 58.5159 62.0772C55.7832 61.8238 53.1577 62.7686 50.5654 63.4914C49.2411 63.8783 47.8837 64.1393 46.5111 64.2708C45.1788 64.382 43.839 64.36 42.511 64.2052C41.1933 64.0486 39.8948 63.7584 38.635 63.3389C37.4006 62.9545 36.2187 62.4164 35.1167 61.737C34.1446 61.1109 33.3038 60.2143 33.256 58.9923C33.2041 57.6674 33.8675 56.428 34.4984 55.311C35.7449 53.1044 37.2847 50.9461 37.6097 48.3629C37.8945 46.1032 36.9916 43.8761 35.4325 42.2644C34.6511 41.4464 33.7104 40.7996 32.6693 40.3647C31.6283 39.9297 30.5092 39.7159 29.3823 39.7367C27.0691 39.8034 24.8542 40.8165 23.1527 42.3724C22.3089 43.1445 21.5988 44.0529 21.0516 45.0603C20.7698 45.5802 21.5583 46.045 21.8404 45.5246L21.8423 45.5259Z" fill="#3F3D56"/>
</g>
<defs>
<clipPath id="clip0_1651_23403">
<rect width="160" height="108" fill="white"/>
</clipPath>
</defs>
</svg>
