<svg width="215" height="196" viewBox="0 0 215 196" fill="none" xmlns="http://www.w3.org/2000/svg">
<g clip-path="url(#clip0_1021_21817)">
<path d="M148.573 195.506H87.5679C78.4178 195.506 70.9736 188.022 70.9736 178.823V16.6836C70.9736 7.48429 78.4178 0 87.5679 0H148.573C157.723 0 165.167 7.48429 165.167 16.6836C166.303 81.7936 168.24 154.707 165.167 178.823C165.167 188.022 157.723 195.506 148.573 195.506L148.573 195.506V195.506Z" fill="#3F3D56"/>
<path d="M166.018 59.6401C165.631 59.6401 165.316 59.9567 165.316 60.3459V82.9315C165.316 83.3208 165.631 83.6373 166.018 83.6373C166.406 83.6373 166.72 83.3208 166.72 82.9315V60.3459C166.72 59.9567 166.406 59.6401 166.018 59.6401Z" fill="#3F3D56"/>
<path d="M163.588 16.6837V178.82C163.588 186.827 157.39 193.377 149.552 193.885H149.548C149.432 193.892 149.316 193.899 149.197 193.903C148.99 193.913 148.783 193.917 148.572 193.917C148.572 193.917 147.8 193.86 146.389 193.754C144.964 193.649 142.889 193.49 140.302 193.282C139.527 193.222 138.709 193.155 137.845 193.084C136.125 192.943 134.237 192.787 132.212 192.611C131.404 192.544 130.569 192.47 129.716 192.396C125.357 192.018 120.474 191.577 115.325 191.076C114.454 190.995 113.577 190.91 112.692 190.822C112.46 190.797 72.5537 180.711 72.5537 178.82V16.6837C72.5537 8.3447 79.2755 1.58667 87.5699 1.58667H96.5346C97.9667 1.58667 99.118 2.70889 99.2409 4.14519C99.2514 4.24048 99.262 4.33575 99.2795 4.43104C99.5393 5.87441 100.856 6.88016 102.316 6.88016H133.826C135.287 6.88016 136.603 5.87441 136.863 4.43104C136.88 4.33575 136.891 4.24048 136.901 4.14519C137.024 2.70889 138.175 1.58667 139.607 1.58667H148.572C156.867 1.58667 163.588 8.3447 163.588 16.6837H163.588Z" fill="white"/>
<path d="M70.6229 42.7009C70.2358 42.7009 69.9209 43.0175 69.9209 43.4067V49.0531C69.9209 49.4424 70.2357 49.7589 70.6229 49.7589C71.0101 49.7589 71.3249 49.4424 71.3249 49.0531V43.4067C71.3249 43.0175 71.0101 42.7009 70.6229 42.7009V42.7009Z" fill="#3F3D56"/>
<path d="M70.6229 59.6401C70.2358 59.6401 69.9209 59.9567 69.9209 60.3459V71.2858C69.9209 71.6751 70.2357 71.9916 70.6229 71.9916C71.0101 71.9916 71.3249 71.6751 71.3249 71.2858V60.3459C71.3249 59.9567 71.0101 59.6401 70.6229 59.6401V59.6401Z" fill="#3F3D56"/>
<path d="M70.6229 75.1675C70.2358 75.1675 69.9209 75.484 69.9209 75.8733V86.8132C69.9209 87.2024 70.2357 87.519 70.6229 87.519C71.0101 87.519 71.3249 87.2024 71.3249 86.8132V75.8733C71.3249 75.484 71.0101 75.1675 70.6229 75.1675Z" fill="#3F3D56"/>
<path d="M96.3042 4.05835H82.851C82.7858 4.05835 82.7329 4.11149 82.7329 4.17703V5.70416C82.7329 5.76971 82.7858 5.82284 82.851 5.82284H96.3042C96.3694 5.82284 96.4222 5.76971 96.4222 5.70416V4.17703C96.4222 4.11149 96.3694 4.05835 96.3042 4.05835Z" fill="#E6E6E6"/>
<path d="M141.825 5.82295C142.601 5.82295 143.229 5.19096 143.229 4.41135C143.229 3.63175 142.601 2.99976 141.825 2.99976C141.05 2.99976 140.421 3.63175 140.421 4.41135C140.421 5.19096 141.05 5.82295 141.825 5.82295Z" fill="#E6E6E6"/>
<path d="M145.687 5.82295C146.462 5.82295 147.091 5.19096 147.091 4.41135C147.091 3.63175 146.462 2.99976 145.687 2.99976C144.911 2.99976 144.283 3.63175 144.283 4.41135C144.283 5.19096 144.911 5.82295 145.687 5.82295Z" fill="#E6E6E6"/>
<path d="M149.548 5.82295C150.323 5.82295 150.952 5.19096 150.952 4.41135C150.952 3.63175 150.323 2.99976 149.548 2.99976C148.772 2.99976 148.144 3.63175 148.144 4.41135C148.144 5.19096 148.772 5.82295 149.548 5.82295Z" fill="#E6E6E6"/>
<path d="M5.44727 195.545C5.44727 195.797 5.64896 196 5.90013 196H214.547C214.798 196 215 195.797 215 195.545C215 195.292 214.798 195.089 214.547 195.089H5.90013C5.64896 195.089 5.44727 195.292 5.44727 195.545V195.545Z" fill="#CCCCCC"/>
<path d="M71.9733 192.555L67.6946 192.554L65.6592 175.961L71.9742 175.962L71.9733 192.555Z" fill="#FFB6B6"/>
<path d="M57.3139 192.457C57.1806 192.683 57.1104 193.411 57.1104 193.673C57.1104 194.479 57.7605 195.133 58.5626 195.133H71.8132C72.3604 195.133 72.8039 194.687 72.8039 194.137V193.582C72.8039 193.582 73.4594 191.915 72.1099 189.861C72.1099 189.861 70.4326 191.47 67.9262 188.95L67.1871 187.604L61.8371 191.537L58.8716 191.904C58.2228 191.985 57.6476 191.892 57.3139 192.457H57.3139V192.457H57.3139Z" fill="#2F2E41"/>
<path d="M48.311 169.508L44.0323 169.494L42.0493 152.895L48.3643 152.915L48.311 169.508Z" fill="#FFB6B6"/>
<path d="M33.6522 169.364C33.5183 169.589 33.4457 170.317 33.4448 170.579C33.4423 171.385 34.0904 172.041 34.8924 172.044L48.143 172.086C48.6901 172.088 49.1351 171.643 49.1369 171.093L49.1386 170.538C49.1386 170.538 49.7994 168.874 48.4563 166.815C48.4563 166.815 46.7739 168.418 44.2756 165.89L43.5407 164.542L38.1783 168.458L35.2117 168.816C34.5627 168.894 33.9877 168.8 33.6522 169.364H33.6522V169.364Z" fill="#2F2E41"/>
<path d="M65.7325 91.8218L60.4049 92.2044C60.4049 92.2044 42.369 102.514 40.8468 104.81C39.3246 107.105 37.2317 110.357 39.1344 113.801C41.0371 117.244 39.5889 158.936 39.5889 158.936L48.6811 156.868L54.5066 113.247L66.6839 111.525C66.6839 111.525 70.8698 120.605 69.3477 128.117C67.8255 135.628 67.0644 140.22 67.0644 140.22L65.1617 184.6L72.5823 184.409L79.2418 143.28L90.658 110.76L75.8169 93.1608L65.7325 91.8218Z" fill="#2F2E41"/>
<path d="M91.9902 44.7632L80.9545 45.911L79.8129 49.7369L69.1577 55.4757L72.5826 79.579L69.9188 83.7875L71.0604 87.996C71.0604 87.996 68.0161 88.3786 68.3966 90.6741L61.5469 91.8219C61.5469 91.8219 70.6319 93.6867 72.5586 102.893C74.4853 112.099 90.468 113.247 90.468 113.247L103.026 73.8401L104.168 50.5021L95.4151 48.2065L91.9902 44.7632Z" fill="#E6E6E6"/>
<path d="M86.1741 43.3113C90.9121 43.3113 94.7531 39.4497 94.7531 34.6862C94.7531 29.9226 90.9121 26.061 86.1741 26.061C81.4361 26.061 77.5952 29.9226 77.5952 34.6862C77.5952 39.4497 81.4361 43.3113 86.1741 43.3113Z" fill="#FFB6B6"/>
<path d="M81.7154 42.4677C81.7154 42.4677 74.1046 42.0851 74.8657 35.9636C72.9819 29.445 74.6493 25.2125 80.5738 23.7207C80.5738 23.7207 82.096 23.3381 82.4765 23.3381C87.4818 23.3381 90.0873 24.8685 90.0873 24.8685C90.0873 24.8685 89.7068 23.3532 90.0873 23.7283C90.4679 24.1033 90.8484 24.8685 90.8484 24.8685C90.8484 24.8685 94.6538 26.7815 94.6538 30.6074C94.6538 34.4333 94.6538 32.9029 94.6538 32.9029C94.6538 32.9029 93.8928 32.9029 93.1317 30.6074C92.3706 28.3118 87.443 29.8422 87.443 29.8422L87.8041 30.6074L86.6625 30.2248L85.5208 31.3725L84.7598 30.99C84.7598 30.99 81.7154 30.99 82.096 30.99C82.4765 30.99 82.2113 33.59 82.2113 33.59L79.4322 36.7288L82.4765 42.4677H81.7154Z" fill="#2F2E41"/>
<path d="M41.1669 88.1313C39.0004 89.3201 37.854 91.4075 38.6065 92.7937C39.3589 94.1798 41.7253 94.3398 43.8918 93.151C44.8402 92.6306 45.593 91.938 46.0768 91.2075L55.1942 86.0543L52.6979 81.8042L43.9748 87.3353C43.102 87.3491 42.1153 87.6109 41.1669 88.1313H41.1669Z" fill="#FFB6B6"/>
<path d="M71.9141 55.6543C71.9141 55.6543 68.34 54.2861 67.1086 55.933C65.8772 57.5799 57.7424 77.5628 57.7424 77.5628L45.8071 83.8296L49.1634 89.7058L64.5325 84.5614L74.6727 65.9164L71.9141 55.6543V55.6543Z" fill="#E6E6E6"/>
<path d="M184.619 121.281V161.835C184.619 165.422 181.717 168.339 178.15 168.339H78.4482C74.881 168.339 71.979 165.422 71.979 161.835V121.281C71.979 117.694 74.881 114.777 78.4482 114.777H178.15C181.717 114.777 184.619 117.694 184.619 121.281Z" fill="white"/>
<path d="M184.619 121.281V161.835C184.619 165.422 181.717 168.339 178.15 168.339H78.4482C74.881 168.339 71.979 165.422 71.979 161.835V121.281C71.979 117.694 74.881 114.777 78.4482 114.777H178.15C181.717 114.777 184.619 117.694 184.619 121.281ZM178.15 167.574C181.303 167.574 183.858 165.005 183.858 161.835V141.389C183.858 127.114 172.348 115.542 158.149 115.542H78.4482C75.2957 115.542 72.7401 118.111 72.7401 121.281V161.835C72.7401 165.005 75.2957 167.574 78.4482 167.574H178.15Z" fill="#3F3D56"/>
<path d="M116.735 139.278H103.712C103.384 139.278 103.117 139.547 103.117 139.877C103.117 140.207 103.384 140.476 103.712 140.476H116.735C117.063 140.476 117.33 140.207 117.33 139.877C117.33 139.547 117.063 139.278 116.735 139.278Z" fill="#EF4C29"/>
<path d="M136.523 139.278H123.5C123.172 139.278 122.905 139.547 122.905 139.877C122.905 140.207 123.172 140.476 123.5 140.476H136.523C136.851 140.476 137.118 140.207 137.118 139.877C137.118 139.547 136.851 139.278 136.523 139.278Z" fill="#EF4C29"/>
<path d="M116.735 145.823H103.712C103.384 145.823 103.117 146.091 103.117 146.421C103.117 146.751 103.384 147.02 103.712 147.02H116.735C117.063 147.02 117.33 146.751 117.33 146.421C117.33 146.091 117.063 145.823 116.735 145.823Z" fill="#EF4C29"/>
<path d="M136.523 145.823H123.5C123.172 145.823 122.905 146.091 122.905 146.421C122.905 146.751 123.172 147.02 123.5 147.02H136.523C136.851 147.02 137.118 146.751 137.118 146.421C137.118 146.091 136.851 145.823 136.523 145.823Z" fill="#EF4C29"/>
<path d="M156.906 146.421C156.906 146.091 156.639 145.823 156.311 145.823H143.288C142.96 145.823 142.693 146.091 142.693 146.421C142.693 146.751 142.96 147.02 143.288 147.02H156.311C156.639 147.02 156.906 146.751 156.906 146.421Z" fill="#EF4C29"/>
<path d="M109.124 134.052C109.452 134.052 109.719 133.784 109.719 133.454C109.719 133.124 109.452 132.855 109.124 132.855H96.1013C95.773 132.855 95.5059 133.124 95.5059 133.454C95.5059 133.784 95.773 134.052 96.1013 134.052H109.124Z" fill="#EF4C29"/>
<path d="M147.474 133.809H160.497C160.825 133.809 161.092 133.54 161.092 133.21C161.092 132.88 160.825 132.612 160.497 132.612H147.474C147.146 132.612 146.879 132.88 146.879 133.21C146.879 133.54 147.146 133.809 147.474 133.809Z" fill="#EF4C29"/>
<path d="M114.61 133.935H141.608C141.936 133.935 142.203 133.666 142.203 133.336C142.203 133.006 141.936 132.738 141.608 132.738H114.61C114.281 132.738 114.014 133.006 114.014 133.336C114.014 133.666 114.281 133.935 114.61 133.935Z" fill="#EF4C29"/>
<path d="M125.233 151.769H112.21C111.882 151.769 111.615 152.037 111.615 152.368C111.615 152.698 111.882 152.966 112.21 152.966H125.233C125.561 152.966 125.828 152.698 125.828 152.368C125.828 152.037 125.561 151.769 125.233 151.769Z" fill="#EF4C29"/>
<path d="M167.29 120.975V161.529C167.29 165.116 164.388 168.033 160.821 168.033H120.483C116.916 168.033 114.014 165.116 114.014 161.529V120.975C114.014 117.388 116.916 114.471 120.483 114.471H160.821C164.388 114.471 167.29 117.388 167.29 120.975Z" fill="white"/>
<path d="M167.29 120.975V161.529C167.29 165.116 164.388 168.033 160.821 168.033H120.483C116.916 168.033 114.014 165.116 114.014 161.529V120.975C114.014 117.388 116.916 114.471 120.483 114.471H160.821C164.388 114.471 167.29 117.388 167.29 120.975ZM158.318 167.268C162.853 167.268 166.529 163.573 166.529 159.014V141.083C166.529 126.808 155.019 115.236 140.82 115.236H120.483C117.331 115.236 114.775 117.805 114.775 120.975V155.871C114.775 162.166 119.851 167.268 126.111 167.268H158.318V167.268H158.318V167.268Z" fill="#3F3D56"/>
<path d="M146.022 131.034H132.999C132.671 131.034 132.404 130.765 132.404 130.435C132.404 130.105 132.671 129.837 132.999 129.837H146.022C146.35 129.837 146.617 130.105 146.617 130.435C146.617 130.765 146.35 131.034 146.022 131.034V131.034Z" fill="#EF4C29"/>
<path d="M146.022 143.798H132.999C132.671 143.798 132.404 143.53 132.404 143.2C132.404 142.87 132.671 142.601 132.999 142.601H146.022C146.35 142.601 146.617 142.87 146.617 143.2C146.617 143.53 146.35 143.798 146.022 143.798V143.798Z" fill="#EF4C29"/>
<path d="M139.552 161.398H126.53C126.202 161.398 125.935 161.129 125.935 160.799C125.935 160.469 126.202 160.201 126.53 160.201H139.552C139.881 160.201 140.148 160.469 140.148 160.799C140.148 161.129 139.881 161.398 139.552 161.398V161.398Z" fill="#EF4C29"/>
<path d="M153.01 137.42H126.011C125.683 137.42 125.416 137.152 125.416 136.822C125.416 136.492 125.683 136.223 126.011 136.223H153.01C153.338 136.223 153.605 136.492 153.605 136.822C153.605 137.152 153.338 137.42 153.01 137.42V137.42V137.42Z" fill="#EF4C29"/>
<path d="M159.701 98.5025C159.701 85.8513 149.065 78.8918 136.916 75.5955C121.34 71.3694 109.933 79.9211 114.132 98.5025C115.084 102.714 117.36 107.632 120.177 111.84H142.536C150.004 106.951 159.701 108.322 159.701 98.5025H159.701Z" fill="#EF4C29"/>
<path d="M136.582 122.418C137.854 119.981 139.466 118.222 141.243 116.883H120.301C125.691 124.624 132.839 129.592 136.582 122.418Z" fill="#EF4C29"/>
<path d="M134.165 84.959C135.51 84.959 136.599 86.0548 136.599 87.4064V92.3011H131.731V87.4064C131.731 86.0548 132.821 84.959 134.165 84.959V84.959ZM137.817 92.3011V87.4064C137.817 85.3789 136.182 83.7354 134.165 83.7354C132.149 83.7354 130.514 85.3789 130.514 87.4064V92.3011C129.169 92.3011 128.08 93.3968 128.08 94.7485V100.867C128.08 102.218 129.169 103.314 130.514 103.314H137.817C139.161 103.314 140.251 102.218 140.251 100.867V94.7485C140.251 93.3968 139.161 92.3011 137.817 92.3011H137.817ZM130.514 93.5248H137.817C138.489 93.5248 139.034 94.0726 139.034 94.7485V100.867C139.034 101.543 138.489 102.091 137.817 102.091H130.514C129.842 102.091 129.297 101.543 129.297 100.867V94.7485C129.297 94.0726 129.842 93.5248 130.514 93.5248V93.5248Z" fill="white"/>
<path d="M99.3787 113.455C99.0852 115.919 100.112 118.068 101.671 118.256C103.231 118.444 104.733 116.599 105.026 114.135C105.155 113.056 105.03 112.038 104.719 111.218L105.832 100.762L100.941 100.341L100.362 110.694C99.8673 111.416 99.5072 112.376 99.3787 113.455V113.455Z" fill="#FFB6B6"/>
<path d="M100.552 51.0759C100.552 51.0759 105.88 49.5455 107.021 51.8411C108.163 54.1366 110.827 84.3613 110.827 84.3613L105.689 108.487L99.791 106.934L102.835 82.4484L98.6494 64.084L100.552 51.0759Z" fill="#E6E6E6"/>
<path d="M22.2617 124.472C34.5565 124.472 44.5233 114.452 44.5233 102.091C44.5233 89.7296 34.5565 79.709 22.2617 79.709C9.96689 79.709 0 89.7296 0 102.091C0 114.452 9.96689 124.472 22.2617 124.472Z" fill="#EF4C29"/>
<path d="M22.2616 92.0708C23.8342 92.0708 25.1091 93.3525 25.1091 94.9336V100.659H19.4142V94.9336C19.4142 93.3525 20.689 92.0708 22.2616 92.0708V92.0708ZM26.5328 100.659V94.9336C26.5328 92.562 24.6205 90.6394 22.2616 90.6394C19.9027 90.6394 17.9905 92.562 17.9905 94.9336V100.659C16.4179 100.659 15.1431 101.941 15.1431 103.522V110.679C15.1431 112.26 16.4179 113.542 17.9905 113.542H26.5328C28.1054 113.542 29.3802 112.26 29.3802 110.679V103.522C29.3802 101.941 28.1053 100.659 26.5328 100.659H26.5328V100.659ZM17.9905 102.09H26.5328C27.3191 102.09 27.9565 102.731 27.9565 103.522V110.679C27.9565 111.469 27.3191 112.11 26.5328 112.11H17.9905C17.2042 112.11 16.5668 111.469 16.5668 110.679V103.522C16.5668 102.731 17.2042 102.09 17.9905 102.09V102.09Z" fill="white"/>
</g>
<defs>
<clipPath id="clip0_1021_21817">
<rect width="215" height="196" fill="white"/>
</clipPath>
</defs>
</svg>
