<svg width="116" height="112" viewBox="0 0 116 112" fill="none" xmlns="http://www.w3.org/2000/svg">
<g clip-path="url(#clip0_585_19793)">
<path d="M97.6247 26.5459H97.0153V9.7316C97.0153 7.15062 95.9961 4.67535 94.1819 2.85032C92.3676 1.02529 89.907 1.26944e-09 87.3413 1.26944e-09H51.9281C50.6576 -2.06397e-05 49.3997 0.251674 48.226 0.740714C47.0523 1.22975 45.9858 1.94656 45.0875 2.85021C44.1891 3.75386 43.4765 4.82665 42.9904 6.00734C42.5042 7.18802 42.2539 8.45348 42.2539 9.73145V101.976C42.2539 104.557 43.2731 107.032 45.0874 108.857C46.9016 110.682 49.3622 111.708 51.9279 111.708H87.3408C89.9065 111.708 92.3672 110.682 94.1814 108.857C95.9956 107.032 97.0148 104.557 97.0148 101.976V38.5146H97.6242L97.6247 26.5459Z" fill="#3F3D56"/>
<path d="M95.0314 9.07981V102.628C95.0312 104.584 94.2584 106.461 92.883 107.845C91.5076 109.229 89.6422 110.007 87.6969 110.007H51.5571C49.6111 110.008 47.7446 109.23 46.3683 107.846C44.9919 106.462 44.2184 104.585 44.2178 102.628V9.07981C44.2184 7.12225 44.9919 5.24508 46.3682 3.86117C47.7445 2.47726 49.6108 1.69995 51.5568 1.7002H55.9408C55.7255 2.23271 55.6436 2.81026 55.7022 3.38209C55.7608 3.95391 55.9581 4.50251 56.2768 4.97965C56.5956 5.45679 57.0259 5.84787 57.5301 6.11852C58.0342 6.38916 58.5968 6.53109 59.1682 6.53181H79.7721C80.3436 6.53109 80.9061 6.38916 81.4102 6.11852C81.9144 5.84787 82.3448 5.45679 82.6635 4.97965C82.9822 4.50251 83.1795 3.95391 83.2381 3.38209C83.2967 2.81026 83.2148 2.23271 82.9995 1.7002H87.6955C89.6408 1.70053 91.5063 2.47793 92.8819 3.8615C94.2576 5.24507 95.0307 7.12155 95.0314 9.07839V9.07981Z" fill="white"/>
<path d="M69.6182 46.6334C77.951 46.6334 84.7061 39.8381 84.7061 31.4556C84.7061 23.0732 77.951 16.2778 69.6182 16.2778C61.2854 16.2778 54.5303 23.0732 54.5303 31.4556C54.5303 39.8381 61.2854 46.6334 69.6182 46.6334Z" fill="#EF4C29"/>
<path d="M86.0733 62.9643H53.9589C53.8013 62.9642 53.6501 62.9011 53.5386 62.7889C53.4271 62.6768 53.3644 62.5247 53.3643 62.3661V54.3526C53.3645 54.194 53.4272 54.042 53.5387 53.9298C53.6501 53.8177 53.8013 53.7546 53.9589 53.7544H86.0733C86.231 53.7546 86.3821 53.8177 86.4936 53.9298C86.6051 54.042 86.6678 54.194 86.668 54.3526V62.3663C86.6678 62.5249 86.6051 62.6769 86.4936 62.789C86.3821 62.9012 86.231 62.9643 86.0733 62.9645V62.9643ZM53.9589 53.9936C53.8643 53.9937 53.7736 54.0315 53.7067 54.0989C53.6398 54.1662 53.6021 54.2574 53.6021 54.3526V62.3663C53.6021 62.4615 53.6398 62.5527 53.7067 62.62C53.7736 62.6873 53.8643 62.7252 53.9589 62.7253H86.0733C86.168 62.7252 86.2587 62.6873 86.3256 62.62C86.3925 62.5527 86.4301 62.4615 86.4302 62.3663V54.3526C86.4301 54.2574 86.3925 54.1662 86.3256 54.0989C86.2587 54.0315 86.168 53.9937 86.0733 53.9936H53.9589Z" fill="#E6E6E6"/>
<path d="M63.8899 56.6406C63.7795 56.6406 63.6736 56.6847 63.5956 56.7633C63.5175 56.8418 63.4736 56.9483 63.4736 57.0594C63.4736 57.1705 63.5175 57.277 63.5956 57.3556C63.6736 57.4341 63.7795 57.4782 63.8899 57.4782H83.5153C83.6256 57.4825 83.7332 57.4425 83.8142 57.367C83.8952 57.2915 83.9431 57.1867 83.9473 57.0757C83.9515 56.9647 83.9118 56.8565 83.8367 56.775C83.7617 56.6935 83.6575 56.6453 83.5472 56.6411C83.5411 56.6408 83.535 56.6407 83.5289 56.6408H63.8899L63.8899 56.6406Z" fill="#E6E6E6"/>
<path d="M63.8899 59.1528C63.7795 59.1528 63.6736 59.197 63.5956 59.2755C63.5175 59.354 63.4736 59.4606 63.4736 59.5716C63.4736 59.6827 63.5175 59.7892 63.5956 59.8678C63.6736 59.9463 63.7795 59.9904 63.8899 59.9904H83.5153C83.6256 59.9947 83.7332 59.9547 83.8142 59.8792C83.8952 59.8037 83.9431 59.6989 83.9473 59.5879C83.9515 59.4769 83.9118 59.3687 83.8367 59.2872C83.7617 59.2057 83.6575 59.1575 83.5472 59.1533C83.5411 59.1531 83.535 59.153 83.5289 59.153H63.8899L63.8899 59.1528Z" fill="#E6E6E6"/>
<path d="M86.0733 76.3213H53.9589C53.8013 76.3211 53.6501 76.258 53.5386 76.1459C53.4271 76.0337 53.3644 75.8817 53.3643 75.723V67.7095C53.3645 67.551 53.4272 67.3989 53.5387 67.2868C53.6501 67.1746 53.8013 67.1115 53.9589 67.1113H86.0733C86.231 67.1115 86.3821 67.1746 86.4936 67.2868C86.6051 67.3989 86.6678 67.551 86.668 67.7095V75.7232C86.6678 75.8818 86.605 76.0338 86.4936 76.1459C86.3821 76.258 86.231 76.3211 86.0733 76.3213ZM53.9589 67.3505C53.8643 67.3506 53.7736 67.3885 53.7067 67.4558C53.6398 67.5231 53.6021 67.6144 53.6021 67.7095V75.7232C53.6021 75.8184 53.6398 75.9097 53.7067 75.977C53.7736 76.0443 53.8643 76.0821 53.9589 76.0822H86.0733C86.168 76.0821 86.2587 76.0443 86.3256 75.977C86.3925 75.9097 86.4301 75.8184 86.4302 75.7232V67.7095C86.4301 67.6144 86.3925 67.5231 86.3256 67.4558C86.2587 67.3885 86.168 67.3506 86.0733 67.3505H53.9589Z" fill="#E6E6E6"/>
<path d="M63.8899 70.0405C63.7795 70.0405 63.6736 70.0847 63.5956 70.1632C63.5175 70.2417 63.4736 70.3483 63.4736 70.4593C63.4736 70.5704 63.5175 70.6769 63.5956 70.7555C63.6736 70.834 63.7795 70.8781 63.8899 70.8781H83.5153C83.6241 70.8775 83.7284 70.834 83.8058 70.757C83.8832 70.68 83.9275 70.5756 83.9293 70.4661C83.931 70.3566 83.8901 70.2508 83.8153 70.1713C83.7405 70.0918 83.6376 70.0449 83.5289 70.0407H63.8899V70.0405Z" fill="#E6E6E6"/>
<path d="M63.8899 72.5537C63.7795 72.5537 63.6736 72.5978 63.5956 72.6764C63.5175 72.7549 63.4736 72.8614 63.4736 72.9725C63.4736 73.0836 63.5175 73.1901 63.5956 73.2686C63.6736 73.3472 63.7795 73.3913 63.8899 73.3913H83.5153C83.6241 73.3907 83.7284 73.3472 83.8058 73.2702C83.8832 73.1932 83.9275 73.0888 83.9293 72.9793C83.931 72.8698 83.8901 72.764 83.8153 72.6844C83.7405 72.6049 83.6376 72.5581 83.5289 72.5539H63.8899V72.5537Z" fill="#E6E6E6"/>
<path d="M86.0733 89.7217H53.9589C53.8013 89.7215 53.6501 89.6584 53.5386 89.5463C53.4271 89.4341 53.3644 89.282 53.3643 89.1234V81.1099C53.3645 80.9513 53.4272 80.7993 53.5387 80.6872C53.6501 80.575 53.8013 80.5119 53.9589 80.5117H86.0733C86.231 80.5119 86.3821 80.575 86.4936 80.6872C86.6051 80.7993 86.6678 80.9513 86.668 81.1099V89.1236C86.6678 89.2822 86.6051 89.4342 86.4936 89.5464C86.3821 89.6585 86.231 89.7216 86.0733 89.7218V89.7217ZM53.9589 80.7509C53.8643 80.751 53.7736 80.7889 53.7067 80.8562C53.6398 80.9235 53.6021 81.0148 53.6021 81.1099V89.1236C53.6021 89.2188 53.6398 89.31 53.7067 89.3774C53.7736 89.4447 53.8643 89.4825 53.9589 89.4826H86.0733C86.168 89.4825 86.2587 89.4447 86.3256 89.3774C86.3925 89.31 86.4301 89.2188 86.4302 89.1236V81.1099C86.4301 81.0148 86.3925 80.9235 86.3256 80.8562C86.2587 80.7889 86.168 80.751 86.0733 80.7509H53.9589Z" fill="#E6E6E6"/>
<path d="M63.8899 83.4419C63.7795 83.4419 63.6736 83.486 63.5956 83.5646C63.5175 83.6431 63.4736 83.7496 63.4736 83.8607C63.4736 83.9718 63.5175 84.0783 63.5956 84.1568C63.6736 84.2354 63.7795 84.2795 63.8899 84.2795H83.5153C83.5699 84.2816 83.6244 84.2729 83.6757 84.2538C83.727 84.2347 83.7741 84.2056 83.8142 84.1682C83.8543 84.1309 83.8867 84.0859 83.9095 84.0359C83.9324 83.9859 83.9452 83.9319 83.9473 83.877C83.9494 83.822 83.9407 83.7671 83.9217 83.7156C83.9028 83.664 83.8739 83.6166 83.8367 83.5763C83.7996 83.5359 83.7549 83.5033 83.7052 83.4803C83.6555 83.4574 83.6018 83.4445 83.5472 83.4423C83.5411 83.4421 83.535 83.442 83.5289 83.442H63.8899L63.8899 83.4419Z" fill="#E6E6E6"/>
<path d="M63.8899 85.9546C63.7795 85.9546 63.6736 85.9987 63.5956 86.0773C63.5175 86.1558 63.4736 86.2623 63.4736 86.3734C63.4736 86.4845 63.5175 86.591 63.5956 86.6695C63.6736 86.7481 63.7795 86.7922 63.8899 86.7922H83.5153C83.5699 86.7943 83.6244 86.7856 83.6757 86.7665C83.727 86.7474 83.7741 86.7183 83.8142 86.6809C83.8543 86.6436 83.8867 86.5986 83.9095 86.5486C83.9324 86.4986 83.9452 86.4446 83.9473 86.3897C83.9494 86.3347 83.9407 86.2798 83.9217 86.2283C83.9028 86.1767 83.8739 86.1293 83.8367 86.089C83.7996 86.0486 83.7549 86.016 83.7052 85.993C83.6555 85.9701 83.6018 85.9572 83.5472 85.9551C83.5411 85.9548 83.535 85.9547 83.5289 85.9548H63.8899L63.8899 85.9546Z" fill="#E6E6E6"/>
<path d="M115.697 112H0.302804C0.135464 112 0 111.926 0 111.836C0 111.745 0.13562 111.671 0.302804 111.671H115.697C115.864 111.671 116 111.745 116 111.836C116 111.926 115.865 112 115.697 112Z" fill="#E6E6E6"/>
<path d="M110.811 105.592C110.318 105.767 109.788 105.81 109.274 105.719C108.759 105.628 108.276 105.405 107.872 105.072C106.843 104.203 106.52 102.771 106.258 101.446L105.481 97.5249L107.107 98.6511C108.276 99.4609 109.472 100.297 110.281 101.47C111.091 102.643 111.444 104.244 110.794 105.513" fill="#E6E6E6"/>
<path d="M110.56 110.612C110.764 109.113 110.975 107.594 110.831 106.078C110.704 104.732 110.295 103.417 109.464 102.339C109.023 101.768 108.486 101.278 107.878 100.893C107.719 100.792 107.573 101.045 107.731 101.145C108.784 101.815 109.598 102.803 110.056 103.968C110.562 105.263 110.644 106.675 110.556 108.051C110.503 108.883 110.392 109.709 110.279 110.535C110.27 110.572 110.276 110.611 110.294 110.645C110.313 110.678 110.344 110.703 110.381 110.715C110.418 110.725 110.457 110.72 110.491 110.7C110.524 110.681 110.549 110.65 110.559 110.612H110.56Z" fill="#F2F2F2"/>
<path d="M109.086 108.206C108.875 108.529 108.584 108.792 108.242 108.97C107.901 109.147 107.519 109.233 107.135 109.219C106.147 109.172 105.323 108.479 104.582 107.82L102.389 105.872L103.84 105.802C104.884 105.752 105.955 105.705 106.949 106.029C107.944 106.353 108.86 107.132 109.042 108.167" fill="#E6E6E6"/>
<path d="M111.137 111.475C110.153 109.721 109.01 107.772 106.968 107.149C106.4 106.977 105.805 106.915 105.214 106.967C105.028 106.983 105.075 107.272 105.261 107.256C106.251 107.173 107.24 107.436 108.06 108.001C108.849 108.541 109.463 109.292 109.983 110.089C110.302 110.576 110.587 111.086 110.873 111.594C110.963 111.756 111.23 111.639 111.137 111.475Z" fill="#F2F2F2"/>
<path d="M57.9655 60.8231C59.345 60.8231 60.4633 59.6982 60.4633 58.3105C60.4633 56.9228 59.345 55.7979 57.9655 55.7979C56.5861 55.7979 55.4678 56.9228 55.4678 58.3105C55.4678 59.6982 56.5861 60.8231 57.9655 60.8231Z" fill="#EF4C29"/>
<path d="M56.7698 57.8413C56.7411 57.8413 56.7178 58.0288 56.7178 58.26C56.7178 58.4912 56.7411 58.6789 56.7698 58.6789H59.2258C59.2546 58.6827 59.2783 58.4983 59.2788 58.2671C59.2948 58.1231 59.2772 57.9774 59.2276 57.8415H56.7698V57.8413Z" fill="#E6E6E6"/>
<path d="M57.9655 74.2289C59.345 74.2289 60.4633 73.1039 60.4633 71.7162C60.4633 70.3286 59.345 69.2036 57.9655 69.2036C56.5861 69.2036 55.4678 70.3286 55.4678 71.7162C55.4678 73.1039 56.5861 74.2289 57.9655 74.2289Z" fill="#EF4C29"/>
<path d="M56.7698 71.2471C56.7411 71.2471 56.7178 71.4346 56.7178 71.6658C56.7178 71.897 56.7411 72.0847 56.7698 72.0847H59.2258C59.2546 72.0884 59.2783 71.9041 59.2788 71.6729C59.2948 71.5289 59.2772 71.3832 59.2276 71.2472H56.7698V71.2471Z" fill="#E6E6E6"/>
<path d="M57.9655 87.6297C59.345 87.6297 60.4633 86.5048 60.4633 85.1171C60.4633 83.7294 59.345 82.6045 57.9655 82.6045C56.5861 82.6045 55.4678 83.7294 55.4678 85.1171C55.4678 86.5048 56.5861 87.6297 57.9655 87.6297Z" fill="#EF4C29"/>
<path d="M56.7698 84.6479C56.7411 84.6479 56.7178 84.8355 56.7178 85.0667C56.7178 85.2979 56.7411 85.4855 56.7698 85.4855H59.2258C59.2546 85.4893 59.2783 85.3049 59.2788 85.0737C59.2948 84.9298 59.2772 84.7841 59.2276 84.6481H56.7698V84.6479Z" fill="#E6E6E6"/>
<path d="M66.3585 27.2879L65.4746 28.177L72.877 35.6234L73.7608 34.7343L66.3585 27.2879Z" fill="white"/>
<path d="M73.7608 28.177L72.877 27.2878L65.4746 34.7343L66.3585 35.6234L73.7608 28.177Z" fill="white"/>
<path d="M14.1027 71.6938C14.3193 71.6167 14.5164 71.4928 14.6801 71.3308C14.8439 71.1688 14.9704 70.9726 15.0506 70.7561C15.1309 70.5396 15.163 70.308 15.1447 70.0777C15.1263 69.8474 15.058 69.6239 14.9445 69.423L18.6265 65.2006L15.7523 64.8018L12.6965 68.8725C12.3736 69.0867 12.1401 69.4125 12.0401 69.7883C11.9401 70.1641 11.9806 70.5637 12.1539 70.9115C12.3272 71.2593 12.6214 71.531 12.9805 71.6752C13.3397 71.8193 13.739 71.826 14.1027 71.6938Z" fill="#9F616A"/>
<path d="M18.5435 109.115L15.9756 109.114L14.7539 99.1504L18.544 99.1505L18.5435 109.115Z" fill="#9F616A"/>
<path d="M19.1982 111.619L10.918 111.618V111.513C10.918 110.653 11.2576 109.829 11.862 109.221C12.4664 108.613 13.2861 108.271 14.1409 108.271H14.1411L19.1984 108.271L19.1982 111.619Z" fill="#2F2E41"/>
<path d="M31.9861 106.953L29.5337 107.719L25.4297 98.5674L29.0493 97.437L31.9861 106.953Z" fill="#9F616A"/>
<path d="M33.3495 109.149L25.4416 111.618L25.4105 111.518C25.1571 110.697 25.2383 109.808 25.6363 109.047C26.0343 108.286 26.7165 107.715 27.5328 107.46L27.533 107.46L32.3628 105.952L33.3495 109.149Z" fill="#2F2E41"/>
<path d="M16.5767 63.1763L12.7734 67.5579L15.7509 67.8274L16.5767 63.1763Z" fill="#E6E6E6"/>
<path d="M15.0908 68.824C15.0908 68.824 13.7698 69.4883 13.6046 72.4785C13.4395 75.4686 14.1001 83.2765 14.1001 83.2765C14.1001 83.2765 13.4396 86.7649 14.1001 89.921C14.7605 93.0771 13.4396 104.538 14.2652 104.538C15.0908 104.538 19.3842 105.037 19.5493 104.538C19.7145 104.04 19.8796 96.5651 19.8796 96.5651C19.8796 96.5651 21.2007 92.7444 19.8796 90.4194C19.8796 90.4194 24.4922 98.5216 27.4756 104.705C28.1285 106.058 33.09 104.539 32.2644 103.044C31.4387 101.549 29.4572 94.7382 29.4572 94.7382C29.4572 94.7382 27.971 89.7547 25.329 87.5953L26.6501 76.964C26.6501 76.964 29.4574 69.8211 27.8063 68.8244C26.1553 67.8278 15.0908 68.824 15.0908 68.824Z" fill="#2F2E41"/>
<path d="M20.0443 41.7472C22.4155 41.7472 24.3377 39.8135 24.3377 37.4283C24.3377 35.043 22.4155 33.1094 20.0443 33.1094C17.6732 33.1094 15.751 35.043 15.751 37.4283C15.751 39.8135 17.6732 41.7472 20.0443 41.7472Z" fill="#A0616A"/>
<path d="M24.8329 42.0796L19.4955 45.2357C19.4955 45.2357 17.4518 46.3935 16.6884 48.3918C15.8746 50.5216 16.3476 53.5202 16.6884 54.2058C17.3488 55.5347 16.4113 58.857 16.4113 58.857L15.5857 66.4981C15.5857 66.4981 12.6135 69.322 14.9253 69.6542C17.2371 69.9865 21.3653 69.4881 23.8423 69.6542C26.3192 69.8204 29.1264 70.1526 28.3008 68.4911C27.4751 66.8296 26.4844 65.6671 27.4751 62.3455C28.2504 59.7458 28.2168 50.0255 28.1656 45.9205C28.1585 45.3568 28.0082 44.8043 27.729 44.3155C27.4497 43.8267 27.0508 43.4179 26.5702 43.128L24.8329 42.0796Z" fill="#E5E5E5"/>
<path opacity="0.1" d="M22.4391 47.3125L22.9344 57.4454L18.1335 67.2254L17.3193 66.9137L22.2733 57.7775L22.4391 47.3125Z" fill="black"/>
<path opacity="0.1" d="M27.8882 59.6045V58.4414L22.2744 67.7441L27.8882 59.6045Z" fill="black"/>
<path d="M16.9972 33.4273L16.288 33.1419C16.288 33.1419 17.7724 31.4983 19.8368 31.6412L19.2561 30.998C19.2561 30.998 20.6756 30.4264 21.9662 31.9269C22.6446 32.7158 23.4294 33.6431 23.9192 34.6876H24.6794L24.3622 35.3903L25.4725 36.0931L24.3328 35.9673C24.4408 36.574 24.4038 37.1978 24.225 37.7873L24.2563 38.3427C24.2563 38.3427 22.9346 36.2854 22.9346 36V36.7147C22.9346 36.7147 22.2248 36.0715 22.2248 35.6427L21.8376 36.143L21.644 35.3572L19.2565 36.143L19.6434 35.4996L18.1591 35.7139L18.7398 34.9281C18.7398 34.9281 17.0622 35.857 16.9977 36.6432C16.9332 37.4294 16.0944 38.4297 16.0944 38.4297L15.7072 37.715C15.7072 37.715 15.1266 34.4993 16.9972 33.4273Z" fill="#2F2E41"/>
<path d="M19.7749 72.1641C19.9744 72.0496 20.1465 71.8924 20.2791 71.7038C20.4117 71.5151 20.5015 71.2994 20.5423 71.0721C20.5831 70.8447 20.5738 70.611 20.5151 70.3876C20.4565 70.1642 20.3498 69.9565 20.2027 69.7791L23.0811 64.9663L20.1822 65.087L17.8932 69.6388C17.6132 69.9071 17.4409 70.2695 17.4088 70.6572C17.3767 71.0449 17.4871 71.4309 17.719 71.7422C17.9509 72.0535 18.2883 72.2684 18.6673 72.3461C19.0462 72.4239 19.4403 72.3591 19.7749 72.1641Z" fill="#9F616A"/>
<path d="M26.3199 44.2394L27.5583 43.9902C27.5583 43.9902 31.2737 46.7311 30.1177 52.2128C28.9618 57.6945 23.8429 66.0002 23.8429 66.0002C23.8429 66.0002 22.6867 67.4952 22.3567 67.8274C22.0267 68.1595 21.3659 67.8274 21.6962 68.3258C22.0265 68.8242 21.2008 69.1563 21.2008 69.1563C21.2008 69.1563 17.5679 69.1563 17.8982 67.8274C18.2285 66.4984 23.8429 57.0293 23.8429 57.0293L23.0173 48.2254C23.0173 48.2254 22.3565 43.9071 26.3199 44.2394Z" fill="#E5E5E5"/>
</g>
<defs>
<clipPath id="clip0_585_19793">
<rect width="116" height="112" fill="white"/>
</clipPath>
</defs>
</svg>
