<svg width="206" height="123" viewBox="0 0 206 123" fill="none" xmlns="http://www.w3.org/2000/svg">
<g clip-path="url(#clip0_233_6353)">
<path d="M157.718 121.609C155.081 119.383 153.479 115.868 153.899 112.445C154.319 109.022 156.921 105.876 160.297 105.149C163.672 104.422 167.519 106.434 168.545 109.727C169.109 103.378 169.759 96.7637 173.139 91.3573C176.199 86.462 181.499 82.9592 187.243 82.3326C192.988 81.7059 199.036 84.0727 202.618 88.6008C206.201 93.1288 207.078 99.7117 204.569 104.91C202.72 108.74 199.315 111.59 195.747 113.909C184.218 121.338 170.39 124.359 156.808 122.416L157.718 121.609Z" fill="#F2F2F2"/>
<path d="M196.938 84.2039C192.198 88.0595 187.85 92.3717 183.956 97.0781C177.862 104.418 172.931 112.648 169.334 121.481C169.071 122.125 170.118 122.406 170.379 121.769C176.264 107.414 185.658 94.7614 197.704 84.969C198.245 84.5291 197.474 83.7676 196.938 84.2039Z" fill="white"/>
<path d="M66.3147 121.004C69.9371 117.947 72.1374 113.118 71.5604 108.417C70.9834 103.716 67.4095 99.3943 62.7735 98.396C58.1376 97.3977 52.853 100.161 51.4449 104.684C50.67 95.9642 49.777 86.8792 45.1351 79.4536C40.9319 72.7299 33.652 67.9188 25.7621 67.0581C17.8723 66.1974 9.56532 69.4482 4.64472 75.6675C-0.275873 81.8868 -1.48066 90.9283 1.9656 98.0686C4.50433 103.329 9.18159 107.243 14.0822 110.428C29.7168 120.588 49.1114 124.825 67.5658 122.113" fill="#F2F2F2"/>
<path d="M12.4468 69.6283C18.9569 74.924 24.9292 80.8468 30.2774 87.3111C35.6264 93.7688 40.3356 100.729 44.3389 108.095C46.5766 112.227 48.5867 116.478 50.3604 120.828C50.722 121.713 49.283 122.099 48.9254 121.224C45.7838 113.553 41.8971 106.209 37.321 99.2959C32.7671 92.4079 27.5549 85.9773 21.7576 80.0945C18.4787 76.7687 15.0191 73.6256 11.3946 70.6792C10.6517 70.0751 11.7101 69.0291 12.4468 69.6283L12.4468 69.6283Z" fill="white"/>
<path d="M147.87 122.731H61.4448V34.1707C61.4448 15.3289 76.7935 0 95.6597 0H113.655C132.521 0 147.87 15.3289 147.87 34.1707V122.731Z" fill="#F2F2F2"/>
<path d="M129.875 122.731H61.4449V34.1707C61.4261 26.9509 63.7152 19.9137 67.9791 14.0834C68.1363 13.8695 68.2931 13.6583 68.4547 13.4494C70.5172 10.7479 72.9715 8.36879 75.7368 6.39049C75.893 6.27698 76.0498 6.16545 76.2089 6.05391C78.5228 4.45472 81.0258 3.14742 83.661 2.16176C83.8175 2.10252 83.9768 2.04317 84.1361 1.98624C86.5193 1.13684 88.9898 0.555006 91.502 0.251478C91.6577 0.230231 91.8176 0.213604 91.9775 0.196978C94.4256 -0.0644386 96.8946 -0.0644386 99.3427 0.196978C99.5022 0.213604 99.6621 0.230229 99.8196 0.251705C102.331 0.555253 104.801 1.13702 107.184 1.98625C107.343 2.04318 107.502 2.10253 107.659 2.16188C110.262 3.13511 112.735 4.4229 115.025 5.99652C115.184 6.10564 115.343 6.21718 115.5 6.32872C117.05 7.43371 118.506 8.66473 119.853 10.0092C120.933 11.0876 121.939 12.2372 122.866 13.4501C123.027 13.6583 123.183 13.8695 123.34 14.0831C127.604 19.9134 129.894 26.9508 129.875 34.1707V122.731Z" fill="#CCCCCC"/>
<path d="M124.31 83.1211C126.403 83.1211 128.099 81.4271 128.099 79.3375C128.099 77.2479 126.403 75.5539 124.31 75.5539C122.218 75.5539 120.522 77.2479 120.522 79.3375C120.522 81.4271 122.218 83.1211 124.31 83.1211Z" fill="#EF4C29"/>
<path d="M140.79 120.078H137.887L136.506 108.896L140.79 108.896L140.79 120.078Z" fill="#FFB8B8"/>
<path d="M135.814 119.25H141.412V122.77H132.289C132.289 122.308 132.38 121.85 132.557 121.423C132.734 120.996 132.994 120.608 133.321 120.281C133.648 119.954 134.037 119.695 134.465 119.518C134.892 119.341 135.351 119.25 135.814 119.25Z" fill="#2F2E41"/>
<path d="M155.234 120.078H152.331L150.95 108.896L155.234 108.896L155.234 120.078Z" fill="#FFB8B8"/>
<path d="M150.257 119.25H155.856V122.77H146.732C146.732 122.308 146.824 121.85 147.001 121.423C147.178 120.996 147.438 120.608 147.765 120.281C148.092 119.954 148.481 119.695 148.908 119.518C149.336 119.341 149.794 119.25 150.257 119.25Z" fill="#2F2E41"/>
<path d="M126.228 80.0871C126.019 79.7798 125.88 79.4305 125.821 79.0638C125.762 78.6971 125.784 78.322 125.886 77.9648C125.988 77.6076 126.167 77.2771 126.41 76.9964C126.654 76.7158 126.956 76.4919 127.296 76.3406L137.164 49.1774L142.019 51.8239L130.752 77.782C130.969 78.3686 130.963 79.0142 130.735 79.5966C130.507 80.1789 130.073 80.6575 129.515 80.9416C128.957 81.2257 128.315 81.2957 127.709 81.1382C127.103 80.9807 126.576 80.6067 126.228 80.0871Z" fill="#FFB8B8"/>
<path d="M153.751 85.1911C153.428 85.0064 153.15 84.7533 152.936 84.4496C152.722 84.1459 152.577 83.799 152.512 83.4334C152.447 83.0678 152.462 82.6923 152.558 82.3335C152.654 81.9746 152.827 81.641 153.066 81.3563L150.009 52.6223L155.535 52.8744L156.805 81.1381C157.258 81.5704 157.535 82.1534 157.586 82.7766C157.637 83.3998 157.457 84.0199 157.081 84.5195C156.704 85.0191 156.157 85.3634 155.543 85.4872C154.93 85.611 154.292 85.5056 153.751 85.1911Z" fill="#FFB8B8"/>
<path d="M144.935 44.1461C148.147 44.1461 150.751 41.5457 150.751 38.338C150.751 35.1303 148.147 32.5299 144.935 32.5299C141.723 32.5299 139.12 35.1303 139.12 38.338C139.12 41.5457 141.723 44.1461 144.935 44.1461Z" fill="#FFB8B8"/>
<path d="M153.714 78.6562H136.181L136.202 78.5199C136.233 78.3162 139.327 58.0792 137.045 51.4586C136.816 50.808 136.836 50.0958 137.102 49.4591C137.367 48.8224 137.859 48.3063 138.482 48.01H138.482C141.743 46.4764 148.003 44.5879 153.286 49.1709C154.063 49.8564 154.67 50.7131 155.059 51.6733C155.448 52.6336 155.608 53.6709 155.526 54.7035L153.714 78.6562Z" fill="#EF4C29"/>
<path d="M139.548 61.0699L131.655 59.4705L135.355 50.7139C135.576 49.8658 136.125 49.14 136.882 48.6957C137.638 48.2515 138.541 48.125 139.39 48.3441C140.24 48.5632 140.968 49.1099 141.415 49.8644C141.861 50.6189 141.99 51.5195 141.773 52.3687L139.548 61.0699Z" fill="#EF4C29"/>
<path d="M149.658 64.0395L149.183 53.1754C148.823 51.1332 149.994 49.2026 151.794 48.887C153.595 48.5726 155.353 49.989 155.715 52.0463L157.499 62.1976L149.658 64.0395Z" fill="#EF4C29"/>
<path d="M153.13 77.3555C155.952 88.086 156.259 101.729 155.498 116.61L151.71 116.138L144.843 87.7604L141.055 116.61L136.793 116.374C135.519 100.76 134.279 87.3548 136.319 78.5379L153.13 77.3555Z" fill="#2F2E41"/>
<path d="M148.767 42.8267C147.682 43.9809 145.667 43.3613 145.526 41.7845C145.515 41.6621 145.516 41.5389 145.529 41.4166C145.601 40.7182 146.006 40.0841 145.909 39.3466C145.887 39.1631 145.818 38.9881 145.71 38.8384C144.845 37.6822 142.816 39.3556 142 38.3089C141.5 37.6671 142.088 36.6566 141.704 35.9393C141.197 34.9925 139.696 35.4596 138.755 34.9411C137.708 34.3642 137.77 32.7596 138.46 31.7835C139.3 30.5932 140.774 29.958 142.23 29.8665C143.686 29.775 145.131 30.1679 146.49 30.6969C148.034 31.2978 149.566 32.1284 150.516 33.4843C151.671 35.1333 151.782 37.3502 151.205 39.2784C150.853 40.4513 149.653 41.8842 148.767 42.8267Z" fill="#2F2E41"/>
<path d="M198.892 122.883H24.078C24.0034 122.883 23.9319 122.853 23.8792 122.8C23.8265 122.747 23.7969 122.676 23.7969 122.601C23.7969 122.527 23.8265 122.455 23.8792 122.403C23.9319 122.35 24.0034 122.32 24.078 122.32H198.892C198.967 122.32 199.039 122.35 199.091 122.403C199.144 122.455 199.174 122.527 199.174 122.601C199.174 122.676 199.144 122.747 199.091 122.8C199.039 122.853 198.967 122.883 198.892 122.883Z" fill="#3F3D56"/>
<path d="M111.051 97.0732H80.2691C79.8637 97.0754 79.474 96.9169 79.1854 96.6325C78.8969 96.348 78.7331 95.961 78.73 95.5561V26.9382C78.7331 26.5333 78.8969 26.1462 79.1854 25.8618C79.474 25.5774 79.8637 25.4189 80.2691 25.4211H111.051C111.456 25.4189 111.846 25.5774 112.134 25.8618C112.423 26.1462 112.587 26.5333 112.59 26.9382V95.5561C112.587 95.961 112.423 96.348 112.134 96.6325C111.846 96.9169 111.456 97.0754 111.051 97.0732Z" fill="white"/>
<path d="M112.59 47.6237H78.73V48.0967H112.59V47.6237Z" fill="#CCCCCC"/>
<path d="M112.708 74.608H78.8481V75.081H112.708V74.608Z" fill="#CCCCCC"/>
<path d="M89.8588 25.4211H89.3853V97.3097H89.8588V25.4211Z" fill="#CCCCCC"/>
<path d="M101.698 25.4211H101.224V97.3097H101.698V25.4211Z" fill="#CCCCCC"/>
</g>
<defs>
<clipPath id="clip0_233_6353">
<rect width="206" height="123" fill="white"/>
</clipPath>
</defs>
</svg>
