<svg width="142" height="112" viewBox="0 0 142 112" fill="none" xmlns="http://www.w3.org/2000/svg">
<g clip-path="url(#clip0_585_19837)">
<path d="M119.673 107.235C120.232 107.27 120.541 106.582 120.118 106.182L120.075 106.017C120.081 106.003 120.086 105.99 120.092 105.977C120.425 105.19 121.344 104.817 122.141 105.143C124.662 106.174 122.001 108.544 122.201 110.147C122.271 110.7 124.462 110.731 124.338 111.274C125.503 108.754 126.116 106.002 126.115 103.235C126.114 102.539 126.076 101.844 125.997 101.151C125.932 100.583 125.843 100.02 125.727 99.4611C125.102 96.4416 123.75 93.566 121.8 91.1644C120.862 90.658 121.434 89.8657 120.962 88.9164C120.792 88.574 119.279 88.5663 119.216 88.191C119.284 88.1998 120.262 87.1946 119.939 86.6977C119.726 86.3708 119.792 85.9543 120.065 85.6748C120.092 85.6474 120.117 85.6185 120.141 85.5874C120.947 84.5044 122.059 84.6931 122.64 86.1642C123.881 86.783 123.893 87.81 123.133 88.798C122.649 89.4266 122.582 90.2769 122.158 90.9498C122.202 91.0051 122.247 91.0587 122.291 91.1141C123.093 92.1307 123.786 93.2236 124.371 94.3717C124.205 93.0955 124.448 91.5579 124.864 90.5667C125.34 89.4291 126.236 88.4721 127.021 87.4882C127.958 86.3131 129.865 86.8464 130.031 88.3342C130.032 88.3485 130.034 88.3628 130.036 88.3771C129.919 88.4419 129.806 88.5108 129.695 88.5835C129.062 88.9981 129.281 89.9691 130.031 90.0832L130.048 90.0858C130.007 90.4992 128.524 91.8013 128.419 92.2044C129.422 96.0357 128.672 96.5416 125.587 96.6057L125.425 96.8339C125.717 97.6655 125.952 98.5171 126.129 99.3797C126.295 100.18 126.411 100.99 126.476 101.803C126.557 102.828 126.55 103.859 126.463 104.883L126.468 104.846C126.69 103.719 127.308 102.665 128.207 101.935C129.545 100.847 131.436 100.446 132.879 99.5707C133.574 99.1495 134.465 99.6932 134.344 100.491L134.338 100.529C134.123 100.615 133.914 100.716 133.711 100.828C133.595 100.893 133.481 100.962 133.37 101.035C132.737 101.449 132.956 102.421 133.707 102.534L133.724 102.537C133.736 102.539 133.746 102.54 133.759 102.542C133.39 103.409 129.879 104.631 129.236 105.325C128.61 108.671 128.918 108.572 126.039 107.598H126.037C125.723 108.954 125.264 110.279 124.674 111.542L119.796 111.544C119.779 111.49 119.763 111.435 119.747 111.381C120.198 111.409 120.653 111.382 121.097 111.301C120.735 110.862 120.373 110.419 120.011 109.98C120.002 109.971 119.995 109.963 119.988 109.954L119.983 109.947L119.481 108.312C119.52 107.949 119.585 107.59 119.673 107.235L119.673 107.235V107.235V107.235Z" fill="#F2F2F2"/>
<path d="M68.1341 111.505L24.9776 111.519C22.8096 111.52 20.8675 110.412 19.7828 108.554C19.2404 107.626 18.9691 106.607 18.9688 105.588C18.9684 104.569 19.2391 103.55 19.7807 102.621L41.3452 63.781C42.4287 61.9229 44.3701 60.8132 46.5381 60.8125C48.7062 60.8118 50.6483 61.9201 51.7331 63.7775L73.3276 102.607C73.8685 103.533 74.1391 104.551 74.1392 105.57C74.1392 106.588 73.8686 107.607 73.3269 108.536C72.2435 110.394 70.3022 111.504 68.1341 111.505H68.1341H68.1341ZM19.5112 105.587C19.5112 106.515 24.2733 104.516 24.7667 105.361C25.7535 107.05 23.005 110.984 24.9775 110.984C24.9775 110.984 71.8724 109.959 72.858 108.268C73.3508 107.423 73.5971 106.496 73.5968 105.569C73.5964 104.642 73.3495 103.715 72.856 102.87L51.2616 64.0406C50.2775 62.3557 48.5108 61.3474 46.5383 61.348C44.5668 61.3487 19.5113 104.659 19.5112 105.587H19.5112Z" fill="#3F3D56"/>
<path d="M68.613 110.969C68.0721 112.04 93.408 111.711 93.7075 111.711C93.7075 111.711 100.829 111.555 100.978 111.298C101.053 111.17 101.091 111.029 101.091 110.889C101.091 110.748 101.053 110.607 100.978 110.479L97.6989 104.582C97.5494 104.326 97.2811 104.173 96.9816 104.173C96.9691 104.173 96.9508 104.184 96.927 104.205C92.5525 108.073 87.1614 110.63 81.2953 110.716C75.0577 110.808 68.6474 110.901 68.613 110.969H68.613Z" fill="#3F3D56"/>
<path d="M2.02582e-08 111.682C6.22689e-05 111.858 0.143562 112 0.322196 112L141.678 111.952C141.857 111.952 142 111.81 142 111.633C142 111.456 141.856 111.314 141.678 111.314L0.321974 111.363C0.14334 111.363 -6.22284e-05 111.505 2.02582e-08 111.682H2.02582e-08Z" fill="#CCCCCC"/>
<path d="M109.308 110.135L106.86 110.135L105.692 100.794L109.305 100.793L109.308 110.135Z" fill="#A0616A"/>
<path d="M100.921 110.083C100.845 110.21 100.805 110.62 100.805 110.767C100.805 111.221 101.177 111.589 101.636 111.589L109.217 111.586C109.53 111.586 109.783 111.335 109.783 111.025L109.783 110.713C109.783 110.713 110.158 109.774 109.385 108.618C109.385 108.618 108.426 109.524 106.992 108.106L106.569 107.348L103.509 109.564L101.812 109.771C101.441 109.816 101.112 109.764 100.921 110.083H100.921Z" fill="#2F2E41"/>
<path d="M99.9226 102.145L97.6038 102.921L93.4736 94.4421L96.8959 93.2964L99.9226 102.145Z" fill="#A0616A"/>
<path d="M91.9602 104.754C91.9292 104.898 92.0239 105.299 92.0718 105.439C92.2189 105.869 92.6905 106.1 93.1251 105.954L100.306 103.549C100.602 103.45 100.761 103.132 100.661 102.838L100.56 102.543C100.56 102.543 100.611 101.535 99.5048 100.684C99.5048 100.684 98.8893 101.846 97.0714 100.957L96.4253 100.374L94.2437 103.442L92.7036 104.176C92.3666 104.337 92.038 104.392 91.9602 104.753L91.9602 104.754Z" fill="#2F2E41"/>
<path d="M96.1404 47.9547L91.3923 63.5123L85.7871 77.5063L94.6612 97.4908L97.9516 96.0426L94.0144 77.6843L102.271 65.227L106.124 104.116L109.415 103.934L113.878 56.9928L114.514 46.7727L96.1404 47.9547Z" fill="#2F2E41"/>
<path d="M110.48 13.4915L103.533 14.76L102.986 17.8352L98.7815 19.8264L96.5955 42.4375C96.5955 42.4375 92.9406 47.1418 95.8664 48.5878L114.514 46.7726C114.514 46.7726 115.427 43.4281 114.513 43.1108C113.599 42.7935 113.596 34.8047 113.596 34.8047L117.795 18.3728L111.578 16.2043L110.48 13.4915Z" fill="#E6E6E6"/>
<path d="M106.383 13.4322C109.482 13.4322 111.993 10.9473 111.993 7.882C111.993 4.8167 109.482 2.33179 106.383 2.33179C103.285 2.33179 100.773 4.8167 100.773 7.882C100.773 10.9473 103.285 13.4322 106.383 13.4322Z" fill="#A0616A"/>
<path d="M110.098 8.70578C109.65 8.94824 110.075 10.1059 109.795 10.2059C109.472 10.3216 108.293 8.99371 108.278 7.50636C108.274 7.0562 108.379 6.84004 108.278 6.30631C108.146 5.60816 107.742 4.78471 107.368 4.80657C107.146 4.81952 106.929 5.12983 106.913 5.40674C106.89 5.79485 107.271 5.94761 107.216 6.15667C107.112 6.55487 105.512 6.82979 104.942 6.15745C104.496 5.63034 104.838 4.70488 104.638 4.65749C104.491 4.62256 104.333 5.13209 103.729 5.70784C103.501 5.92476 103.163 6.24737 102.971 6.15812C102.694 6.02915 102.895 5.12019 102.819 5.10813C102.756 5.09815 102.716 5.73704 102.365 6.30834C101.913 7.0423 100.981 7.60802 100.546 7.359C100.279 7.20643 100.258 6.78167 100.242 6.45907C100.208 5.77943 99.2101 4.21612 99.4684 3.48907C99.9941 2.0093 100.895 3.0524 101.302 2.55856C101.854 1.89002 102.348 2.24946 103.273 1.50785C104.176 0.783359 104.184 0.0551877 104.788 0.00726779C105.333 -0.0358859 105.527 0.538864 106.153 0.456817C106.684 0.387312 106.799 -0.0584668 107.214 0.00643503C107.594 0.065853 107.619 0.45856 108.124 0.606147C108.447 0.700369 108.517 0.563992 108.882 0.605887C109.642 0.693062 110.152 1.37728 110.247 1.50545C110.615 1.99956 110.473 2.20792 110.854 2.70529C111.183 3.1342 111.912 2.95207 112.186 3.16629C113.082 3.86626 113.467 5.15714 113.474 6.62844C113.48 7.6575 113.344 8.17743 113.042 9.47633C112.812 10.4626 111.747 11.7372 111.161 12.3056C111.003 12.4581 110.562 12.8858 110.251 12.7559C109.957 12.6328 109.948 12.0791 109.948 12.006C109.946 11.7545 110.014 11.4434 110.554 10.6557C111.12 9.82827 111.346 9.73384 111.311 9.45539C111.251 8.96318 110.455 8.51251 110.098 8.70578H110.098Z" fill="#2F2E41"/>
<path d="M90.5297 60.4514C90.3551 61.8981 90.9679 63.1599 91.8984 63.2699C92.8289 63.3798 93.7247 62.2962 93.8993 60.8495C93.9758 60.2162 93.9013 59.6184 93.7154 59.1371L94.3775 52.998L91.459 52.752L91.116 58.83C90.8208 59.2545 90.6061 59.8182 90.5297 60.4514H90.5297H90.5297Z" fill="#A0616A"/>
<path d="M98.9185 19.6804C98.9185 19.6804 97.4065 19.7017 96.4054 21.6362C95.8734 22.6641 93.0271 41.8869 93.0271 41.8869L90.4053 57.634L94.8715 57.6562L98.3518 42.7434L101.279 34.0942L98.9185 19.6804L98.9185 19.6804Z" fill="#E6E6E6"/>
<path d="M111.487 58.1406C111.059 59.5348 111.44 60.8832 112.336 61.1525C113.233 61.4217 114.307 60.5099 114.734 59.1157C114.922 58.5055 114.954 57.904 114.856 57.3979L116.593 51.468L113.763 50.7207L112.351 56.6457C111.985 57.0125 111.674 57.5304 111.487 58.1406V58.1406Z" fill="#A0616A"/>
<path d="M114.596 18.6453C114.596 18.6453 116.789 17.0166 118.618 19.5483C120.447 22.0801 121.186 42.8814 121.186 42.8814L116.071 55.7259L112.232 54.461L115.883 38.7229L109.479 26.7868L114.596 18.6453H114.596Z" fill="#E6E6E6"/>
<path d="M59.1302 102.939C70.0418 102.939 78.8874 94.1874 78.8874 83.3919C78.8874 72.5963 70.0418 63.8447 59.1302 63.8447C48.2186 63.8447 39.373 72.5963 39.373 83.3919C39.373 94.1874 48.2186 102.939 59.1302 102.939Z" fill="#EF4C29"/>
<path d="M59.1334 95.3742C60.1352 95.3742 60.9474 94.5706 60.9474 93.5794C60.9474 92.5882 60.1352 91.7847 59.1334 91.7847C58.1315 91.7847 57.3193 92.5882 57.3193 93.5794C57.3193 94.5706 58.1315 95.3742 59.1334 95.3742Z" fill="white"/>
<path d="M59.1261 71.409C58.9594 72.5045 59.258 72.7337 59.2596 77.4566C59.2613 82.1794 60.2518 88.5116 59.132 88.512C58.0123 88.5124 57.6028 75.4441 53.7146 74.2875C49.1431 72.9277 59.6655 67.8626 59.1261 71.409Z" fill="white"/>
<path d="M32.6141 93.3715L30.8291 97.1029C32.9871 95.5719 36.3577 94.2522 39.0399 93.5454C36.5407 92.351 33.4827 90.4254 31.6557 88.5189L32.6824 92.4616C20.6457 90.036 12.0019 80.9002 11.9983 70.4351L11.5635 70.2871C11.5673 81.2182 20.0915 90.8949 32.6141 93.3715V93.3715Z" fill="#3F3D56"/>
</g>
<defs>
<clipPath id="clip0_585_19837">
<rect width="142" height="112" fill="white"/>
</clipPath>
</defs>
</svg>
