<svg width="230" height="177" viewBox="0 0 230 177" fill="none" xmlns="http://www.w3.org/2000/svg">
<g clip-path="url(#clip0_233_6147)">
<path d="M15.2445 177H214.745C214.846 177 214.943 176.957 215.014 176.879C215.086 176.802 215.126 176.698 215.126 176.588C215.126 176.479 215.086 176.375 215.014 176.297C214.943 176.22 214.846 176.177 214.745 176.177H15.2445C15.1434 176.177 15.0464 176.22 14.9749 176.297C14.9034 176.375 14.8633 176.479 14.8633 176.588C14.8633 176.698 14.9034 176.802 14.9749 176.879C15.0464 176.957 15.1434 177 15.2445 177Z" fill="#CCCCCC"/>
<path d="M53.5737 77.2796C41.9062 64.8781 36.9784 51.9402 39.6977 40.8496C43.1874 26.6171 58.6903 16.7765 82.2313 13.8511L82.3183 14.6675C59.105 17.552 43.8385 27.1717 40.4334 41.0598C37.7869 51.8531 42.6432 64.5084 54.1077 76.6943L53.5737 77.2796Z" fill="#F0F0F0"/>
<path d="M166.146 121.301C151.584 121.301 135.76 118.965 120.042 114.472C100.605 108.916 82.7835 100.53 68.5039 90.2199L68.9268 89.5371C83.1376 99.7971 100.88 108.145 120.237 113.678C137.729 118.678 155.352 120.995 171.195 120.383L171.223 121.204C169.55 121.269 167.857 121.301 166.146 121.301Z" fill="#F0F0F0"/>
<path d="M199.552 116.134L199.308 115.356C212.332 110.602 220.478 102.943 222.865 93.2071C225.899 80.8305 219.307 66.4682 204.301 52.7658C189.22 38.9939 167.471 27.5666 143.062 20.5895L143.256 19.7952C167.772 26.803 189.627 38.2894 204.793 52.1386C220.035 66.0572 226.715 80.7169 223.601 93.4173C221.145 103.432 212.829 111.288 199.552 116.134Z" fill="#F0F0F0"/>
<path d="M79.9659 121.645C51.3529 107.943 29.3044 90.1662 17.8823 71.5893L18.5162 71.1348C29.8593 89.5831 51.7921 107.254 80.2743 120.894L79.9659 121.645Z" fill="#F0F0F0"/>
<path d="M180.567 145.382C177.616 145.382 174.614 145.311 171.562 145.169L171.595 144.348C194.372 145.413 214.468 142.47 229.715 135.835L230 136.597C216.699 142.384 199.747 145.382 180.567 145.382Z" fill="#F0F0F0"/>
<path d="M163.965 14.5879C159.236 12.9254 154.372 11.3774 149.507 9.98693C121.514 1.98537 93.9967 -0.855597 69.9286 1.77275L69.8521 0.955146C94.0099 -1.68182 121.622 1.16596 149.702 9.1926C154.58 10.5871 159.458 12.1395 164.201 13.8068L163.965 14.5879Z" fill="#F0F0F0"/>
<path d="M35.6914 78.5121C24.0239 66.1106 19.0961 53.1727 21.8154 42.0821C25.305 27.8496 40.808 18.009 64.349 15.0836L64.436 15.9C41.2226 18.7845 25.9562 28.4042 22.5511 42.2923C19.9046 53.0857 24.7609 65.7409 36.2254 77.9268L35.6914 78.5121Z" fill="#F0F0F0"/>
<path d="M148.263 122.534C133.701 122.534 117.877 120.197 102.16 115.704C82.7228 110.148 64.9012 101.762 50.6216 91.4523L51.0444 90.7695C65.2553 101.03 82.998 109.377 102.354 114.91C119.847 119.91 137.47 122.227 153.313 121.616L153.341 122.437C151.667 122.502 149.975 122.534 148.263 122.534Z" fill="#F0F0F0"/>
<path d="M181.67 117.367L181.426 116.589C194.45 111.834 202.595 104.175 204.983 94.4396C208.017 82.063 201.425 67.7007 186.419 53.9984C171.337 40.2264 149.589 28.7992 125.179 21.822L125.374 21.0277C149.89 28.0355 171.744 39.5219 186.91 53.3712C202.153 67.2897 208.832 81.9495 205.718 94.6499C203.263 104.665 194.947 112.52 181.67 117.367Z" fill="#F0F0F0"/>
<path d="M62.0836 122.877C33.4706 109.175 11.4221 91.3986 0 72.8217L0.633888 72.3672C11.977 90.8155 33.9098 108.487 62.392 122.126L62.0836 122.877Z" fill="#F0F0F0"/>
<path d="M162.685 146.615C159.733 146.615 156.732 146.543 153.68 146.401L153.712 145.58C176.489 146.645 196.586 143.702 211.833 137.068L212.118 137.83C198.817 143.616 181.864 146.615 162.685 146.615Z" fill="#F0F0F0"/>
<path d="M146.083 15.8203C141.354 14.1578 136.489 12.6099 131.625 11.2194C103.632 3.21781 76.1144 0.376838 52.0463 3.00517L51.9697 2.18757C76.1276 -0.449395 103.739 2.39837 131.82 10.425C136.698 11.8195 141.576 13.3719 146.319 15.0392L146.083 15.8203Z" fill="#F0F0F0"/>
<path d="M12.97 56.5055C18.4383 49.8857 27.1612 45.8511 35.0661 48.2662C27.7735 53.8385 22.5414 62.0162 20.2955 71.3527C19.4415 74.9567 18.8391 79.0613 16.0631 81.2649C14.3358 82.6361 12.0471 82.9636 9.92292 82.6514C7.79862 82.339 5.79005 81.4471 3.80857 80.5632L3.27539 80.6131C4.80831 71.8986 7.5017 63.1254 12.97 56.5055Z" fill="#F2F2F2"/>
<path d="M35.042 48.4506C28.4329 50.1784 22.4961 54.1107 18.0748 59.689C17.1032 60.8716 16.3104 62.2122 15.7255 63.6614C15.1979 65.093 15.0351 66.651 15.2538 68.1735C15.4314 69.5976 15.7657 71.032 15.6195 72.4778C15.5345 73.2167 15.3059 73.9279 14.9485 74.5646C14.5911 75.2014 14.113 75.7494 13.5457 76.1727C12.1576 77.2672 10.488 77.7578 8.83988 78.1763C7.00994 78.6411 5.10237 79.0925 3.61067 80.4055C3.42994 80.5646 3.21186 80.2525 3.39233 80.0937C5.98762 77.8091 9.59452 78.1025 12.466 76.4431C13.8059 75.6688 14.9377 74.4538 15.2129 72.7867C15.4536 71.3288 15.11 69.8493 14.9187 68.4091C14.6851 66.9272 14.7912 65.4061 15.2276 63.9786C15.7423 62.502 16.486 61.1306 17.4268 59.9233C19.5048 57.1689 21.9709 54.7843 24.7349 52.857C27.878 50.6385 31.3496 49.0169 34.9992 48.0623C35.2251 48.0034 35.2664 48.392 35.0419 48.4506H35.042Z" fill="white"/>
<path d="M19.4004 57.8023C18.6343 56.8743 18.1987 55.6825 18.1713 54.4397C18.1439 53.1969 18.5266 51.984 19.2509 51.0177C19.3981 50.8228 19.6856 51.0606 19.5382 51.2558C18.8622 52.1543 18.5058 53.2841 18.5335 54.4413C18.5612 55.5985 18.9711 56.7069 19.6893 57.5665C19.8451 57.7535 19.5554 57.9882 19.4004 57.8023Z" fill="white"/>
<path d="M15.0757 67.4642C17.4241 67.6326 19.745 66.8392 21.5757 65.242C21.7569 65.0836 21.975 65.3957 21.794 65.5539C19.8861 67.2121 17.4693 68.0325 15.0258 67.8515C14.7929 67.834 14.844 67.4469 15.0757 67.4642Z" fill="white"/>
<path d="M27.9594 51.1493C28.1865 51.5751 28.508 51.9333 28.895 52.1917C29.282 52.4501 29.7225 52.6007 30.1767 52.63C30.4097 52.6442 30.3583 53.0314 30.1269 53.0172C29.6251 52.9824 29.1389 52.8154 28.7108 52.5309C28.2826 52.2464 27.9254 51.853 27.6705 51.3851C27.6431 51.3432 27.6315 51.2915 27.638 51.2407C27.6446 51.1898 27.6688 51.1435 27.7058 51.1113C27.7442 51.0803 27.7924 51.0669 27.8398 51.074C27.8873 51.0811 27.9303 51.1082 27.9594 51.1493L27.9594 51.1493Z" fill="white"/>
<path d="M46.2873 75.7472C46.1416 75.7428 45.9959 75.7384 45.8483 75.7366C43.8891 75.6881 41.9294 75.8115 39.9887 76.1057C39.8383 76.1259 39.6862 76.1488 39.5366 76.1736C34.868 76.9361 30.3711 78.6279 26.2745 81.1629C24.6452 82.1733 23.0894 83.316 21.6207 84.5812C19.5925 86.3287 17.5221 88.3976 15.1475 89.2932C14.9007 89.3896 14.6487 89.4695 14.3928 89.5323L3.37309 81.3117C3.35673 81.2794 3.33852 81.2498 3.32204 81.2174L2.86816 80.9109C2.93969 80.84 3.01529 80.768 3.08682 80.6971C3.12815 80.6557 3.17195 80.6162 3.21326 80.5748C3.24159 80.5479 3.27007 80.5209 3.2942 80.4948C3.3036 80.4858 3.31313 80.4769 3.3208 80.4706C3.34495 80.4445 3.36992 80.423 3.39232 80.3996C3.81386 79.9962 4.23876 79.5953 4.66702 79.1969C4.66876 79.1942 4.66876 79.1942 4.67295 79.1933C7.90932 76.1238 11.4715 73.4797 15.2848 71.3164C15.3994 71.2535 15.5156 71.1878 15.6353 71.1287C17.3568 70.1961 19.1461 69.417 20.9852 68.7992C21.9932 68.4644 23.0163 68.1849 24.0505 67.9618C26.7238 67.3908 29.4636 67.2775 32.1695 67.6258C37.5637 68.3211 42.6918 70.8713 46.035 75.3986C46.1204 75.5145 46.2036 75.6286 46.2873 75.7472Z" fill="#F2F2F2"/>
<path d="M46.1657 75.8798C39.9253 72.963 32.9924 72.2434 26.3517 73.8232C24.9165 74.1358 23.5359 74.6908 22.2608 75.4677C21.0413 76.2678 20.0425 77.4059 19.3682 78.7638C18.7159 80.0162 18.183 81.3788 17.26 82.4382C16.7802 82.973 16.201 83.3921 15.5606 83.6682C14.9202 83.9443 14.2329 84.0711 13.5439 84.0403C11.8253 84.0118 10.2186 83.3182 8.66929 82.581C6.94904 81.7624 5.17427 80.8828 3.25103 80.9615C3.018 80.9711 3.01792 80.5801 3.25059 80.5706C6.59669 80.4336 9.31303 83.0125 12.531 83.5542C14.0326 83.807 15.6138 83.5727 16.7632 82.4205C17.7682 81.4129 18.3189 80.0082 18.9692 78.734C19.6091 77.3989 20.542 76.2534 21.6864 75.3974C22.9208 74.5529 24.2792 73.9414 25.7036 73.5891C28.8986 72.7406 32.1974 72.4398 35.479 72.6977C39.2257 72.9696 42.9017 73.9316 46.348 75.542C46.5613 75.6417 46.3776 75.9789 46.1657 75.8798H46.1657Z" fill="white"/>
<path d="M28.4626 73.1785C28.3684 71.9396 28.6851 70.7048 29.3562 69.6947C30.0273 68.6846 31.0092 67.9649 32.1263 67.6643C32.3526 67.6043 32.4496 67.9811 32.223 68.0411C31.1822 68.319 30.2677 68.9895 29.6445 69.9315C29.0214 70.8734 28.7306 72.0249 28.8247 73.1781C28.8448 73.4287 28.4826 73.4277 28.4626 73.1785Z" fill="white"/>
<path d="M19.6216 78.0817C21.4027 79.7428 23.6983 80.618 26.0506 80.5328C26.2837 80.5242 26.2838 80.9151 26.051 80.9238C23.6031 81.0075 21.2158 80.0915 19.3658 78.3585C19.1896 78.1932 19.4463 77.9173 19.6216 78.0817Z" fill="white"/>
<path d="M39.0058 73.4303C38.9497 73.9179 39.0067 74.4129 39.1716 74.8709C39.3365 75.3288 39.6042 75.7353 39.9505 76.054C40.1286 76.2168 39.8717 76.4925 39.6948 76.3307C39.3136 75.9768 39.0185 75.5274 38.8353 75.0219C38.6521 74.5164 38.5863 73.9701 38.6437 73.4308C38.6451 73.3795 38.6646 73.3307 38.6982 73.2943C38.7318 73.258 38.777 73.2368 38.8245 73.2351C38.8724 73.2353 38.9184 73.2559 38.9523 73.2925C38.9862 73.329 39.0054 73.3786 39.0057 73.4303H39.0058Z" fill="white"/>
<path d="M227.238 110.772C224.149 102.553 217.189 95.5874 208.992 94.9934C214.126 102.888 216.508 112.489 215.717 122.097C215.4 125.801 214.689 129.886 216.618 132.969C217.818 134.887 219.871 136.026 221.969 136.503C224.067 136.979 226.237 136.868 228.378 136.755L228.865 136.995C230.133 128.231 230.328 118.991 227.238 110.772Z" fill="#F2F2F2"/>
<path d="M208.958 95.1757C214.644 99.2014 219.012 105.059 221.439 111.918C221.986 113.384 222.316 114.934 222.415 116.512C222.467 118.051 222.135 119.578 221.455 120.932C220.845 122.209 220.083 123.439 219.771 124.854C219.621 125.58 219.615 126.333 219.753 127.062C219.892 127.792 220.171 128.481 220.574 129.086C221.541 130.621 222.96 131.689 224.382 132.681C225.961 133.783 227.617 134.9 228.613 136.678C228.734 136.893 229.037 136.679 228.916 136.464C227.183 133.37 223.694 132.337 221.507 129.733C220.486 128.517 219.798 126.962 220.058 125.292C220.285 123.832 221.069 122.563 221.697 121.276C222.379 119.965 222.752 118.494 222.786 116.991C222.761 115.413 222.487 113.852 221.977 112.374C220.877 109.025 219.297 105.884 217.293 103.066C215.024 99.8361 212.259 97.049 209.119 94.8256C208.924 94.688 208.764 95.0391 208.958 95.1757V95.1757Z" fill="white"/>
<path d="M220.778 109.66C221.788 109.064 222.57 108.099 222.982 106.939C223.395 105.778 223.412 104.497 223.031 103.324C222.953 103.087 222.608 103.207 222.686 103.444C223.043 104.535 223.027 105.729 222.641 106.809C222.254 107.889 221.523 108.784 220.579 109.333C220.374 109.452 220.574 109.778 220.778 109.66Z" fill="white"/>
<path d="M221.844 120.329C219.579 119.635 217.64 118.046 216.413 115.877C216.292 115.662 215.989 115.877 216.111 116.092C217.391 118.346 219.412 119.996 221.77 120.712C221.995 120.78 222.067 120.397 221.844 120.329Z" fill="white"/>
<path d="M214.788 100.288C214.442 100.606 214.027 100.827 213.582 100.93C213.137 101.033 212.676 101.015 212.239 100.878C212.015 100.806 211.943 101.19 212.165 101.26C212.649 101.41 213.158 101.429 213.65 101.316C214.142 101.204 214.601 100.963 214.987 100.615C215.026 100.585 215.053 100.541 215.062 100.49C215.072 100.44 215.064 100.388 215.039 100.344C215.012 100.301 214.971 100.271 214.924 100.26C214.877 100.25 214.828 100.259 214.788 100.288H214.788Z" fill="white"/>
<path d="M189.869 116.803C190.008 116.852 190.146 116.901 190.286 116.953C192.146 117.618 193.953 118.445 195.69 119.427C195.825 119.5 195.961 119.577 196.094 119.655C200.254 122.067 203.963 125.292 207.032 129.167C208.252 130.709 209.361 132.35 210.351 134.075C211.717 136.457 213.023 139.157 214.981 140.862C215.183 141.042 215.396 141.209 215.617 141.361L228.555 137.618C228.58 137.593 228.607 137.572 228.632 137.547L229.155 137.423C229.11 137.331 229.061 137.235 229.016 137.143C228.99 137.089 228.961 137.035 228.935 136.982C228.916 136.946 228.898 136.91 228.883 136.877C228.877 136.865 228.871 136.853 228.866 136.844C228.851 136.811 228.834 136.782 228.821 136.752C228.549 136.219 228.274 135.687 227.994 135.156C227.994 135.153 227.994 135.153 227.99 135.151C225.897 131.085 223.365 127.302 220.447 123.881C220.359 123.78 220.27 123.676 220.176 123.577C218.845 122.074 217.402 120.691 215.862 119.442C215.017 118.76 214.14 118.126 213.236 117.541C210.896 116.033 208.351 114.932 205.694 114.278C200.397 112.975 194.773 113.516 190.215 116.567C190.099 116.645 189.985 116.722 189.869 116.803Z" fill="#F2F2F2"/>
<path d="M189.942 116.972C196.728 116.49 203.481 118.328 209.244 122.226C210.498 123.041 211.626 124.065 212.585 125.259C213.484 126.455 214.071 127.89 214.283 129.413C214.508 130.83 214.585 132.306 215.125 133.639C215.41 134.317 215.825 134.922 216.342 135.414C216.86 135.907 217.468 136.275 218.126 136.496C219.754 137.093 221.483 137.023 223.171 136.891C225.046 136.744 226.992 136.56 228.779 137.332C228.995 137.426 229.117 137.057 228.901 136.964C225.792 135.621 222.431 137.064 219.231 136.406C217.738 136.099 216.322 135.305 215.598 133.803C214.965 132.489 214.884 130.966 214.668 129.53C214.481 128.04 213.959 126.623 213.148 125.401C212.248 124.158 211.159 123.089 209.927 122.24C207.182 120.282 204.169 118.801 200.998 117.854C197.384 116.75 193.623 116.322 189.876 116.588C189.644 116.605 189.712 116.989 189.942 116.972V116.972Z" fill="white"/>
<path d="M207.457 120.853C207.931 119.72 208.017 118.442 207.7 117.247C207.382 116.052 206.681 115.018 205.723 114.33C205.528 114.191 205.32 114.511 205.514 114.65C206.408 115.289 207.061 116.252 207.354 117.366C207.648 118.479 207.564 119.669 207.116 120.721C207.019 120.95 207.36 121.08 207.457 120.853L207.457 120.853Z" fill="white"/>
<path d="M214.257 128.679C212.062 129.597 209.628 129.588 207.439 128.654C207.222 128.562 207.1 128.93 207.317 129.023C209.596 129.99 212.13 129.993 214.412 129.033C214.629 128.941 214.473 128.588 214.257 128.679V128.679Z" fill="white"/>
<path d="M197.448 117.264C197.349 117.743 197.141 118.189 196.843 118.56C196.546 118.932 196.167 119.218 195.741 119.392C195.523 119.481 195.679 119.834 195.896 119.745C196.365 119.55 196.783 119.234 197.113 118.825C197.443 118.415 197.675 117.924 197.789 117.396C197.803 117.347 197.8 117.294 197.78 117.247C197.76 117.201 197.724 117.165 197.679 117.146C197.634 117.128 197.585 117.131 197.541 117.153C197.498 117.175 197.464 117.215 197.448 117.264V117.264Z" fill="white"/>
<path d="M64.576 47.5988C66.2571 47.5988 67.6199 46.1274 67.6199 44.3124C67.6199 42.4973 66.2571 41.0259 64.576 41.0259C62.895 41.0259 61.5322 42.4973 61.5322 44.3124C61.5322 46.1274 62.895 47.5988 64.576 47.5988Z" fill="#FD6584"/>
<path d="M181.084 80.0232C181.354 78.2316 180.227 76.5434 178.568 76.2527C176.908 75.962 175.345 77.1787 175.075 78.9703C174.806 80.762 175.933 82.45 177.592 82.7408C179.252 83.0315 180.815 81.8148 181.084 80.0232Z" fill="#E6E6E6"/>
<path d="M64.452 10.6146C66.1331 10.6146 67.4958 9.14318 67.4958 7.32811C67.4958 5.51303 66.1331 4.04163 64.452 4.04163C62.771 4.04163 61.4082 5.51303 61.4082 7.32811C61.4082 9.14318 62.771 10.6146 64.452 10.6146Z" fill="#E6E6E6"/>
<path d="M155.274 46.0014H154.405V20.3035C154.405 16.3588 152.954 12.5758 150.37 9.78648C147.787 6.9972 144.283 5.43019 140.63 5.43018H90.2053C88.3963 5.43017 86.6051 5.81487 84.9338 6.56232C83.2625 7.30977 81.744 8.40532 80.4648 9.78643C79.1857 11.1675 78.171 12.8072 77.4788 14.6117C76.7865 16.4162 76.4302 18.3502 76.4302 20.3034V161.285C76.4302 165.229 77.8815 169.012 80.4648 171.802C83.0481 174.591 86.5519 176.158 90.2053 176.158H140.63C144.283 176.158 147.787 174.591 150.37 171.802C152.954 169.012 154.405 165.229 154.405 161.285V64.2937H155.274V46.0014Z" fill="#3F3D56"/>
<path d="M151.472 20.4066V161.181C151.472 162.64 151.206 164.084 150.689 165.431C150.173 166.778 149.415 168.003 148.46 169.034C147.505 170.065 146.372 170.883 145.124 171.442C143.876 172 142.539 172.287 141.188 172.288H90.5172C87.7893 172.288 85.173 171.118 83.2439 169.035C81.3149 166.953 80.2311 164.128 80.231 161.182V20.4066C80.2309 18.9481 80.4969 17.504 81.0137 16.1565C81.5305 14.8091 82.2881 13.5847 83.2432 12.5534C84.1982 11.5221 85.3321 10.704 86.58 10.1458C87.8279 9.5876 89.1654 9.30025 90.5161 9.30017H96.6664C96.3636 10.1014 96.2479 10.9707 96.3296 11.8315C96.4113 12.6923 96.6878 13.5183 97.1348 14.2365C97.5817 14.9548 98.1854 15.5433 98.8927 15.9503C99.6 16.3573 100.389 16.5702 101.191 16.5702H130.079C130.881 16.5696 131.669 16.3563 132.376 15.9492C133.083 15.5421 133.687 14.9536 134.134 14.2355C134.581 13.5174 134.857 12.6917 134.939 11.8311C135.021 10.9705 134.906 10.1014 134.604 9.30017H141.186C142.536 9.3001 143.874 9.58729 145.122 10.1453C146.37 10.7034 147.504 11.5214 148.459 12.5526C149.414 13.5838 150.172 14.8081 150.689 16.1555C151.206 17.5028 151.472 18.947 151.472 20.4054L151.472 20.4066Z" fill="#F2F2F2"/>
<path d="M99.7888 22.7382H84.0703V23.4978H99.7888V22.7382Z" fill="white"/>
<path d="M123.711 22.7382H107.992V23.4978H123.711V22.7382Z" fill="white"/>
<path d="M140.493 113.699H89.2546C89.0819 113.699 88.911 113.662 88.7515 113.591C88.592 113.52 88.4471 113.415 88.325 113.283C88.2029 113.151 88.1061 112.995 88.04 112.823C87.9739 112.65 87.9399 112.466 87.9399 112.279C87.9399 112.093 87.9739 111.908 88.04 111.736C88.1061 111.564 88.2029 111.408 88.325 111.276C88.4471 111.144 88.592 111.039 88.7515 110.968C88.911 110.897 89.0819 110.86 89.2546 110.86H140.493C140.666 110.86 140.837 110.897 140.996 110.968C141.156 111.039 141.301 111.144 141.423 111.276C141.545 111.408 141.642 111.564 141.708 111.736C141.774 111.908 141.808 112.093 141.808 112.279C141.808 112.466 141.774 112.65 141.708 112.823C141.642 112.995 141.545 113.151 141.423 113.283C141.301 113.415 141.156 113.52 140.996 113.591C140.837 113.662 140.666 113.699 140.493 113.699Z" fill="#CCCCCC"/>
<path d="M140.493 123.575H89.2546C88.9059 123.575 88.5715 123.425 88.325 123.159C88.0784 122.893 87.9399 122.532 87.9399 122.155C87.9399 121.779 88.0784 121.418 88.325 121.151C88.5715 120.885 88.9059 120.736 89.2546 120.736H140.493C140.842 120.736 141.176 120.885 141.423 121.151C141.669 121.418 141.808 121.779 141.808 122.155C141.808 122.532 141.669 122.893 141.423 123.159C141.176 123.425 140.842 123.575 140.493 123.575Z" fill="#CCCCCC"/>
<path d="M140.493 133.45H89.2546C88.9059 133.45 88.5715 133.301 88.325 133.035C88.0784 132.768 87.9399 132.407 87.9399 132.031C87.9399 131.654 88.0784 131.293 88.325 131.027C88.5715 130.761 88.9059 130.611 89.2546 130.611H140.493C140.842 130.611 141.176 130.761 141.423 131.027C141.669 131.293 141.808 131.654 141.808 132.031C141.808 132.407 141.669 132.768 141.423 133.035C141.176 133.301 140.842 133.45 140.493 133.45Z" fill="#CCCCCC"/>
<path d="M147.633 22.7382H131.914V23.4978H147.633V22.7382Z" fill="white"/>
<path d="M99.7888 159.099H84.0703V159.859H99.7888V159.099Z" fill="white"/>
<path d="M123.711 159.099H107.992V159.859H123.711V159.099Z" fill="white"/>
<path d="M147.633 159.099H131.914V159.859H147.633V159.099Z" fill="white"/>
<path d="M115.851 94.2537C129.01 94.2537 139.678 82.7358 139.678 68.5278C139.678 54.3198 129.01 42.802 115.851 42.802C102.692 42.802 92.0249 54.3198 92.0249 68.5278C92.0249 82.7358 102.692 94.2537 115.851 94.2537Z" fill="#D1D3D4"/>
<path d="M115.852 93.1377C127.856 93.1377 137.588 82.6299 137.588 69.6679C137.588 56.706 127.856 46.1982 115.852 46.1982C103.847 46.1982 94.1147 56.706 94.1147 69.6679C94.1147 82.6299 103.847 93.1377 115.852 93.1377Z" fill="#EF4C29"/>
<path d="M113.954 78.8666C113.907 78.8666 113.859 78.8653 113.812 78.8629C113.395 78.8411 112.987 78.7221 112.617 78.5143C112.247 78.3065 111.922 78.0146 111.666 77.6588L108.24 72.9034C107.769 72.2482 107.558 71.418 107.653 70.5949C107.748 69.7718 108.142 69.0232 108.748 68.5132L108.871 68.41C109.478 67.9014 110.247 67.6734 111.009 67.7761C111.772 67.8788 112.465 68.3037 112.938 68.9577C113.092 69.1714 113.286 69.3466 113.509 69.4714C113.731 69.5962 113.976 69.6676 114.226 69.6807C114.477 69.6965 114.728 69.6524 114.96 69.5515C115.193 69.4506 115.403 69.2954 115.574 69.0969L122.53 61.1688C123.059 60.5674 123.787 60.2171 124.555 60.1946C125.323 60.1722 126.067 60.4795 126.626 61.0491L126.739 61.1645C127.296 61.7356 127.621 62.522 127.642 63.3513C127.663 64.1805 127.378 64.9848 126.85 65.5877L116.056 77.8896C115.786 78.1983 115.46 78.4442 115.098 78.6122C114.737 78.7802 114.347 78.8667 113.954 78.8666Z" fill="white"/>
<path d="M77.7826 32.5242H74.9683V48.8571H77.7826V32.5242Z" fill="#3F3D56"/>
<path d="M77.7826 50.7562H74.9683V60.2521H77.7826V50.7562Z" fill="#3F3D56"/>
<path d="M77.7826 62.1512H74.9683V71.6471H77.7826V62.1512Z" fill="#3F3D56"/>
<path d="M102.056 13.1526C102.833 13.1526 103.463 12.4723 103.463 11.6332C103.463 10.7941 102.833 10.1139 102.056 10.1139C101.278 10.1139 100.648 10.7941 100.648 11.6332C100.648 12.4723 101.278 13.1526 102.056 13.1526Z" fill="white"/>
<path opacity="0.16" d="M115.852 89.8864C110.352 89.8856 105.058 87.6339 101.035 83.5852C97.0123 79.5365 94.5607 73.9918 94.1743 68.0687C94.1391 68.6151 94.1147 69.1647 94.1147 69.7208C94.1147 75.9454 96.4049 81.915 100.481 86.3164C104.558 90.7178 110.087 93.1905 115.852 93.1905C121.616 93.1905 127.145 90.7178 131.222 86.3164C135.298 81.915 137.588 75.9454 137.588 69.7208C137.588 69.1647 137.564 68.6151 137.529 68.0687C137.142 73.9918 134.691 79.5365 130.668 83.5852C126.645 87.6339 121.351 89.8856 115.852 89.8864Z" fill="#231F20"/>
<path d="M146.497 88.6063L163.734 89.3658L165.845 76.8311L151.07 71.8936L146.497 88.6063Z" fill="#FFB8B8"/>
<path d="M153.012 61.4576L153.179 55.5358L144.824 53.2744L129.783 48.5364C129.584 47.8844 129.206 47.313 128.7 46.8978C128.194 46.4826 127.583 46.2432 126.947 46.2112C126.312 46.1792 125.683 46.3562 125.143 46.7187C124.603 47.0812 124.178 47.6121 123.923 48.2413C123.669 48.8705 123.598 49.5682 123.718 50.2422C123.839 50.9162 124.147 51.5347 124.6 52.0159C125.054 52.4971 125.632 52.8184 126.258 52.9371C126.884 53.0558 127.529 52.9665 128.107 52.6809L142.73 59.1709L153.012 61.4576Z" fill="#FFB8B8"/>
<path d="M147.628 61.4161L152.328 54.1786L152.445 54.1954C152.519 54.2059 159.889 55.2706 164.721 56.8241C165.264 56.9794 165.769 57.2608 166.201 57.6486C166.633 58.0364 166.981 58.5212 167.222 59.0694C167.567 59.8353 167.698 60.6935 167.598 61.5385C167.498 62.3835 167.171 63.1785 166.659 63.826C166.137 64.5259 165.439 65.0488 164.65 65.3321C163.86 65.6154 163.011 65.6472 162.205 65.4237L147.628 61.4161Z" fill="#EF4C29"/>
<path d="M150.605 171.141L145.825 171.141L143.55 151.232L150.606 151.232L150.605 171.141Z" fill="#FFB8B8"/>
<path d="M187.828 168.907L183.101 169.678L178.096 150.36L184.292 149.221L187.828 168.907Z" fill="#FFB8B8"/>
<path d="M164.438 85.5675L147.904 82.5288L147.316 83.8376C144.151 90.8887 142.283 98.5353 141.814 106.354C141.415 112.955 141.18 119.926 141.172 127.234C141.16 138.557 141.695 149.063 142.541 158.623L151.616 158.561C151.354 148.411 151.71 138.254 152.684 128.155C153.379 120.953 154.344 114.226 155.461 108.019C157.532 117.132 160.456 125.993 164.187 134.468C167.358 141.709 173.881 150.078 177.052 157.319C180.301 156.898 183.551 156.477 186.8 156.056C184.24 148.744 179.671 138.067 177.11 130.755C173.449 120.3 171.795 113.211 168.134 102.756C168.342 100.791 168.383 98.809 168.255 96.8356C168.085 93.5464 167.451 89.5993 165.599 86.9679L164.438 85.5675Z" fill="#2F2E41"/>
<path d="M166.992 80.1178C167.818 81.7843 165.857 85.2367 164.438 85.5675L148.087 79.8609L156.32 54.1027L160.462 54.9155L167.087 56.1206L169.437 58.4268C170.028 59.0081 170.451 59.7625 170.653 60.5983C170.856 61.434 170.829 62.3152 170.576 63.1349L166.992 80.1178Z" fill="#EF4C29"/>
<path d="M155.736 70.1632L151.111 66.9761L145.034 73.5659L133.562 85.0891C132.942 84.9398 132.294 84.9975 131.704 85.2545C131.115 85.5115 130.611 85.9557 130.261 86.5284C129.91 87.101 129.728 87.7752 129.74 88.4616C129.752 89.148 129.957 89.8143 130.327 90.3724C130.697 90.9306 131.216 91.3542 131.814 91.5873C132.412 91.8203 133.061 91.8519 133.676 91.6777C134.291 91.5036 134.843 91.1319 135.258 90.6119C135.673 90.0919 135.932 89.4481 136.001 88.7656L148.652 78.5277L155.736 70.1632Z" fill="#FFB8B8"/>
<path d="M152.947 75.1344L149.596 67.0698L149.669 66.9697C149.715 66.9068 154.336 60.6165 158.046 56.9312C158.448 56.5072 158.93 56.1828 159.46 55.9808C159.99 55.7788 160.554 55.7039 161.113 55.7615C161.899 55.8338 162.649 56.1522 163.27 56.6776C163.89 57.2031 164.356 57.9128 164.609 58.7197C164.898 59.562 164.957 60.4765 164.778 61.354C164.599 62.2314 164.19 63.0346 163.599 63.6676L152.947 75.1344Z" fill="#EF4C29"/>
<path d="M163.369 52.3813C167.386 52.3813 170.641 48.8661 170.641 44.5298C170.641 40.1935 167.386 36.6782 163.369 36.6782C159.353 36.6782 156.098 40.1935 156.098 44.5298C156.098 48.8661 159.353 52.3813 163.369 52.3813Z" fill="#FFB8B8"/>
<path d="M169.242 55.907L169.214 55.8994L158.647 53.0456C158.281 52.9467 157.941 52.7566 157.655 52.4904C157.369 52.2242 157.145 51.8894 157.001 51.5128C156.857 51.1363 156.796 50.7284 156.824 50.322C156.852 49.9156 156.968 49.5219 157.162 49.1725L157.511 48.5454C157.852 47.9331 158.045 47.2384 158.074 46.5246C158.102 45.8109 157.964 45.1008 157.673 44.4592C157.173 43.4114 156.312 42.6173 155.275 42.2474L155.24 42.2292L155.018 42.0801C154.8 41.9689 154.606 41.8098 154.448 41.6128C154.29 41.4159 154.172 41.1855 154.101 40.9365C154.028 40.6784 154.006 40.4066 154.036 40.1387C154.066 39.8707 154.148 39.6126 154.276 39.381C155.209 37.6961 156.605 36.3672 158.27 35.5791C160.374 34.6013 162.743 34.5244 164.898 35.3641C165.041 35.2218 165.215 35.1201 165.404 35.0683C165.593 35.0165 165.791 35.0161 165.98 35.0672C171.452 36.4983 171.903 40.4645 170.822 46.8312L172.101 52.4039C172.192 52.7973 172.202 53.2074 172.131 53.6055C172.06 54.0035 171.909 54.3801 171.69 54.709C171.47 55.0379 171.187 55.3112 170.86 55.51C170.532 55.7088 170.169 55.8282 169.795 55.86L169.242 55.907ZM164.839 35.4268L164.839 35.4276L164.839 35.4268ZM164.971 35.392L164.972 35.3923L164.971 35.392Z" fill="#2F2E41"/>
<path d="M151.77 176.302H149.042L148.555 173.521L147.308 176.302H140.072C139.725 176.302 139.387 176.183 139.108 175.961C138.828 175.739 138.622 175.426 138.519 175.069C138.415 174.711 138.421 174.327 138.534 173.973C138.647 173.619 138.862 173.313 139.147 173.101L144.926 168.791V165.98L151.004 166.371L151.77 176.302Z" fill="#2F2E41"/>
<path d="M188.589 176.302H185.86L185.373 173.521L184.126 176.302H176.89C176.543 176.302 176.205 176.183 175.926 175.961C175.646 175.739 175.44 175.426 175.337 175.069C175.234 174.711 175.239 174.327 175.352 173.973C175.465 173.619 175.68 173.313 175.966 173.101L181.744 168.791V165.98L187.822 166.371L188.589 176.302Z" fill="#2F2E41"/>
</g>
<defs>
<clipPath id="clip0_233_6147">
<rect width="230" height="177" fill="white"/>
</clipPath>
</defs>
</svg>
