<svg width="255" height="194" viewBox="0 0 255 194" fill="none" xmlns="http://www.w3.org/2000/svg">
<g clip-path="url(#clip0_4863_54384)">
    <defs>
        <clipPath id="clip0_4863_54384">
            <rect width="255" height="194" fill="white"/>
        </clipPath>
    </defs>
<path d="M102.042 18.713C98.9349 24.0791 104.785 33.1208 98.8891 34.9984L99.3748 34.5114C102.934 30.1223 95.4951 20.8325 99.0541 16.4434C99.607 15.7995 100.082 15.0921 100.468 14.3359" fill="#2F2E41"/>
<path d="M131.137 97.4383C131.239 96.9013 131.222 96.3485 131.088 95.8187C130.954 95.2889 130.705 94.7951 130.36 94.372C130.015 93.949 129.581 93.6069 129.09 93.37C128.599 93.1331 128.061 93.0071 127.516 93.0009L119.837 70.6309L115.586 76.0633L123.705 96.9655C123.756 97.8844 124.14 98.7529 124.787 99.4065C125.433 100.06 126.296 100.453 127.212 100.511C128.128 100.57 129.033 100.289 129.757 99.7227C130.48 99.1563 130.971 98.3435 131.137 97.4383L131.137 97.4383Z" fill="#FFB8B8"/>
<path d="M97.3801 43.4283C97.3801 43.4283 97.1411 35.3306 104.363 39.9695C111.586 44.6083 127.311 88.0628 127.311 88.0628L119.485 92.3076L101.721 52.5418L97.3801 43.4283Z" fill="#EF4C29"/>
<path d="M118.688 182.217L115.081 183.762L107.421 170.55L112.744 168.27L118.688 182.217Z" fill="#FFB6B6"/>
<path d="M123.261 187.667L120.675 188.775L119.17 186.524L119.031 189.479L112.172 192.418C111.843 192.559 111.478 192.591 111.13 192.509C110.781 192.427 110.469 192.235 110.237 191.963C110.005 191.69 109.866 191.35 109.84 190.992C109.814 190.635 109.903 190.278 110.094 189.975L113.955 183.835L112.901 181.36L118.809 179.236L123.261 187.667Z" fill="#2F2E41"/>
<path d="M62.1534 186.699L58.2363 186.507L57.1104 171.267L62.8921 171.55L62.1534 186.699Z" fill="#FFB6B6"/>
<path d="M63.8892 193.604L61.0801 193.467L60.7083 190.783L59.2944 193.379L51.8438 193.014C51.4867 192.997 51.1445 192.865 50.8672 192.639C50.5898 192.412 50.3919 192.103 50.3023 191.756C50.2127 191.409 50.2361 191.042 50.369 190.71C50.502 190.377 50.7376 190.095 51.0414 189.906L57.192 186.078L57.323 183.39L63.563 184.071L63.8892 193.604Z" fill="#2F2E41"/>
<path d="M177.57 184.27C177.83 184.279 178.086 184.208 178.304 184.067C178.522 183.926 178.691 183.721 178.789 183.479C178.887 183.238 178.909 182.973 178.851 182.719C178.793 182.465 178.659 182.235 178.467 182.06C178.434 181.933 178.41 181.842 178.377 181.715C178.619 181.081 179.045 180.533 179.599 180.143C180.154 179.752 180.812 179.537 181.49 179.524C182.167 179.511 182.833 179.702 183.402 180.071C183.971 180.44 184.417 180.971 184.683 181.596C186.217 185.103 188.194 188.73 187.265 192.619C193.517 179 191.187 162.157 181.648 150.653C179.028 149.238 176.891 146.701 176.313 143.736C177.607 144.162 179.205 143.095 178.222 141.742C177.797 141.225 177.368 140.713 176.942 140.196C181.792 134.917 187.709 143.084 182.382 150.197C184.168 152.398 185.719 154.78 187.01 157.305C186.692 154.614 187.015 151.886 187.954 149.346C188.907 146.977 190.716 144.973 192.307 142.918C194.241 140.414 198.281 141.522 198.574 144.673C196.773 145.286 196.563 147.904 198.633 148.243C198.148 154.115 194.376 159.543 189.135 162.167C191.131 167.618 191.946 173.434 191.524 179.226C192.39 172.453 199.615 170.742 204.651 168.006C204.972 167.796 205.346 167.683 205.729 167.683C206.111 167.682 206.486 167.793 206.807 168.003C207.127 168.212 207.381 168.51 207.535 168.861C207.69 169.212 207.739 169.601 207.677 169.979C206.981 170.271 206.316 170.631 205.691 171.054C205.398 171.256 205.175 171.543 205.051 171.877C204.928 172.211 204.91 172.574 205.001 172.919C205.092 173.263 205.287 173.57 205.559 173.799C205.831 174.028 206.167 174.167 206.521 174.197C204.03 180.552 197.474 184.866 190.699 184.907C190.075 187.75 189.158 190.52 187.963 193.172L177.908 193.268C177.871 193.157 177.837 193.041 177.804 192.93C178.735 192.979 179.669 192.915 180.584 192.737C178.094 189.837 176.176 188.364 177.57 184.27L177.57 184.27Z" fill="#F2F2F2"/>
<path d="M72.0487 87.6324C72.0487 87.6324 64.0829 109.398 63.9542 111.834C63.8255 114.27 61.5537 145.071 59.6484 146.861C57.7431 148.65 51.9182 176.397 56.4506 178.567C60.983 180.737 75.2823 177.142 75.2823 177.142L80.2568 144.367L81.9466 119.257C81.9466 119.257 87.0912 178.386 96.422 178.212C105.753 178.038 117.123 174.476 117.123 174.476L104.063 138.667C104.063 138.667 104.248 96.2738 101.22 87.7233C98.1933 79.1729 72.0487 87.6324 72.0487 87.6324Z" fill="#2F2E41"/>
<path d="M95.686 31.5547L85.0179 32.5344L83.2992 37.8239C83.2992 37.8239 74.3714 42.7398 76.3483 44.9731C78.3252 47.2065 75.9063 62.257 75.9063 62.257L76.4526 74.4738C76.4526 74.4738 75.8657 82.9379 74.1094 84.8881C72.3531 86.8382 67.7582 91.6202 71.0049 89.3324C82.3887 81.3105 102.286 88.0793 102.286 88.0793L99.4439 70.6231C99.4439 70.6231 105.9 42.0431 103.352 39.6294C100.804 37.2157 98.4003 36.9106 98.4003 36.9106L95.686 31.5547Z" fill="#EF4C29"/>
<path d="M39.6298 86.9258C40.1658 86.8257 40.6733 86.609 41.1168 86.291C41.5602 85.973 41.9286 85.5614 42.1962 85.0851C42.4638 84.6089 42.624 84.0796 42.6655 83.5346C42.707 82.9895 42.6288 82.442 42.4364 81.9306L60.4295 66.6253L53.8367 64.6299L37.3674 79.8126C36.5318 80.1936 35.8647 80.8686 35.4924 81.7098C35.1201 82.551 35.0685 83.4999 35.3474 84.3767C35.6263 85.2535 36.2162 85.9973 37.0055 86.4671C37.7948 86.9369 38.7285 87.1001 39.6298 86.9258Z" fill="#FFB8B8"/>
<path d="M85.3255 46.8911C85.3255 46.8911 88.8706 39.6113 80.3836 40.8548C71.8966 42.0984 39.7124 75.1982 39.7124 75.1982L45.0985 82.2984L77.6256 53.4023L85.3255 46.8911Z" fill="#EF4C29"/>
<path d="M71.5047 34.543L37.8554 77.7653C37.2733 78.5155 37.0115 79.4664 37.1275 80.4097C37.2434 81.3531 37.7276 82.2118 38.474 82.7979C46.2882 101.821 69.6663 115.928 97.1673 128.732C97.9153 129.316 98.8639 129.579 99.805 129.463C100.746 129.346 101.603 128.861 102.187 128.112L135.836 84.8894C136.419 84.1395 136.681 83.1884 136.565 82.2448C136.449 81.3013 135.964 80.4425 135.217 79.8568C112.139 66.7911 92.303 51.6533 76.5241 33.9228C75.7759 33.3392 74.8274 33.0767 73.8866 33.193C72.9457 33.3093 72.0892 33.7947 71.5047 34.543Z" fill="#E6E6E6"/>
<path d="M133.474 83.9061L123.232 97.0626C116.975 105.051 107.82 110.232 97.7652 111.475C87.7108 112.717 77.5747 109.919 69.5708 103.693L40.8667 81.2289C40.4414 80.896 40.1653 80.4076 40.0988 79.8708C40.0323 79.334 40.1809 78.7927 40.512 78.3656L73.0274 36.5998C73.3602 36.1741 73.8479 35.8981 74.3834 35.8325C74.9189 35.7668 75.4585 35.9168 75.8839 36.2496C90.404 55.0486 109.84 69.6778 133.123 81.0452C133.547 81.3782 133.823 81.8664 133.888 82.4028C133.954 82.9391 133.805 83.4798 133.474 83.9061Z" fill="white"/>
<path d="M70.8334 58.1383L64.1629 66.7065C63.9859 66.9335 63.7263 67.0807 63.4411 67.1158C63.1558 67.1509 62.8684 67.071 62.6419 66.8938C62.4154 66.7165 62.2683 66.4563 62.2331 66.1704C62.1978 65.8845 62.2772 65.5962 62.4538 65.3689L69.1243 56.8007C69.2118 56.6881 69.3206 56.5938 69.4445 56.5233C69.5684 56.4529 69.705 56.4076 69.8463 56.3901C69.9877 56.3725 70.1311 56.3831 70.2684 56.4212C70.4057 56.4592 70.5342 56.5241 70.6465 56.612C70.7588 56.6998 70.8527 56.809 70.9229 56.9333C70.993 57.0576 71.0381 57.1946 71.0554 57.3363C71.0728 57.4781 71.0621 57.6219 71.024 57.7595C70.9859 57.8971 70.9212 58.0258 70.8334 58.1383H70.8334Z" fill="#CCCCCC"/>
<path d="M83.3452 51.7826L68.6962 70.599C68.6086 70.7115 68.4998 70.8056 68.3759 70.876C68.252 70.9463 68.1156 70.9915 67.9743 71.009C67.833 71.0264 67.6896 71.0158 67.5524 70.9777C67.4152 70.9397 67.2868 70.8748 67.1746 70.787C67.0624 70.6992 66.9685 70.5901 66.8984 70.4659C66.8282 70.3417 66.7831 70.2048 66.7657 70.0631C66.7483 69.9215 66.7589 69.7778 66.7969 69.6402C66.8349 69.5026 66.8995 69.3739 66.9871 69.2614L81.636 50.445C81.7235 50.3322 81.8323 50.2378 81.9563 50.1672C82.0802 50.0966 82.2168 50.0513 82.3582 50.0337C82.4996 50.0161 82.6431 50.0266 82.7805 50.0647C82.9179 50.1027 83.0464 50.1676 83.1588 50.2555C83.2711 50.3434 83.3651 50.4527 83.4353 50.5771C83.5054 50.7014 83.5505 50.8385 83.5678 50.9803C83.5851 51.1221 83.5743 51.266 83.5361 51.4036C83.498 51.5413 83.4331 51.6701 83.3452 51.7826H83.3452Z" fill="#CCCCCC"/>
<path d="M58.3611 83.1679C62.3047 83.1679 65.5015 79.9626 65.5015 76.0088C65.5015 72.0549 62.3047 68.8496 58.3611 68.8496C54.4176 68.8496 51.2207 72.0549 51.2207 76.0088C51.2207 79.9626 54.4176 83.1679 58.3611 83.1679Z" fill="#EF4C29"/>
<path d="M84.1229 66.6543L66.1311 89.7647C65.9433 89.9564 65.6918 90.0721 65.4244 90.0898C65.157 90.1075 64.8925 90.0259 64.6812 89.8605C64.47 89.6952 64.3268 89.4577 64.279 89.1934C64.2312 88.929 64.2821 88.6562 64.422 88.4271L82.4138 65.3167C82.6015 65.125 82.8531 65.0093 83.1205 64.9916C83.3879 64.974 83.6524 65.0555 83.8637 65.2209C84.0749 65.3862 84.2181 65.6237 84.2659 65.888C84.3137 66.1524 84.2628 66.4252 84.1229 66.6543Z" fill="#CCCCCC"/>
<path d="M95.7948 61.378L70.6826 93.6344C70.4949 93.8261 70.2433 93.9418 69.9759 93.9595C69.7085 93.9772 69.444 93.8956 69.2327 93.7302C69.0215 93.5649 68.8783 93.3274 68.8305 93.0631C68.7827 92.7987 68.8336 92.5259 68.9735 92.2968L94.0857 60.0404C94.2734 59.8487 94.525 59.7329 94.7924 59.7153C95.0598 59.6976 95.3243 59.7792 95.5356 59.9445C95.7468 60.1098 95.89 60.3473 95.9378 60.6117C95.9856 60.8761 95.9347 61.1488 95.7948 61.378Z" fill="#CCCCCC"/>
<path d="M95.7074 75.7198L77.7156 98.8301C77.5278 99.0218 77.2763 99.1375 77.0089 99.1552C76.7415 99.1729 76.4769 99.0913 76.2657 98.926C76.0545 98.7606 75.9113 98.5232 75.8635 98.2588C75.8156 97.9944 75.8665 97.7217 76.0064 97.4925L93.9983 74.3822C94.186 74.1905 94.4376 74.0747 94.705 74.0571C94.9724 74.0394 95.2369 74.121 95.4481 74.2863C95.6594 74.4516 95.8026 74.6891 95.8504 74.9535C95.8982 75.2178 95.8473 75.4906 95.7074 75.7198Z" fill="#CCCCCC"/>
<path d="M119.514 78.5703L101.522 101.681C101.334 101.872 101.083 101.988 100.815 102.006C100.548 102.023 100.283 101.942 100.072 101.777C99.8608 101.611 99.7177 101.374 99.6699 101.109C99.622 100.845 99.6729 100.572 99.8128 100.343L117.805 77.2327C117.992 77.041 118.244 76.9253 118.511 76.9076C118.779 76.89 119.043 76.9716 119.255 77.1369C119.466 77.3022 119.609 77.5397 119.657 77.8041C119.705 78.0684 119.654 78.3412 119.514 78.5703Z" fill="#EF4C29"/>
<path d="M107.379 70.4434L82.2671 102.7C82.0793 102.891 81.8278 103.007 81.5604 103.025C81.293 103.043 81.0284 102.961 80.8172 102.796C80.606 102.63 80.4628 102.393 80.415 102.128C80.3672 101.864 80.418 101.591 80.5579 101.362L105.67 69.1058C105.858 68.9141 106.109 68.7984 106.377 68.7807C106.644 68.763 106.909 68.8446 107.12 69.0099C107.331 69.1752 107.474 69.4127 107.522 69.6771C107.57 69.9415 107.519 70.2142 107.379 70.4434Z" fill="#CCCCCC"/>
<path d="M77.8005 17.8988C77.7999 19.6379 78.225 21.3505 79.0387 22.8864C79.8523 24.4223 81.0295 25.7344 82.467 26.7077C83.9045 27.6809 85.5583 28.2854 87.2832 28.4682C89.0082 28.6511 90.7515 28.4065 92.3601 27.7561C93.9688 27.1057 95.3936 26.0693 96.5095 24.7379C97.6254 23.4065 98.3983 21.8208 98.7603 20.12C99.1223 18.4193 99.0624 16.6554 98.5857 14.9832C98.1091 13.3111 97.2303 11.7818 96.0266 10.5297L95.9758 10.4788C95.891 10.3895 95.8062 10.3002 95.7172 10.2152C95.7166 10.2152 95.7161 10.2151 95.7155 10.2149C95.715 10.2147 95.7146 10.2144 95.7142 10.214C95.7138 10.2136 95.7135 10.2131 95.7132 10.2126C95.713 10.2121 95.7129 10.2115 95.713 10.211C95.6027 10.109 95.4925 10.007 95.3781 9.90925C93.8469 8.5633 91.9612 7.68833 89.9469 7.38911C87.9325 7.08989 85.8748 7.37909 84.0202 8.22208C82.1655 9.06508 80.5925 10.4262 79.4894 12.1423C78.3864 13.8585 77.8 15.8571 77.8005 17.8988V17.8988Z" fill="#2F2E41"/>
<path d="M91.0077 29.2662C95.9151 29.2662 99.8934 25.2775 99.8934 20.3572C99.8934 15.4369 95.9151 11.4482 91.0077 11.4482C86.1003 11.4482 82.1221 15.4369 82.1221 20.3572C82.1221 25.2775 86.1003 29.2662 91.0077 29.2662Z" fill="#FFB8B8"/>
<path d="M81.5353 22.7318C80.6668 18.8074 81.9222 14.4109 84.6593 11.791C86.0359 10.4994 87.748 9.62335 89.5989 9.26364C91.4499 8.90393 93.3645 9.07512 95.1227 9.75754C95.3462 9.84799 95.5696 9.94697 95.7889 10.0503L95.8909 10.0985V10.1134C95.9107 10.1272 95.9305 10.1416 95.9503 10.1562C95.9917 10.1952 96.0421 10.2231 96.0971 10.2375C96.8686 10.2172 97.6357 10.3607 98.348 10.6584C99.0604 10.9561 99.702 11.4014 100.231 11.9651C101.608 13.4634 102.256 15.8846 102.058 18.7827L102.051 18.8734L101.974 18.9216C100.932 19.584 99.8498 20.1821 98.7345 20.7125C94.8337 22.5515 91.2725 22.8923 87.8498 21.7529L87.787 21.7321L86.3505 19.3182C86.0555 20.983 86.2131 26.5054 84.5208 26.8046L81.5721 22.8982L81.5353 22.7318Z" fill="#2F2E41"/>
<path d="M62.8303 30.4886C65.8541 28.9238 61.9652 23.2445 62.7466 19.924C63.5281 16.6034 69.1555 15.5354 69.514 12.1427C69.8725 8.74995 70.7158 5.2507 72.9487 2.67626C74.3756 1.0312 76.478 -0.183244 78.6427 0.0228101C79.3751 0.0925258 80.0839 0.319687 80.7208 0.68882C81.3578 1.05795 81.9079 1.56039 82.3337 2.16191C82.7595 2.76342 83.051 3.44988 83.1884 4.17454C83.3258 4.8992 83.3057 5.64503 83.1297 6.36122C83.746 5.48565 85.341 5.67542 85.7357 6.67135C86.0868 7.55673 85.3114 8.62918 84.3989 8.70751C83.2048 10.1859 81.8375 11.755 79.9669 12.0532C79.6689 12.1218 79.3592 12.1216 79.0612 12.0527C78.7632 11.9837 78.4848 11.8478 78.2469 11.6552C77.8068 11.2314 77.7726 10.3843 78.2946 10.0676C75.9438 11.0039 74.5656 13.5523 74.2167 16.0642C73.868 18.5761 74.3505 21.1177 74.6685 23.6337C74.9865 26.1497 75.1235 28.7965 74.1396 31.1329C72.9771 33.8934 70.3006 35.872 67.3796 36.5065C64.4587 37.141 61.348 36.5208 58.704 35.1237C56.0601 33.7264 53.8553 31.5935 52.0542 29.2022C55.1567 31.411 59.4491 32.2385 62.8303 30.4886Z" fill="#2F2E41"/>
<path d="M86.7632 19.7813C83.6564 25.1475 89.5064 34.1892 83.6105 36.0667L84.0962 35.5797C87.6552 31.1906 80.2165 21.9008 83.7755 17.5117C84.3284 16.8679 84.8031 16.1605 85.1895 15.4043" fill="#2F2E41"/>
<path d="M81.9502 22.6503C81.9502 22.6503 84.5824 12.7994 95.8656 10.5258C95.8783 10.5216 95.9207 10.5045 95.9758 10.4791C96.0097 10.4578 96.0521 10.4365 96.0945 10.4153C95.9673 10.343 95.8444 10.2793 95.7172 10.2155C95.7167 10.2155 95.7161 10.2154 95.7156 10.2152C95.7151 10.215 95.7146 10.2147 95.7142 10.2143C95.7138 10.2139 95.7135 10.2134 95.7133 10.2129C95.7131 10.2124 95.713 10.2118 95.713 10.2113C95.6028 10.1093 95.4926 10.0073 95.3782 9.90956L95.056 9.92232C95.056 9.92232 83.7347 8.1247 81.9502 22.6503Z" fill="#FD6584"/>
<path d="M1.88194e-06 193.576C-0.000164192 193.632 0.0106628 193.687 0.0318544 193.739C0.0530459 193.79 0.0841881 193.837 0.123487 193.876C0.162785 193.916 0.209463 193.947 0.26084 193.968C0.312217 193.99 0.367276 194 0.422851 194H254.577C254.689 194 254.797 193.956 254.876 193.876C254.955 193.797 255 193.689 255 193.576C255 193.464 254.955 193.356 254.876 193.277C254.797 193.197 254.689 193.152 254.577 193.152H0.422829C0.367257 193.152 0.312203 193.163 0.260829 193.184C0.209455 193.206 0.162777 193.237 0.123481 193.276C0.0841854 193.316 0.0530454 193.362 0.0318544 193.414C0.0106633 193.465 -0.00016182 193.521 1.88194e-06 193.576Z" fill="#CCCCCC"/>
</g>

</svg>
