<svg width="220" height="112" viewBox="0 0 220 112" fill="none" xmlns="http://www.w3.org/2000/svg">
<g clip-path="url(#clip0_585_19653)">
<path d="M198.754 91.0988H31.4792C29.3408 91.0964 27.2907 90.2374 25.7786 88.7104C24.2665 87.1834 23.416 85.113 23.4136 82.9535V18.8533C23.416 16.6938 24.2666 14.6234 25.7786 13.0964C27.2907 11.5694 29.3408 10.7105 31.4792 10.708H198.754C200.892 10.7105 202.942 11.5694 204.454 13.0964C205.967 14.6234 206.817 16.6938 206.82 18.8533V82.9535C206.817 85.113 205.967 87.1834 204.455 88.7104C202.942 90.2374 200.892 91.0964 198.754 91.0988Z" fill="white"/>
<path d="M198.754 91.0988H31.4792C29.3408 91.0964 27.2907 90.2374 25.7786 88.7104C24.2665 87.1834 23.416 85.113 23.4136 82.9535V18.8533C23.416 16.6938 24.2666 14.6234 25.7786 13.0964C27.2907 11.5694 29.3408 10.7105 31.4792 10.708H198.754C200.892 10.7105 202.942 11.5694 204.454 13.0964C205.967 14.6234 206.817 16.6938 206.82 18.8533V82.9535C206.817 85.113 205.967 87.1834 204.455 88.7104C202.942 90.2374 200.892 91.0964 198.754 91.0988ZM31.4792 11.4163C29.5261 11.4163 27.653 12.1998 26.2719 13.5945C24.8908 14.9893 24.1149 16.8809 24.1149 18.8533V82.9535C24.1149 83.9301 24.3054 84.8972 24.6755 85.7995C25.0456 86.7018 25.588 87.5216 26.2719 88.2122C26.9557 88.9028 27.7676 89.4506 28.661 89.8244C29.5545 90.1981 30.5121 90.3905 31.4792 90.3905H198.754C199.721 90.3905 200.679 90.1981 201.572 89.8244C202.466 89.4506 203.277 88.9028 203.961 88.2122C204.645 87.5216 205.188 86.7018 205.558 85.7995C205.928 84.8972 206.118 83.9301 206.118 82.9535V58.7843C206.118 46.2215 201.176 34.1733 192.38 25.2901C183.584 16.4068 171.653 11.4163 159.214 11.4163H31.4792Z" fill="#E6E6E6"/>
<path d="M18.2438 104.745C18.3122 104.27 17.8198 103.805 17.1439 103.705C16.468 103.606 15.8646 103.911 15.7962 104.385C15.7278 104.86 16.2203 105.326 16.8962 105.425C17.572 105.524 18.1754 105.22 18.2438 104.745Z" fill="white"/>
<path d="M26.2912 103.952C26.3596 103.477 25.8671 103.012 25.1913 102.912C24.5154 102.813 23.912 103.118 23.8436 103.592C23.7752 104.067 24.2676 104.533 24.9435 104.632C25.6194 104.731 26.2228 104.427 26.2912 103.952Z" fill="#3F3D56"/>
<path d="M16.0402 98.1659C16.1086 97.6911 15.6162 97.2257 14.9403 97.1263C14.2644 97.027 13.661 97.3315 13.5926 97.8063C13.5242 98.2811 14.0167 98.7465 14.6925 98.8458C15.3684 98.9451 15.9718 98.6407 16.0402 98.1659Z" fill="#FF6584"/>
<path d="M12.5435 95.471C12.5468 95.0351 12.306 94.6798 12.0057 94.6775C11.7054 94.6753 11.4594 95.0268 11.4561 95.4627C11.4528 95.8986 11.6936 96.2538 11.9939 96.2561C12.2942 96.2584 12.5402 95.9069 12.5435 95.471Z" fill="#E6E6E6"/>
<path d="M11.3579 90.4514C11.3612 90.0155 11.1204 89.6603 10.8202 89.658C10.5199 89.6557 10.2738 90.0072 10.2706 90.4431C10.2673 90.879 10.5081 91.2343 10.8083 91.2366C11.1086 91.2389 11.3547 90.8874 11.3579 90.4514Z" fill="#3F3D56"/>
<path d="M20.5791 99.2854C20.5824 98.8495 20.3416 98.4943 20.0414 98.492C19.7411 98.4897 19.495 98.8412 19.4917 99.2771C19.4885 99.713 19.7293 100.068 20.0295 100.071C20.3298 100.073 20.5759 99.7213 20.5791 99.2854Z" fill="#E6E6E6"/>
<path d="M16.6905 101.246C16.6937 100.81 16.453 100.455 16.1527 100.452C15.8524 100.45 15.6063 100.802 15.6031 101.238C15.5998 101.673 15.8406 102.029 16.1409 102.031C16.4411 102.033 16.6872 101.682 16.6905 101.246Z" fill="#FF6584"/>
<path d="M22.1036 104.87C22.1068 104.434 21.866 104.079 21.5658 104.076C21.2655 104.074 21.0194 104.426 21.0162 104.862C21.0129 105.298 21.2537 105.653 21.5539 105.655C21.8542 105.657 22.1003 105.306 22.1036 104.87Z" fill="#3F3D56"/>
<path d="M212.654 2.38051C212.802 1.78763 212.239 1.13193 211.395 0.915949C210.551 0.699966 209.746 1.00549 209.598 1.59837C209.449 2.19124 210.012 2.84696 210.856 3.06295C211.7 3.27893 212.505 2.97339 212.654 2.38051Z" fill="white"/>
<path d="M202.347 2.31363C202.496 1.72075 201.933 1.06504 201.089 0.849055C200.245 0.633072 199.44 0.938612 199.291 1.53149C199.143 2.12437 199.706 2.78007 200.55 2.99605C201.394 3.21204 202.199 2.90651 202.347 2.31363Z" fill="#3F3D56"/>
<path d="M214.587 11.0153C214.736 10.4224 214.172 9.7667 213.329 9.55071C212.485 9.33473 211.68 9.64025 211.531 10.2331C211.382 10.826 211.946 11.4817 212.79 11.6977C213.634 11.9137 214.438 11.6082 214.587 11.0153Z" fill="#FF6584"/>
<path d="M216.99 14.2713C217.051 13.7191 216.792 13.2366 216.412 13.1937C216.032 13.1508 215.674 13.5636 215.613 14.1158C215.551 14.6681 215.81 15.1505 216.191 15.1934C216.571 15.2364 216.929 14.8235 216.99 14.2713Z" fill="#E6E6E6"/>
<path d="M217.839 20.7923C217.9 20.2401 217.641 19.7576 217.261 19.7147C216.88 19.6717 216.522 20.0846 216.461 20.6368C216.4 21.1891 216.659 21.6715 217.039 21.7144C217.42 21.7574 217.778 21.3445 217.839 20.7923Z" fill="#3F3D56"/>
<path d="M207.301 8.36454C207.362 7.81232 207.103 7.32987 206.723 7.28694C206.343 7.24402 205.985 7.65688 205.924 8.2091C205.863 8.76132 206.121 9.24378 206.502 9.28671C206.882 9.32963 207.24 8.91677 207.301 8.36454Z" fill="#E6E6E6"/>
<path d="M212.487 6.39677C212.548 5.84455 212.289 5.36209 211.909 5.31917C211.529 5.27624 211.171 5.68911 211.11 6.24133C211.049 6.79355 211.307 7.27601 211.688 7.31893C212.068 7.36186 212.426 6.94899 212.487 6.39677Z" fill="#FF6584"/>
<path d="M206.098 1.08085C206.159 0.528633 205.9 0.0461744 205.52 0.00324991C205.14 -0.0396746 204.782 0.37319 204.72 0.92541C204.659 1.47763 204.918 1.96009 205.299 2.00301C205.679 2.04594 206.037 1.63307 206.098 1.08085Z" fill="#3F3D56"/>
<path d="M90.3204 49.5992C90.3295 56.0141 87.983 62.2045 83.7346 66.9735V66.9771C83.1339 67.6515 82.4995 68.2945 81.8339 68.9036C81.1528 69.5266 80.4387 70.1118 79.6947 70.6566C79.1757 71.0391 78.6427 71.4003 78.0956 71.7403C77.4469 72.1476 76.7794 72.5241 76.0932 72.87C75.5848 73.1285 75.0657 73.3694 74.5362 73.5925C71.3754 74.934 67.981 75.6239 64.5524 75.6217C62.616 75.6239 60.6855 75.4053 58.7977 74.9701C57.9246 74.7696 57.063 74.5213 56.2167 74.2264C55.8905 74.1166 55.5644 73.9962 55.2418 73.8687C53.2855 73.1051 51.4304 72.0999 49.7185 70.8762C46.1003 68.3035 43.1991 64.8333 41.2944 60.7996C39.3897 56.766 38.5457 52.305 38.8437 47.8464C39.1416 43.3878 40.5716 39.0818 42.9958 35.3432C45.4199 31.6047 48.7566 28.5596 52.6843 26.5013C56.6121 24.443 60.9985 23.4409 65.4211 23.5914C69.8436 23.742 74.1533 25.0403 77.9348 27.3611C81.7163 29.6818 84.8423 32.947 87.0116 36.842C89.1809 40.7369 90.3204 45.1304 90.3204 49.5992V49.5992Z" fill="#F2F2F2"/>
<path d="M167.442 30.255H122.906C122.534 30.2545 122.178 30.105 121.915 29.8394C121.652 29.5738 121.505 29.2138 121.505 28.8384C121.505 28.4631 121.652 28.1031 121.915 27.8375C122.178 27.5719 122.534 27.4224 122.906 27.4219H167.442C167.814 27.4219 168.171 27.5711 168.434 27.8368C168.697 28.1024 168.845 28.4627 168.845 28.8384C168.845 29.2141 168.697 29.5745 168.434 29.8401C168.171 30.1058 167.814 30.255 167.442 30.255Z" fill="#EF4C29"/>
<path d="M167.442 49.3791H122.906C122.534 49.3785 122.178 49.229 121.915 48.9634C121.652 48.6978 121.505 48.3378 121.505 47.9625C121.505 47.5871 121.652 47.2271 121.915 46.9615C122.178 46.6959 122.534 46.5465 122.906 46.5459H167.442C167.814 46.5465 168.17 46.6959 168.433 46.9615C168.695 47.2271 168.843 47.5871 168.843 47.9625C168.843 48.3378 168.695 48.6978 168.433 48.9634C168.17 49.229 167.814 49.3785 167.442 49.3791Z" fill="#E6E6E6"/>
<path d="M167.442 68.5026H122.906C122.534 68.502 122.178 68.3526 121.915 68.087C121.652 67.8214 121.505 67.4614 121.505 67.086C121.505 66.7107 121.652 66.3507 121.915 66.0851C122.178 65.8195 122.534 65.67 122.906 65.6694H167.442C167.814 65.6694 168.171 65.8187 168.434 66.0843C168.697 66.35 168.845 66.7103 168.845 67.086C168.845 67.4617 168.697 67.822 168.434 68.0877C168.171 68.3533 167.814 68.5026 167.442 68.5026Z" fill="#E6E6E6"/>
<path d="M56.0986 110.763C51.0707 104.009 48.1647 96.457 48.0695 87.8468C47.9075 87.3828 47.9344 86.8728 48.1443 86.4288C48.3541 85.9848 48.7298 85.643 49.1889 85.4783L66.3265 79.3547C66.7859 79.1911 67.2909 79.2183 67.7306 79.4302C68.1702 79.6421 68.5087 80.0215 68.6717 80.4852L76.7008 103.401C76.8628 103.865 76.8359 104.375 76.626 104.819C76.4162 105.263 76.0405 105.605 75.5814 105.77L58.4439 111.893C57.9844 112.057 57.4794 112.03 57.0398 111.818C56.6001 111.606 56.2616 111.227 56.0986 110.763Z" fill="#E6E6E6"/>
<path d="M54.9879 103.372C51.9639 100.284 50.6695 94.7768 49.8261 88.639C49.6743 88.2044 49.6995 87.7268 49.8961 87.311C50.0926 86.8951 50.4444 86.575 50.8744 86.4208L65.6027 81.1581C66.033 81.0049 66.5059 81.0303 66.9177 81.2288C67.3295 81.4272 67.6465 81.7826 67.7992 82.2168L74.944 102.609C75.0957 103.044 75.0705 103.521 74.8739 103.937C74.6774 104.353 74.3255 104.673 73.8955 104.827L64.7717 108.087C62.8549 108.77 60.7484 108.657 58.9142 107.773C57.08 106.888 55.668 105.306 54.9879 103.372Z" fill="white"/>
<path d="M67.9964 93.2024L56.5235 97.3381C56.4331 97.3706 56.3372 97.3849 56.2414 97.3801C56.1455 97.3753 56.0515 97.3514 55.9648 97.3099C55.878 97.2684 55.8002 97.21 55.7358 97.1382C55.6714 97.0663 55.6217 96.9823 55.5894 96.891C55.5571 96.7997 55.543 96.7029 55.5478 96.6061C55.5526 96.5093 55.5762 96.4144 55.6173 96.3268C55.6584 96.2392 55.7162 96.1606 55.7873 96.0956C55.8585 96.0305 55.9417 95.9803 56.0321 95.9477L67.505 91.812C67.6876 91.7462 67.8885 91.7563 68.0637 91.8401C68.2389 91.924 68.3739 92.0747 68.4391 92.259C68.5042 92.4434 68.4942 92.6464 68.4112 92.8233C68.3282 93.0002 68.179 93.1365 67.9964 93.2024H67.9964Z" fill="#EF4C29"/>
<path d="M57.7001 92.6157L55.1761 93.5255C55.0856 93.5582 54.9897 93.5726 54.8938 93.5679C54.7979 93.5631 54.7038 93.5393 54.617 93.4978C54.5302 93.4563 54.4523 93.398 54.3878 93.3261C54.3234 93.2542 54.2736 93.1701 54.2413 93.0788C54.209 92.9874 54.1948 92.8905 54.1996 92.7937C54.2045 92.6968 54.2281 92.6018 54.2693 92.5142C54.3105 92.4265 54.3684 92.348 54.4396 92.283C54.5109 92.2179 54.5941 92.1677 54.6846 92.1352L57.2087 91.2253C57.2991 91.1926 57.395 91.1783 57.491 91.183C57.5869 91.1878 57.6809 91.2116 57.7678 91.2531C57.8546 91.2946 57.9324 91.3529 57.9969 91.4248C58.0614 91.4967 58.1112 91.5808 58.1435 91.6721C58.1758 91.7635 58.1899 91.8604 58.1851 91.9572C58.1803 92.0541 58.1566 92.1491 58.1154 92.2367C58.0743 92.3243 58.0164 92.4029 57.9451 92.4679C57.8739 92.533 57.7906 92.5832 57.7001 92.6157Z" fill="#EF4C29"/>
<path d="M70.1568 99.3149L58.6839 103.451C58.5014 103.516 58.3006 103.506 58.1256 103.422C57.9506 103.338 57.8157 103.188 57.7505 103.003C57.6854 102.819 57.6954 102.616 57.7783 102.439C57.8611 102.263 58.0101 102.126 58.1925 102.06L69.6654 97.9245C69.8479 97.859 70.0488 97.8692 70.2238 97.9531C70.3988 98.037 70.5337 98.1876 70.5988 98.3718C70.6639 98.5561 70.654 98.7589 70.5711 98.9357C70.4882 99.1126 70.3392 99.2489 70.1568 99.3149Z" fill="#EF4C29"/>
<path d="M69.0765 96.2588L57.6036 100.394C57.421 100.46 57.22 100.45 57.0449 100.366C56.8697 100.282 56.7347 100.132 56.6695 99.9474C56.6043 99.763 56.6144 99.5601 56.6974 99.3832C56.7804 99.2063 56.9296 99.0699 57.1122 99.0041L68.5851 94.8684C68.6755 94.8357 68.7714 94.8213 68.8673 94.8261C68.9633 94.8308 69.0573 94.8546 69.1442 94.8961C69.231 94.9376 69.3088 94.996 69.3733 95.0679C69.4378 95.1398 69.4876 95.2238 69.5199 95.3152C69.5521 95.4065 69.5663 95.5034 69.5615 95.6003C69.5567 95.6972 69.533 95.7921 69.4918 95.8798C69.4506 95.9674 69.3928 96.046 69.3215 96.111C69.2502 96.176 69.167 96.2262 69.0765 96.2588Z" fill="#EF4C29"/>
<path d="M58.6588 37.8261C59.0324 40.8702 61.1211 43.3802 64.1585 43.3802C65.6172 43.3802 67.0161 42.795 68.0475 41.7534C69.0789 40.7118 69.6583 39.2991 69.6583 37.8261C69.6583 34.7587 67.183 32.5556 64.1585 32.272C60.9495 31.9711 58.1791 33.9178 58.6588 37.8261Z" fill="#2F2E41"/>
<path d="M68.9465 75.2428C65.5788 75.8275 62.13 75.7348 58.7979 74.9701C60.3794 74.0883 65.1767 74.6301 68.9465 75.2428Z" fill="#2F2E41"/>
<path d="M47.5404 85.012L50.1823 78.5645L52.2637 79.7322L51.0067 86.291C51.1326 86.7065 51.1412 87.1493 51.0316 87.5695C50.922 87.9897 50.6985 88.3707 50.3862 88.6696C50.074 88.9686 49.6853 89.1736 49.264 89.2617C48.8426 89.3498 48.4053 89.3175 48.0011 89.1684C47.597 89.0193 47.242 88.7593 46.9762 88.4176C46.7103 88.0759 46.5442 87.6661 46.4963 87.2342C46.4484 86.8024 46.5208 86.3657 46.7052 85.9731C46.8897 85.5805 47.1789 85.2477 47.5404 85.012Z" fill="#FFB6B6"/>
<path d="M74.8695 67.5647V67.5682C74.7748 69.8135 74.6451 71.949 74.5364 73.5922C71.3756 74.9337 67.9811 75.6236 64.5525 75.6215C62.6161 75.6236 60.6857 75.405 58.7978 74.9698C57.9248 74.7694 57.0632 74.5211 56.2168 74.2261C56.3346 74.1493 56.462 74.0886 56.5956 74.0455C57.858 73.6135 56.6096 73.2204 56.6201 72.8096C56.6587 71.308 57.069 69.5054 57.5985 67.7772L55.2419 73.8685L54.0145 77.0345C54.0145 77.0345 54.0566 79.7685 53.2781 78.9327C52.4961 78.097 52.5522 80.8026 52.5522 80.8026C52.3092 80.9775 52.1 81.196 51.935 81.4471C51.8656 81.5602 51.8394 81.6949 51.8614 81.8261V81.8296C51.8966 81.9326 51.966 82.0202 52.0577 82.0775C52.5873 82.4387 51.8263 83.3949 51.4896 83.7739C51.3985 83.8766 51.3389 83.9368 51.3389 83.9368L48.1021 83.703V83.6393C48.1161 83.2533 48.2038 81.2205 48.7052 80.7353C49.2558 80.2006 48.9858 79.3542 48.9858 79.3542C48.9858 79.3542 50.4236 78.0686 49.4592 77.0239C49.0734 76.6025 49.2453 74.1057 49.7187 70.8759C50.7532 63.7505 53.2325 53.0554 54.3056 53.2077C54.5267 52.1229 55.0403 51.1208 55.7897 50.3122C56.5391 49.5035 57.4951 48.9197 58.5523 48.625L62.0486 47.6547L62.6728 45.165H67.5964L68.4521 46.8012L72.0395 48.4373L72.0851 48.4586L72.1973 48.5082L72.2394 48.6427C72.2394 48.6427 72.2359 48.6463 72.2394 48.6463L74.2348 54.9748C75.1325 56.016 75.0975 62.1002 74.8695 67.5647Z" fill="#EF4C29"/>
<path d="M83.2534 80.3171L79.9194 74.2054L82.1228 73.2939L86.4081 78.3832C86.808 78.5436 87.1557 78.8134 87.4121 79.1624C87.6684 79.5114 87.8233 79.9257 87.8593 80.3587C87.8953 80.7917 87.811 81.2263 87.6159 81.6136C87.4207 82.0008 87.1225 82.3255 86.7547 82.5509C86.3868 82.7764 85.964 82.8938 85.5338 82.8899C85.1035 82.886 84.6828 82.761 84.319 82.5289C83.9553 82.2968 83.6628 81.9669 83.4746 81.5761C83.2863 81.1854 83.2097 80.7494 83.2534 80.3171Z" fill="#FFB6B6"/>
<path d="M72.04 48.3887C72.6331 49.4648 78.0567 52.2324 77.1168 55.0109C77.1168 55.0109 82.212 71.1093 82.8746 71.0042C83.5372 70.8991 84.1838 72.562 84.1838 72.562C84.1838 72.562 84.0433 73.6473 84.4566 73.1963C84.8698 72.7453 84.771 73.9275 84.771 73.9275C84.771 73.9275 84.5729 74.9709 85.0976 74.6872C85.6223 74.4036 84.9324 76.4004 84.9324 76.4004L81.779 77.8999L81.1798 76.9992C81.1798 76.9992 79.8993 76.753 80.5018 76.5579C81.1044 76.3628 79.9353 75.7062 79.9353 75.7062C79.9353 75.7062 78.7122 74.8668 78.8826 73.4766C79.0531 72.0863 75.7087 69.3534 75.7087 69.3534C73.4097 64.7693 72.152 60.0629 72.1564 55.2081L72.04 48.3887Z" fill="#EF4C29"/>
<path d="M64.7666 43.7096C67.4601 43.7096 69.6436 41.5046 69.6436 38.7845C69.6436 36.0644 67.4601 33.8594 64.7666 33.8594C62.0731 33.8594 59.8896 36.0644 59.8896 38.7845C59.8896 41.5046 62.0731 43.7096 64.7666 43.7096Z" fill="#FFB6B6"/>
<path d="M59.7162 39.3211C59.8707 40.3914 60.7739 41.8846 60.5624 41.8846C60.3508 41.8846 58.8469 37.4726 60.3508 37.185C61.4417 36.9763 61.6856 37.1593 62.7052 36.7129L62.5613 36.8496C63.2361 37.3452 64.1753 37.0397 64.9453 36.7171C65.7173 36.3967 66.6544 36.0912 67.3313 36.5847C67.7565 36.8944 67.9363 37.4327 68.2007 37.8899C68.4651 38.3492 68.9538 38.7828 69.4572 38.6418C69.6534 38.5653 69.8205 38.4279 69.9345 38.2494C70.0485 38.0709 70.1036 37.8606 70.0918 37.6485C70.0896 37.2255 69.5443 36.8232 69.728 36.4437C70.2723 35.3191 69.7828 34.5526 68.5963 34.0234C68.1648 33.9572 67.7332 33.8895 67.3017 33.8205C67.5278 33.5042 67.802 33.2259 68.114 32.9959C67.9822 32.6545 67.7542 32.3597 67.4582 32.1478C67.0926 31.9762 66.6851 31.9168 66.2864 31.9769C65.3937 32.0239 64.5018 32.0709 63.6105 32.1179C62.9467 32.1059 62.2879 32.2355 61.6771 32.4982C60.941 32.8805 60.4587 33.6261 60.1076 34.3844C59.3207 36.0891 59.4455 37.4605 59.7162 39.3211Z" fill="#2F2E41"/>
<path d="M181.714 36.0906H108.371C108.29 36.0906 108.213 36.0582 108.156 36.0006C108.098 35.9429 108.066 35.8647 108.066 35.7831C108.066 35.7016 108.098 35.6233 108.156 35.5657C108.213 35.508 108.29 35.4756 108.371 35.4756H181.714C181.795 35.4756 181.873 35.508 181.93 35.5657C181.987 35.6233 182.019 35.7016 182.019 35.7831C182.019 35.8647 181.987 35.9429 181.93 36.0006C181.873 36.0582 181.795 36.0906 181.714 36.0906Z" fill="#E6E6E6"/>
<path d="M181.714 55.1575H108.371C108.29 55.1575 108.213 55.1251 108.156 55.0675C108.098 55.0098 108.066 54.9316 108.066 54.85C108.066 54.7684 108.098 54.6902 108.156 54.6326C108.213 54.5749 108.29 54.5425 108.371 54.5425H181.714C181.795 54.5425 181.873 54.5749 181.93 54.6326C181.987 54.6902 182.019 54.7684 182.019 54.85C182.019 54.9316 181.987 55.0098 181.93 55.0675C181.873 55.1251 181.795 55.1575 181.714 55.1575Z" fill="#E6E6E6"/>
<path d="M181.714 74.2239H108.371C108.29 74.2239 108.213 74.1915 108.156 74.1339C108.098 74.0762 108.066 73.998 108.066 73.9164C108.066 73.8349 108.098 73.7566 108.156 73.699C108.213 73.6413 108.29 73.6089 108.371 73.6089H181.714C181.795 73.6089 181.873 73.6413 181.93 73.699C181.987 73.7566 182.019 73.8349 182.019 73.9164C182.019 73.998 181.987 74.0762 181.93 74.1339C181.873 74.1915 181.795 74.2239 181.714 74.2239Z" fill="#E6E6E6"/>
<path d="M192.631 73.0051C189.946 73.0051 187.349 72.0367 185.309 70.2744C184.628 69.6859 183.903 68.6629 183.153 67.2339C182.675 66.3135 182.407 65.2964 182.369 64.2575C182.331 63.2186 182.524 62.1844 182.935 61.231C182.539 61.6373 182.102 61.9996 181.63 62.3118L181.391 62.472L181.378 62.1832C181.369 61.9953 181.364 61.8081 181.364 61.6267C181.364 60.5577 182.165 59.4729 181.795 58.4848C180.239 54.3202 175.303 50.1814 182.457 43.736C183.119 43.1398 182.235 41.9477 182.235 41.0456C182.235 32.2049 194.607 16.9101 198.114 25.0124C202.439 35.0046 209.889 33.9358 213.19 35.9997L213.238 36.1457L213.097 36.2034C212.374 36.51 211.614 36.7143 210.836 36.8107C211.665 36.9814 212.511 37.053 213.357 37.024L213.488 37.0193L213.52 37.1481C213.835 38.4229 213.994 39.7318 213.993 41.0456L213.993 41.1876C213.99 42.1855 214.195 43.1728 214.596 44.0852C214.996 44.9976 215.582 45.8145 216.316 46.4827C217.475 47.5501 218.401 48.8496 219.036 50.2985C219.67 51.7474 219.998 53.3139 220 54.898C220 56.7722 218.739 59.2324 217.681 60.9663C217.412 61.4079 217.049 61.7825 216.617 62.062C216.185 62.3414 215.696 62.5184 215.186 62.5797C214.704 62.6412 214.214 62.5948 213.751 62.4438C213.288 62.2928 212.864 62.041 212.508 61.7061C213.009 62.7231 213.662 63.6563 214.443 64.473L214.588 64.6232L214.409 64.7287C212.686 65.7431 210.727 66.2773 208.733 66.2765L208.616 66.2762C207.154 66.261 205.704 66.5406 204.35 67.0986C202.996 67.6566 201.766 68.4819 200.732 69.5261C199.679 70.6214 198.42 71.4934 197.029 72.0908C195.638 72.6882 194.143 72.999 192.631 73.0051Z" fill="#E6E6E6"/>
<path d="M188.755 91.0243C188.706 91.0242 188.659 91.0064 188.622 90.9741C188.585 90.9419 188.561 90.8973 188.554 90.8485C188.025 86.0768 187.993 81.2621 188.46 76.4838C189.159 68.9458 191.405 58.0884 198.133 49.1714C198.149 49.15 198.17 49.1321 198.193 49.1186C198.216 49.1051 198.241 49.0963 198.267 49.0927C198.294 49.0891 198.321 49.0907 198.346 49.0976C198.372 49.1045 198.396 49.1164 198.417 49.1327C198.438 49.149 198.456 49.1693 198.47 49.1925C198.483 49.2158 198.492 49.2414 198.495 49.2681C198.499 49.2947 198.497 49.3218 198.49 49.3478C198.484 49.3737 198.472 49.3981 198.456 49.4195C191.786 58.2595 189.558 69.0372 188.863 76.522C188.399 81.2684 188.43 86.051 188.956 90.7908C188.96 90.8199 188.958 90.8494 188.949 90.8776C188.941 90.9057 188.927 90.9317 188.908 90.9538C188.889 90.976 188.865 90.9937 188.839 91.0059C188.813 91.018 188.784 91.0243 188.755 91.0243Z" fill="#3F3D56"/>
<path d="M194.245 61.749C194.202 61.749 194.161 61.7354 194.126 61.71C194.091 61.6846 194.066 61.6488 194.052 61.6077C194.039 61.5666 194.039 61.5223 194.052 61.4812C194.066 61.4401 194.091 61.4042 194.126 61.3788C196.043 60.0684 198.114 59.0037 200.291 58.2093C203.693 56.9517 208.865 55.8116 214.19 57.5231C214.216 57.5313 214.239 57.5444 214.26 57.5617C214.28 57.579 214.297 57.6002 214.309 57.6241C214.321 57.648 214.329 57.674 214.331 57.7008C214.333 57.7276 214.33 57.7545 214.322 57.7801C214.314 57.8057 214.301 57.8295 214.284 57.85C214.267 57.8706 214.246 57.8875 214.222 57.8998C214.198 57.9122 214.173 57.9197 214.146 57.922C214.12 57.9242 214.093 57.9212 214.068 57.9131C208.852 56.2367 203.773 57.358 200.431 58.5937C198.288 59.3744 196.251 60.4212 194.364 61.7099C194.33 61.7353 194.288 61.749 194.245 61.749Z" fill="#3F3D56"/>
<path d="M184.971 38.4231C184.968 38.38 184.979 38.337 185.001 38.3003C185.024 38.2636 185.057 38.235 185.097 38.2187C185.137 38.2024 185.18 38.1992 185.222 38.2096C185.263 38.2199 185.301 38.2433 185.328 38.2763C186.761 40.113 187.961 42.1223 188.903 44.2582C190.39 47.5938 191.888 52.7218 190.581 58.2087C190.575 58.2349 190.564 58.2596 190.548 58.2814C190.533 58.3032 190.513 58.3217 190.49 58.3357C190.467 58.3498 190.442 58.3593 190.416 58.3635C190.39 58.3677 190.363 58.3666 190.337 58.3603C190.311 58.354 190.286 58.3426 190.265 58.3268C190.243 58.3109 190.225 58.291 190.211 58.268C190.197 58.245 190.188 58.2195 190.184 58.1929C190.18 58.1663 190.181 58.1391 190.187 58.113C191.467 52.7385 189.994 47.7036 188.533 44.4262C187.608 42.3246 186.427 40.3474 185.018 38.5401C184.991 38.5072 184.974 38.4662 184.971 38.4231Z" fill="#3F3D56"/>
<path d="M19.2682 68.9113C18.2342 67.8671 17.0042 67.0419 15.6504 66.4838C14.2965 65.9258 12.846 65.6462 11.3838 65.6614L11.267 65.6618C9.27286 65.6625 7.31426 65.1284 5.59157 64.1139L5.41231 64.0084L5.55669 63.8582C6.33835 63.0415 6.99104 62.1083 7.49188 61.0913C7.13617 61.4262 6.71191 61.6781 6.24914 61.8291C5.78636 61.98 5.29637 62.0265 4.81387 61.965C4.30446 61.9037 3.81542 61.7267 3.38343 61.4472C2.95143 61.1678 2.5877 60.7932 2.31951 60.3515C1.26135 58.6177 0 56.1575 0 54.2833C0.00164677 52.6991 0.330098 51.1326 0.964422 49.6838C1.59875 48.2349 2.52503 46.9354 3.68422 45.868C4.41809 45.1998 5.00427 44.3828 5.40453 43.4704C5.80479 42.5581 6.01014 41.5708 6.00722 40.5728L6.00663 40.4308C6.00643 39.117 6.16541 37.8081 6.48002 36.5333L6.51196 36.4046L6.64312 36.4092C7.48887 36.4383 8.33507 36.3667 9.16425 36.1959C8.38648 36.0996 7.62562 35.8952 6.90323 35.5886L6.76214 35.531L6.81001 35.385C10.1108 33.3211 17.5615 34.3899 21.8861 24.3977C25.3928 16.2954 37.7655 31.5901 37.7655 40.4308C37.7655 41.3329 36.8815 42.525 37.5432 43.1212C44.6972 49.5666 39.7611 53.7054 38.2048 57.87C37.8355 58.8582 38.6362 59.9429 38.6362 61.0119C38.6362 61.1933 38.6316 61.3806 38.6225 61.5684L38.6088 61.8573L38.3702 61.697C37.8984 61.3848 37.461 61.0225 37.0655 60.6163C37.4758 61.5697 37.6691 62.6039 37.6313 63.6428C37.5935 64.6816 37.3256 65.6987 36.8471 66.6192C36.0974 68.0482 35.3721 69.0712 34.6914 69.6596C32.5107 71.5442 29.6995 72.5163 26.8327 72.3772C23.9659 72.2381 21.2599 70.9983 19.2682 68.9113H19.2682Z" fill="#E6E6E6"/>
<path d="M31.2452 90.4096C31.294 90.4095 31.3411 90.3917 31.3779 90.3594C31.4147 90.3271 31.4387 90.2825 31.4456 90.2338C31.9754 85.4621 32.0071 80.6474 31.5401 75.8691C30.8407 68.3311 28.5948 57.4737 21.8667 48.5567C21.8506 48.5353 21.8305 48.5174 21.8075 48.5038C21.7845 48.4903 21.7591 48.4815 21.7327 48.4779C21.7063 48.4743 21.6795 48.476 21.6538 48.4829C21.628 48.4897 21.6039 48.5017 21.5827 48.518C21.5616 48.5342 21.5438 48.5546 21.5304 48.5778C21.517 48.601 21.5083 48.6267 21.5048 48.6533C21.5012 48.68 21.5029 48.707 21.5097 48.733C21.5165 48.759 21.5283 48.7834 21.5444 48.8047C28.2143 57.6447 30.4422 68.4224 31.1366 75.9072C31.6011 80.6536 31.5702 85.4362 31.0444 90.1761C31.0403 90.2051 31.0425 90.2347 31.0507 90.2628C31.0589 90.2909 31.073 90.3169 31.0921 90.3391C31.1111 90.3612 31.1346 90.379 31.1611 90.3911C31.1875 90.4033 31.2162 90.4096 31.2452 90.4096Z" fill="#3F3D56"/>
<path d="M25.7548 61.1343C25.7976 61.1343 25.8393 61.1206 25.8739 61.0952C25.9086 61.0699 25.9344 61.034 25.9476 60.9929C25.9609 60.9518 25.9609 60.9076 25.9477 60.8665C25.9345 60.8253 25.9087 60.7895 25.8741 60.7641C23.957 59.4536 21.886 58.389 19.7087 57.5946C16.3072 56.337 11.1347 55.1969 5.80962 56.9084C5.78427 56.9165 5.76075 56.9296 5.74041 56.9469C5.72008 56.9643 5.70333 56.9855 5.6911 57.0093C5.67888 57.0332 5.67143 57.0593 5.66918 57.086C5.66693 57.1128 5.66993 57.1398 5.678 57.1654C5.68607 57.191 5.69905 57.2147 5.7162 57.2353C5.73336 57.2558 5.75436 57.2727 5.77799 57.2851C5.80163 57.2974 5.82744 57.3049 5.85395 57.3072C5.88046 57.3095 5.90715 57.3065 5.9325 57.2983C11.1484 55.622 16.2272 56.7432 19.5694 57.9789C21.7116 58.7597 23.7494 59.8065 25.6358 61.0952C25.6704 61.1206 25.712 61.1343 25.7548 61.1343Z" fill="#3F3D56"/>
<path d="M35.029 37.8084C35.0321 37.7653 35.0216 37.7223 34.999 37.6856C34.9765 37.6488 34.943 37.6203 34.9033 37.604C34.8637 37.5877 34.8199 37.5845 34.7784 37.5948C34.7368 37.6052 34.6996 37.6285 34.672 37.6616C33.2396 39.4982 32.039 41.5076 31.0976 43.6434C29.6106 46.9791 28.112 52.107 29.4189 57.5939C29.4251 57.6201 29.4363 57.6448 29.4519 57.6666C29.4676 57.6884 29.4873 57.7069 29.51 57.721C29.5327 57.7351 29.558 57.7445 29.5843 57.7487C29.6106 57.753 29.6375 57.7519 29.6634 57.7456C29.6894 57.7393 29.7138 57.7279 29.7353 57.7121C29.7569 57.6962 29.7751 57.6762 29.789 57.6532C29.8029 57.6303 29.8121 57.6047 29.8162 57.5781C29.8204 57.5515 29.8192 57.5244 29.8129 57.4982C28.5329 52.1237 30.0061 47.0889 31.4672 43.8114C32.3926 41.7099 33.5732 39.7327 34.9818 37.9254C35.0094 37.8924 35.0259 37.8515 35.029 37.8084Z" fill="#3F3D56"/>
</g>
<defs>
<clipPath id="clip0_585_19653">
<rect width="220" height="112" fill="white"/>
</clipPath>
</defs>
</svg>
