<svg width="220" height="262" viewBox="0 0 220 262" fill="none" xmlns="http://www.w3.org/2000/svg">
<g clip-path="url(#clip0_656_21298)">
<path d="M85.208 215.04C80.8304 210.528 74.4868 207.941 67.8036 207.941L67.5458 207.941C63.1437 207.943 58.8202 206.776 55.0174 204.56L54.6217 204.33L54.9404 204.002C56.6659 202.218 58.1067 200.179 59.2123 197.958C58.427 198.689 57.4905 199.24 56.469 199.569C55.4474 199.899 54.3658 200.001 53.3007 199.866C52.1762 199.732 51.0967 199.346 50.1431 198.735C49.1895 198.125 48.3865 197.307 47.7945 196.342C45.4587 192.555 42.6743 187.18 42.6743 183.087C42.678 179.626 43.403 176.204 44.8032 173.039C46.2035 169.875 48.2482 167.036 50.8071 164.704C52.427 163.245 53.721 161.46 54.6045 159.467C55.4881 157.474 55.9414 155.318 55.935 153.138L55.9337 152.828C55.9332 149.958 56.2842 147.099 56.9787 144.314L57.0492 144.033L57.3387 144.043C59.2056 144.106 61.0736 143.95 62.904 143.577C61.1871 143.367 59.5075 142.92 57.9129 142.25L57.6014 142.125L57.7071 141.806C64.9933 137.297 81.4404 139.632 90.9868 117.805C98.7276 100.107 126.04 133.516 126.04 152.828C126.04 154.798 124.088 157.402 125.549 158.705C141.341 172.784 130.445 181.824 127.01 190.921C126.194 193.08 127.962 195.449 127.962 197.784C127.962 198.181 127.952 198.59 127.932 199L127.901 199.631L127.375 199.281C126.333 198.599 125.368 197.808 124.495 196.92C125.4 199.003 125.827 201.262 125.744 203.531C125.66 205.8 125.069 208.022 124.013 210.033C122.358 213.154 120.757 215.389 119.254 216.674C114.44 220.791 108.235 222.914 101.906 222.61C95.5778 222.307 89.6046 219.598 85.208 215.04H85.208Z" fill="#E6E6E6"/>
<path d="M111.647 262C111.755 262 111.859 261.961 111.94 261.89C112.021 261.82 112.074 261.722 112.089 261.616C112.108 261.483 113.97 248.067 112.298 230.238C110.754 213.772 105.796 190.056 90.9445 170.578C90.9089 170.531 90.8645 170.492 90.8137 170.462C90.7629 170.432 90.7068 170.413 90.6485 170.405C90.5903 170.397 90.5311 170.401 90.4742 170.416C90.4174 170.431 90.364 170.457 90.3173 170.493C90.2705 170.528 90.2313 170.573 90.2017 170.623C90.1722 170.674 90.1529 170.73 90.1451 170.789C90.1373 170.847 90.141 170.906 90.1561 170.963C90.1711 171.02 90.1973 171.073 90.233 171.119C104.956 190.429 109.874 213.972 111.407 230.321C113.069 248.047 111.223 261.358 111.204 261.49C111.195 261.553 111.199 261.618 111.218 261.679C111.236 261.741 111.267 261.798 111.309 261.846C111.351 261.894 111.403 261.933 111.461 261.96C111.52 261.986 111.583 262 111.647 262V262Z" fill="#3F3D56"/>
<path d="M99.5271 198.052C99.6216 198.052 99.7136 198.023 99.7901 197.967C99.8666 197.912 99.9235 197.833 99.9527 197.744C99.982 197.654 99.982 197.557 99.9529 197.467C99.9237 197.377 99.8668 197.299 99.7904 197.244C95.5585 194.381 90.9869 192.056 86.1807 190.32C78.672 187.573 67.2539 185.083 55.4991 188.821C55.443 188.839 55.391 188.868 55.346 188.905C55.3009 188.943 55.2638 188.99 55.2367 189.042C55.2097 189.094 55.1931 189.151 55.1881 189.21C55.1831 189.268 55.1897 189.327 55.2076 189.383C55.2254 189.439 55.2541 189.491 55.2921 189.536C55.33 189.581 55.3765 189.618 55.4288 189.645C55.4811 189.672 55.5381 189.688 55.5967 189.693C55.6554 189.698 55.7144 189.691 55.7704 189.673C67.2843 186.011 78.4954 188.461 85.8731 191.16C90.602 192.865 95.1003 195.152 99.2645 197.967C99.3407 198.022 99.4327 198.052 99.5271 198.052V198.052Z" fill="#3F3D56"/>
<path d="M119.999 147.1C120.006 147.005 119.982 146.912 119.933 146.831C119.883 146.751 119.809 146.689 119.721 146.653C119.634 146.618 119.537 146.611 119.445 146.633C119.354 146.656 119.272 146.707 119.211 146.779C116.049 150.791 113.398 155.18 111.32 159.846C108.038 167.132 104.73 178.333 107.615 190.319C107.628 190.376 107.653 190.43 107.688 190.477C107.722 190.525 107.766 190.565 107.816 190.596C107.866 190.626 107.922 190.647 107.98 190.656C108.038 190.665 108.097 190.663 108.154 190.649C108.212 190.636 108.265 190.611 108.313 190.576C108.36 190.542 108.401 190.498 108.431 190.448C108.462 190.398 108.482 190.342 108.492 190.284C108.501 190.226 108.498 190.167 108.484 190.11C105.659 178.37 108.911 167.372 112.136 160.213C114.179 155.622 116.785 151.303 119.895 147.355C119.955 147.283 119.992 147.194 119.999 147.1V147.1Z" fill="#3F3D56"/>
<path d="M206.274 261.527H170.667L170.514 261.249C170.058 260.424 169.619 259.55 169.208 258.652C165.54 250.805 163.99 241.83 162.622 233.912L161.592 227.944C161.467 227.221 161.561 226.477 161.862 225.808C162.163 225.139 162.656 224.575 163.28 224.188C163.903 223.8 164.628 223.608 165.361 223.635C166.095 223.662 166.804 223.907 167.397 224.339C172.808 228.273 178.222 232.205 183.637 236.132C185.688 237.623 188.03 239.349 190.273 241.213C190.489 240.163 190.715 239.11 190.942 238.071C191.098 237.354 191.464 236.7 191.995 236.192C192.525 235.684 193.195 235.346 193.919 235.221C194.642 235.096 195.387 235.19 196.057 235.49C196.727 235.79 197.292 236.284 197.68 236.907L201.846 243.595C204.885 248.48 207.567 253.294 207.021 258.485C207.023 258.548 207.018 258.611 207.006 258.674C206.897 259.526 206.694 260.364 206.402 261.173L206.274 261.527Z" fill="#F0F0F0"/>
<path d="M189.685 121.636L182.813 96.2181C182.519 95.1421 181.813 94.2248 180.848 93.6643C179.882 93.1038 178.736 92.945 177.654 93.2221V93.2221C177.095 93.3654 176.571 93.6211 176.113 93.9736C175.656 94.326 175.276 94.7678 174.995 95.2721C174.714 95.7763 174.539 96.3324 174.48 96.9065C174.421 97.4805 174.48 98.0606 174.653 98.6111L182.601 124.795L186.76 140.909C186.154 141.371 185.706 142.009 185.475 142.734C185.244 143.46 185.243 144.239 185.471 144.966C185.699 145.693 186.145 146.332 186.749 146.796C187.353 147.26 188.085 147.528 188.847 147.562C189.608 147.596 190.361 147.395 191.004 146.986C191.647 146.577 192.148 145.98 192.44 145.277C192.732 144.573 192.8 143.797 192.635 143.054C192.47 142.31 192.08 141.636 191.518 141.121L189.685 121.636Z" fill="#FFB8B8"/>
<path d="M131.859 116.162L152.738 100.104C153.621 99.4207 154.2 98.4184 154.349 97.3129C154.499 96.2075 154.207 95.0876 153.538 94.195V94.195C153.192 93.7332 152.755 93.3467 152.254 93.0591C151.754 92.7715 151.2 92.5888 150.626 92.5221C150.053 92.4554 149.471 92.5062 148.918 92.6713C148.365 92.8364 147.851 93.1124 147.408 93.4825L126.231 110.827L112.918 120.824C112.259 120.442 111.499 120.271 110.739 120.335C109.98 120.4 109.259 120.696 108.674 121.184C108.089 121.672 107.669 122.328 107.47 123.064C107.271 123.799 107.304 124.577 107.564 125.293C107.823 126.009 108.297 126.628 108.92 127.066C109.544 127.503 110.287 127.738 111.05 127.739C111.812 127.74 112.555 127.506 113.18 127.07C113.804 126.633 114.279 126.015 114.54 125.3L131.859 116.162Z" fill="#FFB8B8"/>
<path d="M148.877 119.853L147.957 140.394L176.854 134.118C174.395 125.864 172.722 124.456 174.571 118.712L148.877 119.853Z" fill="#FFB8B8"/>
<path d="M166.645 82.1958H157.017L152.881 89.267L150.911 89.1583C149.947 89.1051 148.983 89.2489 148.077 89.5808C147.171 89.9128 146.342 90.4259 145.641 91.0888C144.94 91.7518 144.381 92.5506 144 93.4366C143.618 94.3225 143.421 95.2768 143.421 96.2414V96.2414L145.849 100.002C145.849 100.002 141.507 107.563 147.761 111.283C147.761 111.283 146.646 118.292 147.761 118.217C148.877 118.141 151.446 116.715 148.877 118.141C146.307 119.568 146.499 119.759 146.832 120.092L147.164 120.424L174.181 124.957C174.181 124.957 174.971 119.723 175.056 118.79C175.142 117.856 174.571 120.138 175.142 117.856C175.713 115.574 176.569 116.43 175.713 115.574C174.856 114.718 181.262 104.115 178.63 100.002L182.85 95.8886C182.85 91.9433 176.509 88.745 172.561 88.745H172.055L166.645 82.1958Z" fill="#EF4C29"/>
<path d="M143.446 253.608H139.548L137.694 238.585L143.446 238.586L143.446 253.608Z" fill="#FFB8B8"/>
<path d="M131.683 259.354C131.684 259.791 131.858 260.209 132.167 260.517C132.475 260.826 132.893 261.001 133.33 261.004H140.666L140.894 260.533L141.931 258.393L142.333 260.533L142.422 261.004H145.189L145.15 260.53L144.412 251.687L143.447 251.628L139.276 251.381L138.251 251.318V253.959C137.474 254.785 131.373 257.909 131.683 259.354Z" fill="#2F2E41"/>
<path d="M201.366 243.407L198.089 245.514L188.396 233.882L193.234 230.773L201.366 243.407Z" fill="#FFB8B8"/>
<path d="M194.585 254.599C194.823 254.965 195.195 255.222 195.622 255.315C196.048 255.408 196.494 255.329 196.863 255.096L203.033 251.129L202.969 250.61L202.684 248.25L204.18 249.832L204.51 250.18L206.837 248.684L206.547 248.306L201.139 241.269L200.295 241.741L196.654 243.788L195.759 244.289L197.188 246.51C196.982 247.625 193.542 253.551 194.585 254.599Z" fill="#2F2E41"/>
<path d="M219.547 261.801L98.8679 261.919C98.7475 261.918 98.6321 261.87 98.5472 261.785C98.4622 261.699 98.4146 261.584 98.4146 261.463C98.4146 261.343 98.4622 261.228 98.5472 261.142C98.6321 261.057 98.7475 261.009 98.8679 261.008L219.547 260.891C219.667 260.891 219.782 260.939 219.867 261.025C219.952 261.11 220 261.226 220 261.346C220 261.466 219.952 261.582 219.867 261.667C219.782 261.752 219.667 261.801 219.547 261.801V261.801Z" fill="#CACACA"/>
<path d="M176.402 131.797C176.402 131.797 157.93 141.562 148.159 134.9C148.159 134.9 146.022 145.244 145.166 146.1C144.309 146.956 142.945 147.329 143.912 148.284C144.88 149.238 145.419 150.528 143.579 152.165C141.74 153.803 139.905 153.283 141.679 154.97C143.453 156.656 136.316 198.023 136.316 198.023C136.316 198.023 137.457 236.493 136.316 237.656C135.174 238.82 133.647 239.08 135.124 240.519C136.601 241.958 136.601 240.842 136.601 242.827V244.811L137.277 246.783H146.546C146.546 246.783 148.783 244.186 146.546 241.931C144.309 239.676 147.227 239.059 147.909 236.942C148.591 234.826 149.733 237.108 148.591 234.826C147.449 232.543 146.901 232.978 146.89 231.477C146.879 229.976 163.722 171.206 163.722 171.206L165.762 203.734L190.301 239.358L197.524 233.945C197.524 233.945 192.265 226.547 193.495 225.53C194.725 224.513 189.871 223.237 191.401 222.09C192.932 220.943 189.247 219.787 190.636 218.266C192.025 216.745 188.723 212.912 186.809 212.912C184.896 212.912 182.211 206.523 182.211 206.523L186.219 156.047L176.402 131.797Z" fill="#2F2E41"/>
<path d="M156.823 61.4329C156.692 61.6044 155.651 61.512 154.398 61.3293C151.922 60.9679 151.584 61.3973 149.733 63.0801C147.052 65.5177 148.576 80.3853 147.259 83.6068L146.833 83.9202C147.677 83.7591 148.507 83.5272 149.312 83.2269C149.767 81.7923 150.223 80.353 150.682 78.9196C151.116 80.0349 151.389 81.2062 151.492 82.3982C152.129 82.1471 152.763 81.533 155.427 80.7094C156.768 79.8001 166.471 78.8858 167.719 78.4858C170.885 67.7214 165.783 63.3683 156.823 61.4329Z" fill="#2F2E41"/>
<path d="M160.099 78.0319C165.22 78.0319 169.372 73.8833 169.372 68.7656C169.372 63.6479 165.22 59.4993 160.099 59.4993C154.978 59.4993 150.826 63.6479 150.826 68.7656C150.826 73.8833 154.978 78.0319 160.099 78.0319Z" fill="#FFB8B8"/>
<path d="M165.937 60.6161C165.414 60.539 164.911 60.3628 164.455 60.0969C164.229 59.9604 164.046 59.763 163.926 59.5274C163.807 59.2918 163.756 59.0274 163.78 58.7644C163.894 58.106 164.639 57.7129 165.307 57.7529C165.971 57.8486 166.603 58.104 167.147 58.4971C167.087 57.8608 166.815 57.2631 166.374 56.7998C165.934 56.3366 165.35 56.0349 164.717 55.943C165.595 55.8957 166.508 55.854 167.32 56.1914C168.131 56.5288 168.808 57.3643 168.661 58.2306C170.026 58.0549 171.372 59.0052 171.936 60.2597C172.499 61.5142 172.387 62.9875 171.937 64.2869C171.893 64.4859 171.806 64.6731 171.683 64.8356C171.56 64.9982 171.403 65.1325 171.224 65.2293C170.764 65.4035 170.27 65.1114 169.872 64.8235C167.793 63.3193 165.901 61.573 164.236 59.6214" fill="#2F2E41"/>
<path d="M169.98 78.617C169.587 78.802 169.791 79.49 169.486 79.7981C169.353 79.9286 169.193 80.028 169.018 80.0892C168.972 79.5149 168.838 78.951 168.621 78.4173C168.581 78.3203 168.515 78.2119 168.413 78.2205C168.293 78.2347 168.261 78.3917 168.258 78.5086C168.234 79.0889 168.106 79.66 167.879 80.1947C167.876 80.2004 167.873 80.209 167.87 80.2147C167.782 80.2118 167.69 80.209 167.605 80.2061C166.942 80.1804 165.475 78.4801 165.149 79.0564C166.297 77.0223 167.696 73.9639 167.91 71.6388C167.984 71.152 167.948 70.6548 167.804 70.1838C167.729 69.9495 167.589 69.7416 167.399 69.5849C167.209 69.4281 166.978 69.329 166.734 69.2994C166.613 69.2939 166.493 69.3151 166.382 69.3615C166.27 69.4079 166.17 69.4783 166.089 69.5677C166.008 69.6571 165.948 69.7633 165.913 69.8787C165.878 69.9941 165.869 70.1158 165.886 70.2352L165.72 70.2124C164.185 68.9628 165.509 66.7917 163.722 65.933C163.117 65.642 159.411 66.6148 158.757 66.4436C158.743 65.7554 158.603 65.0756 158.343 64.4381C158.304 64.341 158.238 64.2326 158.135 64.2412C158.015 64.2555 157.984 64.4124 157.981 64.5293C157.957 65.1096 157.828 65.6808 157.601 66.2154C156.695 66.087 155.773 66.1355 154.886 66.3581C154.104 66.5635 153.362 66.9172 152.577 67.1055C152.189 67.2244 151.78 67.2629 151.377 67.2187C150.973 67.1746 150.583 67.0487 150.23 66.8487C149.234 66.1812 149.059 64.7034 149.556 63.6135C149.916 62.9142 150.402 62.2875 150.989 61.7649C151.438 61.3312 151.903 60.9147 152.368 60.4982C152.785 60.1244 153.202 59.7507 153.619 59.3769C154.143 58.8834 154.702 58.4278 155.292 58.0133C156.232 57.3971 157.289 56.9795 158.397 56.7862C159.505 56.5929 160.641 56.628 161.735 56.8892C163.048 57.203 164.804 56.7608 166.006 57.3742C166.634 57.6966 168.024 58.9319 168.575 59.3713C169.986 60.4925 169.031 59.5789 170.574 60.2271C174.252 61.7729 172.625 77.3725 169.98 78.617Z" fill="#2F2E41"/>
<path d="M67.3109 146.251C99.0702 146.251 124.816 120.522 124.816 88.7847C124.816 57.0471 99.0702 31.3186 67.3109 31.3186C35.5516 31.3186 9.80566 57.0471 9.80566 88.7847C9.80566 120.522 35.5516 146.251 67.3109 146.251Z" fill="white"/>
<path d="M67.3109 146.825C35.286 146.825 9.23169 120.788 9.23169 88.7849C9.23169 56.7817 35.286 30.7451 67.3109 30.7451C99.3358 30.7451 125.39 56.7817 125.39 88.7849C125.39 120.788 99.3358 146.825 67.3109 146.825ZM67.3109 31.8924C35.919 31.8924 10.3797 57.4143 10.3797 88.7849C10.3797 120.155 35.919 145.677 67.3109 145.677C98.7028 145.677 124.242 120.155 124.242 88.7849C124.242 57.4143 98.7028 31.8924 67.3109 31.8924Z" fill="#EF4C29"/>
<path d="M59.4659 118.693C58.4729 118.693 57.4935 118.462 56.6053 118.018C55.7172 117.574 54.9447 116.93 54.3491 116.136L38.6608 95.232C38.1568 94.5605 37.7901 93.7963 37.5817 92.9831C37.3732 92.1699 37.3271 91.3237 37.4459 90.4927C37.5647 89.6617 37.8462 88.8622 38.2742 88.14C38.7022 87.4177 39.2684 86.7867 39.9404 86.283C40.6124 85.7794 41.3771 85.413 42.1908 85.2047C43.0046 84.9964 43.8514 84.9503 44.6829 85.069C45.5145 85.1877 46.3145 85.469 47.0373 85.8967C47.7601 86.3244 48.3915 86.8902 48.8955 87.5618L59.1593 101.237L85.5206 61.722C86.4621 60.3125 87.9253 59.3343 89.5883 59.0024C91.2513 58.6706 92.9781 59.0122 94.3892 59.9523C95.8002 60.8923 96.7799 62.3539 97.113 64.0155C97.4461 65.6772 97.1053 67.4031 96.1655 68.8137L64.7889 115.847C64.2213 116.697 63.4579 117.399 62.5627 117.894C61.6675 118.389 60.6666 118.663 59.6439 118.691C59.5846 118.692 59.5252 118.693 59.4659 118.693Z" fill="#EF4C29"/>
<path d="M126.558 34.9092C126.718 33.8105 125.566 32.7336 123.986 32.5038C122.406 32.274 120.995 32.9784 120.835 34.0771C120.675 35.1757 121.826 36.2527 123.407 36.4825C124.987 36.7123 126.398 36.0079 126.558 34.9092Z" fill="#E6E6E6"/>
<path d="M145.374 33.0745C145.534 31.9758 144.383 30.8989 142.802 30.6691C141.222 30.4393 139.811 31.1437 139.651 32.2424C139.491 33.341 140.643 34.418 142.223 34.6478C143.804 34.8775 145.214 34.1732 145.374 33.0745Z" fill="#3F3D56"/>
<path d="M121.405 19.6861C121.565 18.5874 120.414 17.5105 118.833 17.2807C117.253 17.0509 115.842 17.7553 115.682 18.8539C115.522 19.9526 116.674 21.0295 118.254 21.2593C119.835 21.4891 121.245 20.7847 121.405 19.6861Z" fill="#FF6584"/>
<path d="M113.229 13.4505C113.237 12.4419 112.674 11.6199 111.972 11.6146C111.27 11.6093 110.694 12.4227 110.687 13.4313C110.679 14.4399 111.242 15.2619 111.944 15.2672C112.646 15.2725 113.222 14.4591 113.229 13.4505Z" fill="#E6E6E6"/>
<path d="M110.457 1.836C110.464 0.827372 109.901 0.00541556 109.199 0.000109819C108.497 -0.00519592 107.922 0.808159 107.914 1.81678C107.906 2.82541 108.469 3.64737 109.171 3.65267C109.874 3.65798 110.449 2.84462 110.457 1.836Z" fill="#3F3D56"/>
<path d="M132.018 22.2767C132.026 21.268 131.463 20.4461 130.761 20.4408C130.059 20.4355 129.483 21.2488 129.476 22.2575C129.468 23.2661 130.031 24.088 130.733 24.0933C131.435 24.0987 132.011 23.2853 132.018 22.2767Z" fill="#E6E6E6"/>
<path d="M122.925 26.8136C122.933 25.8049 122.37 24.983 121.668 24.9777C120.966 24.9724 120.39 25.7857 120.383 26.7943C120.375 27.803 120.938 28.6249 121.64 28.6302C122.342 28.6355 122.918 27.8222 122.925 26.8136Z" fill="#FF6584"/>
<path d="M135.583 35.1991C135.591 34.1904 135.028 33.3685 134.326 33.3632C133.623 33.3579 133.048 34.1712 133.04 35.1798C133.033 36.1885 133.596 37.0104 134.298 37.0157C135 37.021 135.575 36.2077 135.583 35.1991Z" fill="#3F3D56"/>
<path d="M18.6442 171.048C18.8042 169.949 17.6526 168.873 16.0722 168.643C14.4918 168.413 13.0809 169.117 12.921 170.216C12.761 171.315 13.9125 172.392 15.4929 172.621C17.0734 172.851 18.4842 172.147 18.6442 171.048Z" fill="#E6E6E6"/>
<path d="M37.4608 169.213C37.6208 168.115 36.4693 167.038 34.8889 166.808C33.3084 166.578 31.8976 167.283 31.7376 168.381C31.5777 169.48 32.7292 170.557 34.3096 170.787C35.89 171.016 37.3009 170.312 37.4608 169.213Z" fill="#3F3D56"/>
<path d="M13.4918 155.825C13.6518 154.726 12.5003 153.649 10.9199 153.42C9.33946 153.19 7.9286 153.894 7.76864 154.993C7.60868 156.092 8.76019 157.168 10.3406 157.398C11.921 157.628 13.3319 156.924 13.4918 155.825Z" fill="#FF6584"/>
<path d="M5.3155 149.589C5.32313 148.581 4.76013 147.759 4.058 147.754C3.35587 147.748 2.78048 148.562 2.77285 149.57C2.76522 150.579 3.32823 151.401 4.03036 151.406C4.73249 151.411 5.30787 150.598 5.3155 149.589Z" fill="#E6E6E6"/>
<path d="M2.54278 137.975C2.55041 136.966 1.98741 136.144 1.28528 136.139C0.583154 136.134 0.00777967 136.947 0.000147466 137.956C-0.00748473 138.964 0.555515 139.786 1.25764 139.792C1.95977 139.797 2.53515 138.984 2.54278 137.975Z" fill="#3F3D56"/>
<path d="M24.1045 158.416C24.1122 157.407 23.5492 156.585 22.847 156.58C22.1449 156.574 21.5695 157.388 21.5619 158.396C21.5543 159.405 22.1173 160.227 22.8194 160.232C23.5215 160.238 24.0969 159.424 24.1045 158.416Z" fill="#E6E6E6"/>
<path d="M15.0116 162.952C15.0192 161.944 14.4562 161.122 13.754 161.117C13.0519 161.111 12.4765 161.925 12.4689 162.933C12.4613 163.942 13.0243 164.764 13.7264 164.769C14.4285 164.774 15.0039 163.961 15.0116 162.952Z" fill="#FF6584"/>
<path d="M27.6692 171.338C27.6769 170.329 27.1139 169.507 26.4117 169.502C25.7096 169.497 25.1342 170.31 25.1266 171.319C25.119 172.327 25.682 173.149 26.3841 173.155C27.0862 173.16 27.6616 172.347 27.6692 171.338Z" fill="#3F3D56"/>
</g>
<defs>
<clipPath id="clip0_656_21298">
<rect width="220" height="262" fill="white"/>
</clipPath>
</defs>
</svg>
