<svg width="172" height="127" viewBox="0 0 172 127" fill="none" xmlns="http://www.w3.org/2000/svg">
<g clip-path="url(#clip0_1331_22754)">
<path d="M156.466 97.4446C154.234 104.003 151.134 110.484 146.902 116.558C146.809 116.695 146.713 116.828 146.617 116.965L133.93 113.07C133.985 112.938 134.045 112.791 134.109 112.63C137.935 103.146 160.948 45.3394 158.218 33.4075C158.477 34.3867 166.918 66.7858 156.466 97.4446Z" fill="#E6E6E6"/>
<path d="M149.35 117.309C149.198 117.428 149.041 117.545 148.882 117.66L139.365 114.738C139.476 114.631 139.606 114.506 139.756 114.364C142.198 112.003 149.451 104.931 156.466 97.4445C164.005 89.3994 171.271 80.8772 172 77.2095C171.865 78.0458 167.597 103.492 149.35 117.309Z" fill="#E6E6E6"/>
<path d="M150.525 30.0745H149.83V11.025C149.83 8.101 148.671 5.29674 146.607 3.22915C144.544 1.16156 141.745 0 138.826 0H98.5445C95.6261 0 92.8272 1.16156 90.7635 3.22915C88.6999 5.29674 87.5405 8.101 87.5405 11.025V115.532C87.5405 118.456 88.6999 121.26 90.7635 123.328C92.8272 125.395 95.6261 126.557 98.5445 126.557H138.826C141.745 126.557 144.544 125.395 146.607 123.328C148.671 121.26 149.83 118.456 149.83 115.532V43.6342H150.525L150.525 30.0745Z" fill="#3F3D56"/>
<path d="M139.27 2.86816H134.012C134.254 3.46217 134.347 4.10668 134.281 4.7449C134.216 5.38312 133.995 5.99546 133.638 6.52796C133.281 7.06045 132.798 7.49676 132.233 7.79844C131.668 8.10012 131.038 8.25791 130.397 8.2579H107.32C106.68 8.25784 106.05 8.10003 105.485 7.79837C104.92 7.4967 104.437 7.06045 104.08 6.52802C103.723 5.9956 103.502 5.38336 103.437 4.74522C103.371 4.10709 103.464 3.46266 103.705 2.86869H98.7936C96.6141 2.86869 94.5238 3.73616 92.9827 5.28026C91.4415 6.82437 90.5757 8.91862 90.5757 11.1023V11.1023V115.455C90.5757 117.639 91.4415 119.733 92.9827 121.278C94.5238 122.822 96.6141 123.689 98.7936 123.689H139.269C141.448 123.689 143.539 122.822 145.08 121.278C146.621 119.733 147.487 117.639 147.487 115.455V115.455V11.1018C147.487 8.9181 146.621 6.82385 145.08 5.27974C143.539 3.73564 141.448 2.86817 139.269 2.86817V2.86817L139.27 2.86816Z" fill="white"/>
<path d="M123.556 110.582C123.955 108.117 122.285 105.795 119.824 105.395C117.364 104.995 115.046 106.668 114.647 109.133C114.248 111.598 115.919 113.92 118.379 114.32C120.839 114.72 123.157 113.047 123.556 110.582Z" fill="#E6E6E6"/>
<path d="M143.98 57.4658H94.082V67.3363H143.98V57.4658Z" fill="#E6E6E6"/>
<path d="M95.146 66.2706H142.917V58.5322H95.146V66.2706Z" fill="white"/>
<path d="M99.3275 59.3887C99.9096 59.3887 100.479 59.5616 100.962 59.8856C101.446 60.2095 101.824 60.67 102.046 61.2088C102.269 61.7475 102.327 62.3404 102.214 62.9123C102.1 63.4842 101.82 64.0096 101.408 64.4219C100.997 64.8343 100.472 65.1151 99.9017 65.2288C99.3308 65.3426 98.7391 65.2842 98.2014 65.0611C97.6637 64.8379 97.2041 64.46 96.8807 63.9751C96.5574 63.4903 96.3848 62.9202 96.3848 62.3371C96.3848 61.9499 96.4609 61.5665 96.6088 61.2088C96.7567 60.8511 96.9734 60.526 97.2467 60.2522C97.5199 59.9785 97.8444 59.7613 98.2014 59.6131C98.5584 59.4649 98.9411 59.3887 99.3275 59.3887Z" fill="#EF4C29"/>
<path d="M135.408 61.1833H106.365V61.8243H135.408V61.1833Z" fill="#E6E6E6"/>
<path d="M135.408 62.8499H106.365V63.4908H135.408V62.8499Z" fill="#E6E6E6"/>
<path d="M143.98 71.5513H94.082V81.4218H143.98V71.5513Z" fill="#E6E6E6"/>
<path d="M95.146 80.3561H142.917V72.6177H95.146V80.3561Z" fill="white"/>
<path d="M99.3275 79.3709C100.953 79.3709 102.27 78.0509 102.27 76.4225C102.27 74.7942 100.953 73.4741 99.3275 73.4741C97.7023 73.4741 96.3848 74.7942 96.3848 76.4225C96.3848 78.0509 97.7023 79.3709 99.3275 79.3709Z" fill="#EF4C29"/>
<path d="M135.408 75.2688H106.365V75.9098H135.408V75.2688Z" fill="#E6E6E6"/>
<path d="M135.408 76.9353H106.365V77.5763H135.408V76.9353Z" fill="#E6E6E6"/>
<path d="M143.98 85.637H94.082V95.5075H143.98V85.637Z" fill="#E6E6E6"/>
<path d="M95.146 94.4417H142.917V86.7034H95.146V94.4417Z" fill="white"/>
<path d="M99.3275 93.4566C100.953 93.4566 102.27 92.1366 102.27 90.5082C102.27 88.8799 100.953 87.5598 99.3275 87.5598C97.7023 87.5598 96.3848 88.8799 96.3848 90.5082C96.3848 92.1366 97.7023 93.4566 99.3275 93.4566Z" fill="#EF4C29"/>
<path d="M135.408 89.3545H106.365V89.9955H135.408V89.3545Z" fill="#E6E6E6"/>
<path d="M135.408 91.021H106.365V91.662H135.408V91.021Z" fill="#E6E6E6"/>
<path d="M119.031 47.6332C126.7 47.6332 132.916 41.4047 132.916 33.7215C132.916 26.0383 126.7 19.8098 119.031 19.8098C111.363 19.8098 105.146 26.0383 105.146 33.7215C105.146 41.4047 111.363 47.6332 119.031 47.6332Z" fill="#EF4C29"/>
<path d="M125.8 29.3054V38.1377C125.8 38.2206 125.784 38.3026 125.752 38.3792C125.721 38.4558 125.674 38.5253 125.616 38.5839C125.557 38.6425 125.488 38.6889 125.412 38.7206C125.335 38.7523 125.253 38.7686 125.171 38.7686H112.892C112.809 38.7686 112.727 38.7523 112.651 38.7206C112.574 38.6889 112.505 38.6425 112.447 38.5839C112.388 38.5253 112.342 38.4558 112.31 38.3792C112.278 38.3026 112.262 38.2206 112.262 38.1377V29.3054C112.262 29.2333 112.275 29.1616 112.3 29.0941C112.338 28.9863 112.404 28.8909 112.492 28.8184C112.58 28.7458 112.686 28.6988 112.799 28.6824C112.83 28.6774 112.861 28.6748 112.892 28.6746H125.171C125.202 28.6748 125.233 28.6774 125.263 28.6824C125.376 28.6988 125.482 28.7458 125.57 28.8183C125.658 28.8909 125.725 28.9863 125.762 29.0941C125.788 29.1616 125.801 29.2333 125.8 29.3054V29.3054Z" fill="white"/>
<path d="M125.763 29.094L119.219 33.9739C119.165 34.0148 119.099 34.037 119.031 34.037C118.964 34.037 118.898 34.0148 118.844 33.9739L112.3 29.094C112.338 28.9862 112.404 28.8909 112.492 28.8183C112.58 28.7457 112.686 28.6987 112.799 28.6824L119.031 33.3288L125.264 28.6824C125.376 28.6987 125.483 28.7457 125.571 28.8183C125.659 28.8909 125.725 28.9862 125.763 29.094V29.094Z" fill="#EF4C29"/>
<path d="M37.9326 45.0572C37.9326 49.3712 41.914 48.7187 46.8253 48.7187C51.7366 48.7187 55.7181 49.3712 55.7181 45.0572C55.7181 40.7432 53.7732 33.0962 46.8253 33.0962C39.6381 33.0962 37.9326 40.7432 37.9326 45.0572Z" fill="#2F2E41"/>
<path d="M65.7802 123.862L68.6232 122.944L66.4415 111.521L62.2456 112.876L65.7802 123.862Z" fill="#A0616A"/>
<path d="M64.7559 123.166L70.3545 121.358L70.3547 121.358C70.8233 121.207 71.317 121.149 71.8076 121.189C72.2983 121.229 72.7763 121.365 73.2144 121.59C73.6525 121.815 74.0421 122.125 74.361 122.5C74.6798 122.876 74.9216 123.311 75.0726 123.781L75.11 123.897L65.9434 126.857L64.7559 123.166Z" fill="#2F2E41"/>
<path d="M30.8833 123.956L33.8704 123.956L35.2913 112.413L30.8828 112.413L30.8833 123.956Z" fill="#A0616A"/>
<path d="M30.1216 122.979L36.0039 122.979H36.0041C36.4964 122.979 36.9839 123.076 37.4387 123.265C37.8935 123.454 38.3068 123.73 38.6549 124.079C39.003 124.428 39.2791 124.842 39.4675 125.297C39.6559 125.753 39.7528 126.242 39.7528 126.735V126.857L30.1218 126.857L30.1216 122.979Z" fill="#2F2E41"/>
<path d="M27.0273 79.4506C26.7911 79.1637 26.6151 78.8319 26.5101 78.4752C26.405 78.1185 26.373 77.7441 26.416 77.3747C26.4589 77.0052 26.576 76.6483 26.7601 76.3253C26.9442 76.0023 27.1916 75.72 27.4873 75.4952C27.5958 75.4134 27.7105 75.3401 27.8302 75.2759L37.5734 52.3169C37.6685 52.041 37.8172 51.7867 38.0109 51.5687C38.2046 51.3507 38.4396 51.1733 38.7021 51.0468C38.9646 50.9202 39.2496 50.8471 39.5405 50.8315C39.8314 50.8159 40.1225 50.8583 40.397 50.9561C40.6715 51.0539 40.924 51.2052 41.1398 51.4013C41.3556 51.5974 41.5304 51.8344 41.6543 52.0986C41.7782 52.3627 41.8486 52.6489 41.8614 52.9405C41.8743 53.2321 41.8293 53.5234 41.7292 53.7975L31.6958 76.6406C31.9478 77.2512 31.9728 77.9322 31.766 78.5597C31.5593 79.1872 31.1346 79.7195 30.5693 80.0598C30.0039 80.4001 29.3354 80.5258 28.6854 80.414C28.0354 80.3022 27.447 79.9603 27.0273 79.4506Z" fill="#A0616A"/>
<path d="M63.056 81.7541C62.4959 81.4127 62.0767 80.8813 61.8747 80.2564C61.6727 79.6316 61.7013 78.9548 61.9553 78.3493L51.9188 55.4986C51.8198 55.2247 51.7759 54.934 51.7895 54.6431C51.8031 54.3522 51.874 54.0669 51.998 53.8035C52.1221 53.5402 52.2968 53.304 52.5123 53.1085C52.7278 52.913 52.9797 52.7622 53.2535 52.6646C53.5274 52.567 53.8178 52.5246 54.1081 52.5399C54.3983 52.5552 54.6827 52.6277 54.9449 52.7535C55.207 52.8792 55.4418 53.0557 55.6357 53.2726C55.8295 53.4896 55.9787 53.7428 56.0746 54.0177L65.8208 76.9846C65.9406 77.0488 66.0552 77.1221 66.1637 77.2039C66.4595 77.4287 66.7068 77.711 66.8909 78.034C67.075 78.357 67.1921 78.7139 67.235 79.0834C67.278 79.4528 67.246 79.8272 67.141 80.1839C67.0359 80.5406 66.86 80.8724 66.6237 81.1593C66.3645 81.4737 66.039 81.7267 65.6707 81.9001C65.3023 82.0736 64.9002 82.1631 64.4932 82.1624C63.9855 82.1632 63.4877 82.0218 63.056 81.7541V81.7541Z" fill="#A0616A"/>
<path d="M49.7256 47.9767C52.6254 46.3884 53.6911 42.7456 52.1059 39.8402C50.5207 36.9348 46.8849 35.8671 43.985 37.4553C41.0852 39.0435 40.0194 42.6863 41.6046 45.5917C43.1898 48.4971 46.8257 49.5649 49.7256 47.9767Z" fill="#A0616A"/>
<path d="M38.4279 68.2178L37.241 54.4053C37.1908 53.8208 37.2717 53.2325 37.4778 52.6834C37.684 52.1344 38.0101 51.6385 38.4323 51.232C38.8545 50.8256 39.3621 50.519 39.9179 50.3346C40.4737 50.1502 41.0637 50.0927 41.6446 50.1664L52.6723 51.565C53.6822 51.6908 54.6036 52.2056 55.2412 53.0003C55.8789 53.795 56.1827 54.8072 56.0884 55.8224C55.6505 60.7579 54.4286 69.4226 51.1649 72.0042L51.1151 72.0436L38.4279 68.2178Z" fill="#2F2E41"/>
<path d="M35.2078 116.972L30.6328 116.428C30.363 116.4 30.1134 116.272 29.9325 116.069C29.7516 115.867 29.6524 115.604 29.6542 115.332C29.6643 113.127 29.6587 110.868 29.6532 108.683C29.6065 89.9656 29.5624 72.2863 38.3613 67.4078L38.4088 67.3816L51.2063 71.8198L51.6962 80.4101L62.0854 95.1563C62.9446 96.3747 63.5915 97.7302 63.9986 99.1652L67.8586 112.751C67.8993 112.894 67.9105 113.044 67.8915 113.192C67.8726 113.339 67.8238 113.482 67.7482 113.61C67.6726 113.738 67.5718 113.85 67.4519 113.938C67.332 114.026 67.1955 114.088 67.0506 114.122L62.5511 115.162C62.2918 115.222 62.0196 115.185 61.7853 115.059C61.551 114.933 61.3705 114.725 61.2773 114.476L55.2484 99.4364L42.9974 86.2106C42.9512 86.1625 42.8927 86.128 42.8283 86.1109C42.7639 86.0937 42.696 86.0946 42.632 86.1133C42.5681 86.132 42.5104 86.1679 42.4653 86.217C42.4202 86.2662 42.3894 86.3268 42.3762 86.3922L36.4008 116.097C36.3473 116.366 36.1951 116.605 35.9742 116.767C35.7533 116.929 35.4799 117.002 35.2078 116.972Z" fill="#2F2E41"/>
<path d="M53.7691 42.1279H51.4023L50.3582 39.1987L50.1494 42.1279H49.0182L48.4091 40.4192L48.2873 42.1279H39.8818C39.8818 41.2944 40.0457 40.4692 40.364 39.6991C40.6824 38.9291 41.149 38.2295 41.7372 37.6401C42.3254 37.0508 43.0237 36.5833 43.7923 36.2644C44.5608 35.9454 45.3845 35.7812 46.2164 35.7813H47.4346C48.2664 35.7812 49.0901 35.9454 49.8587 36.2644C50.6272 36.5833 51.3255 37.0508 51.9138 37.6401C52.502 38.2295 52.9686 38.9291 53.2869 39.6991C53.6053 40.4692 53.7691 41.2944 53.7691 42.1279V42.1279Z" fill="#2F2E41"/>
<path d="M169.919 127H0.173564C0.127532 127 0.0833852 126.982 0.0508356 126.949C0.018286 126.916 0 126.872 0 126.826C0 126.78 0.018286 126.736 0.0508356 126.703C0.0833852 126.67 0.127532 126.652 0.173564 126.652H169.919C169.965 126.652 170.009 126.67 170.042 126.703C170.075 126.736 170.093 126.78 170.093 126.826C170.093 126.872 170.075 126.916 170.042 126.949C170.009 126.982 169.965 127 169.919 127Z" fill="#CACACA"/>
</g>
<defs>
<clipPath id="clip0_1331_22754">
<rect width="172" height="127" fill="white"/>
</clipPath>
</defs>
</svg>
