<svg width="20" height="20" viewBox="0 0 20 20" fill="none" xmlns="http://www.w3.org/2000/svg">
<circle cx="10" cy="10" r="10" fill="#F99E3F"/>
<path d="M13.5 5H8.5C7.9485 5 7.5 5.4485 7.5 6V9H6.5C5.9485 9 5.5 9.4485 5.5 10V14.5C5.5 14.6326 5.55268 14.7598 5.64645 14.8536C5.74021 14.9473 5.86739 15 6 15H14C14.1326 15 14.2598 14.9473 14.3536 14.8536C14.4473 14.7598 14.5 14.6326 14.5 14.5V6C14.5 5.4485 14.0515 5 13.5 5ZM6.5 10H9.5V14H6.5V10ZM13.5 14H10.5V10C10.5 9.4485 10.0515 9 9.5 9H8.5V6H13.5V14Z" fill="white"/>
<path d="M9.5 7H10.5V8H9.5V7ZM11.5 7H12.5V8H11.5V7ZM11.5 9.0155H12.5V10H11.5V9.0155ZM11.5 11H12.5V12H11.5V11ZM7.5 11.0005H8.5V12.0005H7.5V11.0005Z" fill="white"/>
</svg>
