<svg width="36" height="60" viewBox="0 0 36 60" fill="none" xmlns="http://www.w3.org/2000/svg">
<g clip-path="url(#clip0_5557_15976)">
<path opacity="0.37" d="M20.2871 59.9979C28.9651 59.9979 36 58.3162 36 56.2416C36 54.1671 28.9651 52.4854 20.2871 52.4854C11.6091 52.4854 4.57422 54.1671 4.57422 56.2416C4.57422 58.3162 11.6091 59.9979 20.2871 59.9979Z" fill="url(#paint0_radial_5557_15976)"/>
<path d="M30.8835 53.3898C30.8835 53.4099 30.8817 53.4282 30.8817 53.4465C30.8743 53.6514 30.8523 53.8563 30.8192 54.0667C30.8174 54.0741 30.8174 54.0814 30.8174 54.0887C30.8155 54.0942 30.8137 54.096 30.8137 54.1015C30.8118 54.1088 30.8137 54.1161 30.8118 54.1235C30.8118 54.1253 30.81 54.129 30.8137 54.1308C30.8137 54.1308 30.8137 54.1308 30.8118 54.1308C30.8045 54.2936 30.8633 54.3705 30.7843 54.4089H30.7824C30.7512 54.4217 30.7034 54.429 30.6262 54.4345C30.3414 54.4565 30.0271 54.4418 29.689 54.3997C29.6669 54.3979 29.643 54.3943 29.6191 54.3906C29.6044 54.3906 29.5879 54.3869 29.5732 54.3851C29.5732 54.3851 29.5695 54.3833 29.5677 54.3833C29.4905 54.3723 29.4115 54.3577 29.3288 54.343C28.239 54.1491 26.9691 53.6935 25.8131 53.1739C25.7304 53.1373 25.6459 53.097 25.565 53.0604C25.4823 53.0238 25.4033 52.9854 25.3224 52.9452C25.1662 52.8702 25.0082 52.7915 24.8593 52.7146C24.8593 52.7128 24.8556 52.7128 24.8538 52.7128C24.7785 52.6744 24.7049 52.636 24.6314 52.5994C24.6296 52.5994 24.6259 52.5957 24.6259 52.5957C24.5745 52.5683 24.5212 52.539 24.4734 52.5115C24.4513 52.5024 24.4293 52.4914 24.4072 52.4768C24.1922 52.3597 23.9882 52.2444 23.7989 52.1346C23.7879 52.1291 23.775 52.1218 23.7622 52.1127C23.7126 52.0834 23.6629 52.0523 23.6133 52.023V52.0212C23.6115 52.0212 23.6078 52.0194 23.6078 52.0194C23.5472 51.9846 23.492 51.948 23.435 51.9114V51.9096C23.4332 51.9096 23.4332 51.9096 23.4332 51.9096C23.3781 51.873 23.3229 51.8401 23.2697 51.8035H23.2678C23.2421 51.787 23.2237 51.776 23.2108 51.7614C23.1833 51.7431 23.1686 51.7284 23.1594 51.7138C23.1557 51.7102 23.1539 51.7047 23.1502 51.701C23.1337 51.6754 23.1428 51.6571 23.1612 51.6296V51.6278C23.1686 51.6223 23.1723 51.6132 23.1778 51.6077C23.1833 51.5967 23.1925 51.5857 23.2017 51.5693C23.209 51.5528 23.2182 51.5345 23.2255 51.5125C23.2274 51.5071 23.2292 51.5016 23.2311 51.4961C23.2347 51.4888 23.2347 51.476 23.2384 51.465C23.2476 51.4229 23.2586 51.3826 23.2678 51.3442C23.3248 51.1192 23.4167 50.9143 23.5288 50.724C23.5343 50.713 23.5416 50.7038 23.5453 50.6965C23.5857 50.6306 23.6262 50.5666 23.6648 50.5044C23.7199 50.4221 23.7769 50.3379 23.8338 50.2574C23.8449 50.2428 23.8541 50.23 23.8651 50.2171C23.878 50.2007 23.8908 50.1842 23.9 50.1677C23.9055 50.1568 23.9147 50.1458 23.9202 50.1366C23.9239 50.133 23.9257 50.1275 23.9312 50.1257C23.9404 50.1092 23.9515 50.0946 23.9625 50.0818C23.9772 50.0616 23.9919 50.0397 24.0048 50.0195C24.0195 49.9994 24.0342 49.9775 24.0507 49.9555L24.0948 49.897C24.1205 49.8549 24.1481 49.8165 24.1757 49.7725C24.4458 49.37 24.6553 48.9364 24.6167 48.371C24.6167 48.3655 24.6149 48.3637 24.6167 48.3582C24.6094 48.2466 24.591 48.1332 24.5653 48.0124C24.1665 46.2486 22.7753 45.3631 21.4098 44.322C21.3841 44.3037 21.3584 44.2817 21.3308 44.2616C21.3088 44.2451 21.2885 44.2287 21.2646 44.2122C21.4742 43.8627 21.6671 43.5023 21.8546 43.1345C21.9409 42.9626 22.0292 42.7887 22.1137 42.6113C22.4261 41.9599 22.7146 41.2921 23.0032 40.6224C23.1337 40.315 23.2605 40.0095 23.3946 39.7058C23.5049 39.4514 23.617 39.1989 23.7273 38.9446C23.8375 38.6903 23.9515 38.4415 24.0691 38.1963C25.3776 40.3352 27.0977 42.0166 28.3805 44.2214C28.3915 44.2397 28.4007 44.2561 28.4117 44.2744C28.4356 44.3165 28.4595 44.3586 28.4852 44.4062C28.4889 44.408 28.4889 44.4135 28.4889 44.4153C28.6378 44.7007 28.7848 45.0648 28.9189 45.4509C28.9465 45.5259 28.9704 45.6009 28.9961 45.6759C29.0347 45.793 29.0715 45.9065 29.1046 46.0199C29.1284 46.0986 29.1542 46.1736 29.1762 46.2504C29.1983 46.3273 29.2203 46.4005 29.2406 46.4718V46.4737C29.2736 46.5853 29.2994 46.6932 29.3288 46.7975C29.349 46.8634 29.3655 46.9347 29.3802 47.0043C29.4023 47.1031 29.4243 47.1964 29.4464 47.2842C29.4592 47.3391 29.4739 47.394 29.4831 47.4525C29.4868 47.48 29.4942 47.5056 29.4978 47.5294C29.4978 47.5312 29.4978 47.5312 29.4978 47.5349C29.5052 47.5605 29.5089 47.5861 29.5107 47.6135C29.5144 47.6154 29.5144 47.6172 29.5125 47.6209C29.5162 47.6227 29.5162 47.6245 29.5162 47.6282C29.5236 47.6575 29.5272 47.6867 29.5291 47.716C29.5677 47.9301 29.5989 48.1533 29.6283 48.371C29.643 48.4607 29.654 48.5522 29.6669 48.64C29.7184 48.984 29.7698 49.3005 29.8415 49.5255C29.8617 49.5877 29.8819 49.6408 29.9077 49.6902C30.2054 50.2848 30.4333 50.8319 30.5931 51.368C30.7971 52.0413 30.9056 52.7073 30.8835 53.3898Z" fill="#D71627"/>
<path d="M30.884 53.3901C30.884 53.4103 30.8821 53.4286 30.8821 53.4469C30.8785 53.6536 30.8693 53.8677 30.8491 54.0909C30.8491 54.0927 30.8491 54.0927 30.8472 54.0964V54.0982C30.8472 54.1037 30.8509 54.1055 30.8509 54.1074C30.8509 54.1074 30.8491 54.111 30.8472 54.111L30.8454 54.1147C30.8343 54.1184 30.8252 54.1257 30.816 54.1348C30.816 54.1348 30.816 54.1348 30.8141 54.1348C30.8105 54.1403 30.8068 54.1458 30.8013 54.1549C30.7976 54.1604 30.7958 54.1677 30.7939 54.1732C30.7921 54.1787 30.7902 54.186 30.7884 54.1915C30.7902 54.1989 30.7884 54.2043 30.7884 54.2117C30.7902 54.2666 30.8141 54.3269 30.8013 54.3763C30.7994 54.391 30.7939 54.4056 30.7829 54.4148C30.7792 54.4221 30.77 54.4294 30.7608 54.4331C30.7517 54.4385 30.7425 54.444 30.7314 54.4477C30.7075 54.4568 30.6781 54.4605 30.6414 54.4623C30.43 54.4715 30.1985 54.4587 29.9596 54.4349C29.8714 54.4276 29.7813 54.4184 29.6913 54.4074C29.6692 54.4056 29.6453 54.4019 29.6214 54.3983C29.6067 54.3965 29.5902 54.3928 29.5755 54.391C29.5736 54.3946 29.5736 54.3946 29.57 54.391C29.4174 54.3635 29.2631 54.3361 29.105 54.3031C28.9451 54.2684 28.7797 54.2281 28.6143 54.186C28.4728 54.1495 28.3313 54.1092 28.1861 54.0671C28.1604 54.0598 28.1365 54.0543 28.1108 54.047C28.0262 54.0232 27.9417 53.9958 27.8553 53.9665H27.8535C27.769 53.939 27.6844 53.9134 27.5999 53.8842C27.5999 53.8842 27.598 53.8842 27.5962 53.8823C27.4271 53.8256 27.2544 53.7634 27.0816 53.6994C26.6516 53.542 26.2234 53.3645 25.8117 53.1816C25.729 53.145 25.6445 53.1047 25.5636 53.0681C25.4809 53.0315 25.4019 52.9931 25.3211 52.9529C25.2439 52.9181 25.1648 52.8797 25.0858 52.8412C24.9314 52.7626 24.7771 52.6876 24.6282 52.6071C24.6264 52.6071 24.6227 52.6034 24.6227 52.6034C24.4757 52.5284 24.3342 52.4515 24.1963 52.3747C24.1283 52.3363 24.0567 52.296 23.9887 52.2594C23.8564 52.1826 23.7295 52.1057 23.6101 52.0307C23.6064 52.0289 23.6046 52.0289 23.6046 52.0271C23.5439 51.9923 23.4888 51.9557 23.4318 51.9191C23.43 51.9191 23.43 51.9191 23.4282 51.9173C23.373 51.8807 23.3179 51.8477 23.2646 51.8112H23.2628C23.2517 51.8002 23.2425 51.7947 23.2333 51.7874C23.2223 51.7819 23.2131 51.7746 23.2058 51.7691C23.2058 51.7672 23.2058 51.7672 23.2058 51.7672C23.1837 51.7489 23.1654 51.7343 23.1543 51.7233C23.1506 51.7197 23.1488 51.7142 23.1451 51.7105C23.1286 51.6849 23.1378 51.6666 23.1562 51.6392V51.6373C23.169 51.6172 23.1874 51.5934 23.2039 51.5605C23.2095 51.5495 23.215 51.5367 23.2205 51.5239C23.2223 51.5184 23.2242 51.5129 23.226 51.5074C23.2297 51.5001 23.2297 51.4873 23.2333 51.4763C23.3491 50.9768 23.6027 50.5963 23.86 50.2267C23.8729 50.2102 23.8858 50.1937 23.8949 50.1773C23.906 50.1626 23.9152 50.1498 23.9262 50.1352C23.9354 50.1187 23.9464 50.1041 23.9574 50.0913C23.9721 50.0711 23.9868 50.0492 23.9997 50.0291C24.0144 50.0089 24.0291 49.987 24.0456 49.965C24.0475 49.9614 24.0512 49.9559 24.053 49.9522C24.2846 49.6137 24.4904 49.2643 24.5731 48.827C24.5878 48.7428 24.6025 48.6605 24.608 48.569C24.6135 48.5086 24.6135 48.4464 24.6117 48.3824C24.6117 48.3769 24.6098 48.375 24.6117 48.3696C24.6098 48.3622 24.6098 48.3531 24.6098 48.3439C24.608 48.2378 24.597 48.1207 24.5786 48.0018C24.5161 47.6029 24.3434 47.2004 24.1045 46.8162C24.1008 46.807 24.0934 46.7979 24.0879 46.7906C23.8122 46.3514 23.452 45.9416 23.0863 45.594C23.0257 45.5354 22.9614 45.4787 22.897 45.4238C22.7923 45.336 22.6894 45.2482 22.5883 45.1713C22.5736 45.1603 22.5626 45.1512 22.5479 45.1402C22.4909 45.0963 22.4339 45.0561 22.3788 45.0158C21.8752 44.6645 21.7448 44.5803 21.4029 44.3297C21.3772 44.3114 21.3515 44.2894 21.3239 44.2693L21.2412 44.2089C21.4562 43.8649 21.6565 43.5063 21.8477 43.1404C21.934 42.9684 22.0223 42.7946 22.1068 42.6171C22.4211 41.9676 22.7077 41.2979 22.9963 40.6283C23.1268 40.3209 23.2536 40.0153 23.3877 39.7116C23.498 39.4573 23.6101 39.2048 23.7204 38.9505C23.8306 38.6962 23.9446 38.4473 24.0622 38.2021C25.3707 40.341 27.0908 42.0225 28.3736 44.2272C28.3846 44.2455 28.3938 44.262 28.4048 44.2803C28.4287 44.3224 28.4526 44.3644 28.4783 44.412C28.482 44.4138 28.482 44.4193 28.482 44.4212C28.6309 44.7066 28.7779 45.0707 28.912 45.4567C28.9396 45.5318 28.9635 45.6068 28.9892 45.6818C29.0278 45.7989 29.0646 45.9123 29.0977 46.0258C29.1216 46.1044 29.1473 46.1795 29.1693 46.2563C29.1914 46.3332 29.2134 46.4063 29.2337 46.4777V46.4795C29.2667 46.5911 29.2925 46.6991 29.3219 46.8034C29.3421 46.8692 29.3586 46.9406 29.3733 47.0101C29.3954 47.1089 29.4174 47.2022 29.4395 47.2901C29.4523 47.345 29.4671 47.3998 29.4762 47.4584C29.4799 47.4858 29.4873 47.5115 29.4909 47.5352C29.4909 47.5371 29.4909 47.5371 29.4909 47.5407C29.4946 47.5682 29.502 47.592 29.5056 47.6176L29.5075 47.6322C29.5148 47.6615 29.5185 47.6908 29.5203 47.72C29.5608 47.9359 29.5902 48.1573 29.6196 48.3751C29.6343 48.4647 29.6453 48.5562 29.6582 48.644C29.706 48.988 29.7574 49.3027 29.8328 49.5296C29.853 49.5918 29.8732 49.6448 29.8989 49.6942C30.1966 50.2889 30.4245 50.8359 30.5844 51.372C30.7902 52.027 30.8858 52.6784 30.884 53.3901Z" fill="url(#paint1_radial_5557_15976)"/>
<path opacity="0.5" d="M30.8525 54.1067C30.8525 54.1085 30.8488 54.1122 30.8451 54.1122C30.8341 54.1158 30.8249 54.1231 30.8157 54.1323C30.8157 54.1323 30.8157 54.1323 30.8139 54.1323C30.8102 54.1378 30.8065 54.1433 30.801 54.1524C30.7974 54.1579 30.7955 54.1634 30.7937 54.1707C30.7918 54.1762 30.79 54.1835 30.7882 54.189C30.7863 54.1945 30.7845 54.2018 30.7882 54.2091C30.79 54.264 30.8139 54.3244 30.801 54.3738C30.7992 54.3884 30.7937 54.4031 30.7827 54.4122C30.779 54.4196 30.7698 54.4269 30.7606 54.4305C30.7514 54.436 30.7422 54.4415 30.7312 54.4452C30.7073 54.4543 30.6779 54.458 30.6411 54.4598C30.4298 54.469 30.1982 54.4561 29.9593 54.4324C29.8711 54.425 29.7811 54.4159 29.691 54.4049C29.669 54.4031 29.6451 54.3994 29.6212 54.3958C29.6065 54.3939 29.5899 54.3903 29.5752 54.3885C29.4245 54.3647 29.2665 54.3336 29.1066 54.3006C28.9467 54.2659 28.7813 54.2256 28.6159 54.1835C28.3678 54.1195 28.1142 54.0463 27.8588 53.964H27.8569C27.7724 53.9365 27.6879 53.9073 27.6033 53.878C27.6033 53.878 27.6015 53.8816 27.6015 53.878C27.4324 53.8213 27.2597 53.759 27.0869 53.695C26.6569 53.5377 26.2287 53.3602 25.817 53.1772C25.7343 53.1406 25.6498 53.1004 25.5689 53.0638C25.4862 53.0272 25.4072 52.9888 25.3263 52.9485C25.2491 52.9137 25.1701 52.8753 25.0911 52.8369C24.9367 52.7582 24.7823 52.6832 24.6335 52.6027C24.6317 52.6027 24.628 52.599 24.628 52.599C24.481 52.524 24.3394 52.4472 24.2016 52.3703C24.1336 52.3319 24.0619 52.2917 23.9939 52.2551C23.9278 52.2148 23.8635 52.1746 23.801 52.138C23.79 52.1325 23.7771 52.1252 23.7642 52.116C23.7128 52.0867 23.6632 52.0575 23.6154 52.0245C23.6135 52.0245 23.6099 52.0227 23.6099 52.0227C23.5492 51.9843 23.4941 51.9477 23.4371 51.9129C23.4353 51.9129 23.4353 51.9129 23.4353 51.9129C23.3783 51.8745 23.3232 51.8397 23.2699 51.8031C23.2588 51.7958 23.2478 51.7885 23.2386 51.783C23.2276 51.7739 23.2184 51.7684 23.2111 51.7629C23.189 51.7446 23.1706 51.73 23.1596 51.719C23.1559 51.7153 23.1541 51.7098 23.1504 51.7062C23.1339 51.6806 23.1431 51.6623 23.1614 51.6348C23.1651 51.6275 23.1725 51.6202 23.178 51.6129C23.1835 51.6019 23.1927 51.5909 23.2019 51.5744C23.2037 51.5689 23.2074 51.5635 23.2092 51.5561C23.2147 51.5452 23.2202 51.5324 23.2258 51.5195C23.2276 51.5141 23.2294 51.5086 23.2313 51.5031C23.235 51.4958 23.235 51.483 23.2386 51.472C23.2478 51.4299 23.2588 51.3896 23.268 51.3512C23.3305 51.1225 23.4242 50.9176 23.529 50.731C23.5345 50.72 23.5419 50.7108 23.5455 50.7035C23.586 50.6376 23.6264 50.5736 23.665 50.5114C23.7201 50.4291 23.7771 50.3449 23.8341 50.2644C23.8561 50.2333 23.8763 50.2022 23.9002 50.1747C23.9057 50.1638 23.9149 50.1528 23.9204 50.1436L23.9627 50.0869C23.9774 50.0668 23.9921 50.0448 24.005 50.0247C24.0197 50.0046 24.0344 49.9826 24.0509 49.9607C24.0528 49.957 24.0564 49.9515 24.0583 49.9479C24.0711 49.9332 24.0803 49.9168 24.0932 49.9021C24.1189 49.86 24.1465 49.8216 24.174 49.7777C24.4019 49.4282 24.5875 49.0532 24.6114 48.5646C24.617 48.5043 24.617 48.4421 24.6151 48.378C24.6151 48.3725 24.6133 48.3707 24.6151 48.3652C24.6133 48.3579 24.6133 48.3487 24.6133 48.3396C24.6078 48.228 24.5949 48.1127 24.5747 47.992C24.5048 47.5858 24.3376 47.1887 24.1097 46.8118C24.1061 46.8027 24.0987 46.7935 24.0932 46.7862C23.8286 46.3508 23.4757 45.9464 23.0916 45.5896C23.031 45.5311 22.9666 45.4744 22.9023 45.4195C22.7976 45.3316 22.6946 45.2475 22.5936 45.167C22.5789 45.156 22.5678 45.1468 22.5531 45.1359C22.4962 45.092 22.4392 45.0517 22.3841 45.0114C22.3694 44.9986 22.3547 44.9877 22.3418 44.9785C23.8065 45.4268 24.8798 46.0196 25.5616 47.4669C26.3334 49.1007 24.0105 49.6679 24.5214 51.0823C25.0341 52.4984 29.386 53.4553 30.8065 54.092C30.8121 54.0939 30.8176 54.0939 30.8194 54.0957C30.8341 54.0975 30.8451 54.0994 30.847 54.1012V54.103C30.8488 54.1012 30.8507 54.1049 30.8525 54.1067Z" fill="#B20B1F"/>
<path d="M29.5133 47.5967C29.5133 47.6004 29.5115 47.6077 29.5078 47.6095C29.3828 47.7102 29.3553 47.9151 29.1329 47.8931C28.4419 47.8218 28.1607 46.9893 27.9163 46.3416C27.7197 45.8201 27.4238 44.8687 27.5763 44.2686C27.6131 44.1259 27.6241 44.0893 27.7362 44.0362C27.9641 43.9319 28.2177 44.1204 28.4088 44.2393C28.9124 45.3353 29.2744 46.4203 29.5133 47.5967Z" fill="#F9F9F9"/>
<path d="M30.8358 54.1073C30.8266 54.1128 30.8192 54.1164 30.8137 54.1256C30.7935 54.1439 30.788 54.164 30.788 54.1896C30.7862 54.1951 30.7843 54.2024 30.788 54.2097C30.7898 54.2646 30.8137 54.325 30.8009 54.3744C30.7972 54.3872 30.7917 54.4 30.7843 54.411H30.7825C30.7788 54.4183 30.7696 54.4256 30.7604 54.4293C30.7512 54.4348 30.742 54.4403 30.731 54.4439C30.7071 54.4531 30.6777 54.4567 30.641 54.4586C30.4296 54.4677 30.1981 54.4549 29.9592 54.4311C29.8709 54.4238 29.7809 54.4146 29.6908 54.4037C29.6688 54.4018 29.6449 54.3982 29.621 54.3945C29.6063 54.3945 29.5898 54.3909 29.5751 54.389V54.3872C29.5732 54.3909 29.5732 54.3909 29.5695 54.3872C29.4924 54.3762 29.4133 54.3616 29.3306 54.3469C29.2755 54.336 29.2185 54.3213 29.1634 54.3104C29.1432 54.3067 29.1248 54.303 29.1064 54.2994C29.077 54.2921 29.044 54.2847 29.0145 54.2774C28.8675 54.2445 28.7205 54.2097 28.5698 54.1695C28.4448 54.1365 28.3162 54.1018 28.1894 54.0634C28.1637 54.056 28.1398 54.0505 28.114 54.0414C28.0295 54.0176 27.945 53.9902 27.8586 53.9609H27.8568C27.7722 53.9334 27.6877 53.9078 27.6031 53.8786V53.8767C27.6031 53.8767 27.6013 53.8804 27.6013 53.8767C27.4322 53.82 27.2595 53.7578 27.0867 53.6938C26.3185 53.4047 25.5522 53.0644 24.863 52.7167C24.863 52.7149 24.8594 52.7149 24.8575 52.7149C24.727 52.6472 24.5984 52.5832 24.4753 52.5136C24.4532 52.5045 24.4312 52.4935 24.4091 52.4789C24.3374 52.4423 24.2694 52.4057 24.2014 52.3691C24.1334 52.3307 24.0618 52.2904 23.9938 52.2538C23.8614 52.177 23.7346 52.1001 23.6152 52.0251C23.6115 52.0233 23.6097 52.0233 23.6097 52.0215C23.549 51.9867 23.4939 51.9501 23.4369 51.9135C23.4351 51.9135 23.4351 51.9135 23.4333 51.9117C23.3781 51.8751 23.323 51.8421 23.2697 51.8056H23.2679C23.2421 51.7891 23.2237 51.7781 23.2109 51.7635C23.1833 51.7452 23.1686 51.7305 23.1594 51.7159C23.1557 51.7122 23.1539 51.7067 23.1502 51.7031C23.1337 51.6775 23.1429 51.6592 23.1613 51.6317V51.6299C23.1741 51.6098 23.1925 51.586 23.209 51.5531C23.2146 51.5421 23.2201 51.5293 23.2256 51.5165C23.2274 51.511 23.2293 51.5055 23.2311 51.5C24.0857 51.8733 23.9533 51.8147 25.0891 52.2282C26.517 52.7442 29.066 53.734 30.8174 54.1018C30.8229 54.1036 30.8284 54.1054 30.8358 54.1073Z" fill="#FDFDFD"/>
<path d="M29.5182 47.617C29.3748 47.7011 29.3583 47.917 29.1341 47.8932C28.4412 47.82 28.1601 46.9912 27.9175 46.3417C27.7208 45.8166 27.4194 44.8725 27.5812 44.2705C27.4948 44.7993 27.8348 45.8312 27.9763 46.2063C28.1895 46.7753 28.6287 47.6206 28.9999 47.7487C29.3711 47.8768 29.2462 47.584 29.5182 47.617Z" fill="#D6D6D6"/>
<path d="M17.1943 51.6238C17.3964 53.0473 18.0433 54.9721 18.0323 56.2309C18.0323 56.3608 18.0249 56.487 18.0084 56.6023C17.9496 57.014 17.786 57.3195 17.4589 57.4531C14.9467 58.4795 12.7359 57.6507 11.4292 56.7267C10.8779 56.3352 10.4883 55.929 10.3082 55.6381C10.2935 55.6143 10.2788 55.5887 10.2659 55.5667C10.0251 55.1185 9.99575 54.5696 10.0895 53.9658C10.2328 53.0564 10.6629 52.0263 11.0764 51.0493C11.4825 50.0887 11.8758 48.883 12.9049 47.1101C14.1417 44.9748 15.2959 41.1143 15.2959 41.1143L19.4216 43.824C19.4216 43.824 18.6002 45.6738 17.9496 47.6571C17.5912 48.7513 17.2843 49.8875 17.1943 50.7712C17.1612 51.0914 17.1594 51.3823 17.1943 51.6238Z" fill="#EF4136"/>
<path d="M34.793 29.6039C34.679 30.065 33.7932 31.3366 33.3503 31.9513C33.2952 32.0282 33.2456 32.0941 33.207 32.149C33.1408 32.2423 33.1004 32.2972 33.1004 32.2972C32.5913 33.137 31.8746 34.5165 31.3766 35.5741C31.0788 36.2053 30.8602 36.7194 30.805 36.9372C30.6194 37.6763 28.2689 38.5381 27.5577 38.2289C26.8446 37.9234 24.9885 37.2757 24.9885 36.1358C24.9885 34.9977 23.9979 27.7925 25.7015 27.5455L27.6165 32.041C27.6165 32.041 27.9638 31.1811 28.4582 30.2498C28.4729 30.2223 28.4876 30.1949 28.5023 30.1693C28.6107 29.9698 28.7283 29.7631 28.846 29.5655C28.846 29.5655 28.7614 28.7458 28.947 28.1932C29.1327 27.637 31.2038 25.5421 32.72 26.7441C34.2361 27.9462 34.9492 28.9891 34.793 29.6039Z" fill="#D71627"/>
<path d="M17.1944 50.7694C17.1613 51.0914 17.1595 51.3823 17.1944 51.6238C17.3965 53.0473 18.0434 54.9721 18.0324 56.2309C18.0324 56.3608 18.0251 56.487 18.0085 56.6023C17.9497 57.014 17.7861 57.3195 17.459 57.4531C14.9468 58.4795 12.736 57.6507 11.4293 56.7267C11.1242 56.5108 10.8706 56.2913 10.6721 56.0864C10.5104 55.9217 10.391 55.768 10.3083 55.6381C10.2936 55.6143 10.2789 55.5887 10.266 55.5667C10.1612 55.3728 10.0969 55.1569 10.0657 54.9264C10.0234 54.6281 10.0381 54.3061 10.0896 53.9658C10.2329 53.0564 10.663 52.0263 11.0765 51.0493C11.1426 50.892 11.2069 50.7291 11.2786 50.5571C11.2786 50.5553 11.2786 50.5516 11.2786 50.5516C11.6278 49.6771 12.045 48.5902 12.905 47.1101C14.1419 44.9748 15.296 41.1143 15.296 41.1143L19.4218 43.824C19.4218 43.824 19.2986 44.1021 19.1075 44.5577C18.8098 45.2767 18.3485 46.4422 17.9497 47.6571C17.5895 48.7494 17.2826 49.8838 17.1944 50.7694Z" fill="url(#paint2_radial_5557_15976)"/>
<path d="M29.4687 12.1198L28.3771 13.0145C28.2411 13.1261 28.1621 13.2926 28.1694 13.4664C28.186 13.9769 28.3844 15.0162 29.6709 15.3839C29.8436 15.4333 30.0311 15.3949 30.1744 15.287L31.2164 14.4947C31.3616 14.3831 31.4443 14.2111 31.4406 14.0281C31.4351 13.6805 31.3598 13.1005 30.9849 12.6596C30.6467 12.2625 30.2553 12.0869 29.9888 12.0119C29.8069 11.9588 29.6139 12.0009 29.4687 12.1198Z" fill="#EF8C20"/>
<path d="M31.3746 35.5744C31.0769 36.2057 30.8582 36.7198 30.8031 36.9375C30.6175 37.6767 28.267 38.5385 27.5557 38.2293C26.8427 37.9237 24.9865 37.276 24.9865 36.1361C24.9865 34.9981 23.996 27.7929 25.6996 27.5459L27.6145 32.0414C27.6145 32.0414 28.6786 36.1252 28.6786 37.0308C28.6786 37.137 29.3512 37.0052 29.41 36.9943C29.8144 36.9192 30.1966 36.707 30.5182 36.4563C30.8012 36.2331 31.2202 35.9038 31.3746 35.5744Z" fill="#B20B1F"/>
<path opacity="0.5" d="M11.2123 51.9517C11.5027 53.4721 12.2433 54.3339 11.1719 55.0731C10.707 55.3933 10.3357 55.2286 10.0637 54.9249C10.0215 54.6267 10.0362 54.3046 10.0876 53.9643C10.231 53.055 10.661 52.0249 11.0745 51.0478C11.1407 50.8905 11.205 50.7277 11.2767 50.5557C11.1774 51.0625 11.1388 51.5547 11.2123 51.9517Z" fill="#B20B1F"/>
<path opacity="0.5" d="M17.1941 50.7694C17.161 51.0914 17.1592 51.3823 17.1941 51.6238C17.3963 53.0473 18.0432 54.9721 18.0321 56.2309C18.0321 56.3608 18.0248 56.4871 18.0082 56.6023C17.9494 57.014 17.7859 57.3196 17.4587 57.4531C14.9465 58.4796 12.7357 57.6507 11.429 56.7267C11.124 56.5108 10.8704 56.2913 10.6719 56.0864C11.067 56.0882 11.5172 56.1413 12.0171 56.2638C14.8436 56.9628 17.3797 56.2858 17.4826 55.6893C17.5837 55.0929 17.1316 51.1115 16.8027 51.2744C16.4719 51.439 16.1411 51.1316 16.1411 51.1316C16.1411 51.1316 15.5126 48.0322 16.2752 47.0661C17.0397 46.1001 17.7601 46.8393 17.8024 46.8612C17.9458 46.5538 19.1072 44.4863 19.1072 44.4863C19.1072 44.4863 19.1072 44.5101 19.1072 44.5559C18.8095 45.2749 18.3482 46.4404 17.9494 47.6553C17.5892 48.7494 17.2823 49.8838 17.1941 50.7694Z" fill="#B20B1F"/>
<path d="M27.5793 40.5027C27.5095 40.7168 27.4304 40.9199 27.3385 41.112C26.0907 43.7284 22.4721 44.6762 19.1053 44.4877C16.1576 44.3212 12.8974 43.6955 12.3607 40.2905C12.0685 38.4352 12.3791 36.472 12.7485 34.6515C13.1491 32.6828 13.7519 30.747 14.0441 28.7563C14.1526 28.0153 14.2224 27.5634 14.2224 27.5634L24.4918 24.7109C24.4918 24.7109 26.0043 28.1287 27.0224 32.0204C27.8072 35.0119 28.2942 38.2833 27.5793 40.5027Z" fill="#EF4136"/>
<path d="M27.024 32.0193C25.6953 32.5389 24.0982 34.2369 23.2051 35.1718C22.9202 35.4701 22.7052 35.6915 22.5931 35.7756C21.7955 35.0712 20.4337 34.3906 19.1381 33.8435C17.418 33.1208 15.8191 32.6341 15.8191 32.6341L14.042 28.7534V28.7461C14.1504 28.0087 14.2203 27.5604 14.2203 27.5604L23.8207 24.8928L24.4897 24.708C24.4897 24.708 24.5136 24.7629 24.5559 24.8654C24.7415 25.2935 25.2781 26.5779 25.8699 28.2758C26.2631 29.3883 26.673 30.6745 27.024 32.0193Z" fill="#D71627"/>
<path d="M24.8648 37.9211L22.608 40.5668L18.3701 38.4133L19.142 33.8428C20.4358 34.3898 21.7994 35.0705 22.597 35.7749C22.7091 35.6907 22.9241 35.4693 23.209 35.1711L24.8648 37.9211Z" fill="#D71627"/>
<path d="M23.2072 35.1715C22.9223 35.4697 22.7073 35.6911 22.5952 35.7753C21.7976 35.0709 20.4358 34.3902 19.1402 33.8432L19.5133 31.6384C18.4584 31.2048 17.6865 28.8958 17.6865 28.8958L19.324 28.7402L23.2072 35.1715Z" fill="#B20B1F"/>
<path d="M16.4221 29.4523C16.9771 31.6699 15.823 32.6359 15.823 32.6359L14.9041 28.9601L14.0459 28.7479C14.1543 28.0105 14.2242 27.5623 14.2242 27.5623L23.8247 24.8946C24.0764 24.8855 24.3227 24.8782 24.5598 24.8672C24.7454 25.2953 25.282 26.5797 25.8738 28.2777C20.6857 29.542 16.4221 29.4523 16.4221 29.4523Z" fill="#B20B1F"/>
<path d="M23.7861 27.575C23.7659 27.7964 23.731 28.1166 23.6796 28.4807C23.6704 28.5503 23.6593 28.6216 23.6502 28.693C23.4884 29.7597 23.1981 31.088 22.7 31.4429C21.9227 31.9955 20.7483 31.9882 20.0371 31.593C19.9562 31.5491 19.8791 31.496 19.8111 31.4429C19.4086 31.1173 18.8187 30.0798 18.4235 29.3297C18.4162 29.315 18.4088 29.3004 18.4015 29.2858C18.3794 29.2455 18.3611 29.2089 18.3445 29.1742L18.3427 29.1723C18.135 28.7735 17.999 28.488 17.999 28.488L22.3472 27.5659C22.9665 27.5641 23.5013 27.5677 23.7861 27.575Z" fill="#FBB040"/>
<path d="M23.7861 27.5752C23.7623 27.8386 23.7163 28.243 23.6502 28.6931L23.6079 28.7553C22.3803 29.1615 18.815 29.3115 18.4235 29.3298C18.4015 29.3298 18.3886 29.3298 18.3886 29.3298L18.4015 29.2859L18.4107 29.2493C18.4107 29.2493 18.3868 29.2219 18.3445 29.1761L18.3427 29.1743C18.135 28.7754 17.999 28.49 17.999 28.49L22.3472 27.5678C22.9665 27.5642 23.5013 27.5678 23.7861 27.5752Z" fill="#EF8C20"/>
<path d="M29.6685 26.8231C28.9757 27.0792 28.2534 27.3079 27.511 27.5129C22.6096 28.8686 16.9181 29.1559 14.178 29.2126C13.147 29.2364 12.5332 29.2254 12.5332 29.2254C12.5332 29.2254 2.88306 28.9784 2.38687 25.0373C2.23433 23.8169 2.71031 21.5793 3.44175 19.0635V19.0617C3.55752 18.6646 3.67882 18.2603 3.80746 17.8541C4.51868 15.5707 5.38243 13.1683 6.13959 11.1612C6.56227 10.0378 6.95188 9.03696 7.26246 8.25387C7.68147 7.19998 7.95714 6.53399 7.97919 6.47544C7.92957 6.49556 7.4738 6.68402 7.1816 5.60818C6.87286 4.4683 8.69592 1.32678 14.3875 0.175921C17.1147 -0.372977 19.8438 0.375353 21.8102 2.34224C22.1539 2.68804 22.4718 3.06495 22.7695 3.45833C23.3852 4.27436 23.9255 5.17272 24.475 6.02534C24.5338 6.11682 24.5908 6.20831 24.6514 6.29796C24.6992 6.36932 24.7433 6.44067 24.7892 6.5102C25.3204 7.31342 25.8478 8.12213 26.366 8.9345C26.9652 9.87128 27.5532 10.8136 28.1358 11.7632C29.0235 13.2141 30.0011 14.6998 30.8998 16.2239C31.2618 16.835 31.6092 17.4516 31.9308 18.0718V18.0736C32.3572 18.886 32.7394 19.7094 33.0573 20.5419C34.1931 23.515 32.5042 25.7747 29.6685 26.8231Z" fill="#F9F9F9"/>
<path d="M14.7552 29.007C13.7242 29.0307 13.1104 29.0198 13.1104 29.0198C13.1104 29.0198 3.46025 28.7728 2.96405 24.8317C2.82254 23.7009 3.22134 21.6975 3.86272 19.4067C3.91234 19.2274 3.9638 19.0426 4.01893 18.8578V18.856C4.13471 18.459 4.256 18.0546 4.38464 17.6484C5.47076 17.685 6.96487 18.1534 9.02684 19.35C9.02684 19.35 9.73438 20.1313 10.7286 21.542C11.8864 23.1941 13.4301 25.7081 14.6945 28.8588L14.7552 29.007Z" fill="#EF4136"/>
<path d="M18.5117 19.6391C18.6348 19.5989 22.224 17.546 23.6262 18.0382C25.0284 18.5304 28.1637 20.1935 29.8121 19.5568C29.9702 19.4964 30.1429 18.1205 30.1429 18.1205C30.1429 18.1205 23.38 15.9451 23.1723 15.903C22.9646 15.8609 19.3369 17.9558 19.3369 17.9558L18.5117 19.6391Z" fill="#D6D6D6"/>
<path d="M29.6693 26.8247C28.9764 27.0808 28.2542 27.3095 27.5117 27.5145C27.962 24.576 28.8478 21.6559 29.6766 19.3469C29.7207 19.2243 29.7648 19.0999 29.8108 18.9828C29.8126 18.9809 29.8126 18.9809 29.8126 18.9809C30.2132 17.885 30.5937 16.9427 30.9006 16.2236C31.156 16.6573 31.4059 17.0927 31.6449 17.53C31.7423 17.7093 31.8378 17.8923 31.9315 18.0716V18.0734C32.0381 18.2783 32.1447 18.4851 32.2458 18.69C32.5454 19.3029 32.8192 19.9195 33.0581 20.5435C34.192 23.5148 32.5049 25.7745 29.6693 26.8247Z" fill="#EF4136"/>
<path d="M24.8445 20.9108C24.9676 20.9108 26.7208 20.2741 26.4948 21.7927C26.2688 23.3113 24.8868 24.0925 24.8868 24.0925C24.8868 24.0925 25.4234 23.476 24.9695 22.6764C24.5137 21.875 24.8445 20.9108 24.8445 20.9108Z" fill="#D6D6D6"/>
<path d="M26.8447 10.0726L26.909 10.0506C27.3538 9.89513 27.8463 10.0689 28.0926 10.4696L31.6431 16.2056C31.8876 16.6008 31.8251 17.1131 31.4924 17.4406C31.3289 17.6017 31.1819 17.7279 31.1341 17.7114C31.0091 17.6675 26.8447 10.0726 26.8447 10.0726Z" fill="#B20B1F"/>
<path d="M17.5651 20.254C17.5651 20.254 15.8211 18.4006 14.8011 19.9467C13.4614 21.9794 15.709 22.7588 15.709 22.7588L17.5651 20.254Z" fill="#D6D6D6"/>
<path d="M32.2469 18.69C32.1164 19.0266 31.8463 19.3779 31.2968 19.4767C30.5249 19.6139 30.0398 19.6432 29.584 19.6267C29.6281 19.5042 29.7659 19.1016 29.81 18.9827C29.8119 18.9809 29.8119 18.9809 29.8119 18.9809C30.3264 18.5381 31.4916 17.4385 31.4916 17.4385L31.6441 17.53C31.7415 17.7093 31.8371 17.8922 31.9308 18.0715V18.0734C32.0392 18.2783 32.1458 18.485 32.2469 18.69Z" fill="#D71627"/>
<path d="M10.7311 21.5438C10.6907 21.5163 10.6521 21.4852 10.608 21.445C9.55312 20.521 8.65813 20.4588 7.42131 20.4588C6.1845 20.4588 3.89464 19.4122 3.89464 19.4122L3.86523 19.4067C3.91485 19.2274 3.96631 19.0426 4.02144 18.8578V18.856C4.13722 18.459 4.25852 18.0546 4.38716 17.6484C5.47328 17.685 6.96738 18.1534 9.02936 19.35C9.02752 19.35 9.7369 20.1313 10.7311 21.5438Z" fill="#D71627"/>
<path d="M31.9333 18.0713V18.0732C31.676 18.6056 31.1816 19.1563 30.226 19.2478C26.9474 19.5552 25.0288 17.3376 22.6783 17.6469C20.3278 17.9542 18.2235 21.4031 12.8426 21.0336C8.52013 20.7372 4.75639 19.5259 3.44238 19.063V19.0612C4.20689 16.4429 5.24523 13.5265 6.13839 11.1607C7.10138 10.6319 9.90029 9.28898 12.6569 9.88728C14.5351 10.2971 16.0642 10.8844 17.5546 11.2504C18.762 11.5431 19.9474 11.6913 21.2761 11.4699C24.777 10.8881 24.7053 8.65592 26.3685 8.93403C26.488 9.11882 26.6056 9.30545 26.7232 9.4939C27.201 10.2459 27.6733 11.0015 28.1383 11.7627C29.3825 13.7936 30.8012 15.8959 31.9333 18.0713Z" fill="#FBB040"/>
<path d="M6.84177 10.625C6.84177 10.625 8.78061 11.2617 7.62466 14.6685C6.4687 18.0754 4.70996 19.1658 4.70996 19.1658L6.84177 10.625Z" fill="#EF8C20"/>
<path d="M6.61628 15.3476C6.02452 17.3694 5.21774 18.566 4.71235 19.168C4.45139 19.4772 4.03238 19.6034 3.64094 19.4955L2.56584 19.1991C2.41515 19.157 2.27915 19.0801 2.16705 18.9795C1.99062 18.8276 1.87301 18.6099 1.83993 18.3684C1.83441 18.3318 1.83074 18.2952 1.82706 18.255C1.7462 17.5213 1.78479 16.2478 2.40963 14.3303C3.16679 12.003 4.15183 10.9125 4.7583 10.4313C4.77851 10.4167 4.79505 10.4021 4.81527 10.3874C4.81527 10.3874 4.81527 10.3874 4.81711 10.3856C4.97883 10.2648 5.16812 10.1953 5.36109 10.1843C5.46032 10.1788 5.55956 10.1862 5.6588 10.2118C5.69188 10.2191 5.72496 10.2264 5.75804 10.2392L6.98751 10.671C6.98751 10.6674 7.54435 12.1768 6.61628 15.3476Z" fill="#B20B1F"/>
<path d="M4.40877 17.0912C3.5634 19.1203 2.79338 19.4039 2.1667 18.9775C1.99027 18.8257 1.87265 18.608 1.83958 18.3664C1.83406 18.3298 1.83039 18.2933 1.82671 18.253C1.75504 17.5211 1.88552 16.2751 2.40744 14.3284C3.15725 11.5272 4.14965 10.8813 4.75611 10.4294C4.77633 10.4147 4.79287 10.4001 4.81308 10.3855C4.81308 10.3855 4.81308 10.3855 4.81492 10.3836C4.97664 10.2629 5.16593 10.1934 5.3589 10.1824C5.45814 10.1769 5.55738 10.1842 5.65662 10.2098C5.68051 10.3818 5.69888 10.5447 5.71542 10.6361C5.94882 11.8529 5.70624 13.9753 4.40877 17.0912Z" fill="#D71627"/>
<path d="M2.99712 15.9563C2.85194 16.0624 2.66081 16.0898 2.4899 16.0368L1.24022 15.6434C1.21816 15.6361 1.19795 15.6288 1.17589 15.6196C1.17589 15.6196 1.17589 15.6196 1.17406 15.6196C1.03071 15.5519 0.920445 15.4312 0.868988 15.2811C0.756884 14.9518 0.62824 14.3828 0.832232 13.8375C1.01233 13.349 1.32292 13.0544 1.54712 12.8916C1.68496 12.7928 1.86138 12.7617 2.02494 12.8056C2.04148 12.8074 2.05802 12.8129 2.07272 12.8184L3.40327 13.2923C3.56867 13.3508 3.70099 13.4826 3.75428 13.6472C3.91233 14.1303 4.0814 15.175 2.99712 15.9563Z" fill="#FBB040"/>
<path d="M27.9576 14.8406C27.9576 16.2055 27.3769 17.0728 26.6583 17.0728C25.9397 17.0728 25.5759 16.2714 25.359 14.8406C25.155 13.4903 25.9397 12.6084 26.6583 12.6084C27.3769 12.6084 27.9576 13.4757 27.9576 14.8406Z" fill="#0B0B0B"/>
<path d="M9.88914 11.3515C9.90936 11.3076 9.92222 11.2875 9.93693 11.2582C9.95163 11.2308 9.96633 11.207 9.98103 11.1814C10.0104 11.132 10.0417 11.0844 10.0729 11.0405C10.1336 10.9472 10.2016 10.863 10.2714 10.7789C10.3431 10.6984 10.4129 10.6142 10.4901 10.541C10.5654 10.4623 10.6445 10.391 10.7272 10.3233C11.0543 10.0452 11.4218 9.82378 11.8096 9.64996C12.1992 9.48529 12.6072 9.3682 13.017 9.29867C13.2229 9.25842 13.4268 9.24927 13.6345 9.22365C13.8385 9.21451 14.0443 9.21268 14.2502 9.20719C14.5699 9.19987 14.8364 9.45236 14.8456 9.77072C14.853 10.0891 14.5993 10.3544 14.2796 10.3635C14.2704 10.3635 14.2612 10.3635 14.252 10.3635L14.2024 10.3617L13.686 10.3489C13.5169 10.3617 13.3441 10.3599 13.1787 10.3837C12.8424 10.4221 12.5171 10.4989 12.2066 10.6105C11.8997 10.7295 11.6093 10.8832 11.352 11.0808C11.2858 11.1283 11.2234 11.1796 11.1664 11.2344C11.1039 11.2857 11.0506 11.3461 10.9936 11.4028C10.9403 11.4613 10.8871 11.5217 10.8411 11.5821C10.8172 11.6132 10.7933 11.6443 10.7749 11.6736L10.7253 11.7486L10.6922 11.7998C10.5526 12.0121 10.2677 12.0706 10.0545 11.9334C9.8579 11.8053 9.79174 11.5546 9.88914 11.3515Z" fill="#EF4136"/>
<path d="M24.8645 37.9215L22.6078 40.1976L21.1229 39.4804L18.8018 38.3625C18.8018 38.3625 19.5442 32.449 19.75 32.0392C19.9577 31.6275 20.6579 31.4646 20.6579 31.4646C20.6579 31.4646 21.8561 30.9651 22.3431 31.1573C22.3597 31.1628 22.3762 31.1701 22.3909 31.1774C22.843 31.4244 23.0396 31.9166 23.0396 31.9166L24.8645 37.9215Z" fill="#FBB040"/>
<path d="M17.9474 47.6556C17.6166 48.6638 17.3318 49.7048 17.2197 50.5556C17.2068 50.6288 17.1995 50.7002 17.1921 50.7697C16.8999 51.0277 16.5636 51.1539 16.2346 51.0899C15.5051 50.9453 15.0971 49.9171 15.3194 48.7937C15.3544 48.6162 15.4077 48.4387 15.4775 48.2686C15.4848 48.2484 15.4922 48.232 15.4995 48.2118C15.5234 48.1533 15.5492 48.0966 15.5767 48.0398C15.5822 48.038 15.5841 48.0325 15.5841 48.0252C15.9388 47.3116 16.5324 46.7499 17.0543 46.7262C17.1113 46.7207 17.1682 46.7243 17.2252 46.7353C17.5891 46.8085 17.8298 47.1689 17.9474 47.6556Z" fill="#F9F9F9"/>
<path d="M18.0323 56.2309C18.0323 56.3608 18.0249 56.4871 18.0084 56.6024C17.9496 57.014 17.786 57.3196 17.4589 57.4531C14.9467 58.4796 12.7359 57.6508 11.4292 56.7268C10.8779 56.3206 10.4846 55.9162 10.3082 55.6381C10.2935 55.6143 10.2788 55.5887 10.2659 55.5668C10.0251 55.1185 9.99575 54.5696 10.0895 53.9658C10.1189 54.3061 10.1942 54.683 10.3596 55.0124C10.7511 55.79 11.6571 56.1285 12.4142 56.4487C13.9451 57.0982 16.0843 57.6142 17.571 56.5932C17.6611 56.531 17.9239 56.3663 18.0323 56.2309Z" fill="#FDFDFD"/>
<path d="M25.607 23.3611C25.5188 23.4873 25.4122 23.5971 25.2927 23.6941C23.1223 25.4268 20.3142 24.5357 17.9637 23.7709C16.9346 23.4343 15.6996 23.1287 15.1152 22.1206C15.0012 21.9211 14.9277 21.7016 14.902 21.471C14.8965 21.4271 14.8947 21.3795 14.8928 21.3356C14.8836 21.1161 14.9259 20.8965 15.0343 20.6806C15.2273 20.2909 15.5691 20.0055 15.9716 19.9414C16.1333 19.9122 16.3061 19.9213 16.4843 19.9707C17.8535 20.3604 19.4211 20.9002 20.9391 21.0447C22.1097 21.1582 24.0669 20.8654 25.0814 20.9715C25.3828 21.0008 25.6015 21.0703 25.6934 21.1929C26.1914 21.8662 26.0664 22.7042 25.607 23.3611Z" fill="#0B0B0B"/>
<path d="M14.8936 21.334C14.8954 21.3907 14.9027 21.4438 14.9083 21.4987C14.9064 21.4895 14.9046 21.4785 14.9027 21.4694C14.8972 21.4255 14.8954 21.3779 14.8936 21.334Z" fill="#0B0B0B"/>
<path d="M25.2935 23.6944C23.1139 25.4344 19.8298 24.8214 17.4389 23.8645C16.52 23.4968 15.6213 23.0064 15.1159 22.1209C15.002 21.9214 14.9285 21.7019 14.9027 21.4713C14.8972 21.4274 14.8954 21.3798 14.8936 21.3359C16.9151 21.3981 23.5182 21.7458 25.2935 23.6944Z" fill="#D71627"/>
<path d="M25.0795 20.9697C25.0722 21.063 25.063 21.1673 25.0465 21.2753C24.995 21.7162 24.8939 22.2139 24.6954 22.3108C24.3463 22.4865 19.1895 22.8323 16.4347 21.1801C16.227 21.0539 16.0855 20.8435 16.0561 20.6038L16.0046 20.2141L15.9697 19.9414C16.1314 19.9122 16.3042 19.9213 16.4825 19.9707C17.8516 20.3604 19.4192 20.9002 20.9372 21.0447C22.1079 21.1563 24.0651 20.8636 25.0795 20.9697Z" fill="white"/>
<path d="M25.9784 15.245C26.1945 15.245 26.3698 14.914 26.3698 14.5058C26.3698 14.0975 26.1945 13.7666 25.9784 13.7666C25.7622 13.7666 25.5869 14.0975 25.5869 14.5058C25.5869 14.914 25.7622 15.245 25.9784 15.245Z" fill="#FDFDFD"/>
<path d="M22.309 38.8696C22.1951 38.8696 22.0811 38.8495 21.9727 38.8074L21.4177 38.6043C21.2578 38.5458 21.1769 38.3701 21.2357 38.2128C21.2945 38.0536 21.471 37.9731 21.629 38.0316L22.1859 38.2347C22.1877 38.2347 22.1877 38.2365 22.1895 38.2365C22.2925 38.2768 22.4046 38.2622 22.4964 38.1999C22.5883 38.1377 22.6398 38.0371 22.6398 37.9273V36.5533C22.2428 37.0015 21.7117 37.6035 21.3442 38.0188C21.1751 38.2091 20.9325 38.3244 20.6771 38.3317C20.4216 38.3408 20.1717 38.242 19.9916 38.0609C19.6424 37.7133 19.6277 37.1552 19.9585 36.7911L21.7099 34.8517C22.037 34.4894 22.6012 34.4565 22.9669 34.7767C23.0937 34.8883 23.1066 35.0804 22.9945 35.2085C22.8824 35.3347 22.6894 35.3475 22.5608 35.2359C22.445 35.1353 22.2667 35.1462 22.1656 35.2597L20.4143 37.1991C20.3022 37.3217 20.3077 37.5102 20.4253 37.6273C20.4878 37.6895 20.5705 37.7224 20.6568 37.7187C20.7451 37.7151 20.8241 37.6785 20.8829 37.6126C21.5353 36.8734 22.706 35.5524 22.717 35.5378C22.8015 35.4427 22.9357 35.4097 23.0551 35.4536C23.1746 35.4975 23.2536 35.6128 23.2536 35.7391V37.9237C23.2536 38.2347 23.1011 38.5238 22.8438 38.6994C22.6857 38.8129 22.4983 38.8696 22.309 38.8696Z" fill="#D71627"/>
<path d="M24.6483 6.29784C22.6708 5.77272 22.5275 9.03318 20.5078 9.70283C18.466 10.3798 17.1667 9.27103 14.1987 7.48528C11.8207 6.05449 8.49062 7.58958 7.25748 8.25374C7.28505 8.18787 7.30894 8.12018 7.3365 8.05614C7.70957 7.11569 7.95583 6.52837 7.97421 6.47531C7.97421 6.47531 7.97237 6.47531 7.9687 6.47714C7.91724 6.49727 7.64525 6.59241 7.39164 6.15878C7.31445 6.02888 7.24094 5.84774 7.17662 5.60622C6.91014 4.62553 8.22415 2.16281 12.2194 0.763118C12.8682 0.53441 13.5886 0.334978 14.3825 0.173968C17.1097 -0.37493 19.8388 0.3734 21.8052 2.34028C22.1489 2.68609 22.4668 3.063 22.7646 3.45638C23.3049 4.16994 23.7864 4.95121 24.266 5.70503C24.3322 5.81298 24.402 5.91727 24.4682 6.02339C24.5325 6.11487 24.5895 6.20635 24.6483 6.29784Z" fill="#EF4136"/>
<path d="M12.2526 3.02062C9.31222 3.66649 7.97616 6.47501 7.97616 6.47501C7.92654 6.49514 7.47078 6.68359 7.17857 5.60776C6.9121 4.62706 8.2261 2.16434 12.2214 0.764648C14.0132 1.68314 12.2526 3.02062 12.2526 3.02062Z" fill="url(#paint3_radial_5557_15976)"/>
<path d="M11.8483 3.1543C8.87847 4.3637 7.97613 6.47513 7.97613 6.47513C7.97613 6.47513 7.97429 6.47513 7.97061 6.47696C7.91916 6.49708 7.64717 6.59223 7.39355 6.1586C9.91129 3.27505 11.8483 3.1543 11.8483 3.1543Z" fill="#D71627"/>
<path d="M24.6485 6.29793C22.671 5.77282 22.5277 9.03327 20.508 9.70292C18.4662 10.3799 17.1669 9.27113 14.1989 7.48538C12.012 6.16985 9.30681 7.14506 7.25586 8.2392C7.55358 8.08002 7.80535 7.82204 8.11593 7.66469C9.38951 7.01516 10.9498 6.21743 12.4218 6.32172C13.8148 6.41869 15.0553 7.092 16.1837 7.86229C16.7479 8.24835 17.279 8.70942 17.8653 9.06071C18.457 9.41567 19.2693 9.51264 19.942 9.38639C19.9695 9.3809 19.9989 9.37542 20.0265 9.36993C20.927 9.17049 21.5151 8.50633 21.9562 7.73787C22.1032 7.47989 22.2465 7.22008 22.3954 6.96393C23.0533 5.84052 23.7902 5.66853 24.2681 5.70695C24.3342 5.8149 24.4041 5.91919 24.4702 6.02531C24.5327 6.11496 24.5897 6.20645 24.6485 6.29793Z" fill="#D71627"/>
<path d="M2.99701 15.9563C2.85182 16.0625 2.6607 16.0899 2.48978 16.0368L1.2401 15.6435C1.21805 15.6361 1.19783 15.6288 1.17578 15.6197C1.89619 15.938 2.20493 13.887 2.19023 13.4534C2.18839 13.3637 2.14061 12.8221 2.02299 12.8057C2.03953 12.8075 2.05607 12.813 2.07077 12.8185L3.40132 13.2924C3.56672 13.3509 3.69903 13.4826 3.75233 13.6473C3.91222 14.1303 4.08129 15.1751 2.99701 15.9563Z" fill="#EF8C20"/>
<path d="M27.5794 40.5029C27.5096 40.717 27.4305 40.9201 27.3387 41.1122C26.0908 43.7286 22.4723 44.6764 19.1055 44.4879L19.111 44.4513C19.111 44.4495 25.8243 44.1202 27.5794 40.5029Z" fill="#D71627"/>
<path d="M15.5859 48.0246C15.9406 47.3111 16.5342 46.7494 17.0562 46.7256C17.0543 46.7256 16.0399 47.1757 15.5859 48.0246Z" fill="#D6D6D6"/>
<path d="M17.2216 50.5537C17.2088 50.6269 17.2014 50.6982 17.1941 50.7677C16.9019 51.0257 16.5656 51.152 16.2366 51.0879C15.507 50.9434 15.099 49.9151 15.3214 48.7917C15.3563 48.6142 15.4096 48.4368 15.4794 48.2666C15.3931 48.5026 15.3526 48.7643 15.3857 49.0497C15.5566 50.5592 16.0804 50.8354 16.2991 50.8354C16.459 50.8373 16.968 50.6506 17.2216 50.5537Z" fill="#D6D6D6"/>
<path d="M25.0795 20.9697C25.0722 21.063 25.063 21.1673 25.0465 21.2753C24.6164 21.3759 23.08 21.6595 20.4704 21.2807C17.6899 20.88 16.273 20.3275 16.0046 20.2141L15.9697 19.9414C16.1314 19.9122 16.3042 19.9213 16.4825 19.9707C17.8516 20.3604 19.4192 20.9002 20.9372 21.0447C22.1079 21.1563 24.0651 20.8636 25.0795 20.9697Z" fill="#D6D6D6"/>
<path d="M26.7213 9.49195C26.714 9.49012 26.7066 9.48646 26.6993 9.48463C25.5709 9.03087 24.7549 10.2275 24.0088 10.8239C22.704 11.8668 21.0757 12.6316 19.385 12.0882C18.7473 11.8833 18.1261 11.5961 17.5527 11.2484C18.7601 11.5412 19.9455 11.6894 21.2742 11.468C24.7752 10.8861 24.7035 8.65396 26.3667 8.93207C26.4861 9.1187 26.6056 9.30532 26.7213 9.49195Z" fill="#EF8C20"/>
<path d="M26.7947 11.0674C26.7506 10.9667 26.6826 10.8368 26.611 10.7289C26.5393 10.6154 26.4566 10.5112 26.3702 10.4087C26.1956 10.2074 25.9898 10.0391 25.7656 9.90919C25.5414 9.78112 25.3006 9.68232 25.0452 9.64023C24.9202 9.6073 24.7879 9.6073 24.6593 9.59449C24.5288 9.58717 24.3946 9.60181 24.2641 9.60181H24.2053C23.9848 9.60364 23.8065 9.42617 23.8047 9.20844C23.8029 8.98888 23.9811 8.8114 24.1998 8.80957C24.2053 8.80957 24.2127 8.80957 24.2182 8.80957C24.3854 8.81506 24.5508 8.8114 24.7162 8.8297C24.8835 8.85531 25.0489 8.86812 25.2124 8.91935C25.5414 8.9962 25.8538 9.1444 26.1332 9.32919C26.4143 9.51582 26.6588 9.74636 26.8591 10.008C26.9583 10.1397 27.0502 10.2751 27.1292 10.4178C27.2101 10.5642 27.2762 10.6996 27.3387 10.8771C27.392 11.0253 27.313 11.19 27.1641 11.2412C27.0208 11.2924 26.8646 11.2229 26.8058 11.0875L26.7947 11.0674Z" fill="#EF4136"/>
<path d="M23.6796 28.4805C23.6704 28.55 23.6593 28.6214 23.6502 28.6927C23.4884 29.7594 23.1981 31.0877 22.7 31.4427C21.9227 31.9952 20.7483 31.9879 20.0371 31.5927C20.2246 31.5763 22.4777 31.3768 22.6853 30.9908C22.9003 30.5901 22.8085 28.7732 22.8085 28.7732L23.6796 28.4805Z" fill="#EF8C20"/>
<path d="M24.8647 37.9215L22.608 40.1976L21.123 39.4803L22.5436 39.9835L24.2454 37.5208C24.2454 37.5208 22.823 32.4709 22.6374 32.0098C22.4518 31.5469 21.6174 31.6695 21.6174 31.6695C21.6174 31.6695 21.9592 31.4207 22.3433 31.1572C22.3599 31.1627 22.3764 31.17 22.3911 31.1774C22.8432 31.4244 23.0398 31.9165 23.0398 31.9165L24.8647 37.9215Z" fill="#EF8C20"/>
<path d="M14.7552 29.0074C13.7242 29.0312 13.1104 29.0203 13.1104 29.0203C13.1104 29.0203 3.46025 28.7733 2.96405 24.8322C2.82254 23.7014 3.22134 21.698 3.86272 19.4072C3.86272 19.4072 6.55321 21.4455 6.92444 22.5524C7.28648 23.6319 12.1033 27.5913 14.6963 28.8592L14.7552 29.0074Z" fill="#D71627"/>
<path d="M15.8306 32.0945C15.8031 32.1585 15.7718 32.2207 15.7369 32.2811C15.5495 32.6086 15.3344 32.8593 15.0919 32.9416C14.6471 33.0898 13.7484 32.969 12.5374 32.6653C11.2215 32.3378 9.53813 31.7981 7.66728 31.1559C6.48008 30.746 5.27267 29.9684 4.17736 29.0371C3.80429 28.7224 3.44225 28.3876 3.10411 28.0418C2.73471 27.674 2.38921 27.2953 2.07312 26.9165C0.93738 25.5662 0.165518 24.2233 0.0589273 23.3963C-0.176307 21.5758 0.261082 19.9254 2.17787 19.3491C2.2716 19.3198 2.37084 19.2923 2.47191 19.2704C3.27134 19.0874 3.98807 19.446 4.63496 20.0791C5.19732 20.6317 5.70822 21.3891 6.17685 22.1887C6.6271 22.9572 7.0406 23.7604 7.42102 24.4447C8.13775 25.7309 11.1002 27.3245 13.4618 28.4406C13.6878 28.5468 13.9065 28.6492 14.1197 28.7462C14.2924 28.823 14.4578 28.8962 14.6177 28.9676C15.8251 29.5055 16.3728 30.9217 15.8306 32.0945Z" fill="#EF4136"/>
<path d="M15.831 32.0942C15.8071 31.8472 15.5829 29.97 14.1182 28.7441C14.2909 28.821 14.4563 28.8942 14.6162 28.9655C15.8254 29.5053 16.3731 30.9214 15.831 32.0942Z" fill="#D71627"/>
<path d="M5.00579 25.7966C4.5004 26.5431 3.93253 26.9145 3.34629 27.0261C3.34629 27.0261 3.34445 27.0279 3.34445 27.0261C2.9236 27.1066 2.4954 27.0554 2.07271 26.9145C0.936975 25.5642 0.165113 24.2212 0.0585227 23.3942C-0.00579916 22.8874 -0.0205013 22.3934 0.0364695 21.9305C0.0456583 21.8518 0.0585227 21.775 0.0732248 21.6963C0.0879269 21.6085 0.106305 21.5188 0.130196 21.4328C0.139384 21.3889 0.152249 21.3468 0.165113 21.3048C0.187166 21.2206 0.216571 21.1364 0.24965 21.0541C0.264352 21.0138 0.28273 20.9736 0.29927 20.9333C0.354403 20.8108 0.415049 20.69 0.484884 20.5766C0.528991 20.507 0.573097 20.4412 0.622717 20.3753C0.729307 20.2326 0.852438 20.099 0.992108 19.9819C1.02151 19.9545 1.05459 19.927 1.08583 19.9032C1.12626 19.8703 1.16486 19.8392 1.20713 19.8118C1.24204 19.788 1.27696 19.7624 1.31188 19.7404C1.33393 19.7258 1.35599 19.7111 1.37804 19.6983C1.41847 19.6745 1.45706 19.6508 1.49749 19.6288C1.69965 19.5172 1.92569 19.4239 2.17747 19.3489C2.27119 19.3196 2.37043 19.2921 2.47151 19.2702C3.96561 18.9299 5.16935 20.4704 6.17645 22.1867C6.23893 23.1271 5.98899 24.342 5.00579 25.7966Z" fill="#F9F9F9"/>
<path d="M12.8389 32.7252C11.082 32.3062 9.37285 31.7427 7.6674 31.1553C6.48021 30.7455 5.27279 29.9679 4.17748 29.0366C3.80442 28.7219 3.44238 28.3871 3.10423 28.0413C2.73484 27.6735 2.38934 27.2948 2.07324 26.916C2.49593 27.0569 2.92413 27.1081 3.34498 27.0276C3.34498 27.0295 3.34681 27.0276 3.34681 27.0276C3.54529 27.1886 3.74561 27.346 3.94593 27.5033C4.68103 28.087 5.46025 28.6176 6.18249 29.2122C6.70625 29.6459 7.27412 30.0392 7.90447 30.2991C8.61018 30.59 9.33793 30.5698 10.0638 30.7546C11.1775 31.0364 12.0376 31.8963 12.8389 32.7252Z" fill="#D71627"/>
<path d="M3.34445 27.0259C2.9236 27.1064 2.4954 27.0552 2.07271 26.9143C0.936975 25.564 0.165113 24.221 0.0585227 23.394C-0.00579916 22.8872 -0.0205013 22.3932 0.0364695 21.9303C0.0456583 21.8516 0.0585227 21.7748 0.0732248 21.6961C0.0879269 21.6083 0.106305 21.5186 0.130196 21.4326C0.139384 21.3887 0.152249 21.3466 0.165113 21.3045C0.187166 21.2204 0.216571 21.1362 0.24965 21.0539C0.264352 21.0136 0.28273 20.9734 0.29927 20.9331C0.354403 20.8105 0.415049 20.6898 0.484884 20.5763C0.528991 20.5068 0.573097 20.4391 0.622717 20.3751C0.729307 20.2324 0.852438 20.0988 0.992108 19.9817C1.02151 19.9542 1.05459 19.9268 1.08583 19.903C1.12626 19.8701 1.16486 19.839 1.20713 19.8115C1.24204 19.7878 1.27696 19.7621 1.31188 19.7402C1.33393 19.7255 1.35599 19.7109 1.37804 19.6981C1.41847 19.6743 1.45706 19.6505 1.49749 19.6286C1.69965 19.517 1.92569 19.4236 2.17747 19.3486C0.771576 19.925 0.483047 21.4985 0.687039 22.8524C0.936975 24.501 1.76029 25.7323 3.0357 26.7789C3.13494 26.8612 3.2397 26.9454 3.34445 27.0259Z" fill="#D6D6D6"/>
<path d="M34.7926 29.604C34.6787 30.0651 33.7929 31.3367 33.35 31.9515C33.2948 32.0283 33.2452 32.0942 33.2066 32.1491C31.7364 32.3247 29.8987 31.6935 29.1525 31.0952C28.7868 30.7988 28.5975 30.4603 28.502 30.1657C28.6104 29.9663 28.728 29.7595 28.8456 29.5619C28.8456 29.5619 28.7611 28.7422 28.9467 28.1897C28.9963 28.0397 29.1819 27.7798 29.4558 27.5017C30.2037 26.7461 31.6115 25.8605 32.7196 26.7406C34.2376 27.9445 34.9488 28.9892 34.7926 29.604Z" fill="#F9F9F9"/>
<path d="M32.565 30.466C32.6293 31.2052 30.5086 31.7047 28.8454 29.5622C28.8454 29.5622 28.7608 28.7425 28.9465 28.1899C28.9961 28.0399 29.1817 27.7801 29.4555 27.502C29.4041 27.9118 29.4574 28.5522 30.2127 28.7736C31.3594 29.1121 32.5062 29.7268 32.565 30.466Z" fill="#D6D6D6"/>
<path d="M17.2968 16.9991C17.2968 16.9991 17.0689 14.7633 14.7257 15.1036C12.3844 15.4439 13.4246 15.5683 13.4246 15.5683C13.4246 15.5683 15.935 15.5519 17.2968 16.9991Z" fill="#EF8C20"/>
<path d="M11.7603 13.8435C12.2124 13.666 12.6921 13.538 13.1846 13.4922C13.6771 13.4447 14.1862 13.4922 14.6566 13.6496C15.1289 13.8033 15.5571 14.0649 15.9137 14.3888C16.2702 14.7181 16.5624 15.0895 16.7829 15.5268L16.7866 15.5323C16.8215 15.6018 16.794 15.686 16.7241 15.7208C16.6819 15.7409 16.6341 15.739 16.5955 15.7208C16.3566 15.6384 16.0938 15.5762 15.8402 15.5341C15.5829 15.492 15.3237 15.4701 15.0701 15.4719C14.5611 15.4737 14.063 15.578 13.6459 15.7994C13.4658 15.8946 13.2434 15.8269 13.1478 15.6476C13.0523 15.4683 13.1203 15.2469 13.3004 15.1517C13.3151 15.1444 13.3298 15.1371 13.3463 15.1316L13.3537 15.1298C13.9307 14.9212 14.5372 14.8901 15.105 14.9669C15.3899 15.0035 15.6656 15.0676 15.9357 15.1499C16.2059 15.2341 16.4613 15.3329 16.7186 15.4646L16.5312 15.6585C16.3088 15.2963 16.0019 14.9596 15.6601 14.6961C15.3182 14.4308 14.9268 14.2387 14.517 14.1418C14.313 14.0924 14.1035 14.0631 13.894 14.0613C13.6845 14.0558 13.475 14.0722 13.2673 14.1107C12.8519 14.1838 12.4458 14.3266 12.0599 14.5168C11.8779 14.6065 11.6574 14.5315 11.5673 14.3503C11.4773 14.1692 11.5526 13.9496 11.7346 13.86C11.7438 13.8563 11.753 13.8508 11.7622 13.8472L11.7603 13.8435Z" fill="#0B0B0B"/>
</g>
<defs>
<radialGradient id="paint0_radial_5557_15976" cx="0" cy="0" r="1" gradientUnits="userSpaceOnUse" gradientTransform="translate(20.2868 56.2413) scale(15.2213 3.69154)">
<stop/>
<stop offset="0.9589" stop-opacity="0.0411"/>
<stop offset="1" stop-opacity="0"/>
</radialGradient>
<radialGradient id="paint1_radial_5557_15976" cx="0" cy="0" r="1" gradientUnits="userSpaceOnUse" gradientTransform="translate(27.3071 54.5299) rotate(-8.73377) scale(7.31447 5.91948)">
<stop stop-color="#FBB040"/>
<stop offset="1" stop-color="#FBB040" stop-opacity="0"/>
</radialGradient>
<radialGradient id="paint2_radial_5557_15976" cx="0" cy="0" r="1" gradientUnits="userSpaceOnUse" gradientTransform="translate(14.4848 55.9244) rotate(11.4527) scale(14.2583 8.07898)">
<stop stop-color="#FBB040"/>
<stop offset="1" stop-color="#FBB040" stop-opacity="0"/>
</radialGradient>
<radialGradient id="paint3_radial_5557_15976" cx="0" cy="0" r="1" gradientUnits="userSpaceOnUse" gradientTransform="translate(6.37438 5.52032) scale(6.36722 6.33913)">
<stop stop-color="#FBB040"/>
<stop offset="1" stop-color="#FBB040" stop-opacity="0"/>
</radialGradient>
<clipPath id="clip0_5557_15976">
<rect width="36" height="60" fill="white"/>
</clipPath>
</defs>
</svg>
