<svg width="300" height="141" viewBox="0 0 300 141" fill="none" xmlns="http://www.w3.org/2000/svg">
<rect width="300" height="124" rx="10" fill="url(#paint0_linear_1988_27564)"/>
<g clip-path="url(#clip0_1988_27564)">
<path d="M248.473 84.5119C241.455 84.5119 235.766 78.7771 235.766 71.703C235.766 64.6288 241.455 58.894 248.473 58.894C255.491 58.894 261.18 64.6288 261.18 71.703C261.18 78.7771 255.491 84.5119 248.473 84.5119Z" fill="#E6E6E6"/>
<path d="M251.906 90.4074L248.78 92.3599V79.1621L252.284 76.9736C252.574 76.7927 252.785 76.5086 252.877 76.1778V76.1778C252.542 76.1134 252.196 76.178 251.906 76.359L248.78 78.3114V73.1937C248.78 72.2036 248.66 71.2173 248.422 70.2568C248.184 71.2173 248.063 72.2036 248.063 73.1937V81.5468L243.452 78.6663C243.084 78.4363 242.658 78.3179 242.224 78.325C242.411 78.7192 242.706 79.051 243.074 79.281L248.063 82.3974V113.609H248.78V93.2106L252.284 91.0221C252.574 90.8412 252.785 90.5572 252.877 90.2263V90.2263C252.542 90.1619 252.196 90.2265 251.906 90.4074Z" fill="#CCCCCC"/>
<path d="M267.293 85.5998C260.276 85.5998 254.587 79.865 254.587 72.7909C254.587 65.7167 260.276 59.9819 267.293 59.9819C274.311 59.9819 280 65.7167 280 72.7909C280 79.865 274.311 85.5998 267.293 85.5998Z" fill="#E6E6E6"/>
<path d="M263.86 91.4949L266.986 93.4473V80.2495L263.483 78.061C263.193 77.8801 262.981 77.5961 262.89 77.2652V77.2652C263.224 77.2008 263.571 77.2654 263.86 77.4464L266.986 79.3988V74.2811C266.986 73.291 267.107 72.3047 267.345 71.3442C267.583 72.3047 267.703 73.291 267.703 74.2811V82.6342L272.315 79.7538C272.683 79.5238 273.109 79.4053 273.542 79.4124C273.356 79.8066 273.061 80.1384 272.692 80.3684L267.703 83.4848V113.678H266.986V94.298L263.483 92.1095C263.193 91.9286 262.981 91.6446 262.89 91.3137V91.3137C263.224 91.2493 263.571 91.3139 263.86 91.4949V91.4949Z" fill="#CCCCCC"/>
<path d="M258.063 68.1075C245.98 68.1075 236.185 58.2337 236.185 46.0537C236.185 33.8738 245.98 24 258.063 24C270.145 24 279.94 33.8738 279.94 46.0537C279.94 58.2337 270.145 68.1075 258.063 68.1075Z" fill="#E6E6E6"/>
<path d="M252.152 78.2582L257.534 81.6199V58.8965L251.502 55.1285C251.003 54.817 250.638 54.328 250.48 53.7584L250.48 53.7584H250.48C251.057 53.6474 251.653 53.7587 252.152 54.0703L257.534 57.4319V48.6205C257.534 46.9159 257.741 45.2177 258.151 43.564C258.561 45.2177 258.769 46.9159 258.769 48.6205V63.0024L266.708 58.043C267.342 57.647 268.076 57.443 268.821 57.4553C268.5 58.1339 267.993 58.7053 267.359 59.1013L258.769 64.467V113.727H257.534V83.0845L251.502 79.3165C251.003 79.005 250.638 78.516 250.48 77.9464L250.48 77.9464H250.48C251.057 77.8354 251.653 77.9467 252.152 78.2582V78.2582Z" fill="#CCCCCC"/>
<path d="M168 113.609H271.274V113.873H168V113.609Z" fill="#3F3D56"/>
<path d="M194.597 63.7884L199.723 66.7715L196.763 71.9384L191.638 68.9553L194.597 63.7884Z" fill="#FF6584"/>
<path d="M194.532 73.0154L197.622 67.6202L192.27 64.5054L189.18 69.9006L194.532 73.0154ZM197.265 67.7168L194.436 72.6554L189.537 69.8041L192.366 64.8654L197.265 67.7168Z" fill="#2F2E41"/>
<path d="M199.327 87.513C197.955 87.513 196.843 86.392 196.843 85.0092C196.843 83.6264 197.955 82.5054 199.327 82.5054C200.699 82.5054 201.811 83.6264 201.811 85.0092C201.811 86.392 200.699 87.513 199.327 87.513Z" fill="#D0CDE1"/>
<path d="M197.497 87.6447C198.014 87.6447 198.519 87.4901 198.949 87.2005C199.379 86.9109 199.714 86.4993 199.912 86.0177C200.11 85.5361 200.162 85.0062 200.061 84.4949C199.96 83.9837 199.711 83.5141 199.346 83.1455C198.98 82.7769 198.514 82.5259 198.007 82.4242C197.5 82.3225 196.974 82.3747 196.496 82.5742C196.018 82.7736 195.61 83.1114 195.323 83.5449C195.036 83.9783 194.882 84.4878 194.882 85.0091C194.882 85.7081 195.158 86.3785 195.648 86.8727C196.138 87.367 196.803 87.6447 197.497 87.6447V87.6447ZM197.497 82.6371C197.962 82.6371 198.417 82.7762 198.804 83.0369C199.191 83.2975 199.493 83.6679 199.671 84.1014C199.849 84.5348 199.895 85.0117 199.805 85.4719C199.714 85.932 199.49 86.3546 199.161 86.6864C198.832 87.0181 198.412 87.244 197.956 87.3355C197.499 87.4271 197.026 87.3801 196.596 87.2006C196.166 87.021 195.799 86.717 195.54 86.3269C195.282 85.9368 195.144 85.4782 195.144 85.0091C195.144 84.38 195.392 83.7767 195.833 83.3318C196.274 82.887 196.873 82.6371 197.497 82.6371V82.6371Z" fill="#2F2E41"/>
<path d="M183.658 114.209H207.712C208.007 114.209 208.289 114.09 208.497 113.88C208.706 113.67 208.823 113.386 208.823 113.089V90.5547C208.823 90.2577 208.706 89.973 208.497 89.763C208.289 89.553 208.007 89.4349 207.712 89.4346H183.658C183.364 89.4349 183.081 89.553 182.873 89.763C182.665 89.973 182.547 90.2577 182.547 90.5547V113.089C182.547 113.386 182.665 113.67 182.873 113.88C183.081 114.09 183.364 114.209 183.658 114.209V114.209Z" fill="#FCFCFC"/>
<path d="M193.986 115H197.385C197.68 115 197.962 114.882 198.17 114.672C198.379 114.462 198.496 114.177 198.496 113.88V89.8853C198.496 89.5883 198.379 89.3036 198.17 89.0936C197.962 88.8836 197.68 88.7655 197.385 88.7651H193.986C193.691 88.7655 193.409 88.8836 193.201 89.0936C192.992 89.3036 192.875 89.5883 192.875 89.8853V113.88C192.875 114.177 192.992 114.462 193.201 114.672C193.409 114.882 193.691 115 193.986 115V115Z" fill="#3F3D56"/>
<path d="M177.267 87.204C177.408 89.5286 180.523 91.2288 180.523 91.2288C180.523 91.2288 183.41 89.1599 183.269 86.8353C183.129 84.5107 180.014 82.8105 180.014 82.8105C180.014 82.8105 177.127 84.8794 177.267 87.204Z" fill="#3F3D56"/>
<path d="M177.126 94.4566C179.433 94.3222 181.129 91.1874 181.129 91.1874C181.129 91.1874 179.086 88.2705 176.779 88.4049C174.473 88.5393 172.776 91.6741 172.776 91.6741C172.776 91.6741 174.82 94.591 177.126 94.4566Z" fill="#3F3D56"/>
<path opacity="0.1" d="M182.612 92.1914V100.794L191.101 89.5005H184.635L182.612 92.1914Z" fill="black"/>
<path d="M175.407 106.917C175.578 106.917 175.748 106.877 175.902 106.8C176.056 106.724 176.19 106.612 176.294 106.474L193.978 82.9458C194.066 82.8285 194.13 82.695 194.167 82.5526C194.204 82.4103 194.213 82.2621 194.193 82.1164C194.173 81.9707 194.125 81.8303 194.051 81.7034C193.977 81.5764 193.879 81.4654 193.763 81.3765L191.158 79.387C191.042 79.2982 190.909 79.2333 190.768 79.1961C190.627 79.1589 190.48 79.1501 190.335 79.1702C190.191 79.1903 190.051 79.2389 189.926 79.3132C189.8 79.3876 189.689 79.4862 189.601 79.6035L171.917 103.131C171.829 103.248 171.765 103.382 171.728 103.524C171.691 103.667 171.682 103.815 171.702 103.961C171.722 104.106 171.77 104.247 171.844 104.374C171.918 104.501 172.016 104.612 172.132 104.7L174.737 106.69C174.93 106.837 175.165 106.917 175.407 106.917V106.917Z" fill="#FCFCFC"/>
<path d="M182.484 88.6346L186.965 92.0566L183.57 96.5731L179.09 93.1511L182.484 88.6346Z" fill="#3F3D56"/>
<path d="M205.533 71.4236L207.064 77.1865L201.348 78.7307L199.816 72.9678L205.533 71.4236Z" fill="#D0CDE1"/>
<path d="M203.773 79.5923L209.742 77.9799L208.143 71.9624L202.173 73.5748L203.773 79.5923ZM209.422 77.7936L203.958 79.2695L202.493 73.7611L207.958 72.2852L209.422 77.7936Z" fill="#2F2E41"/>
<path d="M228.919 93.5789C228.762 93.4272 228.639 93.2426 228.561 93.0382C228.482 92.8338 228.449 92.6144 228.463 92.3956C228.478 92.1768 228.54 91.9639 228.645 91.7719C228.75 91.5798 228.895 91.4133 229.071 91.2841L231.472 71.7769L234.573 72.7065L231.225 91.6903C231.421 92.0023 231.496 92.3759 231.437 92.7402C231.378 93.1046 231.188 93.4344 230.904 93.6672C230.62 93.9 230.26 94.0195 229.895 94.0033C229.529 93.987 229.181 93.836 228.919 93.5789Z" fill="#FFB8B8"/>
<path d="M226.043 112.224H224.229L223.365 105.171H226.043V112.224Z" fill="#FFB8B8"/>
<path d="M220.73 113.922H226.432V111.702H222.732C222.201 111.702 221.692 111.914 221.317 112.293C220.941 112.671 220.73 113.184 220.73 113.719V113.922V113.922Z" fill="#2F2E41"/>
<path d="M238.588 109.376L236.888 110.014L233.639 103.706L236.148 102.765L238.588 109.376Z" fill="#FFB8B8"/>
<path d="M234.196 112.834L239.54 110.831L238.772 108.75L235.304 110.05C234.807 110.236 234.403 110.615 234.182 111.101C233.961 111.588 233.941 112.143 234.126 112.644L234.196 112.834L234.196 112.834Z" fill="#2F2E41"/>
<path d="M229.297 66.7128C227.403 66.7128 225.867 65.1647 225.867 63.2551C225.867 61.3454 227.403 59.7974 229.297 59.7974C231.192 59.7974 232.728 61.3454 232.728 63.2551C232.728 65.1647 231.192 66.7128 229.297 66.7128Z" fill="#FFB8B8"/>
<path d="M234.663 72.1295C234.77 68.9446 231.45 66.7352 228.656 68.2264C228.3 68.4164 224.625 71.564 224.486 73.5187C224.348 75.4735 224.071 78.6848 224.071 78.6848L220.192 107.866L228.503 107.447L227.499 98.9347L232.901 107.591L239.445 105.493L231.412 82.1754C231.412 82.1754 234.5 76.956 234.663 72.1295Z" fill="#2F2E41"/>
<path d="M234.598 73.2383L234.064 80.2316C234.059 80.3046 234.026 80.3729 233.973 80.4226C233.919 80.4724 233.849 80.5 233.777 80.5H231.429C231.381 80.5 231.334 80.4882 231.292 80.4657C231.251 80.4431 231.215 80.4105 231.189 80.3707C231.162 80.3309 231.146 80.2852 231.141 80.2376C231.137 80.19 231.144 80.142 231.162 80.0978L234.044 73.1045C234.07 73.0406 234.118 72.9883 234.179 72.9569C234.241 72.9256 234.311 72.9172 234.377 72.9333C234.444 72.9494 234.503 72.989 234.543 73.0449C234.584 73.1008 234.603 73.1694 234.598 73.2383V73.2383Z" fill="#2F2E41"/>
<path d="M222.539 92.3672C222.401 92.198 222.301 92.0003 222.246 91.788C222.192 91.5756 222.184 91.3539 222.224 91.1383C222.264 90.9227 222.35 90.7186 222.477 90.5402C222.603 90.3619 222.767 90.2137 222.957 90.1061L227.606 71.0161L230.578 72.3053L225.049 90.7636C225.207 91.0966 225.239 91.4765 225.137 91.8313C225.036 92.1862 224.81 92.4913 224.5 92.689C224.191 92.8867 223.821 92.9631 223.459 92.9037C223.098 92.8444 222.77 92.6535 222.539 92.3672V92.3672Z" fill="#FFB8B8"/>
<path d="M230.165 69.3302C230.165 69.3302 231.134 71.285 230.165 74.7756C229.195 78.2662 228.503 81.1983 228.503 81.1983C228.503 81.1983 226.286 79.802 225.317 80.2209C224.347 80.6398 226.851 70.9159 226.851 70.9159C226.851 70.9159 228.364 67.6547 230.165 69.3302Z" fill="#2F2E41"/>
<path d="M228.493 63.795C228.446 63.0775 227.548 63.053 226.835 63.0462C226.122 63.0394 225.269 63.065 224.866 62.4722C224.599 62.0804 224.65 61.5365 224.87 61.1165C225.091 60.6965 225.453 60.3734 225.81 60.0626C226.73 59.2602 227.679 58.4642 228.784 57.9507C229.889 57.4371 231.184 57.2296 232.33 57.6418C233.738 58.1483 235.641 60.7552 235.806 62.253C235.97 63.7508 235.376 65.2776 234.375 66.3969C233.374 67.5161 231.083 67.0645 229.642 67.4627C230.518 66.2122 229.94 63.9399 228.536 63.356L228.493 63.795Z" fill="#2F2E41"/>
</g>
<rect x="20.5" y="92.5" width="79" height="21" rx="5.5" fill="white"/>
<path d="M47.556 107L44.508 103.268V107H42.828V98.624H44.508V102.38L47.556 98.624H49.584L46.128 102.776L49.68 107H47.556ZM52.465 98.12V107H50.785V98.12H52.465ZM53.6929 103.652C53.6929 102.98 53.8249 102.384 54.0889 101.864C54.3609 101.344 54.7249 100.944 55.1809 100.664C55.6449 100.384 56.1609 100.244 56.7289 100.244C57.2249 100.244 57.6569 100.344 58.0249 100.544C58.4009 100.744 58.7009 100.996 58.9249 101.3V100.352H60.6169V107H58.9249V106.028C58.7089 106.34 58.4089 106.6 58.0249 106.808C57.6489 107.008 57.2129 107.108 56.7169 107.108C56.1569 107.108 55.6449 106.964 55.1809 106.676C54.7249 106.388 54.3609 105.984 54.0889 105.464C53.8249 104.936 53.6929 104.332 53.6929 103.652ZM58.9249 103.676C58.9249 103.268 58.8449 102.92 58.6849 102.632C58.5249 102.336 58.3089 102.112 58.0369 101.96C57.7649 101.8 57.4729 101.72 57.1609 101.72C56.8489 101.72 56.5609 101.796 56.2969 101.948C56.0329 102.1 55.8169 102.324 55.6489 102.62C55.4889 102.908 55.4089 103.252 55.4089 103.652C55.4089 104.052 55.4889 104.404 55.6489 104.708C55.8169 105.004 56.0329 105.232 56.2969 105.392C56.5689 105.552 56.8569 105.632 57.1609 105.632C57.4729 105.632 57.7649 105.556 58.0369 105.404C58.3089 105.244 58.5249 105.02 58.6849 104.732C58.8449 104.436 58.9249 104.084 58.9249 103.676ZM63.1097 99.56C62.8137 99.56 62.5657 99.468 62.3657 99.284C62.1737 99.092 62.0777 98.856 62.0777 98.576C62.0777 98.296 62.1737 98.064 62.3657 97.88C62.5657 97.688 62.8137 97.592 63.1097 97.592C63.4057 97.592 63.6497 97.688 63.8417 97.88C64.0417 98.064 64.1417 98.296 64.1417 98.576C64.1417 98.856 64.0417 99.092 63.8417 99.284C63.6497 99.468 63.4057 99.56 63.1097 99.56ZM63.9377 100.352V107H62.2577V100.352H63.9377ZM73.8535 100.256C74.6695 100.256 75.3255 100.508 75.8215 101.012C76.3255 101.508 76.5775 102.204 76.5775 103.1V107H74.8975V103.328C74.8975 102.808 74.7655 102.412 74.5015 102.14C74.2375 101.86 73.8775 101.72 73.4215 101.72C72.9655 101.72 72.6015 101.86 72.3295 102.14C72.0655 102.412 71.9335 102.808 71.9335 103.328V107H70.2535V103.328C70.2535 102.808 70.1215 102.412 69.8575 102.14C69.5935 101.86 69.2335 101.72 68.7775 101.72C68.3135 101.72 67.9455 101.86 67.6735 102.14C67.4095 102.412 67.2775 102.808 67.2775 103.328V107H65.5975V100.352H67.2775V101.156C67.4935 100.876 67.7695 100.656 68.1055 100.496C68.4495 100.336 68.8255 100.256 69.2335 100.256C69.7535 100.256 70.2175 100.368 70.6255 100.592C71.0335 100.808 71.3495 101.12 71.5735 101.528C71.7895 101.144 72.1015 100.836 72.5095 100.604C72.9255 100.372 73.3735 100.256 73.8535 100.256Z" fill="#EF4C29"/>
<rect x="20.5" y="92.5" width="79" height="21" rx="5.5" stroke="#EF4C29"/>
<path d="M25.868 51.14H22.22L21.548 53H20.396L23.42 44.684H24.68L27.692 53H26.54L25.868 51.14ZM25.556 50.252L24.044 46.028L22.532 50.252H25.556ZM34.6739 46.424L30.7139 56.096H29.5859L30.8819 52.928L28.2299 46.424H29.4419L31.5059 51.752L33.5459 46.424H34.6739ZM38.6397 53.108C38.0237 53.108 37.4637 52.968 36.9597 52.688C36.4637 52.408 36.0717 52.012 35.7837 51.5C35.5037 50.98 35.3637 50.38 35.3637 49.7C35.3637 49.028 35.5077 48.436 35.7957 47.924C36.0917 47.404 36.4917 47.008 36.9957 46.736C37.4997 46.456 38.0637 46.316 38.6877 46.316C39.3117 46.316 39.8757 46.456 40.3797 46.736C40.8837 47.008 41.2797 47.4 41.5677 47.912C41.8637 48.424 42.0117 49.02 42.0117 49.7C42.0117 50.38 41.8597 50.98 41.5557 51.5C41.2597 52.012 40.8557 52.408 40.3437 52.688C39.8317 52.968 39.2637 53.108 38.6397 53.108ZM38.6397 52.148C39.0317 52.148 39.3997 52.056 39.7437 51.872C40.0877 51.688 40.3637 51.412 40.5717 51.044C40.7877 50.676 40.8957 50.228 40.8957 49.7C40.8957 49.172 40.7917 48.724 40.5837 48.356C40.3757 47.988 40.1037 47.716 39.7677 47.54C39.4317 47.356 39.0677 47.264 38.6757 47.264C38.2757 47.264 37.9077 47.356 37.5717 47.54C37.2437 47.716 36.9797 47.988 36.7797 48.356C36.5797 48.724 36.4797 49.172 36.4797 49.7C36.4797 50.236 36.5757 50.688 36.7677 51.056C36.9677 51.424 37.2317 51.7 37.5597 51.884C37.8877 52.06 38.2477 52.148 38.6397 52.148ZM47.1194 53L44.5394 50.096V53H43.4474V44.12H44.5394V49.34L47.0714 46.424H48.5954L45.4994 49.7L48.6074 53H47.1194ZM55.5344 46.316C56.1024 46.316 56.5984 46.44 57.0224 46.688C57.4544 46.936 57.7744 47.248 57.9824 47.624V46.424H59.0864V53.144C59.0864 53.744 58.9584 54.276 58.7024 54.74C58.4464 55.212 58.0784 55.58 57.5984 55.844C57.1264 56.108 56.5744 56.24 55.9424 56.24C55.0784 56.24 54.3584 56.036 53.7824 55.628C53.2064 55.22 52.8664 54.664 52.7624 53.96H53.8424C53.9624 54.36 54.2104 54.68 54.5864 54.92C54.9624 55.168 55.4144 55.292 55.9424 55.292C56.5424 55.292 57.0304 55.104 57.4064 54.728C57.7904 54.352 57.9824 53.824 57.9824 53.144V51.764C57.7664 52.148 57.4464 52.468 57.0224 52.724C56.5984 52.98 56.1024 53.108 55.5344 53.108C54.9504 53.108 54.4184 52.964 53.9384 52.676C53.4664 52.388 53.0944 51.984 52.8224 51.464C52.5504 50.944 52.4144 50.352 52.4144 49.688C52.4144 49.016 52.5504 48.428 52.8224 47.924C53.0944 47.412 53.4664 47.016 53.9384 46.736C54.4184 46.456 54.9504 46.316 55.5344 46.316ZM57.9824 49.7C57.9824 49.204 57.8824 48.772 57.6824 48.404C57.4824 48.036 57.2104 47.756 56.8664 47.564C56.5304 47.364 56.1584 47.264 55.7504 47.264C55.3424 47.264 54.9704 47.36 54.6344 47.552C54.2984 47.744 54.0304 48.024 53.8304 48.392C53.6304 48.76 53.5304 49.192 53.5304 49.688C53.5304 50.192 53.6304 50.632 53.8304 51.008C54.0304 51.376 54.2984 51.66 54.6344 51.86C54.9704 52.052 55.3424 52.148 55.7504 52.148C56.1584 52.148 56.5304 52.052 56.8664 51.86C57.2104 51.66 57.4824 51.376 57.6824 51.008C57.8824 50.632 57.9824 50.196 57.9824 49.7ZM60.5238 49.688C60.5238 49.016 60.6598 48.428 60.9318 47.924C61.2038 47.412 61.5758 47.016 62.0478 46.736C62.5278 46.456 63.0598 46.316 63.6438 46.316C64.2198 46.316 64.7198 46.44 65.1438 46.688C65.5678 46.936 65.8838 47.248 66.0918 47.624V46.424H67.1958V53H66.0918V51.776C65.8758 52.16 65.5518 52.48 65.1198 52.736C64.6958 52.984 64.1998 53.108 63.6318 53.108C63.0478 53.108 62.5198 52.964 62.0478 52.676C61.5758 52.388 61.2038 51.984 60.9318 51.464C60.6598 50.944 60.5238 50.352 60.5238 49.688ZM66.0918 49.7C66.0918 49.204 65.9918 48.772 65.7918 48.404C65.5918 48.036 65.3198 47.756 64.9758 47.564C64.6398 47.364 64.2678 47.264 63.8598 47.264C63.4518 47.264 63.0798 47.36 62.7438 47.552C62.4078 47.744 62.1398 48.024 61.9398 48.392C61.7398 48.76 61.6398 49.192 61.6398 49.688C61.6398 50.192 61.7398 50.632 61.9398 51.008C62.1398 51.376 62.4078 51.66 62.7438 51.86C63.0798 52.052 63.4518 52.148 63.8598 52.148C64.2678 52.148 64.6398 52.052 64.9758 51.86C65.3198 51.66 65.5918 51.376 65.7918 51.008C65.9918 50.632 66.0918 50.196 66.0918 49.7ZM70.1332 47.648C70.3572 47.256 70.6852 46.936 71.1172 46.688C71.5492 46.44 72.0412 46.316 72.5932 46.316C73.1852 46.316 73.7172 46.456 74.1892 46.736C74.6612 47.016 75.0332 47.412 75.3052 47.924C75.5772 48.428 75.7132 49.016 75.7132 49.688C75.7132 50.352 75.5772 50.944 75.3052 51.464C75.0332 51.984 74.6572 52.388 74.1772 52.676C73.7052 52.964 73.1772 53.108 72.5932 53.108C72.0252 53.108 71.5252 52.984 71.0932 52.736C70.6692 52.488 70.3492 52.172 70.1332 51.788V53H69.0412V44.12H70.1332V47.648ZM74.5972 49.688C74.5972 49.192 74.4972 48.76 74.2972 48.392C74.0972 48.024 73.8252 47.744 73.4812 47.552C73.1452 47.36 72.7732 47.264 72.3652 47.264C71.9652 47.264 71.5932 47.364 71.2492 47.564C70.9132 47.756 70.6412 48.04 70.4332 48.416C70.2332 48.784 70.1332 49.212 70.1332 49.7C70.1332 50.196 70.2332 50.632 70.4332 51.008C70.6412 51.376 70.9132 51.66 71.2492 51.86C71.5932 52.052 71.9652 52.148 72.3652 52.148C72.7732 52.148 73.1452 52.052 73.4812 51.86C73.8252 51.66 74.0972 51.376 74.2972 51.008C74.4972 50.632 74.5972 50.192 74.5972 49.688ZM82.9826 46.424V53H81.8906V52.028C81.6826 52.364 81.3906 52.628 81.0146 52.82C80.6466 53.004 80.2386 53.096 79.7906 53.096C79.2786 53.096 78.8186 52.992 78.4106 52.784C78.0026 52.568 77.6786 52.248 77.4386 51.824C77.2066 51.4 77.0906 50.884 77.0906 50.276V46.424H78.1706V50.132C78.1706 50.78 78.3346 51.28 78.6626 51.632C78.9906 51.976 79.4386 52.148 80.0066 52.148C80.5906 52.148 81.0506 51.968 81.3866 51.608C81.7226 51.248 81.8906 50.724 81.8906 50.036V46.424H82.9826ZM88.0303 46.304C88.8303 46.304 89.4783 46.548 89.9743 47.036C90.4703 47.516 90.7183 48.212 90.7183 49.124V53H89.6383V49.28C89.6383 48.624 89.4743 48.124 89.1463 47.78C88.8183 47.428 88.3703 47.252 87.8023 47.252C87.2263 47.252 86.7663 47.432 86.4223 47.792C86.0863 48.152 85.9183 48.676 85.9183 49.364V53H84.8263V46.424H85.9183V47.36C86.1343 47.024 86.4263 46.764 86.7943 46.58C87.1703 46.396 87.5823 46.304 88.0303 46.304ZM95.2141 46.316C95.7821 46.316 96.2781 46.44 96.7021 46.688C97.1341 46.936 97.4541 47.248 97.6621 47.624V46.424H98.7661V53.144C98.7661 53.744 98.6381 54.276 98.3821 54.74C98.1261 55.212 97.7581 55.58 97.2781 55.844C96.8061 56.108 96.2541 56.24 95.6221 56.24C94.7581 56.24 94.0381 56.036 93.4621 55.628C92.8861 55.22 92.5461 54.664 92.4421 53.96H93.5221C93.6421 54.36 93.8901 54.68 94.2661 54.92C94.6421 55.168 95.0941 55.292 95.6221 55.292C96.2221 55.292 96.7101 55.104 97.0861 54.728C97.4701 54.352 97.6621 53.824 97.6621 53.144V51.764C97.4461 52.148 97.1261 52.468 96.7021 52.724C96.2781 52.98 95.7821 53.108 95.2141 53.108C94.6301 53.108 94.0981 52.964 93.6181 52.676C93.1461 52.388 92.7741 51.984 92.5021 51.464C92.2301 50.944 92.0941 50.352 92.0941 49.688C92.0941 49.016 92.2301 48.428 92.5021 47.924C92.7741 47.412 93.1461 47.016 93.6181 46.736C94.0981 46.456 94.6301 46.316 95.2141 46.316ZM97.6621 49.7C97.6621 49.204 97.5621 48.772 97.3621 48.404C97.1621 48.036 96.8901 47.756 96.5461 47.564C96.2101 47.364 95.8381 47.264 95.4301 47.264C95.0221 47.264 94.6501 47.36 94.3141 47.552C93.9781 47.744 93.7101 48.024 93.5101 48.392C93.3101 48.76 93.2101 49.192 93.2101 49.688C93.2101 50.192 93.3101 50.632 93.5101 51.008C93.7101 51.376 93.9781 51.66 94.3141 51.86C94.6501 52.052 95.0221 52.148 95.4301 52.148C95.8381 52.148 96.2101 52.052 96.5461 51.86C96.8901 51.66 97.1621 51.376 97.3621 51.008C97.5621 50.632 97.6621 50.196 97.6621 49.7ZM104.399 45.356C104.191 45.356 104.015 45.284 103.871 45.14C103.735 44.996 103.667 44.82 103.667 44.612C103.667 44.404 103.735 44.228 103.871 44.084C104.015 43.94 104.191 43.868 104.399 43.868C104.607 43.868 104.779 43.94 104.915 44.084C105.059 44.228 105.131 44.404 105.131 44.612C105.131 44.82 105.059 44.996 104.915 45.14C104.779 45.284 104.607 45.356 104.399 45.356ZM104.939 54.428C104.939 55.012 104.791 55.44 104.495 55.712C104.199 55.984 103.767 56.12 103.199 56.12H102.563V55.196H103.019C103.323 55.196 103.535 55.136 103.655 55.016C103.783 54.896 103.847 54.692 103.847 54.404V46.424H104.939V54.428ZM106.379 49.688C106.379 49.016 106.515 48.428 106.787 47.924C107.059 47.412 107.431 47.016 107.903 46.736C108.383 46.456 108.915 46.316 109.499 46.316C110.075 46.316 110.575 46.44 110.999 46.688C111.423 46.936 111.739 47.248 111.947 47.624V46.424H113.051V53H111.947V51.776C111.731 52.16 111.407 52.48 110.975 52.736C110.551 52.984 110.055 53.108 109.487 53.108C108.903 53.108 108.375 52.964 107.903 52.676C107.431 52.388 107.059 51.984 106.787 51.464C106.515 50.944 106.379 50.352 106.379 49.688ZM111.947 49.7C111.947 49.204 111.847 48.772 111.647 48.404C111.447 48.036 111.175 47.756 110.831 47.564C110.495 47.364 110.123 47.264 109.715 47.264C109.307 47.264 108.935 47.36 108.599 47.552C108.263 47.744 107.995 48.024 107.795 48.392C107.595 48.76 107.495 49.192 107.495 49.688C107.495 50.192 107.595 50.632 107.795 51.008C107.995 51.376 108.263 51.66 108.599 51.86C108.935 52.052 109.307 52.148 109.715 52.148C110.123 52.148 110.495 52.052 110.831 51.86C111.175 51.66 111.447 51.376 111.647 51.008C111.847 50.632 111.947 50.196 111.947 49.7ZM114.489 49.688C114.489 49.016 114.625 48.428 114.897 47.924C115.169 47.412 115.541 47.016 116.013 46.736C116.493 46.456 117.029 46.316 117.621 46.316C118.133 46.316 118.609 46.436 119.049 46.676C119.489 46.908 119.825 47.216 120.057 47.6V44.12H121.161V53H120.057V51.764C119.841 52.156 119.521 52.48 119.097 52.736C118.673 52.984 118.177 53.108 117.609 53.108C117.025 53.108 116.493 52.964 116.013 52.676C115.541 52.388 115.169 51.984 114.897 51.464C114.625 50.944 114.489 50.352 114.489 49.688ZM120.057 49.7C120.057 49.204 119.957 48.772 119.757 48.404C119.557 48.036 119.285 47.756 118.941 47.564C118.605 47.364 118.233 47.264 117.825 47.264C117.417 47.264 117.045 47.36 116.709 47.552C116.373 47.744 116.105 48.024 115.905 48.392C115.705 48.76 115.605 49.192 115.605 49.688C115.605 50.192 115.705 50.632 115.905 51.008C116.105 51.376 116.373 51.66 116.709 51.86C117.045 52.052 117.417 52.148 117.825 52.148C118.233 52.148 118.605 52.052 118.941 51.86C119.285 51.66 119.557 51.376 119.757 51.008C119.957 50.632 120.057 50.196 120.057 49.7ZM123.57 45.356C123.362 45.356 123.186 45.284 123.042 45.14C122.898 44.996 122.826 44.82 122.826 44.612C122.826 44.404 122.898 44.228 123.042 44.084C123.186 43.94 123.362 43.868 123.57 43.868C123.77 43.868 123.938 43.94 124.074 44.084C124.218 44.228 124.29 44.404 124.29 44.612C124.29 44.82 124.218 44.996 124.074 45.14C123.938 45.284 123.77 45.356 123.57 45.356ZM124.098 46.424V53H123.006V46.424H124.098ZM130.25 47.492C130.442 47.116 130.714 46.824 131.066 46.616C131.426 46.408 131.862 46.304 132.374 46.304V47.432H132.086C130.862 47.432 130.25 48.096 130.25 49.424V53H129.158V46.424H130.25V47.492ZM139.635 49.46C139.635 49.668 139.623 49.888 139.599 50.12H134.343C134.383 50.768 134.603 51.276 135.003 51.644C135.411 52.004 135.903 52.184 136.479 52.184C136.951 52.184 137.343 52.076 137.655 51.86C137.975 51.636 138.199 51.34 138.327 50.972H139.503C139.327 51.604 138.975 52.12 138.447 52.52C137.919 52.912 137.263 53.108 136.479 53.108C135.855 53.108 135.295 52.968 134.799 52.688C134.311 52.408 133.927 52.012 133.647 51.5C133.367 50.98 133.227 50.38 133.227 49.7C133.227 49.02 133.363 48.424 133.635 47.912C133.907 47.4 134.287 47.008 134.775 46.736C135.271 46.456 135.839 46.316 136.479 46.316C137.103 46.316 137.655 46.452 138.135 46.724C138.615 46.996 138.983 47.372 139.239 47.852C139.503 48.324 139.635 48.86 139.635 49.46ZM138.507 49.232C138.507 48.816 138.415 48.46 138.231 48.164C138.047 47.86 137.795 47.632 137.475 47.48C137.163 47.32 136.815 47.24 136.431 47.24C135.879 47.24 135.407 47.416 135.015 47.768C134.631 48.12 134.411 48.608 134.355 49.232H138.507ZM143.404 53.108C142.9 53.108 142.448 53.024 142.048 52.856C141.648 52.68 141.332 52.44 141.1 52.136C140.868 51.824 140.74 51.468 140.716 51.068H141.844C141.876 51.396 142.028 51.664 142.3 51.872C142.58 52.08 142.944 52.184 143.392 52.184C143.808 52.184 144.136 52.092 144.376 51.908C144.616 51.724 144.736 51.492 144.736 51.212C144.736 50.924 144.608 50.712 144.352 50.576C144.096 50.432 143.7 50.292 143.164 50.156C142.676 50.028 142.276 49.9 141.964 49.772C141.66 49.636 141.396 49.44 141.172 49.184C140.956 48.92 140.848 48.576 140.848 48.152C140.848 47.816 140.948 47.508 141.148 47.228C141.348 46.948 141.632 46.728 142 46.568C142.368 46.4 142.788 46.316 143.26 46.316C143.988 46.316 144.576 46.5 145.024 46.868C145.472 47.236 145.712 47.74 145.744 48.38H144.652C144.628 48.036 144.488 47.76 144.232 47.552C143.984 47.344 143.648 47.24 143.224 47.24C142.832 47.24 142.52 47.324 142.288 47.492C142.056 47.66 141.94 47.88 141.94 48.152C141.94 48.368 142.008 48.548 142.144 48.692C142.288 48.828 142.464 48.94 142.672 49.028C142.888 49.108 143.184 49.2 143.56 49.304C144.032 49.432 144.416 49.56 144.712 49.688C145.008 49.808 145.26 49.992 145.468 50.24C145.684 50.488 145.796 50.812 145.804 51.212C145.804 51.572 145.704 51.896 145.504 52.184C145.304 52.472 145.02 52.7 144.652 52.868C144.292 53.028 143.876 53.108 143.404 53.108ZM153.346 49.46C153.346 49.668 153.334 49.888 153.31 50.12H148.054C148.094 50.768 148.314 51.276 148.714 51.644C149.122 52.004 149.614 52.184 150.19 52.184C150.662 52.184 151.054 52.076 151.366 51.86C151.686 51.636 151.91 51.34 152.038 50.972H153.214C153.038 51.604 152.686 52.12 152.158 52.52C151.63 52.912 150.974 53.108 150.19 53.108C149.566 53.108 149.006 52.968 148.51 52.688C148.022 52.408 147.638 52.012 147.358 51.5C147.078 50.98 146.938 50.38 146.938 49.7C146.938 49.02 147.074 48.424 147.346 47.912C147.618 47.4 147.998 47.008 148.486 46.736C148.982 46.456 149.55 46.316 150.19 46.316C150.814 46.316 151.366 46.452 151.846 46.724C152.326 46.996 152.694 47.372 152.95 47.852C153.214 48.324 153.346 48.86 153.346 49.46ZM152.218 49.232C152.218 48.816 152.126 48.46 151.942 48.164C151.758 47.86 151.506 47.632 151.186 47.48C150.874 47.32 150.526 47.24 150.142 47.24C149.59 47.24 149.118 47.416 148.726 47.768C148.342 48.12 148.122 48.608 148.066 49.232H152.218ZM154.379 49.688C154.379 49.016 154.515 48.428 154.787 47.924C155.059 47.412 155.431 47.016 155.903 46.736C156.383 46.456 156.915 46.316 157.499 46.316C158.075 46.316 158.575 46.44 158.999 46.688C159.423 46.936 159.739 47.248 159.947 47.624V46.424H161.051V53H159.947V51.776C159.731 52.16 159.407 52.48 158.975 52.736C158.551 52.984 158.055 53.108 157.487 53.108C156.903 53.108 156.375 52.964 155.903 52.676C155.431 52.388 155.059 51.984 154.787 51.464C154.515 50.944 154.379 50.352 154.379 49.688ZM159.947 49.7C159.947 49.204 159.847 48.772 159.647 48.404C159.447 48.036 159.175 47.756 158.831 47.564C158.495 47.364 158.123 47.264 157.715 47.264C157.307 47.264 156.935 47.36 156.599 47.552C156.263 47.744 155.995 48.024 155.795 48.392C155.595 48.76 155.495 49.192 155.495 49.688C155.495 50.192 155.595 50.632 155.795 51.008C155.995 51.376 156.263 51.66 156.599 51.86C156.935 52.052 157.307 52.148 157.715 52.148C158.123 52.148 158.495 52.052 158.831 51.86C159.175 51.66 159.447 51.376 159.647 51.008C159.847 50.632 159.947 50.196 159.947 49.7ZM163.989 47.492C164.181 47.116 164.453 46.824 164.805 46.616C165.165 46.408 165.601 46.304 166.113 46.304V47.432H165.825C164.601 47.432 163.989 48.096 163.989 49.424V53H162.897V46.424H163.989V47.492ZM166.965 49.7C166.965 49.02 167.101 48.428 167.373 47.924C167.645 47.412 168.021 47.016 168.501 46.736C168.989 46.456 169.545 46.316 170.169 46.316C170.977 46.316 171.641 46.512 172.161 46.904C172.689 47.296 173.037 47.84 173.205 48.536H172.029C171.917 48.136 171.697 47.82 171.369 47.588C171.049 47.356 170.649 47.24 170.169 47.24C169.545 47.24 169.041 47.456 168.657 47.888C168.273 48.312 168.081 48.916 168.081 49.7C168.081 50.492 168.273 51.104 168.657 51.536C169.041 51.968 169.545 52.184 170.169 52.184C170.649 52.184 171.049 52.072 171.369 51.848C171.689 51.624 171.909 51.304 172.029 50.888H173.205C173.029 51.56 172.677 52.1 172.149 52.508C171.621 52.908 170.961 53.108 170.169 53.108C169.545 53.108 168.989 52.968 168.501 52.688C168.021 52.408 167.645 52.012 167.373 51.5C167.101 50.988 166.965 50.388 166.965 49.7ZM177.926 46.304C178.422 46.304 178.87 46.412 179.27 46.628C179.67 46.836 179.982 47.152 180.206 47.576C180.438 48 180.554 48.516 180.554 49.124V53H179.474V49.28C179.474 48.624 179.31 48.124 178.982 47.78C178.654 47.428 178.206 47.252 177.638 47.252C177.062 47.252 176.602 47.432 176.258 47.792C175.922 48.152 175.754 48.676 175.754 49.364V53H174.662V44.12H175.754V47.36C175.97 47.024 176.266 46.764 176.642 46.58C177.026 46.396 177.454 46.304 177.926 46.304ZM188.338 49.46C188.338 49.668 188.326 49.888 188.302 50.12H183.046C183.086 50.768 183.306 51.276 183.706 51.644C184.114 52.004 184.606 52.184 185.182 52.184C185.654 52.184 186.046 52.076 186.358 51.86C186.678 51.636 186.902 51.34 187.03 50.972H188.206C188.03 51.604 187.678 52.12 187.15 52.52C186.622 52.912 185.966 53.108 185.182 53.108C184.558 53.108 183.998 52.968 183.502 52.688C183.014 52.408 182.63 52.012 182.35 51.5C182.07 50.98 181.93 50.38 181.93 49.7C181.93 49.02 182.066 48.424 182.338 47.912C182.61 47.4 182.99 47.008 183.478 46.736C183.974 46.456 184.542 46.316 185.182 46.316C185.806 46.316 186.358 46.452 186.838 46.724C187.318 46.996 187.686 47.372 187.942 47.852C188.206 48.324 188.338 48.86 188.338 49.46ZM187.21 49.232C187.21 48.816 187.118 48.46 186.934 48.164C186.75 47.86 186.498 47.632 186.178 47.48C185.866 47.32 185.518 47.24 185.134 47.24C184.582 47.24 184.11 47.416 183.718 47.768C183.334 48.12 183.114 48.608 183.058 49.232H187.21ZM190.871 47.492C191.063 47.116 191.335 46.824 191.687 46.616C192.047 46.408 192.483 46.304 192.995 46.304V47.432H192.707C191.483 47.432 190.871 48.096 190.871 49.424V53H189.779V46.424H190.871V47.492ZM20.516 65.688C20.516 65.016 20.652 64.428 20.924 63.924C21.196 63.412 21.568 63.016 22.04 62.736C22.52 62.456 23.056 62.316 23.648 62.316C24.16 62.316 24.636 62.436 25.076 62.676C25.516 62.908 25.852 63.216 26.084 63.6V60.12H27.188V69H26.084V67.764C25.868 68.156 25.548 68.48 25.124 68.736C24.7 68.984 24.204 69.108 23.636 69.108C23.052 69.108 22.52 68.964 22.04 68.676C21.568 68.388 21.196 67.984 20.924 67.464C20.652 66.944 20.516 66.352 20.516 65.688ZM26.084 65.7C26.084 65.204 25.984 64.772 25.784 64.404C25.584 64.036 25.312 63.756 24.968 63.564C24.632 63.364 24.26 63.264 23.852 63.264C23.444 63.264 23.072 63.36 22.736 63.552C22.4 63.744 22.132 64.024 21.932 64.392C21.732 64.76 21.632 65.192 21.632 65.688C21.632 66.192 21.732 66.632 21.932 67.008C22.132 67.376 22.4 67.66 22.736 67.86C23.072 68.052 23.444 68.148 23.852 68.148C24.26 68.148 24.632 68.052 24.968 67.86C25.312 67.66 25.584 67.376 25.784 67.008C25.984 66.632 26.084 66.196 26.084 65.7ZM28.6254 65.688C28.6254 65.016 28.7614 64.428 29.0334 63.924C29.3054 63.412 29.6774 63.016 30.1494 62.736C30.6294 62.456 31.1614 62.316 31.7454 62.316C32.3214 62.316 32.8214 62.44 33.2454 62.688C33.6694 62.936 33.9854 63.248 34.1934 63.624V62.424H35.2974V69H34.1934V67.776C33.9774 68.16 33.6534 68.48 33.2214 68.736C32.7974 68.984 32.3014 69.108 31.7334 69.108C31.1494 69.108 30.6214 68.964 30.1494 68.676C29.6774 68.388 29.3054 67.984 29.0334 67.464C28.7614 66.944 28.6254 66.352 28.6254 65.688ZM34.1934 65.7C34.1934 65.204 34.0934 64.772 33.8934 64.404C33.6934 64.036 33.4214 63.756 33.0774 63.564C32.7414 63.364 32.3694 63.264 31.9614 63.264C31.5534 63.264 31.1814 63.36 30.8454 63.552C30.5094 63.744 30.2414 64.024 30.0414 64.392C29.8414 64.76 29.7414 65.192 29.7414 65.688C29.7414 66.192 29.8414 66.632 30.0414 67.008C30.2414 67.376 30.5094 67.66 30.8454 67.86C31.1814 68.052 31.5534 68.148 31.9614 68.148C32.3694 68.148 32.7414 68.052 33.0774 67.86C33.4214 67.66 33.6934 67.376 33.8934 67.008C34.0934 66.632 34.1934 66.196 34.1934 65.7ZM38.2348 63.636C38.4508 63.26 38.7708 62.948 39.1948 62.7C39.6268 62.444 40.1268 62.316 40.6948 62.316C41.2788 62.316 41.8068 62.456 42.2787 62.736C42.7587 63.016 43.1348 63.412 43.4068 63.924C43.6788 64.428 43.8148 65.016 43.8148 65.688C43.8148 66.352 43.6788 66.944 43.4068 67.464C43.1348 67.984 42.7587 68.388 42.2787 68.676C41.8068 68.964 41.2788 69.108 40.6948 69.108C40.1348 69.108 39.6388 68.984 39.2068 68.736C38.7828 68.48 38.4588 68.164 38.2348 67.788V72.12H37.1428V62.424H38.2348V63.636ZM42.6988 65.688C42.6988 65.192 42.5988 64.76 42.3988 64.392C42.1988 64.024 41.9268 63.744 41.5828 63.552C41.2468 63.36 40.8748 63.264 40.4668 63.264C40.0668 63.264 39.6948 63.364 39.3508 63.564C39.0148 63.756 38.7428 64.04 38.5348 64.416C38.3348 64.784 38.2348 65.212 38.2348 65.7C38.2348 66.196 38.3348 66.632 38.5348 67.008C38.7428 67.376 39.0148 67.66 39.3508 67.86C39.6948 68.052 40.0668 68.148 40.4668 68.148C40.8748 68.148 41.2468 68.052 41.5828 67.86C41.9268 67.66 42.1988 67.376 42.3988 67.008C42.5988 66.632 42.6988 66.192 42.6988 65.688ZM44.8441 65.688C44.8441 65.016 44.9801 64.428 45.2521 63.924C45.5241 63.412 45.8961 63.016 46.3681 62.736C46.8481 62.456 47.3801 62.316 47.9641 62.316C48.5401 62.316 49.0401 62.44 49.4641 62.688C49.8881 62.936 50.2041 63.248 50.4121 63.624V62.424H51.5161V69H50.4121V67.776C50.1961 68.16 49.8721 68.48 49.4401 68.736C49.0161 68.984 48.5201 69.108 47.9521 69.108C47.3681 69.108 46.8401 68.964 46.3681 68.676C45.8961 68.388 45.5241 67.984 45.2521 67.464C44.9801 66.944 44.8441 66.352 44.8441 65.688ZM50.4121 65.7C50.4121 65.204 50.3121 64.772 50.1121 64.404C49.9121 64.036 49.6401 63.756 49.2961 63.564C48.9601 63.364 48.5881 63.264 48.1801 63.264C47.7721 63.264 47.4001 63.36 47.0641 63.552C46.7281 63.744 46.4601 64.024 46.2601 64.392C46.0601 64.76 45.9601 65.192 45.9601 65.688C45.9601 66.192 46.0601 66.632 46.2601 67.008C46.4601 67.376 46.7281 67.66 47.0641 67.86C47.4001 68.052 47.7721 68.148 48.1801 68.148C48.5881 68.148 48.9601 68.052 49.2961 67.86C49.6401 67.66 49.9121 67.376 50.1121 67.008C50.3121 66.632 50.4121 66.196 50.4121 65.7ZM54.6935 63.324V67.2C54.6935 67.52 54.7615 67.748 54.8975 67.884C55.0335 68.012 55.2695 68.076 55.6055 68.076H56.4095V69H55.4255C54.8175 69 54.3615 68.86 54.0575 68.58C53.7535 68.3 53.6015 67.84 53.6015 67.2V63.324H52.7495V62.424H53.6015V60.768H54.6935V62.424H56.4095V63.324H54.6935ZM61.4046 69L58.8246 66.096V69H57.7326V60.12H58.8246V65.34L61.3566 62.424H62.8806L59.7846 65.7L62.8926 69H61.4046ZM63.5004 65.688C63.5004 65.016 63.6364 64.428 63.9084 63.924C64.1804 63.412 64.5524 63.016 65.0244 62.736C65.5044 62.456 66.0364 62.316 66.6204 62.316C67.1964 62.316 67.6964 62.44 68.1204 62.688C68.5444 62.936 68.8604 63.248 69.0684 63.624V62.424H70.1724V69H69.0684V67.776C68.8524 68.16 68.5284 68.48 68.0964 68.736C67.6724 68.984 67.1764 69.108 66.6084 69.108C66.0244 69.108 65.4964 68.964 65.0244 68.676C64.5524 68.388 64.1804 67.984 63.9084 67.464C63.6364 66.944 63.5004 66.352 63.5004 65.688ZM69.0684 65.7C69.0684 65.204 68.9684 64.772 68.7684 64.404C68.5684 64.036 68.2964 63.756 67.9524 63.564C67.6164 63.364 67.2444 63.264 66.8364 63.264C66.4284 63.264 66.0564 63.36 65.7204 63.552C65.3844 63.744 65.1164 64.024 64.9164 64.392C64.7164 64.76 64.6164 65.192 64.6164 65.688C64.6164 66.192 64.7164 66.632 64.9164 67.008C65.1164 67.376 65.3844 67.66 65.7204 67.86C66.0564 68.052 66.4284 68.148 66.8364 68.148C67.2444 68.148 67.6164 68.052 67.9524 67.86C68.2964 67.66 68.5684 67.376 68.7684 67.008C68.9684 66.632 69.0684 66.196 69.0684 65.7ZM75.2218 62.304C76.0218 62.304 76.6698 62.548 77.1658 63.036C77.6618 63.516 77.9098 64.212 77.9098 65.124V69H76.8298V65.28C76.8298 64.624 76.6658 64.124 76.3378 63.78C76.0098 63.428 75.5618 63.252 74.9938 63.252C74.4178 63.252 73.9578 63.432 73.6138 63.792C73.2778 64.152 73.1098 64.676 73.1098 65.364V69H72.0178V62.424H73.1098V63.36C73.3258 63.024 73.6178 62.764 73.9858 62.58C74.3618 62.396 74.7738 62.304 75.2218 62.304ZM82.4848 65.688C82.4848 65.016 82.6208 64.428 82.8928 63.924C83.1648 63.412 83.5368 63.016 84.0088 62.736C84.4888 62.456 85.0248 62.316 85.6168 62.316C86.1288 62.316 86.6048 62.436 87.0448 62.676C87.4848 62.908 87.8208 63.216 88.0528 63.6V60.12H89.1568V69H88.0528V67.764C87.8368 68.156 87.5168 68.48 87.0928 68.736C86.6688 68.984 86.1728 69.108 85.6048 69.108C85.0208 69.108 84.4888 68.964 84.0088 68.676C83.5368 68.388 83.1648 67.984 82.8928 67.464C82.6208 66.944 82.4848 66.352 82.4848 65.688ZM88.0528 65.7C88.0528 65.204 87.9528 64.772 87.7528 64.404C87.5528 64.036 87.2808 63.756 86.9368 63.564C86.6008 63.364 86.2288 63.264 85.8208 63.264C85.4128 63.264 85.0408 63.36 84.7048 63.552C84.3688 63.744 84.1008 64.024 83.9008 64.392C83.7008 64.76 83.6008 65.192 83.6008 65.688C83.6008 66.192 83.7008 66.632 83.9008 67.008C84.1008 67.376 84.3688 67.66 84.7048 67.86C85.0408 68.052 85.4128 68.148 85.8208 68.148C86.2288 68.148 86.6008 68.052 86.9368 67.86C87.2808 67.66 87.5528 67.376 87.7528 67.008C87.9528 66.632 88.0528 66.196 88.0528 65.7ZM91.5661 61.356C91.3581 61.356 91.1821 61.284 91.0381 61.14C90.8941 60.996 90.8221 60.82 90.8221 60.612C90.8221 60.404 90.8941 60.228 91.0381 60.084C91.1821 59.94 91.3581 59.868 91.5661 59.868C91.7661 59.868 91.9341 59.94 92.0701 60.084C92.2141 60.228 92.2861 60.404 92.2861 60.612C92.2861 60.82 92.2141 60.996 92.0701 61.14C91.9341 61.284 91.7661 61.356 91.5661 61.356ZM92.0941 62.424V69H91.0021V62.424H92.0941ZM96.2833 69.108C95.7793 69.108 95.3273 69.024 94.9273 68.856C94.5273 68.68 94.2113 68.44 93.9793 68.136C93.7473 67.824 93.6193 67.468 93.5953 67.068H94.7233C94.7553 67.396 94.9073 67.664 95.1793 67.872C95.4593 68.08 95.8233 68.184 96.2713 68.184C96.6873 68.184 97.0153 68.092 97.2553 67.908C97.4953 67.724 97.6153 67.492 97.6153 67.212C97.6153 66.924 97.4873 66.712 97.2313 66.576C96.9753 66.432 96.5793 66.292 96.0433 66.156C95.5553 66.028 95.1553 65.9 94.8433 65.772C94.5393 65.636 94.2753 65.44 94.0513 65.184C93.8353 64.92 93.7273 64.576 93.7273 64.152C93.7273 63.816 93.8273 63.508 94.0273 63.228C94.2273 62.948 94.5113 62.728 94.8793 62.568C95.2473 62.4 95.6673 62.316 96.1393 62.316C96.8673 62.316 97.4553 62.5 97.9033 62.868C98.3513 63.236 98.5913 63.74 98.6233 64.38H97.5313C97.5073 64.036 97.3673 63.76 97.1113 63.552C96.8633 63.344 96.5273 63.24 96.1033 63.24C95.7113 63.24 95.3993 63.324 95.1673 63.492C94.9353 63.66 94.8193 63.88 94.8193 64.152C94.8193 64.368 94.8873 64.548 95.0233 64.692C95.1673 64.828 95.3433 64.94 95.5513 65.028C95.7673 65.108 96.0633 65.2 96.4393 65.304C96.9113 65.432 97.2953 65.56 97.5913 65.688C97.8873 65.808 98.1393 65.992 98.3473 66.24C98.5633 66.488 98.6753 66.812 98.6833 67.212C98.6833 67.572 98.5833 67.896 98.3833 68.184C98.1833 68.472 97.8993 68.7 97.5313 68.868C97.1713 69.028 96.7553 69.108 96.2833 69.108ZM103.897 69L101.317 66.096V69H100.225V60.12H101.317V65.34L103.849 62.424H105.373L102.277 65.7L105.385 69H103.897ZM109.269 69.108C108.653 69.108 108.093 68.968 107.589 68.688C107.093 68.408 106.701 68.012 106.413 67.5C106.133 66.98 105.993 66.38 105.993 65.7C105.993 65.028 106.137 64.436 106.425 63.924C106.721 63.404 107.121 63.008 107.625 62.736C108.129 62.456 108.693 62.316 109.317 62.316C109.941 62.316 110.505 62.456 111.009 62.736C111.513 63.008 111.909 63.4 112.197 63.912C112.493 64.424 112.641 65.02 112.641 65.7C112.641 66.38 112.489 66.98 112.185 67.5C111.889 68.012 111.485 68.408 110.973 68.688C110.461 68.968 109.893 69.108 109.269 69.108ZM109.269 68.148C109.661 68.148 110.029 68.056 110.373 67.872C110.717 67.688 110.993 67.412 111.201 67.044C111.417 66.676 111.525 66.228 111.525 65.7C111.525 65.172 111.421 64.724 111.213 64.356C111.005 63.988 110.733 63.716 110.397 63.54C110.061 63.356 109.697 63.264 109.305 63.264C108.905 63.264 108.537 63.356 108.201 63.54C107.873 63.716 107.609 63.988 107.409 64.356C107.209 64.724 107.109 65.172 107.109 65.7C107.109 66.236 107.205 66.688 107.397 67.056C107.597 67.424 107.861 67.7 108.189 67.884C108.517 68.06 108.877 68.148 109.269 68.148ZM117.28 62.304C118.08 62.304 118.728 62.548 119.224 63.036C119.72 63.516 119.968 64.212 119.968 65.124V69H118.888V65.28C118.888 64.624 118.724 64.124 118.396 63.78C118.068 63.428 117.62 63.252 117.052 63.252C116.476 63.252 116.016 63.432 115.672 63.792C115.336 64.152 115.168 64.676 115.168 65.364V69H114.076V62.424H115.168V63.36C115.384 63.024 115.676 62.764 116.044 62.58C116.42 62.396 116.832 62.304 117.28 62.304ZM124.483 61.32V60.324H126.739V69H125.635V61.32H124.483ZM128.615 64.572C128.615 63.196 128.839 62.124 129.287 61.356C129.735 60.58 130.519 60.192 131.639 60.192C132.751 60.192 133.531 60.58 133.979 61.356C134.427 62.124 134.651 63.196 134.651 64.572C134.651 65.972 134.427 67.06 133.979 67.836C133.531 68.612 132.751 69 131.639 69C130.519 69 129.735 68.612 129.287 67.836C128.839 67.06 128.615 65.972 128.615 64.572ZM133.571 64.572C133.571 63.876 133.523 63.288 133.427 62.808C133.339 62.32 133.151 61.928 132.863 61.632C132.583 61.336 132.175 61.188 131.639 61.188C131.095 61.188 130.679 61.336 130.391 61.632C130.111 61.928 129.923 62.32 129.827 62.808C129.739 63.288 129.695 63.876 129.695 64.572C129.695 65.292 129.739 65.896 129.827 66.384C129.923 66.872 130.111 67.264 130.391 67.56C130.679 67.856 131.095 68.004 131.639 68.004C132.175 68.004 132.583 67.856 132.863 67.56C133.151 67.264 133.339 66.872 133.427 66.384C133.523 65.896 133.571 65.292 133.571 64.572ZM135.91 62.28C135.91 61.736 136.074 61.304 136.402 60.984C136.73 60.656 137.15 60.492 137.662 60.492C138.174 60.492 138.594 60.656 138.922 60.984C139.25 61.304 139.414 61.736 139.414 62.28C139.414 62.832 139.25 63.272 138.922 63.6C138.594 63.92 138.174 64.08 137.662 64.08C137.15 64.08 136.73 63.92 136.402 63.6C136.074 63.272 135.91 62.832 135.91 62.28ZM142.918 60.624L138.058 69H136.978L141.838 60.624H142.918ZM137.662 61.164C137.39 61.164 137.174 61.26 137.014 61.452C136.862 61.636 136.786 61.912 136.786 62.28C136.786 62.648 136.862 62.928 137.014 63.12C137.174 63.312 137.39 63.408 137.662 63.408C137.934 63.408 138.15 63.312 138.31 63.12C138.47 62.92 138.55 62.64 138.55 62.28C138.55 61.912 138.47 61.636 138.31 61.452C138.15 61.26 137.934 61.164 137.662 61.164ZM140.506 67.344C140.506 66.792 140.67 66.356 140.998 66.036C141.326 65.708 141.746 65.544 142.258 65.544C142.77 65.544 143.186 65.708 143.506 66.036C143.834 66.356 143.998 66.792 143.998 67.344C143.998 67.888 143.834 68.324 143.506 68.652C143.186 68.98 142.77 69.144 142.258 69.144C141.746 69.144 141.326 68.984 140.998 68.664C140.67 68.336 140.506 67.896 140.506 67.344ZM142.246 66.228C141.974 66.228 141.758 66.324 141.598 66.516C141.438 66.7 141.358 66.976 141.358 67.344C141.358 67.704 141.438 67.98 141.598 68.172C141.758 68.356 141.974 68.448 142.246 68.448C142.518 68.448 142.734 68.356 142.894 68.172C143.054 67.98 143.134 67.704 143.134 67.344C143.134 66.976 143.054 66.7 142.894 66.516C142.734 66.324 142.518 66.228 142.246 66.228Z" fill="white"/>
<path d="M21.8778 82.4545L21.9489 81.3551L21.0284 81.9716L20.6477 81.3011L21.6392 80.8182L20.6477 80.3352L21.0284 79.6648L21.9489 80.2812L21.8778 79.1818H22.642L22.5682 80.2812L23.4886 79.6648L23.8693 80.3352L22.8807 80.8182L23.8693 81.3011L23.4886 81.9716L22.5682 81.3551L22.642 82.4545H21.8778ZM28.1776 80.8551C28.1548 80.6259 28.0573 80.4479 27.8849 80.321C27.7126 80.1941 27.4787 80.1307 27.1832 80.1307C26.9825 80.1307 26.813 80.1591 26.6747 80.2159C26.5365 80.2708 26.4304 80.3475 26.3565 80.446C26.2846 80.5445 26.2486 80.6562 26.2486 80.7812C26.2448 80.8854 26.2666 80.9763 26.3139 81.054C26.3632 81.1316 26.4304 81.1989 26.5156 81.2557C26.6009 81.3106 26.6993 81.3589 26.8111 81.4006C26.9228 81.4403 27.0421 81.4744 27.169 81.5028L27.6918 81.6278C27.9455 81.6847 28.1785 81.7604 28.3906 81.8551C28.6027 81.9498 28.7865 82.0663 28.9418 82.2045C29.0971 82.3428 29.2173 82.5057 29.3026 82.6932C29.3897 82.8807 29.4342 83.0956 29.4361 83.3381C29.4342 83.6941 29.3433 84.0028 29.1634 84.2642C28.9853 84.5237 28.7277 84.7254 28.3906 84.8693C28.0554 85.0114 27.651 85.0824 27.1776 85.0824C26.7079 85.0824 26.2988 85.0104 25.9503 84.8665C25.6037 84.7225 25.3329 84.5095 25.1378 84.2273C24.9446 83.9432 24.8433 83.5919 24.8338 83.1733H26.0241C26.0374 83.3684 26.0933 83.5312 26.1918 83.6619C26.2921 83.7907 26.4257 83.8883 26.5923 83.9545C26.7609 84.0189 26.9512 84.0511 27.1634 84.0511C27.3717 84.0511 27.5526 84.0208 27.706 83.9602C27.8613 83.8996 27.9815 83.8153 28.0668 83.7074C28.152 83.5994 28.1946 83.4754 28.1946 83.3352C28.1946 83.2045 28.1558 83.0947 28.0781 83.0057C28.0024 82.9167 27.8906 82.8409 27.7429 82.7784C27.5971 82.7159 27.4181 82.6591 27.206 82.608L26.5724 82.4489C26.0819 82.3295 25.6946 82.143 25.4105 81.8892C25.1264 81.6354 24.9853 81.2936 24.9872 80.8636C24.9853 80.5114 25.0791 80.2036 25.2685 79.9403C25.4598 79.6771 25.7221 79.4716 26.0554 79.3239C26.3887 79.1761 26.7675 79.1023 27.1918 79.1023C27.6236 79.1023 28.0005 79.1761 28.3224 79.3239C28.6463 79.4716 28.8982 79.6771 29.0781 79.9403C29.258 80.2036 29.3509 80.5085 29.3565 80.8551H28.1776ZM30.9879 86.6364C30.8345 86.6364 30.6906 86.6241 30.5561 86.5994C30.4235 86.5767 30.3137 86.5473 30.2266 86.5114L30.4993 85.608C30.6413 85.6515 30.7692 85.6752 30.8828 85.679C30.9983 85.6828 31.0978 85.6563 31.1811 85.5994C31.2663 85.5426 31.3355 85.446 31.3885 85.3097L31.4595 85.125L29.8942 80.6364H31.1669L32.0703 83.8409H32.1158L33.0277 80.6364H34.3089L32.6129 85.4716C32.5315 85.7064 32.4207 85.911 32.2805 86.0852C32.1423 86.2614 31.9671 86.3968 31.755 86.4915C31.5429 86.5881 31.2872 86.6364 30.9879 86.6364ZM36.0554 85.0824C35.777 85.0824 35.5289 85.0341 35.3111 84.9375C35.0933 84.839 34.9209 84.6941 34.794 84.5028C34.669 84.3097 34.6065 84.0691 34.6065 83.7812C34.6065 83.5388 34.651 83.3352 34.7401 83.1705C34.8291 83.0057 34.9503 82.8731 35.1037 82.7727C35.2571 82.6723 35.4313 82.5966 35.6264 82.5455C35.8234 82.4943 36.0298 82.4583 36.2457 82.4375C36.4995 82.411 36.7041 82.3864 36.8594 82.3636C37.0147 82.339 37.1274 82.303 37.1974 82.2557C37.2675 82.2083 37.3026 82.1383 37.3026 82.0455V82.0284C37.3026 81.8485 37.2457 81.7093 37.1321 81.6108C37.0204 81.5123 36.8613 81.4631 36.6548 81.4631C36.437 81.4631 36.2637 81.5114 36.1349 81.608C36.0062 81.7027 35.9209 81.822 35.8793 81.9659L34.7599 81.875C34.8168 81.6098 34.9285 81.3807 35.0952 81.1875C35.2618 80.9924 35.4768 80.8428 35.7401 80.7386C36.0052 80.6326 36.312 80.5795 36.6605 80.5795C36.9029 80.5795 37.1349 80.608 37.3565 80.6648C37.58 80.7216 37.7779 80.8097 37.9503 80.929C38.1245 81.0483 38.2618 81.2017 38.3622 81.3892C38.4626 81.5748 38.5128 81.7973 38.5128 82.0568V85H37.3651V84.3949H37.331C37.2609 84.5312 37.1671 84.6515 37.0497 84.7557C36.9323 84.858 36.7912 84.9384 36.6264 84.9972C36.4616 85.054 36.2713 85.0824 36.0554 85.0824ZM36.402 84.2472C36.58 84.2472 36.7372 84.2121 36.8736 84.142C37.0099 84.0701 37.117 83.9735 37.1946 83.8523C37.2723 83.7311 37.3111 83.5937 37.3111 83.4403V82.9773C37.2732 83.0019 37.2211 83.0246 37.1548 83.0455C37.0904 83.0644 37.0175 83.0824 36.9361 83.0994C36.8546 83.1146 36.7732 83.1288 36.6918 83.142C36.6103 83.1534 36.5365 83.1638 36.4702 83.1733C36.3281 83.1941 36.2041 83.2273 36.098 83.2727C35.992 83.3182 35.9096 83.3797 35.8509 83.4574C35.7921 83.5331 35.7628 83.6278 35.7628 83.7415C35.7628 83.9062 35.8224 84.0322 35.9418 84.1193C36.063 84.2045 36.2164 84.2472 36.402 84.2472ZM39.4517 85V80.6364H40.625V81.3977H40.6705C40.75 81.1269 40.8835 80.9223 41.071 80.7841C41.2585 80.6439 41.4744 80.5739 41.7188 80.5739C41.7794 80.5739 41.8447 80.5777 41.9148 80.5852C41.9848 80.5928 42.0464 80.6032 42.0994 80.6165V81.6903C42.0426 81.6733 41.964 81.6581 41.8636 81.6449C41.7633 81.6316 41.6714 81.625 41.5881 81.625C41.41 81.625 41.2509 81.6638 41.1108 81.7415C40.9725 81.8172 40.8627 81.9233 40.7812 82.0597C40.7017 82.196 40.6619 82.3532 40.6619 82.5312V85H39.4517ZM43.8445 85.0824C43.5661 85.0824 43.3179 85.0341 43.1001 84.9375C42.8823 84.839 42.71 84.6941 42.5831 84.5028C42.4581 84.3097 42.3956 84.0691 42.3956 83.7812C42.3956 83.5388 42.4401 83.3352 42.5291 83.1705C42.6181 83.0057 42.7393 82.8731 42.8928 82.7727C43.0462 82.6723 43.2204 82.5966 43.4155 82.5455C43.6125 82.4943 43.8189 82.4583 44.0348 82.4375C44.2886 82.411 44.4931 82.3864 44.6484 82.3636C44.8037 82.339 44.9164 82.303 44.9865 82.2557C45.0566 82.2083 45.0916 82.1383 45.0916 82.0455V82.0284C45.0916 81.8485 45.0348 81.7093 44.9212 81.6108C44.8094 81.5123 44.6503 81.4631 44.4439 81.4631C44.2261 81.4631 44.0528 81.5114 43.924 81.608C43.7952 81.7027 43.71 81.822 43.6683 81.9659L42.549 81.875C42.6058 81.6098 42.7176 81.3807 42.8842 81.1875C43.0509 80.9924 43.2659 80.8428 43.5291 80.7386C43.7943 80.6326 44.1011 80.5795 44.4496 80.5795C44.692 80.5795 44.924 80.608 45.1456 80.6648C45.3691 80.7216 45.567 80.8097 45.7393 80.929C45.9136 81.0483 46.0509 81.2017 46.1513 81.3892C46.2517 81.5748 46.3018 81.7973 46.3018 82.0568V85H45.1541V84.3949H45.12C45.05 84.5312 44.9562 84.6515 44.8388 84.7557C44.7214 84.858 44.5803 84.9384 44.4155 84.9972C44.2507 85.054 44.0604 85.0824 43.8445 85.0824ZM44.1911 84.2472C44.3691 84.2472 44.5263 84.2121 44.6626 84.142C44.799 84.0701 44.906 83.9735 44.9837 83.8523C45.0613 83.7311 45.1001 83.5937 45.1001 83.4403V82.9773C45.0623 83.0019 45.0102 83.0246 44.9439 83.0455C44.8795 83.0644 44.8066 83.0824 44.7251 83.0994C44.6437 83.1146 44.5623 83.1288 44.4808 83.142C44.3994 83.1534 44.3255 83.1638 44.2592 83.1733C44.1172 83.1941 43.9931 83.2273 43.8871 83.2727C43.781 83.3182 43.6986 83.3797 43.6399 83.4574C43.5812 83.5331 43.5518 83.6278 43.5518 83.7415C43.5518 83.9062 43.6115 84.0322 43.7308 84.1193C43.852 84.2045 44.0054 84.2472 44.1911 84.2472ZM49.5618 80.6364V81.5455H46.9339V80.6364H49.5618ZM47.5305 79.5909H48.7408V83.6591C48.7408 83.7708 48.7578 83.858 48.7919 83.9205C48.826 83.9811 48.8733 84.0237 48.9339 84.0483C48.9964 84.0729 49.0684 84.0852 49.1499 84.0852C49.2067 84.0852 49.2635 84.0805 49.3203 84.071C49.3771 84.0597 49.4207 84.0511 49.451 84.0455L49.6413 84.946C49.5807 84.965 49.4955 84.9867 49.3857 85.0114C49.2758 85.0379 49.1423 85.054 48.9851 85.0597C48.6934 85.071 48.4377 85.0322 48.218 84.9432C48.0002 84.8542 47.8307 84.7159 47.7095 84.5284C47.5883 84.3409 47.5286 84.1042 47.5305 83.8182V79.5909ZM53.9858 85.0852C53.5843 85.0852 53.2377 85.0133 52.946 84.8693C52.6544 84.7254 52.4299 84.5303 52.2727 84.2841C52.1174 84.036 52.0398 83.7595 52.0398 83.4545C52.0398 83.2273 52.0852 83.0256 52.1761 82.8494C52.267 82.6733 52.3939 82.5114 52.5568 82.3636C52.7197 82.214 52.9091 82.0653 53.125 81.9176L54.2528 81.1761C54.3987 81.0833 54.5057 80.9858 54.5739 80.8835C54.642 80.7794 54.6761 80.6667 54.6761 80.5455C54.6761 80.4299 54.6297 80.3229 54.5369 80.2244C54.4441 80.1259 54.3125 80.0777 54.142 80.0795C54.0284 80.0795 53.9299 80.1051 53.8466 80.1562C53.7633 80.2055 53.6979 80.2708 53.6506 80.3523C53.6051 80.4318 53.5824 80.5208 53.5824 80.6193C53.5824 80.7405 53.6165 80.8636 53.6847 80.9886C53.7528 81.1136 53.8438 81.2462 53.9574 81.3864C54.071 81.5246 54.1951 81.6742 54.3295 81.8352L57.0881 85H55.8267L53.5256 82.4375C53.3741 82.2652 53.2225 82.0852 53.071 81.8977C52.9214 81.7083 52.7964 81.5076 52.696 81.2955C52.5956 81.0814 52.5455 80.8494 52.5455 80.5994C52.5455 80.3172 52.6108 80.0634 52.7415 79.8381C52.8741 79.6127 53.0597 79.4347 53.2983 79.304C53.5369 79.1714 53.8153 79.1051 54.1335 79.1051C54.4441 79.1051 54.7121 79.1686 54.9375 79.2955C55.1648 79.4205 55.339 79.5871 55.4602 79.7955C55.5833 80.0019 55.6449 80.2292 55.6449 80.4773C55.6449 80.7519 55.5767 81.0009 55.4403 81.2244C55.3059 81.446 55.1165 81.6449 54.8722 81.821L53.6847 82.6761C53.5237 82.7936 53.4044 82.9138 53.3267 83.0369C53.2509 83.1581 53.2131 83.2746 53.2131 83.3864C53.2131 83.5246 53.2472 83.6487 53.3153 83.7585C53.3835 83.8684 53.4801 83.9555 53.6051 84.0199C53.7301 84.0824 53.8769 84.1136 54.0455 84.1136C54.25 84.1136 54.4517 84.0672 54.6506 83.9744C54.8513 83.8797 55.0331 83.7462 55.196 83.5739C55.3608 83.3996 55.4924 83.1932 55.5909 82.9545C55.6894 82.7159 55.7386 82.4517 55.7386 82.1619H56.7415C56.7415 82.518 56.7027 82.839 56.625 83.125C56.5473 83.4091 56.4394 83.6572 56.3011 83.8693C56.1629 84.0795 56.0047 84.2519 55.8267 84.3864C55.7699 84.4223 55.715 84.4564 55.6619 84.4886C55.6089 84.5208 55.554 84.5549 55.4972 84.5909C55.2813 84.7652 55.0398 84.8911 54.7727 84.9688C54.5076 85.0464 54.2453 85.0852 53.9858 85.0852ZM59.4666 85V79.1818H60.6967V81.7472H60.7734L62.8672 79.1818H64.3416L62.1825 81.7869L64.3672 85H62.8956L61.3018 82.608L60.6967 83.3466V85H59.4666ZM66.6278 85.0852C66.179 85.0852 65.7926 84.9943 65.4688 84.8125C65.1468 84.6288 64.8987 84.3693 64.7244 84.0341C64.5502 83.697 64.4631 83.2983 64.4631 82.8381C64.4631 82.3892 64.5502 81.9953 64.7244 81.6562C64.8987 81.3172 65.1439 81.053 65.4602 80.8636C65.7784 80.6742 66.1515 80.5795 66.5795 80.5795C66.8674 80.5795 67.1354 80.6259 67.3835 80.7188C67.6335 80.8097 67.8513 80.947 68.0369 81.1307C68.2244 81.3144 68.3703 81.5455 68.4744 81.8239C68.5786 82.1004 68.6307 82.4242 68.6307 82.7955V83.1278H64.946V82.3778H67.4915C67.4915 82.2036 67.4536 82.0492 67.3778 81.9148C67.3021 81.7803 67.197 81.6752 67.0625 81.5994C66.9299 81.5218 66.7756 81.483 66.5994 81.483C66.4157 81.483 66.2528 81.5256 66.1108 81.6108C65.9706 81.6941 65.8608 81.8068 65.7812 81.9489C65.7017 82.089 65.661 82.2453 65.6591 82.4176V83.1307C65.6591 83.3466 65.6989 83.5331 65.7784 83.6903C65.8598 83.8475 65.9744 83.9688 66.1222 84.054C66.2699 84.1392 66.4451 84.1818 66.6477 84.1818C66.7822 84.1818 66.9053 84.1629 67.017 84.125C67.1288 84.0871 67.2244 84.0303 67.304 83.9545C67.3835 83.8788 67.4441 83.786 67.4858 83.6761L68.6051 83.75C68.5483 84.0189 68.4318 84.2538 68.2557 84.4545C68.0814 84.6534 67.8561 84.8087 67.5795 84.9205C67.3049 85.0303 66.9877 85.0852 66.6278 85.0852ZM71.7415 80.6364V81.5455H69.1136V80.6364H71.7415ZM69.7102 79.5909H70.9205V83.6591C70.9205 83.7708 70.9375 83.858 70.9716 83.9205C71.0057 83.9811 71.053 84.0237 71.1136 84.0483C71.1761 84.0729 71.2481 84.0852 71.3295 84.0852C71.3864 84.0852 71.4432 84.0805 71.5 84.071C71.5568 84.0597 71.6004 84.0511 71.6307 84.0455L71.821 84.946C71.7604 84.965 71.6752 84.9867 71.5653 85.0114C71.4555 85.0379 71.322 85.054 71.1648 85.0597C70.8731 85.071 70.6174 85.0322 70.3977 84.9432C70.1799 84.8542 70.0104 84.7159 69.8892 84.5284C69.768 84.3409 69.7083 84.1042 69.7102 83.8182V79.5909ZM74.4716 85.0852C74.0227 85.0852 73.6364 84.9943 73.3125 84.8125C72.9905 84.6288 72.7424 84.3693 72.5682 84.0341C72.3939 83.697 72.3068 83.2983 72.3068 82.8381C72.3068 82.3892 72.3939 81.9953 72.5682 81.6562C72.7424 81.3172 72.9877 81.053 73.304 80.8636C73.6222 80.6742 73.9953 80.5795 74.4233 80.5795C74.7112 80.5795 74.9792 80.6259 75.2273 80.7188C75.4773 80.8097 75.6951 80.947 75.8807 81.1307C76.0682 81.3144 76.214 81.5455 76.3182 81.8239C76.4223 82.1004 76.4744 82.4242 76.4744 82.7955V83.1278H72.7898V82.3778H75.3352C75.3352 82.2036 75.2973 82.0492 75.2216 81.9148C75.1458 81.7803 75.0407 81.6752 74.9062 81.5994C74.7737 81.5218 74.6193 81.483 74.4432 81.483C74.2595 81.483 74.0966 81.5256 73.9545 81.6108C73.8144 81.6941 73.7045 81.8068 73.625 81.9489C73.5455 82.089 73.5047 82.2453 73.5028 82.4176V83.1307C73.5028 83.3466 73.5426 83.5331 73.6222 83.6903C73.7036 83.8475 73.8182 83.9688 73.9659 84.054C74.1136 84.1392 74.2888 84.1818 74.4915 84.1818C74.6259 84.1818 74.7491 84.1629 74.8608 84.125C74.9725 84.0871 75.0682 84.0303 75.1477 83.9545C75.2273 83.8788 75.2879 83.786 75.3295 83.6761L76.4489 83.75C76.392 84.0189 76.2756 84.2538 76.0994 84.4545C75.9252 84.6534 75.6998 84.8087 75.4233 84.9205C75.1487 85.0303 74.8314 85.0852 74.4716 85.0852ZM78.4744 82.4773V85H77.2642V80.6364H78.4176V81.4062H78.4688C78.5653 81.1525 78.7273 80.9517 78.9545 80.804C79.1818 80.6544 79.4574 80.5795 79.7812 80.5795C80.0843 80.5795 80.3485 80.6458 80.5739 80.7784C80.7992 80.911 80.9744 81.1004 81.0994 81.3466C81.2244 81.5909 81.2869 81.8826 81.2869 82.2216V85H80.0767V82.4375C80.0786 82.1705 80.0104 81.9621 79.8722 81.8125C79.7339 81.661 79.5436 81.5852 79.3011 81.5852C79.1383 81.5852 78.9943 81.6203 78.8693 81.6903C78.7462 81.7604 78.6496 81.8627 78.5795 81.9972C78.5114 82.1297 78.4763 82.2898 78.4744 82.4773ZM84.5618 80.6364V81.5455H81.9339V80.6364H84.5618ZM82.5305 79.5909H83.7408V83.6591C83.7408 83.7708 83.7578 83.858 83.7919 83.9205C83.826 83.9811 83.8733 84.0237 83.9339 84.0483C83.9964 84.0729 84.0684 84.0852 84.1499 84.0852C84.2067 84.0852 84.2635 84.0805 84.3203 84.071C84.3771 84.0597 84.4207 84.0511 84.451 84.0455L84.6413 84.946C84.5807 84.965 84.4955 84.9867 84.3857 85.0114C84.2758 85.0379 84.1423 85.054 83.9851 85.0597C83.6934 85.071 83.4377 85.0322 83.218 84.9432C83.0002 84.8542 82.8307 84.7159 82.7095 84.5284C82.5883 84.3409 82.5286 84.1042 82.5305 83.8182V79.5909ZM88.1484 83.142V80.6364H89.3587V85H88.1967V84.2074H88.1513C88.0528 84.4631 87.889 84.6686 87.6598 84.8239C87.4325 84.9792 87.1551 85.0568 86.8274 85.0568C86.5357 85.0568 86.2791 84.9905 86.0575 84.858C85.8359 84.7254 85.6626 84.5369 85.5376 84.2926C85.4145 84.0483 85.352 83.7557 85.3501 83.4148V80.6364H86.5604V83.1989C86.5623 83.4564 86.6314 83.66 86.7678 83.8097C86.9041 83.9593 87.0869 84.0341 87.3161 84.0341C87.4619 84.0341 87.5982 84.0009 87.7251 83.9347C87.852 83.8665 87.9543 83.7661 88.032 83.6335C88.1115 83.5009 88.1503 83.3371 88.1484 83.142ZM91.571 85.0824C91.2926 85.0824 91.0445 85.0341 90.8267 84.9375C90.6089 84.839 90.4366 84.6941 90.3097 84.5028C90.1847 84.3097 90.1222 84.0691 90.1222 83.7812C90.1222 83.5388 90.1667 83.3352 90.2557 83.1705C90.3447 83.0057 90.4659 82.8731 90.6193 82.7727C90.7727 82.6723 90.947 82.5966 91.142 82.5455C91.339 82.4943 91.5455 82.4583 91.7614 82.4375C92.0152 82.411 92.2197 82.3864 92.375 82.3636C92.5303 82.339 92.643 82.303 92.7131 82.2557C92.7831 82.2083 92.8182 82.1383 92.8182 82.0455V82.0284C92.8182 81.8485 92.7614 81.7093 92.6477 81.6108C92.536 81.5123 92.3769 81.4631 92.1705 81.4631C91.9527 81.4631 91.7794 81.5114 91.6506 81.608C91.5218 81.7027 91.4366 81.822 91.3949 81.9659L90.2756 81.875C90.3324 81.6098 90.4441 81.3807 90.6108 81.1875C90.7775 80.9924 90.9924 80.8428 91.2557 80.7386C91.5208 80.6326 91.8277 80.5795 92.1761 80.5795C92.4186 80.5795 92.6506 80.608 92.8722 80.6648C93.0956 80.7216 93.2936 80.8097 93.4659 80.929C93.6402 81.0483 93.7775 81.2017 93.8778 81.3892C93.9782 81.5748 94.0284 81.7973 94.0284 82.0568V85H92.8807V84.3949H92.8466C92.7765 84.5312 92.6828 84.6515 92.5653 84.7557C92.4479 84.858 92.3068 84.9384 92.142 84.9972C91.9773 85.054 91.7869 85.0824 91.571 85.0824ZM91.9176 84.2472C92.0956 84.2472 92.2528 84.2121 92.3892 84.142C92.5256 84.0701 92.6326 83.9735 92.7102 83.8523C92.7879 83.7311 92.8267 83.5937 92.8267 83.4403V82.9773C92.7888 83.0019 92.7367 83.0246 92.6705 83.0455C92.6061 83.0644 92.5331 83.0824 92.4517 83.0994C92.3703 83.1146 92.2888 83.1288 92.2074 83.142C92.1259 83.1534 92.0521 83.1638 91.9858 83.1733C91.8438 83.1941 91.7197 83.2273 91.6136 83.2727C91.5076 83.3182 91.4252 83.3797 91.3665 83.4574C91.3078 83.5331 91.2784 83.6278 91.2784 83.7415C91.2784 83.9062 91.3381 84.0322 91.4574 84.1193C91.5786 84.2045 91.732 84.2472 91.9176 84.2472ZM96.1776 82.4773V85H94.9673V80.6364H96.1207V81.4062H96.1719C96.2685 81.1525 96.4304 80.9517 96.6577 80.804C96.8849 80.6544 97.1605 80.5795 97.4844 80.5795C97.7874 80.5795 98.0516 80.6458 98.277 80.7784C98.5024 80.911 98.6776 81.1004 98.8026 81.3466C98.9276 81.5909 98.9901 81.8826 98.9901 82.2216V85H97.7798V82.4375C97.7817 82.1705 97.7135 81.9621 97.5753 81.8125C97.437 81.661 97.2467 81.5852 97.0043 81.5852C96.8414 81.5852 96.6974 81.6203 96.5724 81.6903C96.4493 81.7604 96.3527 81.8627 96.2827 81.9972C96.2145 82.1297 96.1795 82.2898 96.1776 82.4773ZM101.818 85V79.1818H104.148C104.576 79.1818 104.933 79.2453 105.219 79.3722C105.505 79.4991 105.72 79.6752 105.864 79.9006C106.008 80.1241 106.08 80.3816 106.08 80.6733C106.08 80.9006 106.034 81.1004 105.943 81.2727C105.852 81.4432 105.727 81.5833 105.568 81.6932C105.411 81.8011 105.231 81.8778 105.028 81.9233V81.9801C105.25 81.9896 105.457 82.0521 105.651 82.1676C105.846 82.2831 106.004 82.4451 106.125 82.6534C106.246 82.8598 106.307 83.1061 106.307 83.392C106.307 83.7008 106.23 83.9763 106.077 84.2188C105.925 84.4593 105.701 84.6496 105.403 84.7898C105.106 84.9299 104.74 85 104.304 85H101.818ZM103.048 83.9943H104.051C104.394 83.9943 104.644 83.929 104.801 83.7983C104.958 83.6657 105.037 83.4896 105.037 83.2699C105.037 83.1089 104.998 82.9669 104.92 82.8438C104.843 82.7206 104.732 82.6241 104.588 82.554C104.446 82.4839 104.277 82.4489 104.08 82.4489H103.048V83.9943ZM103.048 81.6165H103.96C104.129 81.6165 104.278 81.5871 104.409 81.5284C104.542 81.4678 104.646 81.3826 104.722 81.2727C104.799 81.1629 104.838 81.0312 104.838 80.8778C104.838 80.6676 104.763 80.4981 104.614 80.3693C104.466 80.2405 104.256 80.1761 103.983 80.1761H103.048V81.6165ZM109.073 85.0852C108.624 85.0852 108.238 84.9943 107.914 84.8125C107.592 84.6288 107.344 84.3693 107.17 84.0341C106.996 83.697 106.908 83.2983 106.908 82.8381C106.908 82.3892 106.996 81.9953 107.17 81.6562C107.344 81.3172 107.589 81.053 107.906 80.8636C108.224 80.6742 108.597 80.5795 109.025 80.5795C109.313 80.5795 109.581 80.6259 109.829 80.7188C110.079 80.8097 110.297 80.947 110.482 81.1307C110.67 81.3144 110.816 81.5455 110.92 81.8239C111.024 82.1004 111.076 82.4242 111.076 82.7955V83.1278H107.391V82.3778H109.937C109.937 82.2036 109.899 82.0492 109.823 81.9148C109.747 81.7803 109.642 81.6752 109.508 81.5994C109.375 81.5218 109.221 81.483 109.045 81.483C108.861 81.483 108.698 81.5256 108.556 81.6108C108.416 81.6941 108.306 81.8068 108.227 81.9489C108.147 82.089 108.106 82.2453 108.104 82.4176V83.1307C108.104 83.3466 108.144 83.5331 108.224 83.6903C108.305 83.8475 108.42 83.9688 108.567 84.054C108.715 84.1392 108.89 84.1818 109.093 84.1818C109.228 84.1818 109.351 84.1629 109.462 84.125C109.574 84.0871 109.67 84.0303 109.749 83.9545C109.829 83.8788 109.889 83.786 109.931 83.6761L111.05 83.75C110.994 84.0189 110.877 84.2538 110.701 84.4545C110.527 84.6534 110.301 84.8087 110.025 84.9205C109.75 85.0303 109.433 85.0852 109.073 85.0852ZM111.866 85V80.6364H113.039V81.3977H113.085C113.164 81.1269 113.298 80.9223 113.485 80.7841C113.673 80.6439 113.888 80.5739 114.133 80.5739C114.193 80.5739 114.259 80.5777 114.329 80.5852C114.399 80.5928 114.46 80.6032 114.513 80.6165V81.6903C114.457 81.6733 114.378 81.6581 114.278 81.6449C114.177 81.6316 114.085 81.625 114.002 81.625C113.824 81.625 113.665 81.6638 113.525 81.7415C113.387 81.8172 113.277 81.9233 113.195 82.0597C113.116 82.196 113.076 82.3532 113.076 82.5312V85H111.866ZM116.349 79.1818V85H115.139V79.1818H116.349ZM118.563 85.0824C118.285 85.0824 118.037 85.0341 117.819 84.9375C117.601 84.839 117.429 84.6941 117.302 84.5028C117.177 84.3097 117.114 84.0691 117.114 83.7812C117.114 83.5388 117.159 83.3352 117.248 83.1705C117.337 83.0057 117.458 82.8731 117.612 82.7727C117.765 82.6723 117.939 82.5966 118.134 82.5455C118.331 82.4943 118.538 82.4583 118.754 82.4375C119.007 82.411 119.212 82.3864 119.367 82.3636C119.522 82.339 119.635 82.303 119.705 82.2557C119.775 82.2083 119.81 82.1383 119.81 82.0455V82.0284C119.81 81.8485 119.754 81.7093 119.64 81.6108C119.528 81.5123 119.369 81.4631 119.163 81.4631C118.945 81.4631 118.772 81.5114 118.643 81.608C118.514 81.7027 118.429 81.822 118.387 81.9659L117.268 81.875C117.325 81.6098 117.436 81.3807 117.603 81.1875C117.77 80.9924 117.985 80.8428 118.248 80.7386C118.513 80.6326 118.82 80.5795 119.168 80.5795C119.411 80.5795 119.643 80.608 119.864 80.6648C120.088 80.7216 120.286 80.8097 120.458 80.929C120.632 81.0483 120.77 81.2017 120.87 81.3892C120.97 81.5748 121.021 81.7973 121.021 82.0568V85H119.873V84.3949H119.839C119.769 84.5312 119.675 84.6515 119.558 84.7557C119.44 84.858 119.299 84.9384 119.134 84.9972C118.969 85.054 118.779 85.0824 118.563 85.0824ZM118.91 84.2472C119.088 84.2472 119.245 84.2121 119.381 84.142C119.518 84.0701 119.625 83.9735 119.702 83.8523C119.78 83.7311 119.819 83.5937 119.819 83.4403V82.9773C119.781 83.0019 119.729 83.0246 119.663 83.0455C119.598 83.0644 119.525 83.0824 119.444 83.0994C119.362 83.1146 119.281 83.1288 119.2 83.142C119.118 83.1534 119.044 83.1638 118.978 83.1733C118.836 83.1941 118.712 83.2273 118.606 83.2727C118.5 83.3182 118.417 83.3797 118.359 83.4574C118.3 83.5331 118.271 83.6278 118.271 83.7415C118.271 83.9062 118.33 84.0322 118.45 84.1193C118.571 84.2045 118.724 84.2472 118.91 84.2472ZM123.056 83.7443L123.059 82.2926H123.235L124.633 80.6364H126.022L124.144 82.8295H123.857L123.056 83.7443ZM121.96 85V79.1818H123.17V85H121.96ZM124.687 85L123.403 83.0994L124.21 82.2443L126.104 85H124.687ZM129.414 83.142V80.6364H130.624V85H129.462V84.2074H129.417C129.318 84.4631 129.155 84.6686 128.925 84.8239C128.698 84.9792 128.421 85.0568 128.093 85.0568C127.801 85.0568 127.545 84.9905 127.323 84.858C127.102 84.7254 126.928 84.5369 126.803 84.2926C126.68 84.0483 126.618 83.7557 126.616 83.4148V80.6364H127.826V83.1989C127.828 83.4564 127.897 83.66 128.033 83.8097C128.17 83.9593 128.353 84.0341 128.582 84.0341C128.728 84.0341 128.864 84.0009 128.991 83.9347C129.118 83.8665 129.22 83.7661 129.298 83.6335C129.377 83.5009 129.416 83.3371 129.414 83.142Z" fill="white"/>
<path d="M25.68 17.58C26.4667 17.58 27.0733 17.6667 27.5 17.84C27.9267 18 28.2933 18.1733 28.6 18.36C28.76 18.4533 28.8867 18.5267 28.98 18.58C29.0867 18.62 29.1867 18.64 29.28 18.64C29.4133 18.64 29.5067 18.5667 29.56 18.42C29.6267 18.2733 29.68 18.0533 29.72 17.76H30.18C30.1667 18.0133 30.1467 18.32 30.12 18.68C30.1067 19.0267 30.0933 19.4867 30.08 20.06C30.08 20.6333 30.08 21.3867 30.08 22.32H29.62C29.5667 21.6267 29.4067 20.9533 29.14 20.3C28.8733 19.6467 28.4933 19.1133 28 18.7C27.52 18.2733 26.9267 18.06 26.22 18.06C25.58 18.06 25.0533 18.24 24.64 18.6C24.2267 18.96 24.02 19.46 24.02 20.1C24.02 20.6333 24.1533 21.0933 24.42 21.48C24.6867 21.8533 25.0733 22.22 25.58 22.58C26.1 22.94 26.7267 23.3733 27.46 23.88C28.1 24.2933 28.6733 24.7067 29.18 25.12C29.6867 25.5333 30.0933 26 30.4 26.52C30.7067 27.04 30.86 27.66 30.86 28.38C30.86 29.26 30.6267 29.9867 30.16 30.56C29.7067 31.1333 29.1067 31.5667 28.36 31.86C27.6133 32.14 26.7933 32.28 25.9 32.28C25.0733 32.28 24.4133 32.2 23.92 32.04C23.4267 31.88 23.0133 31.7133 22.68 31.54C22.3867 31.3533 22.16 31.26 22 31.26C21.8667 31.26 21.7667 31.3333 21.7 31.48C21.6467 31.6267 21.6 31.8467 21.56 32.14H21.1C21.1267 31.82 21.14 31.4467 21.14 31.02C21.1533 30.5933 21.16 30.04 21.16 29.36C21.1733 28.6667 21.18 27.7933 21.18 26.74H21.64C21.6933 27.62 21.84 28.4467 22.08 29.22C22.3333 29.98 22.7133 30.5933 23.22 31.06C23.74 31.5267 24.4267 31.76 25.28 31.76C25.7467 31.76 26.16 31.68 26.52 31.52C26.8933 31.3467 27.1933 31.0933 27.42 30.76C27.6467 30.4267 27.76 30.0133 27.76 29.52C27.76 28.96 27.6267 28.4733 27.36 28.06C27.1067 27.6467 26.7533 27.26 26.3 26.9C25.86 26.54 25.3467 26.1733 24.76 25.8C24.1333 25.3867 23.5467 24.9733 23 24.56C22.4533 24.1467 22.0133 23.6733 21.68 23.14C21.36 22.6067 21.2 21.9733 21.2 21.24C21.2 20.4 21.4067 19.7133 21.82 19.18C22.2467 18.6333 22.8 18.2333 23.48 17.98C24.1733 17.7133 24.9067 17.58 25.68 17.58ZM36.2397 21.44V33.64C36.2397 34.2667 36.3997 34.68 36.7197 34.88C37.0397 35.0933 37.4797 35.2 38.0397 35.2V35.62C37.693 35.6067 37.213 35.5867 36.5997 35.56C35.9997 35.5467 35.3597 35.54 34.6797 35.54C34.1864 35.54 33.6997 35.5467 33.2197 35.56C32.753 35.5867 32.3997 35.6067 32.1597 35.62V35.2C32.5997 35.2 32.9064 35.1067 33.0797 34.92C33.2664 34.7333 33.3597 34.3733 33.3597 33.84V23.84C33.3597 23.24 33.2664 22.8 33.0797 22.52C32.893 22.2267 32.5597 22.08 32.0797 22.08V21.66C32.5064 21.7 32.9197 21.72 33.3197 21.72C33.8664 21.72 34.3864 21.7 34.8797 21.66C35.373 21.6067 35.8264 21.5333 36.2397 21.44ZM39.3397 21.38C40.0197 21.38 40.6264 21.5667 41.1597 21.94C41.693 22.3 42.1197 22.8533 42.4397 23.6C42.7597 24.3333 42.9197 25.2533 42.9197 26.36C42.9197 27.3333 42.8064 28.1867 42.5797 28.92C42.3664 29.6533 42.053 30.2733 41.6397 30.78C41.2397 31.2733 40.753 31.6467 40.1797 31.9C39.6197 32.1533 38.9864 32.28 38.2797 32.28C37.7597 32.28 37.2864 32.1867 36.8597 32C36.433 31.8267 36.1064 31.5733 35.8797 31.24L36.0797 30.98C36.213 31.22 36.3997 31.4067 36.6397 31.54C36.893 31.6733 37.1797 31.74 37.4997 31.74C38.0997 31.74 38.573 31.54 38.9197 31.14C39.2664 30.7267 39.513 30.1533 39.6597 29.42C39.8197 28.6733 39.8997 27.7867 39.8997 26.76C39.8997 25.6133 39.8264 24.7133 39.6797 24.06C39.533 23.4067 39.333 22.94 39.0797 22.66C38.8264 22.38 38.5197 22.24 38.1597 22.24C37.6797 22.24 37.2397 22.4267 36.8397 22.8C36.453 23.1733 36.233 23.7067 36.1797 24.4L36.0797 23.7C36.3197 22.94 36.7264 22.3667 37.2997 21.98C37.8864 21.58 38.5664 21.38 39.3397 21.38ZM49.3119 21.38C50.4852 21.38 51.4052 21.7267 52.0719 22.42C52.7385 23.1133 53.0719 24.2467 53.0719 25.82H46.4919L46.4519 25.44H50.5519C50.5652 24.7867 50.5252 24.1867 50.4319 23.64C50.3385 23.08 50.1919 22.6333 49.9919 22.3C49.7919 21.9667 49.5252 21.8 49.1919 21.8C48.7252 21.8 48.3252 22.0933 47.9919 22.68C47.6719 23.2667 47.4785 24.24 47.4119 25.6L47.4719 25.72C47.4585 25.88 47.4452 26.0467 47.4319 26.22C47.4319 26.3933 47.4319 26.5733 47.4319 26.76C47.4319 27.68 47.5585 28.4267 47.8119 29C48.0785 29.5733 48.4119 29.9933 48.8119 30.26C49.2119 30.5133 49.6185 30.64 50.0319 30.64C50.3119 30.64 50.5985 30.6 50.8919 30.52C51.1985 30.4267 51.5052 30.2667 51.8119 30.04C52.1185 29.8 52.4052 29.4667 52.6719 29.04L53.0319 29.16C52.8719 29.6667 52.6185 30.16 52.2719 30.64C51.9252 31.12 51.4852 31.5133 50.9519 31.82C50.4185 32.1267 49.7785 32.28 49.0319 32.28C48.1252 32.28 47.3252 32.0867 46.6319 31.7C45.9385 31.3133 45.3919 30.7267 44.9919 29.94C44.6052 29.1533 44.4119 28.1533 44.4119 26.94C44.4119 25.7 44.6185 24.6667 45.0319 23.84C45.4585 23.0133 46.0385 22.4 46.7719 22C47.5185 21.5867 48.3652 21.38 49.3119 21.38ZM59.43 21.38C59.95 21.38 60.4233 21.44 60.85 21.56C61.29 21.6667 61.65 21.8067 61.93 21.98C62.2767 22.1933 62.5433 22.46 62.73 22.78C62.93 23.0867 63.03 23.4467 63.03 23.86C63.03 24.3267 62.8833 24.7133 62.59 25.02C62.2967 25.3133 61.9167 25.46 61.45 25.46C60.9833 25.46 60.61 25.3267 60.33 25.06C60.05 24.7933 59.91 24.4333 59.91 23.98C59.91 23.5533 60.0433 23.2 60.31 22.92C60.5767 22.6267 60.8833 22.4333 61.23 22.34C61.1233 22.2067 60.9633 22.0933 60.75 22C60.5367 21.9067 60.2967 21.86 60.03 21.86C59.6167 21.86 59.25 21.98 58.93 22.22C58.6233 22.46 58.3633 22.7933 58.15 23.22C57.9367 23.6467 57.77 24.1467 57.65 24.72C57.5433 25.2933 57.49 25.92 57.49 26.6C57.49 27.6267 57.6167 28.4333 57.87 29.02C58.1367 29.6067 58.47 30.02 58.87 30.26C59.2833 30.5 59.71 30.62 60.15 30.62C60.4033 30.62 60.6767 30.58 60.97 30.5C61.2767 30.42 61.5833 30.26 61.89 30.02C62.21 29.78 62.5033 29.44 62.77 29L63.11 29.12C62.9633 29.6133 62.7233 30.1067 62.39 30.6C62.0567 31.0933 61.6233 31.5 61.09 31.82C60.5567 32.1267 59.9033 32.28 59.13 32.28C58.2633 32.28 57.4767 32.0933 56.77 31.72C56.0767 31.3333 55.5167 30.7467 55.09 29.96C54.6767 29.16 54.47 28.1333 54.47 26.88C54.47 25.68 54.6833 24.6733 55.11 23.86C55.55 23.0333 56.1433 22.4133 56.89 22C57.6367 21.5867 58.4833 21.38 59.43 21.38ZM66.7519 16.5C67.3119 16.5 67.7519 16.64 68.0719 16.92C68.4052 17.1867 68.5719 17.56 68.5719 18.04C68.5719 18.52 68.4052 18.9 68.0719 19.18C67.7519 19.4467 67.3119 19.58 66.7519 19.58C66.1919 19.58 65.7452 19.4467 65.4119 19.18C65.0919 18.9 64.9319 18.52 64.9319 18.04C64.9319 17.56 65.0919 17.1867 65.4119 16.92C65.7452 16.64 66.1919 16.5 66.7519 16.5ZM68.3119 21.44V30.14C68.3119 30.7 68.4052 31.08 68.5919 31.28C68.7919 31.48 69.1252 31.58 69.5919 31.58V32C69.3519 31.9867 68.9785 31.9733 68.4719 31.96C67.9652 31.9333 67.4519 31.92 66.9319 31.92C66.4119 31.92 65.8852 31.9333 65.3519 31.96C64.8185 31.9733 64.4185 31.9867 64.1519 32V31.58C64.6185 31.58 64.9452 31.48 65.1319 31.28C65.3319 31.08 65.4319 30.7 65.4319 30.14V23.84C65.4319 23.24 65.3385 22.8 65.1519 22.52C64.9785 22.2267 64.6452 22.08 64.1519 22.08V21.66C64.5785 21.7 64.9919 21.72 65.3919 21.72C65.9519 21.72 66.4719 21.7 66.9519 21.66C67.4452 21.6067 67.8985 21.5333 68.3119 21.44ZM73.2205 32.14C72.6205 32.14 72.1205 32.0267 71.7205 31.8C71.3205 31.5733 71.0271 31.2733 70.8405 30.9C70.6538 30.5133 70.5605 30.0933 70.5605 29.64C70.5605 29.0667 70.6871 28.6 70.9405 28.24C71.2071 27.88 71.5471 27.5867 71.9605 27.36C72.3738 27.1333 72.8071 26.9467 73.2605 26.8C73.7271 26.6533 74.1671 26.5133 74.5805 26.38C75.0071 26.2333 75.3471 26.0667 75.6005 25.88C75.8671 25.68 76.0005 25.4267 76.0005 25.12V23.56C76.0005 23.2133 75.9405 22.9067 75.8205 22.64C75.7138 22.36 75.5405 22.1467 75.3005 22C75.0738 21.8533 74.7738 21.78 74.4005 21.78C74.1338 21.78 73.8671 21.82 73.6005 21.9C73.3338 21.9667 73.1138 22.0867 72.9405 22.26C73.3138 22.3933 73.6005 22.6 73.8005 22.88C74.0138 23.1467 74.1205 23.4533 74.1205 23.8C74.1205 24.2533 73.9605 24.6133 73.6405 24.88C73.3338 25.1467 72.9671 25.28 72.5405 25.28C72.0605 25.28 71.6938 25.1333 71.4405 24.84C71.2005 24.5333 71.0805 24.1667 71.0805 23.74C71.0805 23.3533 71.1738 23.0333 71.3605 22.78C71.5605 22.5267 71.8338 22.2867 72.1805 22.06C72.5538 21.8467 73.0005 21.68 73.5205 21.56C74.0538 21.44 74.6271 21.38 75.2405 21.38C75.8538 21.38 76.4071 21.4467 76.9005 21.58C77.3938 21.7 77.8071 21.9267 78.1405 22.26C78.4471 22.5667 78.6471 22.9467 78.7405 23.4C78.8338 23.84 78.8805 24.4 78.8805 25.08V30.52C78.8805 30.8533 78.9138 31.0867 78.9805 31.22C79.0471 31.34 79.1605 31.4 79.3205 31.4C79.4405 31.4 79.5538 31.3667 79.6605 31.3C79.7805 31.2333 79.9071 31.1533 80.0405 31.06L80.2405 31.4C79.9605 31.64 79.6338 31.8267 79.2605 31.96C78.9005 32.08 78.4938 32.14 78.0405 32.14C77.5471 32.14 77.1538 32.0733 76.8605 31.94C76.5671 31.7933 76.3538 31.6 76.2205 31.36C76.1005 31.12 76.0405 30.84 76.0405 30.52C75.7205 31.0267 75.3338 31.4267 74.8805 31.72C74.4271 32 73.8738 32.14 73.2205 32.14ZM74.6405 30.86C74.9071 30.86 75.1471 30.8 75.3605 30.68C75.5871 30.5467 75.8005 30.3333 76.0005 30.04V25.94C75.8805 26.14 75.7138 26.32 75.5005 26.48C75.2871 26.64 75.0605 26.8067 74.8205 26.98C74.5805 27.14 74.3471 27.32 74.1205 27.52C73.9071 27.72 73.7338 27.9667 73.6005 28.26C73.4671 28.5533 73.4005 28.9067 73.4005 29.32C73.4005 29.84 73.5138 30.2267 73.7405 30.48C73.9671 30.7333 74.2671 30.86 74.6405 30.86ZM84.892 16.34V30.14C84.892 30.7 84.9854 31.08 85.172 31.28C85.372 31.48 85.7054 31.58 86.172 31.58V32C85.9187 31.9867 85.5387 31.9733 85.032 31.96C84.5254 31.9333 84.012 31.92 83.492 31.92C82.972 31.92 82.4454 31.9333 81.912 31.96C81.392 31.9733 80.9987 31.9867 80.732 32V31.58C81.1987 31.58 81.5254 31.48 81.712 31.28C81.912 31.08 82.012 30.7 82.012 30.14V18.74C82.012 18.14 81.9187 17.7 81.732 17.42C81.5587 17.1267 81.2254 16.98 80.732 16.98V16.56C81.1587 16.6 81.572 16.62 81.972 16.62C82.5187 16.62 83.0387 16.6 83.532 16.56C84.0254 16.5067 84.4787 16.4333 84.892 16.34ZM98.0709 17.84C100.698 17.84 102.651 18.44 103.931 19.64C105.211 20.8267 105.851 22.5333 105.851 24.76C105.851 26.2133 105.538 27.4867 104.911 28.58C104.284 29.66 103.371 30.5 102.171 31.1C100.984 31.7 99.5576 32 97.8909 32C97.6776 32 97.3976 31.9933 97.0509 31.98C96.7043 31.9667 96.3443 31.96 95.9709 31.96C95.5976 31.9467 95.2643 31.94 94.9709 31.94C94.3843 31.94 93.8043 31.9467 93.2309 31.96C92.6709 31.96 92.2243 31.9733 91.8909 32V31.6C92.3176 31.5733 92.6376 31.52 92.8509 31.44C93.0643 31.36 93.2043 31.2 93.2709 30.96C93.3509 30.72 93.3909 30.36 93.3909 29.88V19.96C93.3909 19.4667 93.3509 19.1067 93.2709 18.88C93.2043 18.64 93.0576 18.48 92.8309 18.4C92.6176 18.3067 92.3043 18.2533 91.8909 18.24V17.84C92.2243 17.8533 92.6709 17.8733 93.2309 17.9C93.8043 17.9133 94.3709 17.9133 94.9309 17.9C95.4109 17.8867 95.9509 17.8733 96.5509 17.86C97.1643 17.8467 97.6709 17.84 98.0709 17.84ZM98.0509 18.2C97.4376 18.2 97.0376 18.3133 96.8509 18.54C96.6643 18.7667 96.5709 19.2267 96.5709 19.92V29.92C96.5709 30.6133 96.6643 31.0733 96.8509 31.3C97.0509 31.5267 97.4576 31.64 98.0709 31.64C99.1909 31.64 100.071 31.38 100.711 30.86C101.364 30.3267 101.831 29.5533 102.111 28.54C102.391 27.5267 102.531 26.2933 102.531 24.84C102.531 23.3467 102.378 22.1133 102.071 21.14C101.778 20.1533 101.304 19.42 100.651 18.94C99.9976 18.4467 99.1309 18.2 98.0509 18.2ZM109.818 16.5C110.378 16.5 110.818 16.64 111.138 16.92C111.472 17.1867 111.638 17.56 111.638 18.04C111.638 18.52 111.472 18.9 111.138 19.18C110.818 19.4467 110.378 19.58 109.818 19.58C109.258 19.58 108.812 19.4467 108.478 19.18C108.158 18.9 107.998 18.52 107.998 18.04C107.998 17.56 108.158 17.1867 108.478 16.92C108.812 16.64 109.258 16.5 109.818 16.5ZM111.378 21.44V30.14C111.378 30.7 111.472 31.08 111.658 31.28C111.858 31.48 112.192 31.58 112.658 31.58V32C112.418 31.9867 112.045 31.9733 111.538 31.96C111.032 31.9333 110.518 31.92 109.998 31.92C109.478 31.92 108.952 31.9333 108.418 31.96C107.885 31.9733 107.485 31.9867 107.218 32V31.58C107.685 31.58 108.012 31.48 108.198 31.28C108.398 31.08 108.498 30.7 108.498 30.14V23.84C108.498 23.24 108.405 22.8 108.218 22.52C108.045 22.2267 107.712 22.08 107.218 22.08V21.66C107.645 21.7 108.058 21.72 108.458 21.72C109.018 21.72 109.538 21.7 110.018 21.66C110.512 21.6067 110.965 21.5333 111.378 21.44ZM117.487 21.38C118.047 21.38 118.534 21.4533 118.947 21.6C119.374 21.7333 119.68 21.8667 119.867 22C120.32 22.3067 120.6 22.1067 120.707 21.4H121.127C121.1 21.7733 121.08 22.2333 121.067 22.78C121.054 23.3133 121.047 24.0267 121.047 24.92H120.627C120.56 24.4267 120.434 23.94 120.247 23.46C120.06 22.98 119.787 22.5867 119.427 22.28C119.08 21.9733 118.627 21.82 118.067 21.82C117.68 21.82 117.354 21.9333 117.087 22.16C116.82 22.3733 116.687 22.6867 116.687 23.1C116.687 23.5 116.807 23.8533 117.047 24.16C117.287 24.4533 117.594 24.74 117.967 25.02C118.354 25.2867 118.754 25.5733 119.167 25.88C119.607 26.2133 120.007 26.5467 120.367 26.88C120.727 27.2 121.014 27.5533 121.227 27.94C121.44 28.3267 121.547 28.7867 121.547 29.32C121.547 29.92 121.374 30.4467 121.027 30.9C120.68 31.34 120.22 31.68 119.647 31.92C119.087 32.16 118.46 32.28 117.767 32.28C117.367 32.28 117.007 32.24 116.687 32.16C116.38 32.08 116.114 31.98 115.887 31.86C115.714 31.78 115.547 31.7067 115.387 31.64C115.24 31.56 115.1 31.4933 114.967 31.44C114.834 31.4 114.714 31.4467 114.607 31.58C114.514 31.7133 114.44 31.9 114.387 32.14H113.967C113.994 31.7133 114.014 31.1933 114.027 30.58C114.04 29.9667 114.047 29.1533 114.047 28.14H114.467C114.547 28.86 114.694 29.5 114.907 30.06C115.12 30.6067 115.407 31.04 115.767 31.36C116.14 31.6667 116.607 31.82 117.167 31.82C117.394 31.82 117.614 31.7733 117.827 31.68C118.04 31.5867 118.214 31.4333 118.347 31.22C118.494 31.0067 118.567 30.7333 118.567 30.4C118.567 29.8133 118.374 29.3267 117.987 28.94C117.614 28.5533 117.134 28.1333 116.547 27.68C116.12 27.3333 115.714 26.9933 115.327 26.66C114.954 26.3133 114.647 25.94 114.407 25.54C114.167 25.1267 114.047 24.66 114.047 24.14C114.047 23.54 114.207 23.0333 114.527 22.62C114.847 22.2067 115.267 21.9 115.787 21.7C116.32 21.4867 116.887 21.38 117.487 21.38ZM127.965 21.38C128.485 21.38 128.958 21.44 129.385 21.56C129.825 21.6667 130.185 21.8067 130.465 21.98C130.812 22.1933 131.078 22.46 131.265 22.78C131.465 23.0867 131.565 23.4467 131.565 23.86C131.565 24.3267 131.418 24.7133 131.125 25.02C130.832 25.3133 130.452 25.46 129.985 25.46C129.518 25.46 129.145 25.3267 128.865 25.06C128.585 24.7933 128.445 24.4333 128.445 23.98C128.445 23.5533 128.578 23.2 128.845 22.92C129.112 22.6267 129.418 22.4333 129.765 22.34C129.658 22.2067 129.498 22.0933 129.285 22C129.072 21.9067 128.832 21.86 128.565 21.86C128.152 21.86 127.785 21.98 127.465 22.22C127.158 22.46 126.898 22.7933 126.685 23.22C126.472 23.6467 126.305 24.1467 126.185 24.72C126.078 25.2933 126.025 25.92 126.025 26.6C126.025 27.6267 126.152 28.4333 126.405 29.02C126.672 29.6067 127.005 30.02 127.405 30.26C127.818 30.5 128.245 30.62 128.685 30.62C128.938 30.62 129.212 30.58 129.505 30.5C129.812 30.42 130.118 30.26 130.425 30.02C130.745 29.78 131.038 29.44 131.305 29L131.645 29.12C131.498 29.6133 131.258 30.1067 130.925 30.6C130.592 31.0933 130.158 31.5 129.625 31.82C129.092 32.1267 128.438 32.28 127.665 32.28C126.798 32.28 126.012 32.0933 125.305 31.72C124.612 31.3333 124.052 30.7467 123.625 29.96C123.212 29.16 123.005 28.1333 123.005 26.88C123.005 25.68 123.218 24.6733 123.645 23.86C124.085 23.0333 124.678 22.4133 125.425 22C126.172 21.5867 127.018 21.38 127.965 21.38ZM137.847 21.38C138.82 21.38 139.674 21.56 140.407 21.92C141.14 22.28 141.714 22.86 142.127 23.66C142.54 24.46 142.747 25.52 142.747 26.84C142.747 28.16 142.54 29.22 142.127 30.02C141.714 30.8067 141.14 31.38 140.407 31.74C139.674 32.1 138.82 32.28 137.847 32.28C136.9 32.28 136.054 32.1 135.307 31.74C134.574 31.38 133.994 30.8067 133.567 30.02C133.154 29.22 132.947 28.16 132.947 26.84C132.947 25.52 133.154 24.46 133.567 23.66C133.994 22.86 134.574 22.28 135.307 21.92C136.054 21.56 136.9 21.38 137.847 21.38ZM137.847 21.78C137.314 21.78 136.867 22.18 136.507 22.98C136.147 23.7667 135.967 25.0533 135.967 26.84C135.967 28.6267 136.147 29.9133 136.507 30.7C136.867 31.4867 137.314 31.88 137.847 31.88C138.394 31.88 138.84 31.4867 139.187 30.7C139.547 29.9133 139.727 28.6267 139.727 26.84C139.727 25.0533 139.547 23.7667 139.187 22.98C138.84 22.18 138.394 21.78 137.847 21.78ZM153.956 21.44V29.82C153.956 30.42 154.049 30.8667 154.236 31.16C154.422 31.44 154.756 31.58 155.236 31.58V32C154.822 31.96 154.409 31.94 153.996 31.94C153.436 31.94 152.916 31.96 152.436 32C151.956 32.04 151.502 32.1133 151.076 32.22V30.42C150.756 31.0867 150.309 31.5667 149.736 31.86C149.176 32.14 148.549 32.28 147.856 32.28C147.296 32.28 146.842 32.2067 146.496 32.06C146.149 31.9133 145.876 31.7267 145.676 31.5C145.449 31.2467 145.289 30.9133 145.196 30.5C145.102 30.0867 145.056 29.5533 145.056 28.9V23.84C145.056 23.24 144.962 22.8 144.776 22.52C144.602 22.2267 144.269 22.08 143.776 22.08V21.66C144.202 21.7 144.616 21.72 145.016 21.72C145.576 21.72 146.096 21.7 146.576 21.66C147.069 21.6067 147.522 21.5333 147.936 21.44V29.72C147.936 30.0533 147.962 30.3467 148.016 30.6C148.082 30.8533 148.202 31.0533 148.376 31.2C148.549 31.3333 148.802 31.4 149.136 31.4C149.496 31.4 149.816 31.3 150.096 31.1C150.389 30.9 150.622 30.6267 150.796 30.28C150.982 29.92 151.076 29.52 151.076 29.08V23.84C151.076 23.24 150.982 22.8 150.796 22.52C150.622 22.2267 150.289 22.08 149.796 22.08V21.66C150.222 21.7 150.636 21.72 151.036 21.72C151.596 21.72 152.116 21.7 152.596 21.66C153.089 21.6067 153.542 21.5333 153.956 21.44ZM163.565 21.38C164.125 21.38 164.578 21.4533 164.925 21.6C165.285 21.7333 165.565 21.92 165.765 22.16C165.978 22.4133 166.131 22.74 166.225 23.14C166.331 23.54 166.385 24.08 166.385 24.76V30.14C166.385 30.7 166.478 31.08 166.665 31.28C166.865 31.48 167.198 31.58 167.665 31.58V32C167.411 31.9867 167.031 31.9733 166.525 31.96C166.018 31.9333 165.518 31.92 165.025 31.92C164.518 31.92 164.018 31.9333 163.525 31.96C163.045 31.9733 162.678 31.9867 162.425 32V31.58C162.825 31.58 163.105 31.48 163.265 31.28C163.425 31.08 163.505 30.7 163.505 30.14V23.92C163.505 23.5867 163.471 23.3 163.405 23.06C163.338 22.8067 163.218 22.6133 163.045 22.48C162.871 22.3333 162.611 22.26 162.265 22.26C161.905 22.26 161.571 22.36 161.265 22.56C160.971 22.76 160.731 23.04 160.545 23.4C160.371 23.7467 160.285 24.14 160.285 24.58V30.14C160.285 30.7 160.365 31.08 160.525 31.28C160.698 31.48 160.978 31.58 161.365 31.58V32C161.125 31.9867 160.771 31.9733 160.305 31.96C159.851 31.9333 159.378 31.92 158.885 31.92C158.378 31.92 157.858 31.9333 157.325 31.96C156.791 31.9733 156.391 31.9867 156.125 32V31.58C156.591 31.58 156.918 31.48 157.105 31.28C157.305 31.08 157.405 30.7 157.405 30.14V23.84C157.405 23.24 157.311 22.8 157.125 22.52C156.951 22.2267 156.618 22.08 156.125 22.08V21.66C156.551 21.7 156.965 21.72 157.365 21.72C157.925 21.72 158.445 21.7 158.925 21.66C159.418 21.6067 159.871 21.5333 160.285 21.44V23.24C160.618 22.56 161.071 22.08 161.645 21.8C162.218 21.52 162.858 21.38 163.565 21.38ZM172.47 18.38V21.66H174.83V22.06H172.47V30.14C172.47 30.54 172.543 30.8267 172.69 31C172.836 31.16 173.056 31.24 173.35 31.24C173.59 31.24 173.83 31.1533 174.07 30.98C174.31 30.7933 174.523 30.48 174.71 30.04L175.05 30.22C174.836 30.82 174.51 31.3133 174.07 31.7C173.643 32.0867 173.056 32.28 172.31 32.28C171.87 32.28 171.483 32.22 171.15 32.1C170.816 31.9933 170.536 31.8267 170.31 31.6C170.016 31.3067 169.823 30.9467 169.73 30.52C169.636 30.08 169.59 29.5133 169.59 28.82V22.06H167.91V21.66H169.59V19.02C170.15 19.02 170.663 18.9733 171.13 18.88C171.61 18.7733 172.056 18.6067 172.47 18.38ZM177.841 16.36C178.268 16.36 178.648 16.5333 178.981 16.88C179.314 17.2133 179.481 17.6933 179.481 18.32C179.481 18.8933 179.414 19.54 179.281 20.26C179.148 20.98 178.988 21.76 178.801 22.6C178.614 23.4267 178.448 24.3 178.301 25.22C178.154 26.14 178.061 27.0933 178.021 28.08H177.661C177.634 27.0933 177.541 26.14 177.381 25.22C177.234 24.3 177.068 23.4267 176.881 22.6C176.708 21.76 176.548 20.98 176.401 20.26C176.268 19.54 176.201 18.8933 176.201 18.32C176.201 17.6933 176.354 17.2133 176.661 16.88C176.981 16.5333 177.374 16.36 177.841 16.36ZM177.841 29.2C178.361 29.2 178.774 29.34 179.081 29.62C179.388 29.8867 179.541 30.26 179.541 30.74C179.541 31.22 179.388 31.6 179.081 31.88C178.774 32.1467 178.361 32.28 177.841 32.28C177.321 32.28 176.908 32.1467 176.601 31.88C176.294 31.6 176.141 31.22 176.141 30.74C176.141 30.26 176.294 29.8867 176.601 29.62C176.908 29.34 177.321 29.2 177.841 29.2Z" fill="white"/>
<defs>
<linearGradient id="paint0_linear_1988_27564" x1="150" y1="0" x2="150" y2="124" gradientUnits="userSpaceOnUse">
<stop stop-color="#F99E3F"/>
<stop offset="1" stop-color="#FFB536"/>
</linearGradient>
<clipPath id="clip0_1988_27564">
<rect width="112" height="91" fill="white" transform="matrix(-1 0 0 1 280 24)"/>
</clipPath>
</defs>
</svg>
