<svg width="20" height="21" viewBox="0 0 20 21" fill="none" xmlns="http://www.w3.org/2000/svg">
<path d="M18.9524 1.04794C18.2814 0.376956 17.3713 0 16.4224 0C15.4734 0 14.5634 0.376956 13.8924 1.04794L1.94036 12.9999C1.53399 13.4065 1.24839 13.9178 1.11536 14.4769L0.0203556 19.0779C-0.00929281 19.2026 -0.00651306 19.3328 0.0284298 19.456C0.0633727 19.5793 0.129314 19.6916 0.219964 19.7821C0.310614 19.8727 0.42295 19.9385 0.546259 19.9733C0.669568 20.0081 0.799739 20.0107 0.924356 19.9809L5.52536 18.8849C6.08454 18.7519 6.59584 18.4663 7.00236 18.0599L18.9524 6.10794C19.6233 5.43694 20.0003 4.52688 20.0003 3.57794C20.0003 2.62901 19.6233 1.71895 18.9524 1.04794ZM14.9524 2.10794C15.1454 1.9149 15.3746 1.76177 15.6268 1.6573C15.879 1.55282 16.1494 1.49905 16.4224 1.49905C16.6954 1.49905 16.9657 1.55282 17.2179 1.6573C17.4701 1.76177 17.6993 1.9149 17.8924 2.10794C18.0854 2.30099 18.2385 2.53016 18.343 2.78239C18.4475 3.03461 18.5012 3.30494 18.5012 3.57794C18.5012 3.85095 18.4475 4.12128 18.343 4.3735C18.2385 4.62572 18.0854 4.8549 17.8924 5.04794L17.0004 5.93894L14.0604 2.99994L14.9524 2.10994V2.10794ZM13.0004 4.06194L15.9404 6.99994L5.94036 16.9999C5.73036 17.2099 5.46636 17.3569 5.17736 17.4259L1.76136 18.2389L2.57436 14.8229C2.64336 14.5349 2.79136 14.2699 3.00136 14.0599L13.0004 4.05994V4.06194Z" fill="white"/>
</svg>
