<svg width="20" height="20" viewBox="0 0 20 20" fill="none" xmlns="http://www.w3.org/2000/svg">
<circle cx="10" cy="10" r="10" fill="#F99E3F"/>
<path d="M6.5 13V14.883L7.2575 14.4285L9.6385 13H12C12.5515 13 13 12.5515 13 12V8C13 7.4485 12.5515 7 12 7H6C5.4485 7 5 7.4485 5 8V12C5 12.5515 5.4485 13 6 13H6.5ZM6 8H12V12H9.3615L7.5 13.117V12H6V8Z" fill="white"/>
<path d="M14 5H8C7.4485 5 7 5.4485 7 6H13C13.5515 6 14 6.4485 14 7V11C14.5515 11 15 10.5515 15 10V6C15 5.4485 14.5515 5 14 5Z" fill="white"/>
</svg>
