<svg width="40" height="40" viewBox="0 0 40 40" fill="none" xmlns="http://www.w3.org/2000/svg">
<rect width="40" height="40" rx="10" fill="#F99E3F" fill-opacity="0.15"/>
<path d="M20 29.75C25.3848 29.75 29.75 25.3848 29.75 20C29.75 14.6152 25.3848 10.25 20 10.25C14.6152 10.25 10.25 14.6152 10.25 20C10.25 25.3848 14.6152 29.75 20 29.75Z" stroke="#EF4C29" stroke-linecap="round" stroke-linejoin="round"/>
<path d="M17.0671 23.68C17.3397 24.024 17.6909 24.2975 18.0911 24.4776C18.4913 24.6577 18.9289 24.7391 19.3671 24.715H20.7471C21.3571 24.715 21.9422 24.4727 22.3735 24.0413C22.8048 23.61 23.0471 23.025 23.0471 22.415C23.0471 21.805 22.8048 21.22 22.3735 20.7887C21.9422 20.3573 21.3571 20.115 20.7471 20.115H19.2521C18.6421 20.115 18.0571 19.8727 17.6258 19.4413C17.1945 19.01 16.9521 18.425 16.9521 17.815C16.9521 17.205 17.1945 16.62 17.6258 16.1887C18.0571 15.7573 18.6421 15.515 19.2521 15.515H20.6321C21.6671 15.515 22.3571 15.745 22.9321 16.55M19.9421 14.25V25.75" stroke="#EF4C29" stroke-linecap="round" stroke-linejoin="round"/>
</svg>
