<svg width="205" height="123" viewBox="0 0 205 123" fill="none" xmlns="http://www.w3.org/2000/svg">
<g clip-path="url(#clip0_2585_34553)">
<path d="M34.4003 117.083C34.2361 117.09 34.0735 117.047 33.9345 116.959C33.7956 116.871 33.6871 116.743 33.6237 116.591C33.5602 116.439 33.545 116.272 33.5799 116.111C33.6149 115.951 33.6984 115.805 33.8191 115.693L33.8741 115.475C33.8669 115.457 33.8596 115.44 33.8523 115.422C33.6868 115.032 33.4095 114.698 33.0553 114.465C32.701 114.231 32.2856 114.107 31.8611 114.109C31.4367 114.11 31.0222 114.237 30.6697 114.474C30.3172 114.71 30.0424 115.045 29.8798 115.437C29.2301 117.001 28.4029 118.568 28.1993 120.222C28.1096 120.953 28.1474 121.694 28.3111 122.413C26.7851 119.085 25.9927 115.468 25.9876 111.808C25.9873 110.889 26.0384 109.971 26.1405 109.058C26.225 108.31 26.3422 107.567 26.492 106.829C27.3099 102.826 29.066 99.0743 31.616 95.8816C32.8502 95.2084 33.8483 94.1732 34.4758 92.9154C34.7032 92.4633 34.8639 91.9807 34.9529 91.4826C34.8137 91.5008 34.4279 89.3811 34.5329 89.2511C34.3389 88.9568 33.9916 88.8105 33.7797 88.5233C32.7259 87.0949 31.2739 87.3443 30.5159 89.2853C28.8967 90.1023 28.881 91.4572 29.8745 92.7603C30.5067 93.5893 30.5935 94.7111 31.1481 95.5986C31.0911 95.6717 31.0317 95.7424 30.9747 95.8154C29.9316 97.1562 29.0225 98.596 28.2604 100.114C28.4457 98.4134 28.2245 96.693 27.615 95.0944C26.9972 93.6046 25.8393 92.3499 24.8196 91.062C23.5948 89.515 21.0833 90.1901 20.8675 92.1512C20.8654 92.1702 20.8634 92.1892 20.8614 92.2081C21.0128 92.2935 21.1611 92.3842 21.3062 92.4801C21.4884 92.6018 21.6296 92.7757 21.7113 92.979C21.793 93.1823 21.8113 93.4056 21.7639 93.6195C21.7165 93.8334 21.6055 94.028 21.4456 94.1778C21.2857 94.3276 21.0842 94.4256 20.8676 94.459L20.8454 94.4624C20.8994 95.0081 20.9947 95.5489 21.1307 96.0801C19.8226 101.137 22.6467 102.979 26.6792 103.062C26.7682 103.108 26.855 103.153 26.944 103.197C26.1783 105.366 25.698 107.625 25.5152 109.918C25.4117 111.271 25.4178 112.63 25.5335 113.982L25.5266 113.934C25.2344 112.431 24.4323 111.074 23.2556 110.094C21.508 108.659 19.0389 108.13 17.1535 106.977C16.9531 106.848 16.7201 106.779 16.482 106.779C16.2439 106.778 16.0106 106.846 15.8096 106.973C15.6086 107.101 15.4483 107.284 15.3476 107.499C15.2469 107.715 15.21 107.955 15.2413 108.191C15.2438 108.208 15.2464 108.224 15.249 108.241C15.5301 108.356 15.8037 108.488 16.0684 108.636C16.2198 108.721 16.3681 108.812 16.5131 108.908C16.6954 109.03 16.8366 109.204 16.9182 109.407C16.9999 109.61 17.0183 109.833 16.9708 110.047C16.9234 110.261 16.8125 110.456 16.6526 110.606C16.4926 110.755 16.2912 110.853 16.0746 110.887L16.0524 110.89C16.0364 110.893 16.0227 110.895 16.0068 110.897C16.487 112.043 17.161 113.098 17.9993 114.016C18.8172 118.431 22.3302 118.85 26.0881 117.564H26.0904C26.5027 119.355 27.1001 121.099 27.8729 122.766H34.2408C34.2636 122.696 34.2841 122.622 34.3047 122.552C33.7153 122.589 33.1235 122.554 32.5427 122.447C33.0151 121.867 33.4876 121.283 33.9601 120.704C33.9706 120.693 33.9805 120.681 33.9897 120.669C34.2294 120.373 34.4713 120.078 34.711 119.782L34.7111 119.781C34.7239 118.872 34.6195 117.965 34.4006 117.083L34.4003 117.083Z" fill="#F2F2F2"/>
<path d="M167.404 117.083C167.568 117.09 167.731 117.047 167.87 116.959C168.009 116.871 168.117 116.743 168.181 116.591C168.244 116.439 168.259 116.272 168.225 116.111C168.19 115.951 168.106 115.805 167.985 115.693L167.93 115.475C167.938 115.457 167.945 115.44 167.952 115.422C168.118 115.032 168.395 114.698 168.749 114.465C169.103 114.231 169.519 114.107 169.943 114.109C170.368 114.11 170.782 114.237 171.135 114.474C171.487 114.71 171.762 115.045 171.925 115.437C172.574 117.001 173.401 118.568 173.605 120.222C173.695 120.953 173.657 121.694 173.493 122.413C175.019 119.085 175.812 115.468 175.817 111.808C175.817 110.889 175.766 109.971 175.664 109.058C175.579 108.31 175.462 107.567 175.312 106.829C174.494 102.826 172.738 99.0743 170.188 95.8816C168.954 95.2084 167.956 94.1732 167.329 92.9154C167.101 92.4633 166.941 91.9807 166.852 91.4826C166.991 91.5008 167.377 89.3811 167.272 89.2511C167.466 88.9568 167.813 88.8105 168.025 88.5233C169.079 87.0949 170.531 87.3443 171.289 89.2853C172.908 90.1023 172.923 91.4572 171.93 92.7603C171.298 93.5893 171.211 94.7111 170.656 95.5986C170.713 95.6717 170.773 95.7424 170.83 95.8154C171.873 97.1562 172.782 98.596 173.544 100.114C173.359 98.4134 173.58 96.693 174.189 95.0944C174.807 93.6046 175.965 92.3499 176.985 91.062C178.21 89.515 180.721 90.1901 180.937 92.1512C180.939 92.1702 180.941 92.1892 180.943 92.2081C180.792 92.2935 180.643 92.3842 180.498 92.4801C180.316 92.6018 180.175 92.7757 180.093 92.979C180.011 93.1823 179.993 93.4056 180.041 93.6195C180.088 93.8334 180.199 94.028 180.359 94.1778C180.519 94.3276 180.72 94.4256 180.937 94.459L180.959 94.4624C180.905 95.0081 180.81 95.5489 180.674 96.0801C181.982 101.137 179.158 102.979 175.125 103.062C175.036 103.108 174.949 103.153 174.86 103.197C175.626 105.366 176.106 107.625 176.289 109.918C176.393 111.271 176.387 112.63 176.271 113.982L176.278 113.934C176.57 112.431 177.372 111.074 178.549 110.094C180.296 108.659 182.766 108.13 184.651 106.977C184.851 106.848 185.084 106.779 185.322 106.779C185.561 106.778 185.794 106.846 185.995 106.973C186.196 107.101 186.356 107.284 186.457 107.499C186.558 107.715 186.594 107.955 186.563 108.191C186.561 108.208 186.558 108.224 186.555 108.241C186.274 108.356 186.001 108.488 185.736 108.636C185.585 108.721 185.436 108.812 185.291 108.908C185.109 109.03 184.968 109.204 184.886 109.407C184.805 109.61 184.786 109.833 184.834 110.047C184.881 110.261 184.992 110.456 185.152 110.606C185.312 110.755 185.513 110.853 185.73 110.887L185.752 110.89C185.768 110.893 185.782 110.895 185.798 110.897C185.317 112.043 184.643 113.098 183.805 114.016C182.987 118.431 179.474 118.85 175.716 117.564H175.714C175.302 119.355 174.704 121.099 173.932 122.766H167.564C167.541 122.696 167.52 122.622 167.5 122.552C168.089 122.589 168.681 122.554 169.262 122.447C168.789 121.867 168.317 121.283 167.844 120.704C167.834 120.693 167.824 120.681 167.815 120.669C167.575 120.373 167.333 120.078 167.093 119.782L167.093 119.781C167.081 118.872 167.185 117.965 167.404 117.083L167.404 117.083Z" fill="#F2F2F2"/>
<path d="M41.7246 122.624H52.0003C53.7578 116.708 52.0097 102.728 54.3262 97.0133C58.7705 86.057 64.4482 74.4966 75.0454 69.1469C79.5701 66.8626 84.5035 65.9704 89.5418 66.019C96.5017 66.085 103.657 67.9527 110.209 70.4279C112.888 71.4382 115.544 72.5491 118.189 73.6843C128.154 77.9647 138.01 82.6271 148.726 83.8873C162.286 85.4807 178.229 79.4159 181.932 66.3523C184.759 56.3507 179.668 45.9672 174.33 37.0348C168.991 28.1024 163.023 18.5451 163.998 8.20328C164.002 8.16857 164.005 8.13037 164.012 8.09566C164.379 4.38106 166.598 1.71149 169.697 0H156.203C156.025 9.64752 161.608 18.1633 166.632 26.5714C171.971 35.5003 177.062 45.8873 174.235 55.8889C170.532 68.949 139.864 53.6399 126.304 52.043C122.475 51.5951 128.558 53.1886 124.907 52.043C119.18 50.2481 118.545 66.7099 112.972 64.2937C109.503 62.787 106.03 61.2907 102.511 59.9611C101.054 59.4091 99.566 58.8919 98.0601 58.4128C98.0566 58.4128 98.0566 58.4128 98.0531 58.4093C87.9416 55.2085 76.8832 53.9622 67.5404 58.5898C67.4775 58.6211 67.4111 58.6523 67.3482 58.6836C56.751 64.0298 51.0733 75.5902 46.629 86.5465C42.9569 95.6039 43.5345 113.07 41.7246 122.624Z" fill="#F2F2F2"/>
<path d="M98.8947 122.321C124.96 122.321 146.09 101.198 146.09 75.141C146.09 49.0842 124.96 27.9609 98.8947 27.9609C72.8293 27.9609 51.6992 49.0842 51.6992 75.141C51.6992 101.198 72.8293 122.321 98.8947 122.321Z" fill="white"/>
<path d="M98.7601 122.624C52.0649 123.696 51.041 101.519 51.041 75.1406C51.041 48.7629 72.5082 27.3027 98.8949 27.3027C125.282 27.3027 146.749 48.7629 146.749 75.1406C146.749 101.519 125.147 122.624 98.7601 122.624ZM98.8948 28.6191C73.2341 28.6191 52.7899 49.4922 52.3577 75.1407C51.9558 98.9969 77.3074 128.766 98.8948 121.663C110.472 108.917 143.202 95.1895 145.432 75.1407C148.268 49.6457 124.556 28.6191 98.8948 28.6191V28.6191Z" fill="#3F3D56"/>
<path d="M92.4555 99.6956C91.6405 99.6956 90.8367 99.5058 90.1078 99.1414C89.3789 98.7769 88.7449 98.2478 88.256 97.5959L75.3804 80.4337C74.9664 79.8824 74.6651 79.2549 74.4938 78.5871C74.3224 77.9194 74.2843 77.2244 74.3817 76.5419C74.4791 75.8595 74.71 75.2029 75.0613 74.6096C75.4126 74.0164 75.8774 73.4982 76.4291 73.0846C76.9808 72.671 77.6086 72.3701 78.2767 72.1991C78.9448 72.0281 79.64 71.9903 80.3226 72.088C81.0053 72.1857 81.662 72.4169 82.2553 72.7683C82.8485 73.1198 83.3667 73.5847 83.7802 74.1364L92.2039 85.3634L113.839 52.9217C114.612 51.7644 115.813 50.9611 117.177 50.6886C118.542 50.4161 119.96 50.6965 121.118 51.4684C122.276 52.2402 123.08 53.4402 123.353 54.8046C123.627 56.1689 123.347 57.586 122.575 58.7441L96.8242 97.3584C96.3583 98.0568 95.7318 98.6333 94.9971 99.0397C94.2624 99.446 93.4409 99.6703 92.6016 99.6939C92.5529 99.6947 92.5042 99.6956 92.4555 99.6956Z" fill="#F2F2F2"/>
<path d="M1.50457e-06 122.66C-0.000131628 122.705 0.00857176 122.749 0.0256084 122.79C0.0426451 122.832 0.0676804 122.869 0.0992735 122.901C0.130867 122.932 0.168391 122.957 0.209695 122.974C0.250998 122.991 0.295266 123 0.339943 123H204.66C204.75 123 204.837 122.964 204.9 122.9C204.964 122.837 205 122.75 205 122.66C205 122.57 204.964 122.484 204.9 122.42C204.837 122.356 204.75 122.32 204.66 122.32H0.339943C0.295266 122.32 0.251002 122.329 0.209699 122.346C0.168396 122.363 0.130871 122.388 0.0992778 122.42C0.067685 122.451 0.0426499 122.489 0.0256128 122.53C0.00857558 122.571 -0.000130112 122.615 1.50457e-06 122.66V122.66Z" fill="#CCCCCC"/>
<path d="M129.032 119.329H126.269L124.954 108.673L129.033 108.673L129.032 119.329Z" fill="#FFB6B6"/>
<path d="M129.13 122.211L120.632 122.21V122.103C120.632 121.226 120.98 120.385 121.601 119.765C122.221 119.145 123.062 118.796 123.94 118.796H123.94L125.492 117.619L128.388 118.797L129.13 118.797L129.13 122.211Z" fill="#2F2E41"/>
<path d="M117.018 106.122L114.466 107.181L109.168 97.841L112.936 96.2793L117.018 106.122Z" fill="#FFB6B6"/>
<path d="M118.213 108.747L110.363 112.002L110.322 111.902C109.986 111.092 109.985 110.182 110.321 109.372C110.656 108.561 111.3 107.917 112.11 107.581L112.11 107.581L113.093 105.899L116.219 105.878L116.905 105.594L118.213 108.747Z" fill="#2F2E41"/>
<path d="M132.193 58.7129L112.581 60.7612L109.957 69.5942L100.872 84.1897C100.872 84.1897 107.212 94.8564 106.616 94.7402C106.021 94.624 107.211 97.5316 108.044 97.3628C108.878 97.194 109.744 99.0898 109.168 99.4269C108.592 99.7639 110.903 102.614 110.903 102.614L114.436 99.4443C115.188 93.7781 114.28 88.7353 111.045 84.5664L121.166 73.6432L123.086 72.8471L124.609 113.38L130.244 113.473C131.799 105.477 132.58 98.2808 131.365 93.147C131.365 93.147 131.539 77.7246 132.206 77.8933C132.872 78.0619 132.307 76.0528 132.307 76.0528C132.307 76.0528 131.723 74.3417 132.44 73.6318C133.158 72.922 132.71 68.7469 132.71 68.7469C133.895 64.7958 133.538 61.5334 132.193 58.7129Z" fill="#2F2E41"/>
<path d="M117.113 26.1166L122.534 24.7121L125.065 21.2227L131.076 21.9613L132.355 26.7209L136.634 29.2039C136.634 29.2039 134.269 54.2102 134.831 55.5833C135.394 56.9563 137.411 56.843 135.688 58.613C133.966 60.383 133.738 59.6701 134.137 61.5971C134.537 63.5241 137.451 65.5634 134.137 65.5432C130.824 65.523 110.828 65.2374 111.4 62.953C111.971 60.6685 111.962 61.2486 112.823 59.8164C113.685 58.3841 114.265 59.1845 113.975 57.071C113.685 54.9575 113.971 53.5297 113.971 52.3875C113.971 51.2453 114.928 40.8658 114.928 40.8658L117.113 26.1166Z" fill="#E6E6E6"/>
<path d="M128.056 20.5771C131.573 20.5771 134.425 17.7264 134.425 14.2099C134.425 10.6934 131.573 7.84277 128.056 7.84277C124.538 7.84277 121.687 10.6934 121.687 14.2099C121.687 17.7264 124.538 20.5771 128.056 20.5771Z" fill="#FFB6B6"/>
<path d="M121.382 10.3571C121.941 10.8089 121.813 13.0061 122.436 12.648C123.059 12.2898 123.189 11.6485 123.907 11.6418C124.492 11.674 125.043 11.9237 125.454 12.3417C125.53 12.4107 125.603 12.483 125.673 12.5546C125.738 12.532 125.802 12.5115 125.869 12.4946C126.372 12.3718 126.903 12.4466 127.353 12.7036C126.938 12.7332 126.542 12.8926 126.223 13.1593C126.36 13.3127 126.499 13.467 126.645 13.6097C127.864 14.8047 130.366 13.5321 132.047 13.2449C130.647 14.7738 130.923 15.6272 131.271 17.6707L131.273 17.7824C131.344 17.3111 132.854 17.3346 132.605 17.9599C132.293 18.5776 131.901 19.1524 131.441 19.67C133.499 18.2453 135.159 16.2815 135.526 13.9092C135.602 13.4105 135.749 12.9016 135.607 12.4153C135.546 12.1694 135.406 11.9504 135.208 11.7926C135.01 11.6348 134.765 11.547 134.512 11.5429C134.741 10.8152 134.769 10.039 134.592 9.29693C134.415 8.55481 134.04 7.87446 133.508 7.32822C132.975 6.78199 132.304 6.39028 131.566 6.19474C130.829 5.9992 130.052 6.00714 129.318 6.21771C128.649 6.45543 127.997 6.73702 127.365 7.06066C126.727 7.38556 126.005 7.5078 125.296 7.41101C124.854 7.31976 124.406 7.09105 123.973 7.22055C123.471 7.37101 123.255 7.90087 123.054 8.41236C123.432 8.55022 123.76 8.79748 123.996 9.12256C123.606 8.97855 123.18 8.96126 122.779 9.07313C122.772 9.07443 122.765 9.0764 122.758 9.07901C122.303 9.893 122.277 10.0926 121.382 10.3571Z" fill="#2F2E41"/>
<path d="M123.482 23.0063C120.22 22.7438 117.241 25.2379 115.883 28.2147C114.525 31.1915 114.436 34.5684 114.37 37.8395L114.165 48.0077C114.135 49.5123 114.104 51.0172 114.029 52.5203C113.991 53.9829 113.807 55.4381 113.48 56.8642C112.815 59.4813 111.352 61.8134 109.91 64.0968C113.601 65.2122 117.355 66.1084 121.152 66.7808C123.049 60.6496 124.966 54.3422 124.5 47.9415C124.254 44.5546 123.342 41.2477 122.996 37.8695C122.505 33.085 123.156 28.2652 123.805 23.4996" fill="#3F3D56"/>
<path d="M131.401 23.5781C134.632 24.0975 136.933 27.2274 137.545 30.4415C138.157 33.6555 137.441 36.957 136.728 40.1502C135.99 43.4588 135.251 46.7675 134.512 50.0761C134.184 51.5449 133.856 53.014 133.572 54.4919C133.296 55.9276 134.452 57.7689 134.465 59.2309C134.49 61.9309 133.965 64.1547 134.823 66.7151C130.973 66.9223 127.113 66.9018 123.265 66.6535C122.88 60.2475 122.515 53.6652 124.488 47.5584C125.533 44.3268 127.203 41.3309 128.342 38.1315C129.955 33.6003 130.469 28.7641 130.97 23.9807" fill="#3F3D56"/>
<path d="M133.555 69.7379C133.315 69.3199 133.248 68.8247 133.367 68.3577C133.487 67.8908 133.784 67.489 134.196 67.2377C134.28 67.188 134.369 67.1453 134.46 67.1102L134.048 53.085L138.512 51.9492L136.81 68.2891C136.926 68.6797 136.91 69.0978 136.764 69.4782C136.618 69.8586 136.35 70.18 136.001 70.3921C135.802 70.5109 135.581 70.5893 135.352 70.6228C135.122 70.6563 134.889 70.6443 134.664 70.5875C134.439 70.5306 134.227 70.43 134.041 70.2915C133.855 70.1529 133.698 69.9791 133.579 69.7799C133.571 69.766 133.563 69.752 133.555 69.7379Z" fill="#FFB6B6"/>
<path d="M133.229 29.1811C133.229 29.1811 136.345 26.5471 138.967 31.8137C141.588 37.0803 140.123 49.1119 139.754 49.754C139.385 50.3961 139.16 49.5016 139.362 51.2133C139.526 52.6054 138.549 52.4312 138.9 52.7283C139.824 53.5116 137.235 53.6008 138.565 54.291C139.894 54.9812 133.944 55.1105 133.944 55.1105C133.944 55.1105 133.224 54.5966 133.724 52.6588C134.004 51.5704 134.707 51.1723 133.958 50.6686C133.208 50.165 134.732 48.608 134.733 48.2664C134.734 47.9248 132.356 40.4527 132.356 40.4527L133.229 29.1811Z" fill="#3F3D56"/>
<path d="M107.447 94.0611C106.632 94.0611 105.828 93.8714 105.099 93.5069C104.37 93.1425 103.736 92.6133 103.247 91.9614L90.3716 74.7992C89.9576 74.2479 89.6563 73.6204 89.485 72.9527C89.3136 72.2849 89.2755 71.5899 89.3729 70.9075C89.4703 70.225 89.7013 69.5684 90.0526 68.9752C90.4039 68.3819 90.8686 67.8637 91.4203 67.4501C91.972 67.0365 92.5999 66.7356 93.2679 66.5646C93.936 66.3936 94.6312 66.3559 95.3138 66.4535C95.9965 66.5512 96.6532 66.7824 97.2465 67.1338C97.8397 67.4853 98.3579 67.9502 98.7714 68.5019L107.195 79.7289L128.83 47.2872C129.213 46.7138 129.704 46.2212 130.277 45.8377C130.85 45.4542 131.493 45.1873 132.169 45.0521C132.845 44.9169 133.541 44.9162 134.217 45.05C134.894 45.1837 135.537 45.4493 136.111 45.8316C136.684 46.2139 137.177 46.7054 137.561 47.2781C137.944 47.8508 138.211 48.4933 138.346 49.1692C138.482 49.845 138.482 50.5408 138.349 51.2169C138.215 51.893 137.949 52.5362 137.567 53.1096L111.815 91.7239C111.35 92.4223 110.723 92.9988 109.988 93.4052C109.254 93.8115 108.432 94.0359 107.593 94.0594C107.544 94.0602 107.495 94.0611 107.447 94.0611Z" fill="#EF4C29"/>
<path d="M117.262 67.302C117.524 66.8978 117.619 66.4071 117.525 65.9342C117.432 65.4614 117.157 65.0438 116.76 64.7702C116.678 64.7159 116.593 64.6684 116.503 64.6282L117.69 50.6472L113.296 49.2666L114.092 65.6756C113.954 66.0591 113.947 66.4775 114.072 66.8654C114.197 67.2533 114.447 67.589 114.783 67.82C114.975 67.9496 115.191 68.04 115.419 68.0862C115.646 68.1324 115.88 68.1333 116.108 68.089C116.336 68.0446 116.552 67.9559 116.746 67.8278C116.939 67.6998 117.105 67.5349 117.235 67.3426C117.244 67.3292 117.253 67.3156 117.262 67.302Z" fill="#FFB6B6"/>
<path d="M119.833 26.854C119.833 26.854 116.868 24.0519 113.959 29.1656C111.05 34.2793 111.848 46.3734 112.181 47.035C112.514 47.6965 112.788 46.8158 112.492 48.5137C112.251 49.8945 113.236 49.7747 112.87 50.0519C111.903 50.783 114.483 51.015 113.117 51.6307C111.752 52.2464 117.686 52.7042 117.686 52.7042C117.686 52.7042 118.433 52.2309 118.041 50.2685C117.821 49.1663 117.141 48.7299 117.918 48.2684C118.694 47.807 117.258 46.1682 117.276 45.827C117.294 45.4858 120.081 38.1566 120.081 38.1566L119.833 26.854Z" fill="#3F3D56"/>
</g>
<defs>
<clipPath id="clip0_2585_34553">
<rect width="205" height="123" fill="white"/>
</clipPath>
</defs>
</svg>
