<svg width="278" height="66" viewBox="0 0 278 66" fill="none" xmlns="http://www.w3.org/2000/svg">
<path d="M72.1996 49.5199C69.1002 49.5199 66.4934 48.8185 64.3766 47.4185C63.2646 46.6809 62.3259 45.8069 61.5579 44.791C60.4321 43.2991 60.845 41.1447 62.4471 40.1984L62.5104 40.1594C63.8371 39.3745 65.5107 39.7197 66.4879 40.9193C67.8422 42.5837 69.8048 43.4188 72.373 43.4188C74.1017 43.4188 75.3679 43.1015 76.1717 42.4696C76.9754 41.8378 77.3773 41.039 77.3773 40.0731C77.3773 38.9598 76.8846 38.0914 75.9019 37.4735C74.9192 36.8556 73.1603 36.1848 70.6279 35.4611C69.2268 35.0408 68.0432 34.6177 67.0742 34.1947C66.1053 33.7744 65.1364 33.2093 64.1674 32.4996C63.1985 31.7926 62.4608 30.8964 61.9543 29.8108C61.4478 28.7253 61.1946 27.4617 61.1946 26.0143C61.1946 23.153 62.1993 20.8706 64.2115 19.1672C66.2237 17.4666 68.6432 16.6149 71.4757 16.6149C74.0081 16.6149 76.235 17.2411 78.1591 18.4909C79.0895 19.0949 79.9208 19.8157 80.6502 20.6508C81.9164 22.0953 81.5641 24.3443 79.9125 25.3101C78.6903 26.0227 77.1241 25.7972 76.1909 24.7256C74.9963 23.3562 73.4218 22.6715 71.4757 22.6715C70.193 22.6715 69.1882 22.9665 68.4588 23.5538C67.7294 24.1411 67.3633 24.9038 67.3633 25.8362C67.3633 26.8298 67.7734 27.637 68.5937 28.2549C69.414 28.8728 70.9857 29.5436 73.3089 30.2673C74.2613 30.5679 74.9853 30.8017 75.4753 30.9687C75.968 31.1357 76.6369 31.3918 77.4874 31.7369C78.338 32.0849 78.9904 32.4077 79.4528 32.7083C79.9153 33.0089 80.4438 33.4181 81.0383 33.9275C81.6329 34.4396 82.0898 34.9657 82.4009 35.5084C82.7147 36.0512 82.9817 36.7053 83.2046 37.4735C83.4276 38.2417 83.5405 39.0767 83.5405 39.9813C83.5405 42.9038 82.489 45.2252 80.3887 46.9425C78.2995 48.6599 75.5661 49.5199 72.1996 49.5199Z" fill="#414643"/>
<path d="M104.939 26.2869C106.53 26.2869 107.821 27.5923 107.821 29.2011V46.9117C107.821 48 106.949 48.8851 105.87 48.8851H103.943C102.9 48.8851 102.055 48.0306 102.055 46.9757C102.055 46.7836 101.815 46.6973 101.697 46.8476C100.287 48.629 98.1871 49.5197 95.3931 49.5197C92.9488 49.5197 90.9311 48.6902 89.3374 47.0341C87.7436 45.378 86.9453 43.0873 86.9453 40.1648V29.2038C86.9453 27.5951 88.2363 26.2896 89.8273 26.2896C91.4183 26.2896 92.7093 27.5951 92.7093 29.2038V39.4411C92.7093 40.9469 93.1112 42.0992 93.915 42.898C94.7187 43.6969 95.7923 44.0949 97.1328 44.0949C98.622 44.0949 99.8139 43.6273 100.708 42.6949C101.603 41.7624 102.049 40.3596 102.049 38.492V29.2038C102.057 27.5923 103.348 26.2869 104.939 26.2869Z" fill="#414643"/>
<path d="M118.863 27.6701C118.863 28.3103 119.642 28.5998 120.063 28.121C120.478 27.6478 120.966 27.247 121.524 26.9214C121.535 26.913 121.549 26.9075 121.56 26.8991C123.385 25.8442 125.659 27.2164 125.659 29.3429V29.6324C125.659 30.974 124.731 32.1597 123.424 32.4046C122.54 32.5689 121.712 32.9112 120.941 33.4317C119.556 34.3669 118.863 35.9173 118.863 38.0855V45.9736C118.863 47.5824 117.572 48.8878 115.981 48.8878C114.39 48.8878 113.099 47.5824 113.099 45.9736V27.6701C113.099 26.9075 113.71 26.2896 114.464 26.2896H117.497C118.252 26.2868 118.863 26.9075 118.863 27.6701Z" fill="#414643"/>
<path d="M145.8 26.2869C147.856 26.2869 149.276 28.3688 148.547 30.3144L142.733 45.7816C142.031 47.652 140.259 48.8879 138.282 48.8879C136.306 48.8879 134.533 47.652 133.831 45.7816L128.018 30.3116C127.288 28.3688 128.706 26.2896 130.762 26.2896C132.015 26.2896 133.127 27.0913 133.537 28.2881L137.619 40.226C137.831 40.8467 138.698 40.8467 138.91 40.2288L143.028 28.2825C143.438 27.0885 144.55 26.2869 145.8 26.2869Z" fill="#414643"/>
<path d="M157.779 39.9809C157.289 39.9809 156.95 40.4903 157.148 40.944C158.112 43.1345 160.099 44.2283 163.113 44.2283C164.674 44.2283 165.968 43.8498 166.992 43.0955C167.823 42.4804 168.946 42.4525 169.838 42.9703C171.528 43.9556 171.622 46.3799 170.022 47.5072C168.123 48.846 165.792 49.5167 163.025 49.5167C159.331 49.5167 156.367 48.3867 154.132 46.1266C151.896 43.8665 150.779 41.0191 150.779 37.5844C150.779 34.1804 151.88 31.3413 154.087 29.0645C156.292 26.7905 159.122 25.6521 162.579 25.6521C165.858 25.6521 168.561 26.7988 170.691 29.0868C172.822 31.3775 173.887 34.2082 173.887 37.5844V37.6067C173.887 38.9177 172.836 39.9781 171.539 39.9781H157.779V39.9809ZM157.636 35.4635H167.218C167.685 35.4635 168.019 34.9959 167.864 34.5505C167.49 33.465 166.895 32.6245 166.083 32.0288C165.057 31.2773 163.887 30.8988 162.574 30.8988C161.024 30.8988 159.741 31.2996 158.731 32.0956C157.947 32.7135 157.369 33.5263 156.994 34.5311C156.829 34.982 157.162 35.4635 157.636 35.4635Z" fill="#414643"/>
<path d="M193.656 26.2869C195.646 26.2869 197.031 28.2881 196.351 30.178L189.618 48.8851C188.456 52.1388 186.915 54.4964 184.991 55.9576C183.846 56.826 182.535 57.4106 181.06 57.7112C179.381 58.0507 177.817 56.737 177.817 55.0057V54.9584C177.817 53.6864 178.685 52.6037 179.901 52.2752C180.515 52.1082 181.049 51.8549 181.506 51.507C182.362 50.8529 183.056 49.8231 183.581 48.4203C183.642 48.256 183.637 48.0723 183.568 47.9109L176.202 30.3228C175.401 28.4078 176.791 26.2869 178.844 26.2869C180.031 26.2869 181.093 27.0245 181.523 28.1434L185.935 39.6749C186.166 40.2789 187.02 40.2594 187.22 39.6415L190.934 28.277C191.322 27.0913 192.42 26.2869 193.656 26.2869Z" fill="#414643"/>
<path d="M23.098 52.9625C19.2663 56.5864 13.8354 57.6859 8.92192 55.8293L8.78704 55.7765C5.41782 54.4655 2.74226 51.9187 1.24208 48.5926C-0.277374 45.2247 -0.406748 41.456 0.875979 37.9879C1.48706 36.3402 2.38442 34.8455 3.54328 33.5457L3.55154 33.5373L28.1958 4.64866L28.2151 4.62918C28.2537 4.58465 28.2949 4.54011 28.3335 4.49558C28.4601 4.35919 28.584 4.22559 28.7106 4.09756C28.7767 4.03076 28.8455 3.96117 28.9143 3.89159L29.3822 3.4546C29.4125 3.42676 29.4455 3.39893 29.4786 3.3711L29.707 3.16513L29.7566 3.13729C29.7814 3.11781 29.7979 3.10111 29.8144 3.09276C29.8227 3.08441 29.8309 3.07884 29.8392 3.07328C29.9135 3.01204 29.9796 2.95916 30.0429 2.90906C30.0566 2.89792 30.0842 2.87566 30.1089 2.85896L30.4558 2.59732C30.4805 2.58062 30.497 2.56948 30.5108 2.55835C30.5686 2.5166 30.6237 2.47763 30.676 2.44145L30.6952 2.42753C30.7145 2.41362 30.7365 2.3997 30.7558 2.38578L31.0421 2.19373C31.0641 2.17981 31.0834 2.1659 31.1054 2.15198L31.2155 2.06848L31.2843 2.04064C31.3063 2.02673 31.3283 2.01281 31.3531 1.99889C31.3696 1.98776 31.3889 1.97941 31.4054 1.96828L31.444 1.94323C31.5018 1.90704 31.5623 1.87364 31.6201 1.84024C31.6339 1.83189 31.6476 1.82354 31.6614 1.81519L31.7633 1.75674C31.7963 1.73726 31.8348 1.71499 31.8761 1.69272L31.9945 1.6287C32.0193 1.61757 32.0413 1.60365 32.066 1.58974L32.1541 1.5452H32.1569L32.1872 1.5285C32.1982 1.52294 32.2064 1.51737 32.2202 1.5118C32.2945 1.47284 32.3578 1.43943 32.4239 1.40882L32.6001 1.31975C32.6193 1.3114 32.6386 1.30305 32.6579 1.29192L32.9249 1.16945C32.9717 1.14996 33.0047 1.13326 33.0377 1.11935L33.2965 1.0108C33.3378 0.994095 33.3763 0.977395 33.4148 0.960694C33.5772 0.893894 33.7369 0.835443 33.8993 0.779775C33.9406 0.763075 33.9956 0.743591 34.0534 0.726891C34.1057 0.707408 34.1608 0.690707 34.2159 0.671224C34.2682 0.65174 34.3342 0.632256 34.4058 0.612773L34.5572 0.568239C34.6563 0.537622 34.7691 0.504221 34.8847 0.473604L34.8985 0.470821C34.904 0.468037 34.9123 0.468037 34.9205 0.468037C34.9783 0.448554 35.0389 0.431854 35.1022 0.417937L35.2976 0.370619C35.449 0.334435 35.5839 0.303818 35.7188 0.275985L35.9032 0.239801C35.961 0.228667 36.0298 0.21475 36.1014 0.203617C36.1234 0.19805 36.1482 0.192483 36.173 0.192483L36.3106 0.170216C36.3684 0.159083 36.4207 0.150733 36.473 0.145166C36.5226 0.136816 36.5611 0.131249 36.5996 0.125682L36.718 0.108982C36.74 0.106199 36.7593 0.103415 36.7813 0.100632L36.7923 0.0978487L36.8639 0.0922819C36.9024 0.0894985 36.9437 0.0839318 36.9795 0.0783651C37.0538 0.0700149 37.1171 0.0644482 37.1804 0.0588814C37.2162 0.0560981 37.2685 0.0505313 37.3208 0.0477479L37.5328 0.0310477C37.6787 0.0199142 37.8163 0.0115641 37.9539 0.00878071L38.0778 0.00599734C38.1273 0.00321396 38.1824 0.00321396 38.2347 0.00321396C38.3613 0.000430589 38.5127 -0.00235278 38.6614 0.00321396C38.7164 0.00321396 38.7687 0.00321396 38.8238 0.00599734C38.865 0.00878071 38.9063 0.00878071 38.9476 0.00878071H38.9724C39.0247 0.0115641 39.0798 0.0143475 39.132 0.0199142C39.2229 0.0226976 39.3137 0.0282643 39.4046 0.0338311L39.4293 0.0366145C39.4844 0.0393978 39.5174 0.0449646 39.556 0.0449646L39.7652 0.0644482C39.8505 0.0700149 39.9496 0.0839318 40.0459 0.0922819L40.1918 0.108982C40.2414 0.111766 40.3047 0.122899 40.368 0.131249C40.4451 0.142383 40.5359 0.1563 40.6267 0.173L40.8084 0.203617C40.8359 0.2064 40.8635 0.211967 40.8882 0.217534L41.1305 0.262068C41.2516 0.289901 41.381 0.312168 41.5076 0.342786C41.5874 0.362269 41.67 0.378969 41.7581 0.401236C41.7828 0.406803 41.8076 0.41237 41.8324 0.42072L41.8764 0.431854C41.9535 0.451337 42.0306 0.473604 42.1076 0.495871L42.1572 0.507005C42.2343 0.529272 42.3113 0.551539 42.3884 0.576589L42.8151 0.712974C42.8426 0.724108 42.8674 0.732458 42.8921 0.740808L42.9032 0.743591C42.9279 0.751942 42.95 0.757508 42.972 0.765858C43.0188 0.785342 43.0546 0.799259 43.0903 0.810392L43.2307 0.863276C43.2748 0.877193 43.3105 0.89111 43.3463 0.905027L43.3821 0.918944C43.4289 0.935644 43.4757 0.955128 43.5225 0.974611L43.7179 1.05533C43.7455 1.06646 43.7757 1.0776 43.8005 1.09151L43.8858 1.13048C43.9354 1.14996 43.9877 1.17223 44.0372 1.19728L44.0785 1.21676C44.1556 1.25295 44.2299 1.28635 44.2987 1.32253L44.3868 1.36428C44.4419 1.39212 44.4969 1.41717 44.5492 1.445C44.5602 1.44778 44.5713 1.45614 44.5823 1.45892C44.6153 1.47562 44.6483 1.4951 44.6786 1.50902C44.7419 1.54242 44.819 1.58417 44.8961 1.62314C45.0144 1.68715 45.13 1.75117 45.2456 1.81797C45.2732 1.83746 45.3035 1.85416 45.3337 1.87086L45.3778 1.89869C45.3915 1.90426 45.4053 1.91261 45.4191 1.92374L45.4328 1.93209C45.4576 1.94601 45.4796 1.95993 45.5016 1.97384C45.5594 2.00724 45.6145 2.04064 45.6668 2.07404L45.8953 2.21878C45.9476 2.25496 45.9999 2.28836 46.0522 2.32455C46.0714 2.33568 46.1045 2.36073 46.1403 2.383L46.1678 2.40248C46.2559 2.46372 46.3329 2.51938 46.4128 2.57783L46.6577 2.76154C46.7458 2.82834 46.8284 2.88957 46.9082 2.95359L47.0294 3.05101C47.0789 3.09276 47.1202 3.12616 47.156 3.15956C47.1973 3.19018 47.2358 3.22358 47.2743 3.25698C47.3156 3.29316 47.3487 3.32378 47.3817 3.34883C47.4395 3.39893 47.4863 3.44068 47.5358 3.48521L47.5964 3.54088C47.6322 3.57428 47.6707 3.60768 47.7093 3.64108C47.8083 3.73293 47.9047 3.82757 48.0038 3.92499C48.0946 4.01406 48.1882 4.10591 48.2763 4.20054C48.3368 4.26178 48.4002 4.32858 48.4607 4.39538C48.6066 4.55403 48.747 4.71825 48.8874 4.88247L48.9645 4.97154C49.9416 6.1656 50.2141 7.79388 49.6801 9.23288C48.8599 11.454 46.4018 12.5841 44.2079 11.7546C43.5913 11.5208 43.0298 11.1423 42.5839 10.6552L42.5481 10.6134C42.4793 10.5244 42.4077 10.4381 42.3306 10.3518C42.1765 10.1792 42.0141 10.0178 41.8489 9.87306L41.7746 9.80626C41.4498 9.53349 41.0947 9.30247 40.7176 9.11598C40.6295 9.07423 40.5386 9.03248 40.4478 8.99351C40.3955 8.97124 40.3294 8.94619 40.2661 8.91836C40.2441 8.91001 40.2166 8.89888 40.1918 8.89053L39.7982 8.76527C39.7844 8.76249 39.7707 8.75971 39.7569 8.75414L39.7211 8.74579C39.3192 8.64002 38.8953 8.58714 38.4632 8.58435C37.0098 8.576 35.661 9.16051 34.6645 10.2238L34.5544 10.3379C34.4911 10.4102 34.4278 10.4854 34.3617 10.5689L34.348 10.6023L34.2874 10.6635L10.5322 38.5084L9.90461 39.2432C9.86332 39.2933 9.81928 39.3406 9.77799 39.388C9.76698 39.3991 9.75872 39.413 9.74771 39.4241C9.48896 39.7303 9.26875 40.0615 9.08983 40.4206C8.2778 41.8345 7.81536 43.4767 7.81536 45.2275C7.81536 50.5214 12.0599 54.8134 17.2954 54.8134C19.96 54.8134 22.3685 53.7028 24.0889 51.9131C23.7806 52.2805 23.4503 52.6285 23.098 52.9625Z" fill="url(#paint0_linear_233_6113)"/>
<path d="M52.1105 23.6149L52.0307 45.8902L52.0087 51.8995C52.039 53.6308 51.7472 55.3453 51.1389 56.9875C49.201 62.223 44.3867 65.7552 38.8649 65.989C38.6694 65.9973 38.4768 66.0001 38.2786 66.0001C36.649 66.0001 35.0442 65.7051 33.4945 65.1178L24.7026 61.7944C23.007 61.1988 21.8646 59.5621 21.8701 57.7279C21.8756 55.7294 23.2822 53.9703 25.2118 53.5473C25.5174 53.4805 25.8257 53.4471 26.134 53.4499C26.6102 53.4499 27.0864 53.5306 27.5406 53.6948L36.4673 57.071C37.0537 57.2937 37.6647 57.405 38.2896 57.405C40.4531 57.405 42.4158 56.03 43.1728 53.9815C43.393 53.3886 43.5031 52.7763 43.5031 52.1556V52.0248C43.5031 52.0025 43.5003 51.9802 43.5003 51.958V51.9329L43.5444 40.3791L43.5884 29.0591C45.3583 26.0475 48.4798 23.9461 52.1105 23.6149Z" fill="url(#paint1_linear_233_6113)"/>
<path d="M52.1851 23.6176L52.1053 45.8929L52.097 48.1224H47.7148L47.7451 40.379L47.9268 24.9118C49.215 24.2104 50.6547 23.7539 52.1851 23.6176Z" fill="url(#paint2_linear_233_6113)"/>
<path d="M52.1296 17.4496L52.1268 18.8246L52.1103 23.6176C48.4796 23.9488 45.3581 26.0502 43.5936 29.0618V29.0563L24.8537 51.0254L24.2454 51.738C24.1959 51.7992 24.1408 51.8605 24.0885 51.9217C22.3681 53.7114 19.9596 54.822 17.295 54.822C12.0595 54.822 7.81494 50.53 7.81494 45.236C7.81494 43.4853 8.28014 41.8431 9.08941 40.4291C8.99582 40.6128 8.91324 40.8021 8.83892 40.9969C8.3517 42.3163 8.40125 43.7469 8.9793 45.0273C9.5546 46.3076 10.5923 47.2846 11.8943 47.7772L11.9026 47.78C11.9301 47.7912 11.9577 47.7995 11.9824 47.8106L12.076 47.8413C12.0788 47.844 12.0815 47.8441 12.0843 47.8441C12.0925 47.8468 12.098 47.8468 12.1063 47.8496L12.2632 47.8969C12.4751 47.9637 12.6871 48.0111 12.9211 48.05L13.2101 48.0862C13.2404 48.089 13.2679 48.0918 13.2954 48.0918L13.3257 48.0946C13.3532 48.0973 13.3835 48.0973 13.4083 48.0973L13.5652 48.1057C13.5845 48.1057 13.6037 48.1085 13.623 48.1085H13.8349C13.8542 48.1085 13.8707 48.1057 13.89 48.1057L13.9478 48.1029C13.9616 48.1029 13.9753 48.1001 13.9891 48.1001L14.102 48.0946C14.19 48.0862 14.2836 48.0779 14.3772 48.0667C14.3882 48.0639 14.4075 48.0639 14.4295 48.0584C14.4488 48.0556 14.4736 48.0528 14.4983 48.0472L14.5727 48.0361C14.6002 48.0305 14.6222 48.025 14.6497 48.0222L14.702 48.0027H14.7433C14.7598 47.9999 14.7736 47.9971 14.7901 47.9916C14.8176 47.9888 14.8397 47.9804 14.8672 47.9749L14.9855 47.947C15.0626 47.9276 15.1452 47.9053 15.2278 47.8802C15.2388 47.8774 15.2498 47.8747 15.2636 47.8691L15.4287 47.8134L15.5113 47.7327L15.6544 47.7299C15.6682 47.7244 15.6875 47.7188 15.704 47.7104L15.726 47.7021C15.7425 47.6965 15.7563 47.691 15.7728 47.6826C15.8003 47.6715 15.8279 47.6603 15.8526 47.6464L15.9077 47.6214L15.9875 47.5852L16.0095 47.5741C16.0591 47.5518 16.1059 47.5267 16.1527 47.5017C16.2215 47.4655 16.293 47.4265 16.3646 47.382C16.4444 47.3347 16.5133 47.2929 16.5793 47.2456C16.6068 47.2261 16.6289 47.215 16.6481 47.2011L16.7059 47.1621C16.7252 47.1482 16.7445 47.1343 16.7637 47.1204L16.8243 47.0786C16.8436 47.0647 16.8601 47.0508 16.8794 47.0369L16.9372 46.9923C16.9564 46.9784 16.9729 46.9645 16.9867 46.9534C17.05 46.9033 17.1106 46.8476 17.1684 46.7947L17.2317 46.7391C17.2978 46.6806 17.3611 46.6194 17.4244 46.5526L17.4409 46.5359C17.4684 46.508 17.4959 46.4774 17.5207 46.4496L17.5427 46.4245C17.5868 46.3772 17.6308 46.3271 17.6694 46.2798C17.7327 46.2074 17.7877 46.1378 17.84 46.0683L18.0217 45.8289H18.0465L24.1793 38.6394L42.2146 17.4969C42.2724 17.4357 42.3329 17.3689 42.3935 17.2993C42.4513 17.2325 42.5064 17.1629 42.5587 17.0933L42.7403 16.854H42.7623L44.6204 14.6774C44.6424 14.6495 44.6617 14.6273 44.6864 14.6022C45.3498 13.8368 46.2582 13.3358 47.2464 13.1827C47.4473 13.1521 47.6538 13.1354 47.8575 13.1354H47.8988C49.7182 13.1409 51.3285 14.3155 51.9093 16.0551L51.9231 16.1052C51.9451 16.1915 52.1323 16.9709 52.1296 17.4496Z" fill="url(#paint3_linear_233_6113)"/>
<path d="M30.7149 37.176L21.0696 48.4821L20.6072 49.022C20.5687 49.0694 20.5274 49.1167 20.4888 49.1612C19.1813 50.5195 17.3508 51.3656 15.3277 51.3656C11.3501 51.3656 8.12402 48.1063 8.12402 44.0843C8.12402 42.7706 8.46535 41.5375 9.07093 40.4743C8.9856 40.6385 8.91128 40.8111 8.84521 40.9864C8.358 42.3058 8.40754 43.7364 8.9856 45.0195C9.5609 46.2971 10.5986 47.2769 11.9006 47.7695L11.9089 47.7723C11.9364 47.7834 11.9639 47.7918 11.9887 47.8029L12.0823 47.8335C12.0851 47.8363 12.0878 47.8363 12.0906 47.8363C12.0988 47.8391 12.1043 47.8391 12.1126 47.8419L12.2667 47.8892C12.4787 47.956 12.6906 48.0061 12.9246 48.0423L13.2136 48.0785C13.2439 48.0813 13.2687 48.084 13.299 48.084L13.3292 48.0868C13.3595 48.0896 13.3871 48.0896 13.4146 48.0896L13.5687 48.098C13.588 48.098 13.6073 48.1007 13.6265 48.1007H13.8385C13.8578 48.1007 13.8743 48.098 13.8935 48.098L13.9513 48.0952C13.9651 48.0952 13.9789 48.0924 13.9926 48.0924L14.1027 48.0868C14.1908 48.0785 14.2872 48.0701 14.378 48.059C14.389 48.0562 14.411 48.0562 14.4331 48.0506C14.4523 48.0479 14.4771 48.0451 14.5019 48.0395L14.5734 48.0284C14.601 48.0228 14.623 48.0172 14.6505 48.0145L14.7056 47.995H14.7469C14.7634 47.9922 14.7771 47.9894 14.7936 47.9838C14.8212 47.9811 14.8432 47.9727 14.8707 47.9671L14.9918 47.9393C15.0689 47.9198 15.1515 47.8948 15.2341 47.8697C15.2451 47.8669 15.2561 47.8642 15.2671 47.8586L15.4295 47.8029L15.5148 47.7222L15.6552 47.7194C15.669 47.7138 15.6883 47.7083 15.7048 47.6999L15.7295 47.6916C15.7461 47.686 15.7598 47.6804 15.7763 47.6721C15.8039 47.661 15.8314 47.6498 15.8562 47.6359L15.9112 47.6109L15.991 47.5747L16.0131 47.5635C16.0626 47.5413 16.1094 47.5162 16.1562 47.4912C16.225 47.455 16.2966 47.416 16.3682 47.3715C16.448 47.3242 16.5168 47.2824 16.5829 47.2379C16.6104 47.2184 16.6324 47.2073 16.6517 47.1934L16.7067 47.1544C16.726 47.1405 16.7453 47.1266 16.7673 47.1099L16.8278 47.0681C16.8471 47.0542 16.8636 47.0403 16.8829 47.0264L16.9379 46.9818C16.9572 46.9679 16.971 46.954 16.9875 46.9429C17.0508 46.8928 17.1114 46.8371 17.1719 46.7842L17.2352 46.7285C17.3013 46.6701 17.3674 46.6088 17.4279 46.542L17.4444 46.5253C17.472 46.4975 17.4995 46.4697 17.5243 46.4391L17.549 46.414C17.5931 46.3667 17.6344 46.3166 17.6757 46.2693C17.739 46.1969 17.7913 46.1301 17.8463 46.0605L18.028 45.8212H18.0528L24.1856 38.6289L27.0181 35.3083L30.7149 37.176Z" fill="url(#paint4_linear_233_6113)"/>
<path opacity="0.46" d="M24.8512 51.0228C24.6172 51.3373 24.3612 51.638 24.0859 51.9219C24.1382 51.8606 24.1905 51.7994 24.2428 51.7382L24.8512 51.0228Z" fill="#D7162F"/>
<path d="M219.683 48.8843C219.028 48.8843 218.441 48.4751 218.21 47.8544L215.914 41.7143C215.741 41.2467 215.298 40.9378 214.802 40.9378H201.273C200.78 40.9378 200.337 41.2467 200.161 41.7143L197.865 47.8544C197.634 48.4751 197.048 48.8843 196.393 48.8843C195.286 48.8843 194.526 47.7626 194.923 46.7188L205.801 18.0918C206.156 17.1566 207.045 16.5387 208.036 16.5387C209.027 16.5387 209.916 17.1566 210.272 18.0918L221.15 46.7188C221.549 47.7654 220.787 48.8843 219.683 48.8843ZM206.924 23.55L202.198 36.2645C201.906 37.0494 202.479 37.8872 203.31 37.8872H212.765C213.594 37.8872 214.169 37.0494 213.877 36.2645L209.148 23.55C208.763 22.5118 207.312 22.5118 206.924 23.55Z" fill="#585E5C"/>
<path d="M232.486 35.7631L233.947 36.1333L235.456 36.548C236.491 36.8876 237.421 37.2884 238.244 37.7504C240.163 38.8916 241.123 40.57 241.123 42.7855C241.123 44.7562 240.347 46.3594 238.792 47.5896C237.3 48.8227 235.318 49.4378 232.852 49.4378C230.749 49.4378 228.891 48.9452 227.278 47.9598C226.201 47.2751 225.351 46.4513 224.726 45.4882C224.272 44.7868 224.511 43.8404 225.224 43.4146C225.901 43.011 226.791 43.1947 227.22 43.8627C228.346 45.6079 230.223 46.4819 232.852 46.4819C236.356 46.4819 238.107 45.2516 238.107 42.7855C238.107 40.9986 236.538 39.6904 233.4 38.8582L231.938 38.488L230.43 38.0733C229.395 37.7337 228.464 37.3329 227.641 36.8709C225.723 35.7019 224.762 34.0207 224.762 31.8358C224.762 29.957 225.494 28.3872 226.956 27.1235C228.478 25.8599 230.352 25.228 232.577 25.228C234.435 25.228 236.064 25.6427 237.465 26.475C238.387 27.015 239.155 27.7108 239.775 28.5709C240.273 29.2611 240.064 30.2409 239.334 30.6695C238.685 31.0508 237.867 30.8588 237.424 30.2464C236.43 28.8715 234.812 28.184 232.577 28.184C231.206 28.184 230.077 28.4929 229.196 29.108C228.252 29.7872 227.779 30.6946 227.779 31.833C227.779 33.6227 229.348 34.9309 232.486 35.7631Z" fill="#585E5C"/>
<path d="M248.98 20.2378C248.553 20.6692 248.036 20.8835 247.427 20.8835C246.816 20.8835 246.299 20.6692 245.875 20.2378C245.448 19.8064 245.236 19.2831 245.236 18.668C245.236 18.0528 245.448 17.5296 245.875 17.0981C246.302 16.6667 246.819 16.4524 247.427 16.4524C248.036 16.4524 248.553 16.6695 248.98 17.0981C249.407 17.5296 249.619 18.0528 249.619 18.668C249.621 19.2831 249.407 19.8064 248.98 20.2378ZM247.427 48.8843C246.593 48.8843 245.919 48.2023 245.919 47.359V27.3075C245.919 26.4642 246.593 25.7823 247.427 25.7823C248.261 25.7823 248.936 26.4642 248.936 27.3075V47.3618C248.936 48.2023 248.261 48.8843 247.427 48.8843Z" fill="#585E5C"/>
<path d="M274.98 26.9846C274.98 26.3221 275.512 25.7821 276.17 25.7821H276.811C277.466 25.7821 278 26.3193 278 26.9846V47.6845C278 48.347 277.469 48.8841 276.814 48.8841H276.172C275.517 48.8841 274.986 48.347 274.986 47.6845C274.986 46.6352 273.755 46.1008 272.987 46.8077C271.083 48.5613 268.671 49.4408 265.756 49.4408C262.497 49.4408 259.709 48.2718 257.394 45.9282C255.109 43.5874 253.967 40.7233 253.967 37.3331C253.967 33.9458 255.109 31.0789 257.394 28.7381C259.709 26.3973 262.497 25.2255 265.756 25.2255C268.671 25.2255 271.083 26.1022 272.987 27.8585C273.75 28.5683 274.98 28.0339 274.98 26.9846ZM265.979 46.4821C268.509 46.4821 270.639 45.6053 272.376 43.849C274.113 42.0315 274.98 39.8604 274.98 37.3331C274.98 34.7752 274.113 32.6209 272.376 30.8646C270.639 29.0777 268.506 28.1842 265.979 28.1842C263.45 28.1842 261.319 29.0777 259.582 30.8646C257.845 32.6209 256.978 34.778 256.978 37.3331C256.978 39.8604 257.845 42.0315 259.582 43.849C261.319 45.6053 263.45 46.4821 265.979 46.4821Z" fill="#585E5C"/>
<defs>
<linearGradient id="paint0_linear_233_6113" x1="4.75229" y1="53.0826" x2="40.2079" y2="12.8799" gradientUnits="userSpaceOnUse">
<stop stop-color="#FBB040"/>
<stop offset="1" stop-color="#EF4136"/>
</linearGradient>
<linearGradient id="paint1_linear_233_6113" x1="37.865" y1="70.1411" x2="36.5875" y2="28.1281" gradientUnits="userSpaceOnUse">
<stop stop-color="#FBB040"/>
<stop offset="1" stop-color="#EF4136"/>
</linearGradient>
<linearGradient id="paint2_linear_233_6113" x1="49.9517" y1="20.2312" x2="49.9517" y2="44.7367" gradientUnits="userSpaceOnUse">
<stop stop-color="#FBB040" stop-opacity="0.5"/>
<stop offset="1" stop-color="#EF4136" stop-opacity="0"/>
</linearGradient>
<linearGradient id="paint3_linear_233_6113" x1="68.5156" y1="-0.624177" x2="18.8618" y2="43.1595" gradientUnits="userSpaceOnUse">
<stop stop-color="#FBB040"/>
<stop offset="1" stop-color="#EF4136"/>
</linearGradient>
<linearGradient id="paint4_linear_233_6113" x1="7.7541" y1="52.3039" x2="31.7644" y2="27.2836" gradientUnits="userSpaceOnUse">
<stop stop-color="#FBB040" stop-opacity="0.5"/>
<stop offset="1" stop-color="#EF4136" stop-opacity="0"/>
</linearGradient>
</defs>
</svg>
