<svg width="20" height="20" viewBox="0 0 20 20" fill="none" xmlns="http://www.w3.org/2000/svg">
<circle cx="10" cy="10" r="10" fill="#F99E3F"/>
<path d="M12.285 14.9991C12.4178 14.9999 12.5494 14.9742 12.6722 14.9235C12.795 14.8729 12.9064 14.7983 13 14.7041L14.355 13.3491C14.4481 13.2554 14.5004 13.1287 14.5004 12.9966C14.5004 12.8645 14.4481 12.7378 14.355 12.6441L12.355 10.6441C12.2613 10.551 12.1346 10.4987 12.0025 10.4987C11.8704 10.4987 11.7437 10.551 11.65 10.6441L10.85 11.4391C10.2961 11.2914 9.78317 11.0195 9.35002 10.6441C8.97558 10.2102 8.70383 9.69752 8.55502 9.14409L9.35002 8.34409C9.44314 8.25041 9.49541 8.12369 9.49541 7.99159C9.49541 7.8595 9.44314 7.73278 9.35002 7.63909L7.35002 5.63909C7.25634 5.54597 7.12961 5.4937 6.99752 5.4937C6.86542 5.4937 6.7387 5.54597 6.64502 5.63909L5.29502 6.99909C5.20083 7.09272 5.12624 7.20416 5.07559 7.32692C5.02494 7.44968 4.99925 7.5813 5.00002 7.71409C5.04538 9.63524 5.81305 11.4687 7.15002 12.8491C8.53038 14.1861 10.3639 14.9537 12.285 14.9991V14.9991ZM7.00002 6.70409L8.29502 7.99909L7.65002 8.64409C7.58893 8.70132 7.54318 8.77296 7.51697 8.85246C7.49077 8.93196 7.48494 9.01676 7.50002 9.09909C7.6869 9.93428 8.08257 10.7084 8.65002 11.3491C9.2902 11.9173 10.0645 12.313 10.9 12.4991C10.9811 12.516 11.0651 12.5126 11.1446 12.489C11.224 12.4655 11.2963 12.4225 11.355 12.3641L12 11.7041L13.295 12.9991L12.295 13.9991C10.6369 13.9564 9.05477 13.2947 7.86002 12.1441C6.70647 10.9488 6.04282 9.36465 6.00002 7.70409L7.00002 6.70409ZM14 9.49909H15C15.013 8.90459 14.9054 8.31362 14.6839 7.7618C14.4623 7.20997 14.1313 6.70872 13.7109 6.28824C13.2904 5.86777 12.7891 5.53678 12.2373 5.31522C11.6855 5.09366 11.0945 4.98613 10.5 4.99909V5.99909C10.964 5.98305 11.4263 6.0626 11.8582 6.23281C12.2901 6.40302 12.6823 6.66025 13.0106 6.98851C13.3389 7.31677 13.5961 7.70905 13.7663 8.14095C13.9365 8.57285 14.0161 9.03514 14 9.49909Z" fill="white"/>
<path d="M10.5 8C11.55 8 12 8.45 12 9.5H13C13 7.89 12.11 7 10.5 7V8Z" fill="white"/>
</svg>
