<svg width="70" height="63" viewBox="0 0 70 63" fill="none" xmlns="http://www.w3.org/2000/svg">
<g clip-path="url(#clip0_5557_16081)">
<path d="M29.2384 54.6952C31.2941 54.9954 33.2036 53.5748 33.5033 51.5223C33.8031 49.4698 32.3795 47.5625 30.3238 47.2623C28.2681 46.9621 26.3586 48.3826 26.0589 50.4352C25.7591 52.4877 27.1826 54.395 29.2384 54.6952Z" fill="#EF4C29"/>
<path d="M42.6872 52.9685C43.711 53.118 44.662 52.4105 44.8112 51.3883C44.9605 50.3662 44.2516 49.4163 43.2278 49.2668C42.204 49.1173 41.253 49.8247 41.1037 50.8469C40.9545 51.8691 41.6634 52.819 42.6872 52.9685Z" fill="#EF4C29"/>
<path d="M51.5053 57.7338C53.6789 57.4135 55.9879 57.0857 57.8561 55.8424C59.5256 54.7315 60.8177 52.8514 60.4968 50.7729C60.1766 48.6986 58.5424 47.108 56.7517 46.1741C55.7361 45.6444 54.6468 45.2737 53.5514 44.9476C52.3607 44.593 51.1598 44.2696 49.9588 43.9518C45.0957 42.6648 40.1819 41.5949 35.2174 40.742C32.7678 40.3211 30.3094 39.9636 27.8451 39.6402C25.6444 39.3513 23.3317 39.0128 21.4305 37.7834C19.9521 36.8273 18.7067 35.2989 18.5183 33.5019C18.3008 31.4275 19.5381 29.5281 21.0979 28.2765C21.92 27.6168 22.8445 27.0955 23.7876 26.6297C24.8107 26.1245 25.8597 25.6693 26.9237 25.2569C29.0191 24.445 31.1788 23.809 33.3803 23.3556C34.4663 23.1317 35.5602 22.9616 36.6595 22.8177C37.5877 22.6963 38.5187 22.5749 39.4304 22.3578C41.1927 21.9382 42.9409 21.0469 43.6332 19.2682C44.2893 17.5824 43.8891 15.5899 42.8919 14.1207C41.7382 12.421 39.7646 11.4616 37.7959 11.0655C35.5858 10.6208 33.3283 10.8596 31.1314 11.2603C28.7883 11.6877 26.4769 12.235 24.1075 12.5123C21.758 12.7867 19.3906 12.8779 17.0268 12.785C15.8695 12.7398 14.6756 12.7051 13.5429 12.445C12.5935 12.227 11.6789 11.8053 11.0703 11.0212C10.5484 10.3488 10.3039 9.49379 10.5519 8.66538C10.5969 8.51492 10.8213 8.61445 10.7766 8.764C10.4747 9.77241 11.0377 10.8244 11.8312 11.4371C12.7483 12.1452 13.964 12.3235 15.0859 12.4217C17.5192 12.6285 19.9655 12.6325 22.3993 12.4338C24.79 12.2441 27.1312 11.8156 29.4773 11.3353C31.7056 10.8792 33.9784 10.4483 36.2638 10.6128C38.2467 10.7555 40.2689 11.3422 41.8286 12.6155C43.1994 13.7346 44.0849 15.3963 44.1855 17.1694C44.2837 18.9021 43.5601 20.526 42.1131 21.5138C40.6148 22.5366 38.728 22.7918 36.9705 23.024C34.7414 23.3186 32.5432 23.7223 30.3812 24.3477C28.1902 24.979 26.0577 25.7974 24.0075 26.7941C22.028 27.7595 20.0258 29.0454 19.1365 31.1534C18.7222 32.1353 18.6131 33.225 18.9161 34.2539C19.1855 35.1687 19.73 35.9846 20.4058 36.6513C22.0182 38.242 24.2548 38.8469 26.4325 39.1926C28.8784 39.5809 31.3408 39.8561 33.7861 40.2542C38.7694 41.0656 43.7102 42.0971 48.6083 43.3489C49.8356 43.6627 51.0594 43.9901 52.2795 44.3312C53.377 44.638 54.4783 44.9444 55.5407 45.3598C57.4297 46.0984 59.205 47.2475 60.1785 49.0801C60.6131 49.8762 60.8231 50.7752 60.7861 51.681C60.7352 52.6245 60.3707 53.5239 59.8281 54.2906C58.6272 55.9875 56.709 56.8983 54.7409 57.3933C53.6868 57.6584 52.6101 57.8186 51.5357 57.9769C51.3792 58 51.3493 57.7568 51.5053 57.7338L51.5053 57.7338Z" fill="#F2F2F2"/>
<path d="M10.4226 10.6499C11.4952 10.8065 12.4914 10.0654 12.6478 8.99448C12.8042 7.9236 12.0615 6.9285 10.9889 6.77188C9.91636 6.61525 8.9201 7.3564 8.76372 8.42728C8.60734 9.49816 9.35005 10.4933 10.4226 10.6499Z" fill="#F2F2F2"/>
<path d="M23.3591 16.2925C24.4317 16.4491 25.4279 15.7079 25.5843 14.6371C25.7407 13.5662 24.998 12.5711 23.9254 12.4145C22.8529 12.2578 21.8566 12.999 21.7002 14.0699C21.5439 15.1407 22.2866 16.1358 23.3591 16.2925Z" fill="#F2F2F2"/>
<path d="M35.8416 10.6069C36.9141 10.7635 37.9104 10.0224 38.0667 8.95151C38.2231 7.88063 37.4804 6.88554 36.4079 6.72891C35.3353 6.57228 34.339 7.31343 34.1827 8.38431C34.0263 9.4552 34.769 10.4503 35.8416 10.6069Z" fill="#F2F2F2"/>
<path d="M41.7595 19.8872C42.8321 20.0438 43.8283 19.3027 43.9847 18.2318C44.1411 17.1609 43.3984 16.1658 42.3258 16.0092C41.2533 15.8526 40.257 16.5937 40.1006 17.6646C39.9443 18.7355 40.687 19.7306 41.7595 19.8872Z" fill="#F2F2F2"/>
<path d="M30.738 28.0151C31.8106 28.1717 32.8069 27.4306 32.9632 26.3597C33.1196 25.2888 32.3769 24.2937 31.3043 24.1371C30.2318 23.9805 29.2355 24.7216 29.0792 25.7925C28.9228 26.8634 29.6655 27.8585 30.738 28.0151Z" fill="#F2F2F2"/>
<path d="M17.8464 30.8354C18.919 30.9921 19.9152 30.2509 20.0716 29.18C20.228 28.1091 19.4853 27.1141 18.4127 26.9574C17.3402 26.8008 16.3439 27.5419 16.1875 28.6128C16.0312 29.6837 16.7739 30.6788 17.8464 30.8354Z" fill="#F2F2F2"/>
<path d="M29.7439 39.9165C30.8165 40.0731 31.8127 39.332 31.9691 38.2611C32.1255 37.1902 31.3828 36.1951 30.3102 36.0385C29.2376 35.8819 28.2414 36.623 28.085 37.6939C27.9286 38.7648 28.6713 39.7599 29.7439 39.9165Z" fill="#F2F2F2"/>
<path d="M59.4666 47.4751C60.5391 47.6317 61.5354 46.8906 61.6917 45.8197C61.8481 44.7488 61.1054 43.7537 60.0329 43.5971C58.9603 43.4404 57.964 44.1816 57.8077 45.2525C57.6513 46.3234 58.394 47.3185 59.4666 47.4751Z" fill="#F2F2F2"/>
<path d="M35.0451 12.1416C29.2217 11.3331 23.7693 15.3575 22.8385 21.1533C22.8299 21.2068 22.7745 21.5838 22.7025 22.0769C22.597 22.8 22.7834 23.5354 23.2208 24.1215C23.6582 24.7075 24.3107 25.0962 25.0349 25.2021L25.0349 25.2021C25.3939 25.2544 25.7597 25.2356 26.1113 25.1468C26.463 25.0579 26.7936 24.9007 27.0844 24.6842C27.3751 24.4676 27.6202 24.196 27.8057 23.8848C27.9913 23.5736 28.1135 23.2289 28.1655 22.8704C28.2143 22.5349 28.248 22.3027 28.2501 22.2885C28.381 21.3909 28.7436 20.5428 29.3024 19.8278C29.8612 19.1128 30.5968 18.5554 31.4369 18.2105C32.277 17.8655 33.1927 17.745 34.0938 17.8606C34.995 17.9762 35.8506 18.3241 36.5764 18.8699C37.3023 19.4158 37.8734 20.1409 38.2336 20.9738C38.5938 21.8068 38.7308 22.7189 38.6309 23.6205C38.531 24.5221 38.1978 25.3821 37.664 26.1159C37.1302 26.8497 36.4142 27.4321 35.5865 27.8057L35.5873 27.807C35.5873 27.807 31.3361 29.7375 29.6508 32.9913L29.6518 32.9917C29.341 33.6633 29.129 34.3763 29.0226 35.1085C28.9786 35.4095 28.6118 38.0456 28.3339 40.1881C28.2382 40.9273 28.4374 41.6746 28.8885 42.2688C29.3396 42.863 30.0065 43.2563 30.7453 43.364L30.7453 43.364C31.1165 43.4182 31.4948 43.3986 31.8583 43.3063C32.2218 43.214 32.5634 43.0508 32.8635 42.8261C33.1635 42.6014 33.4161 42.3197 33.6067 41.9971C33.7972 41.6746 33.922 41.3176 33.9738 40.9466C34.2478 38.9874 34.5742 36.7071 34.5984 36.5416C34.9056 34.4374 37.2449 32.6378 39.1146 31.5145C41.2676 30.2209 42.9648 28.2775 43.874 25.9384C44.0698 25.4581 44.2121 24.9578 44.2985 24.4464C44.5051 23.0314 44.4292 21.5895 44.0753 20.2037C43.7214 18.8179 43.0963 17.5156 42.2362 16.3718C41.3761 15.228 40.2978 14.2654 39.0637 13.5394C37.8295 12.8134 36.4637 12.3383 35.0451 12.1416Z" fill="#EF4C29"/>
<path d="M45.5786 31.7757C42.6784 31.3731 39.963 33.3773 39.4995 36.2637C39.4952 36.2904 39.4676 36.4781 39.4317 36.7237C39.3792 37.0838 39.472 37.4501 39.6899 37.7419C39.9077 38.0338 40.2327 38.2274 40.5933 38.2801L40.5933 38.2801C40.7721 38.3061 40.9543 38.2968 41.1294 38.2525C41.3045 38.2083 41.4692 38.13 41.614 38.0222C41.7588 37.9143 41.8808 37.779 41.9732 37.624C42.0656 37.4691 42.1265 37.2974 42.1524 37.1189C42.1767 36.9518 42.1935 36.8362 42.1945 36.8291C42.2597 36.382 42.4403 35.9597 42.7186 35.6036C42.9969 35.2475 43.3632 34.9699 43.7816 34.7981C44.2 34.6263 44.656 34.5663 45.1048 34.6239C45.5536 34.6815 45.9797 34.8547 46.3412 35.1266C46.7027 35.3984 46.9871 35.7595 47.1665 36.1743C47.3459 36.5892 47.4141 37.0434 47.3643 37.4924C47.3146 37.9414 47.1486 38.3697 46.8828 38.7352C46.617 39.1006 46.2604 39.3907 45.8482 39.5767L45.8486 39.5774C45.8486 39.5774 43.7314 40.5388 42.8921 42.1593L42.8926 42.1594C42.7378 42.4939 42.6322 42.849 42.5792 43.2137C42.5573 43.3636 42.3747 44.6764 42.2363 45.7434C42.1886 46.1115 42.2878 46.4837 42.5125 46.7796C42.7371 47.0755 43.0693 47.2714 43.4372 47.3251L43.4372 47.3251C43.6221 47.3521 43.8104 47.3423 43.9915 47.2963C44.1725 47.2503 44.3426 47.169 44.4921 47.0572C44.6415 46.9453 44.7673 46.805 44.8622 46.6443C44.9571 46.4837 45.0192 46.3059 45.0451 46.1211C45.1815 45.1454 45.344 44.0098 45.3561 43.9274C45.5091 42.8795 46.6741 41.9832 47.6052 41.4238C48.6775 40.7795 49.5227 39.8117 49.9755 38.6468C50.073 38.4076 50.1439 38.1584 50.1869 37.9037C50.2898 37.1991 50.252 36.4809 50.0758 35.7908C49.8995 35.1006 49.5882 34.452 49.1599 33.8824C48.7315 33.3128 48.1945 32.8334 47.5799 32.4718C46.9652 32.1103 46.2851 31.8737 45.5786 31.7757Z" fill="#EF4C29"/>
<path d="M25.9942 24.0248C25.27 23.919 24.6175 23.5303 24.1801 22.9442C23.7427 22.3582 23.5563 21.6227 23.6618 20.8997C23.7338 20.4065 23.7892 20.0295 23.7978 19.976C24.0674 18.2903 24.7358 16.6933 25.7474 15.3174C24.183 16.9094 23.153 18.9478 22.7998 21.1505C22.7912 21.204 22.7358 21.581 22.6639 22.0742C22.5583 22.7972 22.7447 23.5327 23.1821 24.1187C23.6195 24.7048 24.2721 25.0935 24.9962 25.1993C25.5914 25.286 26.1984 25.1763 26.7253 24.8871C27.2521 24.5978 27.6699 24.1446 27.9152 23.5965C27.3499 23.9711 26.6656 24.1237 25.9942 24.0248Z" fill="#3F3D56"/>
<path d="M41.0712 37.6938C40.7105 37.6411 40.3855 37.4475 40.1677 37.1556C39.9499 36.8637 39.857 36.4975 39.9096 36.1374C39.9454 35.8918 39.973 35.7041 39.9773 35.6774C40.1116 34.8379 40.4445 34.0425 40.9482 33.3573C40.1691 34.1502 39.6562 35.1653 39.4803 36.2623C39.476 36.289 39.4484 36.4767 39.4126 36.7223C39.36 37.0824 39.4529 37.4487 39.6707 37.7405C39.8885 38.0324 40.2135 38.226 40.5742 38.2787C40.8705 38.3219 41.1729 38.2673 41.4353 38.1232C41.6976 37.9791 41.9057 37.7534 42.0279 37.4805C41.7463 37.667 41.4055 37.743 41.0712 37.6938Z" fill="#3F3D56"/>
<path d="M34.3918 17.9132C35.2232 18.0754 36.0028 18.4366 36.6637 18.9659C37.3247 19.4951 37.8471 20.1765 38.1863 20.9516C38.5255 21.7267 38.6713 22.5724 38.6111 23.416C38.5509 24.2596 38.2866 25.0759 37.8408 25.7948C38.4061 25.2993 38.8577 24.6879 39.1648 24.0022C39.4719 23.3165 39.6274 22.5727 39.6205 21.8215C39.6136 21.0702 39.4445 20.3292 39.1249 19.649C38.8052 18.9688 38.3424 18.3653 37.7681 17.8797C37.1938 17.3942 36.5214 17.0379 35.7968 16.8353C35.0722 16.6326 34.3125 16.5883 33.5693 16.7054C32.8262 16.8225 32.1172 17.0982 31.4906 17.5138C30.864 17.9294 30.3345 18.475 29.9383 19.1135C30.5389 18.5863 31.2528 18.2038 32.0249 17.9957C32.7971 17.7876 33.6068 17.7594 34.3918 17.9132Z" fill="#3F3D56"/>
<path d="M45.2534 34.6506C45.6674 34.7314 46.0557 34.9112 46.3849 35.1748C46.714 35.4384 46.9742 35.7777 47.1431 36.1638C47.3121 36.5498 47.3847 36.9709 47.3547 37.3911C47.3247 37.8112 47.1931 38.2177 46.971 38.5757C47.2526 38.329 47.4775 38.0245 47.6305 37.683C47.7834 37.3415 47.8608 36.9711 47.8574 36.5969C47.8539 36.2228 47.7698 35.8538 47.6106 35.515C47.4514 35.1763 47.2209 34.8757 46.9349 34.6339C46.6488 34.3921 46.314 34.2147 45.9531 34.1137C45.5923 34.0128 45.2139 33.9908 44.8438 34.0491C44.4737 34.1074 44.1206 34.2447 43.8085 34.4517C43.4965 34.6586 43.2328 34.9304 43.0355 35.2483C43.3346 34.9858 43.6901 34.7953 44.0747 34.6917C44.4592 34.588 44.8625 34.574 45.2534 34.6506Z" fill="#3F3D56"/>
<path d="M31.7049 42.1867C30.9661 42.079 30.2992 41.6856 29.8481 41.0914C29.397 40.4973 29.1978 39.7499 29.2935 39.0107C29.5714 36.8682 29.9382 34.2322 29.9822 33.9312C30.0886 33.1989 30.3006 32.4859 30.6114 31.8143L30.6105 31.8139C30.7849 31.4795 30.9836 31.1583 31.2049 30.8527C30.5708 31.4817 30.0341 32.2015 29.6125 32.9884L29.6135 32.9888C29.3026 33.6604 29.0907 34.3734 28.9842 35.1057C28.9403 35.4067 28.5734 38.0427 28.2956 40.1852C28.1998 40.9245 28.399 41.6718 28.8502 42.2659C29.3013 42.8601 29.9682 43.2535 30.7069 43.3612C31.3161 43.45 31.9376 43.3393 32.4781 43.0456C33.0187 42.7519 33.4493 42.291 33.7053 41.7322C33.1188 42.1278 32.4053 42.29 31.7049 42.1867Z" fill="#3F3D56"/>
<path d="M43.9148 46.7389C43.5468 46.6852 43.2147 46.4893 42.99 46.1934C42.7654 45.8975 42.6662 45.5253 42.7138 45.1572C42.8522 44.0902 43.0349 42.7774 43.0568 42.6275C43.1098 42.2628 43.2154 41.9077 43.3702 41.5733L43.3697 41.5731C43.4566 41.4065 43.5555 41.2465 43.6657 41.0944C43.3499 41.4076 43.0827 41.7661 42.8727 42.158L42.8732 42.1582C42.7184 42.4927 42.6128 42.8477 42.5598 43.2124C42.5379 43.3623 42.3552 44.6751 42.2168 45.7421C42.1692 46.1103 42.2684 46.4824 42.493 46.7784C42.7177 47.0743 43.0498 47.2702 43.4178 47.3238C43.7211 47.368 44.0306 47.3129 44.2999 47.1666C44.5691 47.0204 44.7835 46.7908 44.911 46.5125C44.6189 46.7096 44.2636 46.7903 43.9148 46.7389Z" fill="#3F3D56"/>
<path d="M28.5504 53.6692C28.0552 53.362 27.6383 52.9442 27.3324 52.4487C27.0266 51.9531 26.8402 51.3935 26.7881 50.8138C26.7359 50.2341 26.8194 49.6504 27.0319 49.1086C27.2444 48.5668 27.5801 48.0817 28.0126 47.6918C27.5409 47.9403 27.1276 48.2861 26.8001 48.7064C26.4726 49.1266 26.2384 49.6117 26.1131 50.1293C25.9877 50.6469 25.9741 51.1853 26.073 51.7087C26.172 52.2321 26.3813 52.7286 26.687 53.1651C26.9928 53.6017 27.388 53.9683 27.8465 54.2408C28.3049 54.5132 28.8161 54.6852 29.3461 54.7453C29.8762 54.8055 30.4129 54.7523 30.9207 54.5895C31.4284 54.4267 31.8957 54.1578 32.2914 53.8009C31.7108 54.1071 31.0599 54.2561 30.4036 54.233C29.7472 54.2099 29.1083 54.0155 28.5504 53.6692Z" fill="#3F3D56"/>
<path d="M42.3439 52.458C42.0973 52.3051 41.8896 52.097 41.7373 51.8502C41.585 51.6034 41.4922 51.3247 41.4662 51.036C41.4402 50.7473 41.4818 50.4566 41.5876 50.1868C41.6934 49.9169 41.8606 49.6754 42.076 49.4812C41.8411 49.6049 41.6353 49.7772 41.4722 49.9865C41.3091 50.1958 41.1925 50.4373 41.13 50.6951C41.0676 50.9529 41.0608 51.221 41.1101 51.4817C41.1594 51.7424 41.2636 51.9896 41.4159 52.207C41.5681 52.4244 41.765 52.607 41.9933 52.7427C42.2216 52.8784 42.4762 52.964 42.7402 52.994C43.0041 53.0239 43.2714 52.9975 43.5243 52.9164C43.7772 52.8353 44.0099 52.7014 44.2069 52.5236C43.9178 52.6761 43.5936 52.7504 43.2668 52.7388C42.9399 52.7273 42.6217 52.6305 42.3439 52.458Z" fill="#3F3D56"/>
</g>
<defs>
<clipPath id="clip0_5557_16081">
<rect width="62.232" height="54.2964" fill="white" transform="translate(7.8457) rotate(8.30821)"/>
</clipPath>
</defs>
</svg>
