<svg width="40" height="40" viewBox="0 0 40 40" fill="none" xmlns="http://www.w3.org/2000/svg">
<rect width="40" height="40" rx="10" fill="#F99E3F" fill-opacity="0.15"/>
<path d="M11.3496 19.6249V16.0649C11.3496 15.7997 11.455 15.5454 11.6425 15.3578C11.83 15.1703 12.0844 15.0649 12.3496 15.0649H28.7496C29.0148 15.0649 29.2692 15.1703 29.4567 15.3578C29.6443 15.5454 29.7496 15.7997 29.7496 16.0649V27.5649C29.7496 27.8302 29.6443 28.0845 29.4567 28.272C29.2692 28.4596 29.0148 28.5649 28.7496 28.5649H12.3496C12.0844 28.5649 11.83 28.4596 11.6425 28.272C11.455 28.0845 11.3496 27.8302 11.3496 27.5649V23.9999" stroke="#EF4C29" stroke-linecap="round" stroke-linejoin="round"/>
<path d="M10.75 19.625H16.5C16.7652 19.625 17.0196 19.7304 17.2071 19.9179C17.3946 20.1054 17.5 20.3598 17.5 20.625V23C17.5 23.2652 17.3946 23.5196 17.2071 23.7071C17.0196 23.8946 16.7652 24 16.5 24H10.75C10.6174 24 10.4902 23.9473 10.3964 23.8536C10.3027 23.7598 10.25 23.6326 10.25 23.5V20.125C10.25 19.9924 10.3027 19.8652 10.3964 19.7714C10.4902 19.6777 10.6174 19.625 10.75 19.625Z" stroke="#EF4C29" stroke-linecap="round" stroke-linejoin="round"/>
<path d="M15.2451 22.8149C15.7974 22.8149 16.2451 22.3672 16.2451 21.8149C16.2451 21.2627 15.7974 20.8149 15.2451 20.8149C14.6928 20.8149 14.2451 21.2627 14.2451 21.8149C14.2451 22.3672 14.6928 22.8149 15.2451 22.8149Z" stroke="#EF4C29" stroke-linecap="round" stroke-linejoin="round"/>
<path d="M27.06 15.0651L14.595 11.4351L13.54 15.0651" stroke="#EF4C29" stroke-linecap="round" stroke-linejoin="round"/>
</svg>
