<svg width="16" height="16" viewBox="0 0 16 16" fill="none" xmlns="http://www.w3.org/2000/svg">
<g clip-path="url(#clip0_2620_37279)">
<path fill-rule="evenodd" clip-rule="evenodd" d="M8.00033 0.666992C3.95033 0.666992 0.666992 3.95033 0.666992 8.00033C0.666992 12.0503 3.95033 15.3337 8.00033 15.3337C12.0503 15.3337 15.3337 12.0503 15.3337 8.00033C15.3337 3.95033 12.0503 0.666992 8.00033 0.666992ZM8.66699 4.66699C8.66699 4.49018 8.59675 4.32061 8.47173 4.19559C8.34671 4.07056 8.17714 4.00033 8.00033 4.00033C7.82351 4.00033 7.65395 4.07056 7.52892 4.19559C7.4039 4.32061 7.33366 4.49018 7.33366 4.66699V8.66699C7.33366 8.8438 7.4039 9.01337 7.52892 9.1384C7.65395 9.26342 7.82351 9.33366 8.00033 9.33366C8.17714 9.33366 8.34671 9.26342 8.47173 9.1384C8.59675 9.01337 8.66699 8.8438 8.66699 8.66699V4.66699ZM8.66699 11.0003C8.66699 10.8235 8.59675 10.6539 8.47173 10.5289C8.34671 10.4039 8.17714 10.3337 8.00033 10.3337C7.82351 10.3337 7.65395 10.4039 7.52892 10.5289C7.4039 10.6539 7.33366 10.8235 7.33366 11.0003V11.3337C7.33366 11.5105 7.4039 11.68 7.52892 11.8051C7.65395 11.9301 7.82351 12.0003 8.00033 12.0003C8.17714 12.0003 8.34671 11.9301 8.47173 11.8051C8.59675 11.68 8.66699 11.5105 8.66699 11.3337V11.0003Z" fill="#E64848"/>
</g>
<defs>
<clipPath id="clip0_2620_37279">
<rect width="16" height="16" fill="white"/>
</clipPath>
</defs>
</svg>
