<svg width="16" height="16" viewBox="0 0 16 16" fill="none" xmlns="http://www.w3.org/2000/svg">
<path fill-rule="evenodd" clip-rule="evenodd" d="M8.00004 14.6663C11.682 14.6663 14.6667 11.6817 14.6667 7.99967C14.6667 4.31767 11.682 1.33301 8.00004 1.33301C4.31804 1.33301 1.33337 4.31767 1.33337 7.99967C1.33337 11.6817 4.31804 14.6663 8.00004 14.6663ZM11.5807 5.88967C11.6119 5.85755 11.6363 5.81946 11.6524 5.7777C11.6686 5.73593 11.6761 5.69134 11.6747 5.64659C11.6732 5.60184 11.6628 5.55784 11.6439 5.51722C11.6251 5.4766 11.5982 5.44019 11.565 5.41018C11.5318 5.38016 11.4929 5.35714 11.4505 5.34249C11.4082 5.32785 11.3634 5.32188 11.3187 5.32495C11.274 5.32801 11.2304 5.34005 11.1905 5.36033C11.1506 5.38061 11.1152 5.40873 11.0864 5.44301L7.09337 9.85534L4.89671 7.75834C4.83279 7.69725 4.74722 7.66406 4.65883 7.66606C4.57044 7.66806 4.48646 7.70509 4.42537 7.76901C4.36429 7.83292 4.33109 7.91849 4.33309 8.00688C4.33509 8.09528 4.37212 8.17925 4.43604 8.24034L6.88071 10.5737L7.12837 10.8103L7.35804 10.5563L11.5804 5.88967H11.5807Z" fill="#00BA88"/>
</svg>
